  0
SECTION
  2
HEADER
  9
$ANGBASE
  50
0.0
  9
$ANGDIR
  70
1
  9
$MEASUREMENT
  70
1
  0
ENDSEC
  0
SECTION
  2
TABLES
  0
TABLE
  2
LTYPE
  70
4
  0
LTYPE
  5
40F
  2
CONTINUOUS
  70
0
  3
Solid line
  72
65
  73
0
  40
0.0
  0
LTYPE
  5
410
  2
DASHDOT
 70
0
  3
Dash Dot ____ _ ____ _
 72
65
 73
4
 40
2.0
 49
1.25
 49
-0.25
 49
0.25
 49
-0.25
  0
LTYPE
  5
411
  2
DASHED
 70
0
  3
Dashed __ __ __ __ __
 72
65
 73
2
 40
0.75
 49
0.5
 49
-0.25
  0
LTYPE
  5
43B
  2
DOTTED
 70
0
  3
Dotted .  .  .  .
 72
65
 73
2
 40
0.2
 49
0.0
 49
-0.2
  0
ENDTAB
  0
TABLE
  2
STYLE
  70
4
  0
STYLE
  2
KICAD
  70
0
  40
0
  41
1
  42
1
  50
0
  71
0
  3
isocp.shx
  0
STYLE
  2
KICADB
  70
0
  40
0
  41
1
  42
1
  50
0
  71
0
  3
isocp.shx
  0
STYLE
  2
KICADI
  70
0
  40
0
  41
1
  42
1
  50
15
  71
0
  3
isocp.shx
  0
STYLE
  2
KICADBI
  70
0
  40
0
  41
1
  42
1
  50
15
  71
0
  3
isocp.shx
  0
ENDTAB
  0
TABLE
  2
LAYER
  70
1
  0
LAYER
  2
BLACK
  70
0
  62
7
  6
CONTINUOUS
  0
ENDTAB
  0
ENDSEC
  0
SECTION
  2
ENTITIES
0
LINE
8
BLACK
6
CONTINUOUS
10
204.2331709999999987
20
-74.5665300000000002
11
204.3142770000000041
21
-74.6207229999999981
0
LINE
8
BLACK
6
CONTINUOUS
10
204.3142770000000041
20
-74.6207229999999981
11
204.3684700000000021
21
-74.7018290000000036
0
LINE
8
BLACK
6
CONTINUOUS
10
204.3684700000000021
20
-74.7018290000000036
11
204.3874999999999886
21
-74.7974999999999994
0
LINE
8
BLACK
6
CONTINUOUS
10
204.3874999999999886
20
-74.7974999999999994
11
204.3874999999999886
21
-75.6974999999999909
0
LINE
8
BLACK
6
CONTINUOUS
10
204.3874999999999886
20
-75.6974999999999909
11
204.3684700000000021
21
-75.793171000000001
0
LINE
8
BLACK
6
CONTINUOUS
10
204.3684700000000021
20
-75.793171000000001
11
204.3142770000000041
21
-75.8742769999999922
0
LINE
8
BLACK
6
CONTINUOUS
10
204.3142770000000041
20
-75.8742769999999922
11
204.2331709999999987
21
-75.9284699999999901
0
LINE
8
BLACK
6
CONTINUOUS
10
204.2331709999999987
20
-75.9284699999999901
11
204.1374999999999886
21
-75.9474999999999909
0
LINE
8
BLACK
6
CONTINUOUS
10
204.1374999999999886
20
-75.9474999999999909
11
203.4375
21
-75.9474999999999909
0
LINE
8
BLACK
6
CONTINUOUS
10
203.4375
20
-75.9474999999999909
11
203.3418289999999899
21
-75.9284699999999901
0
LINE
8
BLACK
6
CONTINUOUS
10
203.3418289999999899
20
-75.9284699999999901
11
203.2607229999999845
21
-75.8742769999999922
0
LINE
8
BLACK
6
CONTINUOUS
10
203.2607229999999845
20
-75.8742769999999922
11
203.2065299999999866
21
-75.793171000000001
0
LINE
8
BLACK
6
CONTINUOUS
10
203.2065299999999866
20
-75.793171000000001
11
203.1875
21
-75.6974999999999909
0
LINE
8
BLACK
6
CONTINUOUS
10
203.1875
20
-75.6974999999999909
11
203.1875
21
-74.7974999999999994
0
LINE
8
BLACK
6
CONTINUOUS
10
203.1875
20
-74.7974999999999994
11
203.2065299999999866
21
-74.7018290000000036
0
LINE
8
BLACK
6
CONTINUOUS
10
203.2065299999999866
20
-74.7018290000000036
11
203.2607229999999845
21
-74.6207229999999981
0
LINE
8
BLACK
6
CONTINUOUS
10
203.2607229999999845
20
-74.6207229999999981
11
203.3418289999999899
21
-74.5665300000000002
0
LINE
8
BLACK
6
CONTINUOUS
10
203.3418289999999899
20
-74.5665300000000002
11
203.4375
21
-74.5474999999999994
0
LINE
8
BLACK
6
CONTINUOUS
10
203.4375
20
-74.5474999999999994
11
204.1374999999999886
21
-74.5474999999999994
0
LINE
8
BLACK
6
CONTINUOUS
10
204.1374999999999886
20
-74.5474999999999994
11
204.2331709999999987
21
-74.5665300000000002
0
LINE
8
BLACK
6
CONTINUOUS
10
206.2331709999999987
20
-74.5665300000000002
11
206.3142770000000041
21
-74.6207229999999981
0
LINE
8
BLACK
6
CONTINUOUS
10
206.3142770000000041
20
-74.6207229999999981
11
206.3684700000000021
21
-74.7018290000000036
0
LINE
8
BLACK
6
CONTINUOUS
10
206.3684700000000021
20
-74.7018290000000036
11
206.3874999999999886
21
-74.7974999999999994
0
LINE
8
BLACK
6
CONTINUOUS
10
206.3874999999999886
20
-74.7974999999999994
11
206.3874999999999886
21
-75.6974999999999909
0
LINE
8
BLACK
6
CONTINUOUS
10
206.3874999999999886
20
-75.6974999999999909
11
206.3684700000000021
21
-75.793171000000001
0
LINE
8
BLACK
6
CONTINUOUS
10
206.3684700000000021
20
-75.793171000000001
11
206.3142770000000041
21
-75.8742769999999922
0
LINE
8
BLACK
6
CONTINUOUS
10
206.3142770000000041
20
-75.8742769999999922
11
206.2331709999999987
21
-75.9284699999999901
0
LINE
8
BLACK
6
CONTINUOUS
10
206.2331709999999987
20
-75.9284699999999901
11
206.1374999999999886
21
-75.9474999999999909
0
LINE
8
BLACK
6
CONTINUOUS
10
206.1374999999999886
20
-75.9474999999999909
11
205.4375
21
-75.9474999999999909
0
LINE
8
BLACK
6
CONTINUOUS
10
205.4375
20
-75.9474999999999909
11
205.3418289999999899
21
-75.9284699999999901
0
LINE
8
BLACK
6
CONTINUOUS
10
205.3418289999999899
20
-75.9284699999999901
11
205.2607229999999845
21
-75.8742769999999922
0
LINE
8
BLACK
6
CONTINUOUS
10
205.2607229999999845
20
-75.8742769999999922
11
205.2065299999999866
21
-75.793171000000001
0
LINE
8
BLACK
6
CONTINUOUS
10
205.2065299999999866
20
-75.793171000000001
11
205.1875
21
-75.6974999999999909
0
LINE
8
BLACK
6
CONTINUOUS
10
205.1875
20
-75.6974999999999909
11
205.1875
21
-74.7974999999999994
0
LINE
8
BLACK
6
CONTINUOUS
10
205.1875
20
-74.7974999999999994
11
205.2065299999999866
21
-74.7018290000000036
0
LINE
8
BLACK
6
CONTINUOUS
10
205.2065299999999866
20
-74.7018290000000036
11
205.2607229999999845
21
-74.6207229999999981
0
LINE
8
BLACK
6
CONTINUOUS
10
205.2607229999999845
20
-74.6207229999999981
11
205.3418289999999899
21
-74.5665300000000002
0
LINE
8
BLACK
6
CONTINUOUS
10
205.3418289999999899
20
-74.5665300000000002
11
205.4375
21
-74.5474999999999994
0
LINE
8
BLACK
6
CONTINUOUS
10
205.4375
20
-74.5474999999999994
11
206.1374999999999886
21
-74.5474999999999994
0
LINE
8
BLACK
6
CONTINUOUS
10
206.1374999999999886
20
-74.5474999999999994
11
206.2331709999999987
21
-74.5665300000000002
0
LINE
8
BLACK
6
CONTINUOUS
10
197.1774029999999982
20
-73.3714179999999914
11
197.226066000000003
21
-73.4039339999999925
0
LINE
8
BLACK
6
CONTINUOUS
10
197.226066000000003
20
-73.4039339999999925
11
197.2585819999999899
21
-73.4525969999999973
0
LINE
8
BLACK
6
CONTINUOUS
10
197.2585819999999899
20
-73.4525969999999973
11
197.2699999999999818
21
-73.5099999999999909
0
LINE
8
BLACK
6
CONTINUOUS
10
197.2699999999999818
20
-73.5099999999999909
11
197.2699999999999818
21
-73.8100000000000023
0
LINE
8
BLACK
6
CONTINUOUS
10
197.2699999999999818
20
-73.8100000000000023
11
197.2585819999999899
21
-73.8674029999999959
0
LINE
8
BLACK
6
CONTINUOUS
10
197.2585819999999899
20
-73.8674029999999959
11
197.226066000000003
21
-73.9160660000000007
0
LINE
8
BLACK
6
CONTINUOUS
10
197.226066000000003
20
-73.9160660000000007
11
197.1774029999999982
21
-73.9485820000000018
0
LINE
8
BLACK
6
CONTINUOUS
10
197.1774029999999982
20
-73.9485820000000018
11
197.1200000000000045
21
-73.9599999999999937
0
LINE
8
BLACK
6
CONTINUOUS
10
197.1200000000000045
20
-73.9599999999999937
11
195.9449999999999932
21
-73.9599999999999937
0
LINE
8
BLACK
6
CONTINUOUS
10
195.9449999999999932
20
-73.9599999999999937
11
195.8875969999999995
21
-73.9485820000000018
0
LINE
8
BLACK
6
CONTINUOUS
10
195.8875969999999995
20
-73.9485820000000018
11
195.8389339999999947
21
-73.9160660000000007
0
LINE
8
BLACK
6
CONTINUOUS
10
195.8389339999999947
20
-73.9160660000000007
11
195.8064179999999794
21
-73.8674029999999959
0
LINE
8
BLACK
6
CONTINUOUS
10
195.8064179999999794
20
-73.8674029999999959
11
195.7949999999999875
21
-73.8100000000000023
0
LINE
8
BLACK
6
CONTINUOUS
10
195.7949999999999875
20
-73.8100000000000023
11
195.7949999999999875
21
-73.5099999999999909
0
LINE
8
BLACK
6
CONTINUOUS
10
195.7949999999999875
20
-73.5099999999999909
11
195.8064179999999794
21
-73.4525969999999973
0
LINE
8
BLACK
6
CONTINUOUS
10
195.8064179999999794
20
-73.4525969999999973
11
195.8389339999999947
21
-73.4039339999999925
0
LINE
8
BLACK
6
CONTINUOUS
10
195.8389339999999947
20
-73.4039339999999925
11
195.8875969999999995
21
-73.3714179999999914
0
LINE
8
BLACK
6
CONTINUOUS
10
195.8875969999999995
20
-73.3714179999999914
11
195.9449999999999932
21
-73.3599999999999994
0
LINE
8
BLACK
6
CONTINUOUS
10
195.9449999999999932
20
-73.3599999999999994
11
197.1200000000000045
21
-73.3599999999999994
0
LINE
8
BLACK
6
CONTINUOUS
10
197.1200000000000045
20
-73.3599999999999994
11
197.1774029999999982
21
-73.3714179999999914
0
LINE
8
BLACK
6
CONTINUOUS
10
204.2331709999999987
20
-72.0265299999999939
11
204.3142770000000041
21
-72.0807229999999919
0
LINE
8
BLACK
6
CONTINUOUS
10
204.3142770000000041
20
-72.0807229999999919
11
204.3684700000000021
21
-72.1618289999999973
0
LINE
8
BLACK
6
CONTINUOUS
10
204.3684700000000021
20
-72.1618289999999973
11
204.3874999999999886
21
-72.2574999999999932
0
LINE
8
BLACK
6
CONTINUOUS
10
204.3874999999999886
20
-72.2574999999999932
11
204.3874999999999886
21
-73.1574999999999989
0
LINE
8
BLACK
6
CONTINUOUS
10
204.3874999999999886
20
-73.1574999999999989
11
204.3684700000000021
21
-73.2531709999999947
0
LINE
8
BLACK
6
CONTINUOUS
10
204.3684700000000021
20
-73.2531709999999947
11
204.3142770000000041
21
-73.3342770000000002
0
LINE
8
BLACK
6
CONTINUOUS
10
204.3142770000000041
20
-73.3342770000000002
11
204.2331709999999987
21
-73.3884699999999981
0
LINE
8
BLACK
6
CONTINUOUS
10
204.2331709999999987
20
-73.3884699999999981
11
204.1374999999999886
21
-73.4074999999999989
0
LINE
8
BLACK
6
CONTINUOUS
10
204.1374999999999886
20
-73.4074999999999989
11
203.4375
21
-73.4074999999999989
0
LINE
8
BLACK
6
CONTINUOUS
10
203.4375
20
-73.4074999999999989
11
203.3418289999999899
21
-73.3884699999999981
0
LINE
8
BLACK
6
CONTINUOUS
10
203.3418289999999899
20
-73.3884699999999981
11
203.2607229999999845
21
-73.3342770000000002
0
LINE
8
BLACK
6
CONTINUOUS
10
203.2607229999999845
20
-73.3342770000000002
11
203.2065299999999866
21
-73.2531709999999947
0
LINE
8
BLACK
6
CONTINUOUS
10
203.2065299999999866
20
-73.2531709999999947
11
203.1875
21
-73.1574999999999989
0
LINE
8
BLACK
6
CONTINUOUS
10
203.1875
20
-73.1574999999999989
11
203.1875
21
-72.2574999999999932
0
LINE
8
BLACK
6
CONTINUOUS
10
203.1875
20
-72.2574999999999932
11
203.2065299999999866
21
-72.1618289999999973
0
LINE
8
BLACK
6
CONTINUOUS
10
203.2065299999999866
20
-72.1618289999999973
11
203.2607229999999845
21
-72.0807229999999919
0
LINE
8
BLACK
6
CONTINUOUS
10
203.2607229999999845
20
-72.0807229999999919
11
203.3418289999999899
21
-72.0265299999999939
0
LINE
8
BLACK
6
CONTINUOUS
10
203.3418289999999899
20
-72.0265299999999939
11
203.4375
21
-72.0074999999999932
0
LINE
8
BLACK
6
CONTINUOUS
10
203.4375
20
-72.0074999999999932
11
204.1374999999999886
21
-72.0074999999999932
0
LINE
8
BLACK
6
CONTINUOUS
10
204.1374999999999886
20
-72.0074999999999932
11
204.2331709999999987
21
-72.0265299999999939
0
LINE
8
BLACK
6
CONTINUOUS
10
206.2331709999999987
20
-72.0265299999999939
11
206.3142770000000041
21
-72.0807229999999919
0
LINE
8
BLACK
6
CONTINUOUS
10
206.3142770000000041
20
-72.0807229999999919
11
206.3684700000000021
21
-72.1618289999999973
0
LINE
8
BLACK
6
CONTINUOUS
10
206.3684700000000021
20
-72.1618289999999973
11
206.3874999999999886
21
-72.2574999999999932
0
LINE
8
BLACK
6
CONTINUOUS
10
206.3874999999999886
20
-72.2574999999999932
11
206.3874999999999886
21
-73.1574999999999989
0
LINE
8
BLACK
6
CONTINUOUS
10
206.3874999999999886
20
-73.1574999999999989
11
206.3684700000000021
21
-73.2531709999999947
0
LINE
8
BLACK
6
CONTINUOUS
10
206.3684700000000021
20
-73.2531709999999947
11
206.3142770000000041
21
-73.3342770000000002
0
LINE
8
BLACK
6
CONTINUOUS
10
206.3142770000000041
20
-73.3342770000000002
11
206.2331709999999987
21
-73.3884699999999981
0
LINE
8
BLACK
6
CONTINUOUS
10
206.2331709999999987
20
-73.3884699999999981
11
206.1374999999999886
21
-73.4074999999999989
0
LINE
8
BLACK
6
CONTINUOUS
10
206.1374999999999886
20
-73.4074999999999989
11
205.4375
21
-73.4074999999999989
0
LINE
8
BLACK
6
CONTINUOUS
10
205.4375
20
-73.4074999999999989
11
205.3418289999999899
21
-73.3884699999999981
0
LINE
8
BLACK
6
CONTINUOUS
10
205.3418289999999899
20
-73.3884699999999981
11
205.2607229999999845
21
-73.3342770000000002
0
LINE
8
BLACK
6
CONTINUOUS
10
205.2607229999999845
20
-73.3342770000000002
11
205.2065299999999866
21
-73.2531709999999947
0
LINE
8
BLACK
6
CONTINUOUS
10
205.2065299999999866
20
-73.2531709999999947
11
205.1875
21
-73.1574999999999989
0
LINE
8
BLACK
6
CONTINUOUS
10
205.1875
20
-73.1574999999999989
11
205.1875
21
-72.2574999999999932
0
LINE
8
BLACK
6
CONTINUOUS
10
205.1875
20
-72.2574999999999932
11
205.2065299999999866
21
-72.1618289999999973
0
LINE
8
BLACK
6
CONTINUOUS
10
205.2065299999999866
20
-72.1618289999999973
11
205.2607229999999845
21
-72.0807229999999919
0
LINE
8
BLACK
6
CONTINUOUS
10
205.2607229999999845
20
-72.0807229999999919
11
205.3418289999999899
21
-72.0265299999999939
0
LINE
8
BLACK
6
CONTINUOUS
10
205.3418289999999899
20
-72.0265299999999939
11
205.4375
21
-72.0074999999999932
0
LINE
8
BLACK
6
CONTINUOUS
10
205.4375
20
-72.0074999999999932
11
206.1374999999999886
21
-72.0074999999999932
0
LINE
8
BLACK
6
CONTINUOUS
10
206.1374999999999886
20
-72.0074999999999932
11
206.2331709999999987
21
-72.0265299999999939
0
LINE
8
BLACK
6
CONTINUOUS
10
189.458170999999993
20
-71.8565299999999922
11
189.5392769999999985
21
-71.9107229999999902
0
LINE
8
BLACK
6
CONTINUOUS
10
189.5392769999999985
20
-71.9107229999999902
11
189.5934699999999964
21
-71.9918289999999956
0
LINE
8
BLACK
6
CONTINUOUS
10
189.5934699999999964
20
-71.9918289999999956
11
189.6124999999999829
21
-72.0874999999999915
0
LINE
8
BLACK
6
CONTINUOUS
10
189.6124999999999829
20
-72.0874999999999915
11
189.6124999999999829
21
-72.7874999999999943
0
LINE
8
BLACK
6
CONTINUOUS
10
189.6124999999999829
20
-72.7874999999999943
11
189.5934699999999964
21
-72.8831709999999902
0
LINE
8
BLACK
6
CONTINUOUS
10
189.5934699999999964
20
-72.8831709999999902
11
189.5392769999999985
21
-72.9642769999999956
0
LINE
8
BLACK
6
CONTINUOUS
10
189.5392769999999985
20
-72.9642769999999956
11
189.458170999999993
21
-73.0184699999999935
0
LINE
8
BLACK
6
CONTINUOUS
10
189.458170999999993
20
-73.0184699999999935
11
189.3624999999999829
21
-73.0374999999999943
0
LINE
8
BLACK
6
CONTINUOUS
10
189.3624999999999829
20
-73.0374999999999943
11
188.4624999999999773
21
-73.0374999999999943
0
LINE
8
BLACK
6
CONTINUOUS
10
188.4624999999999773
20
-73.0374999999999943
11
188.3668289999999956
21
-73.0184699999999935
0
LINE
8
BLACK
6
CONTINUOUS
10
188.3668289999999956
20
-73.0184699999999935
11
188.2857229999999902
21
-72.9642769999999956
0
LINE
8
BLACK
6
CONTINUOUS
10
188.2857229999999902
20
-72.9642769999999956
11
188.2315299999999922
21
-72.8831709999999902
0
LINE
8
BLACK
6
CONTINUOUS
10
188.2315299999999922
20
-72.8831709999999902
11
188.2125000000000057
21
-72.7874999999999943
0
LINE
8
BLACK
6
CONTINUOUS
10
188.2125000000000057
20
-72.7874999999999943
11
188.2125000000000057
21
-72.0874999999999915
0
LINE
8
BLACK
6
CONTINUOUS
10
188.2125000000000057
20
-72.0874999999999915
11
188.2315299999999922
21
-71.9918289999999956
0
LINE
8
BLACK
6
CONTINUOUS
10
188.2315299999999922
20
-71.9918289999999956
11
188.2857229999999902
21
-71.9107229999999902
0
LINE
8
BLACK
6
CONTINUOUS
10
188.2857229999999902
20
-71.9107229999999902
11
188.3668289999999956
21
-71.8565299999999922
0
LINE
8
BLACK
6
CONTINUOUS
10
188.3668289999999956
20
-71.8565299999999922
11
188.4624999999999773
21
-71.8374999999999915
0
LINE
8
BLACK
6
CONTINUOUS
10
188.4624999999999773
20
-71.8374999999999915
11
189.3624999999999829
21
-71.8374999999999915
0
LINE
8
BLACK
6
CONTINUOUS
10
189.3624999999999829
20
-71.8374999999999915
11
189.458170999999993
21
-71.8565299999999922
0
LINE
8
BLACK
6
CONTINUOUS
10
191.998170999999985
20
-71.8565299999999922
11
192.0792769999999905
21
-71.9107229999999902
0
LINE
8
BLACK
6
CONTINUOUS
10
192.0792769999999905
20
-71.9107229999999902
11
192.1334699999999884
21
-71.9918289999999956
0
LINE
8
BLACK
6
CONTINUOUS
10
192.1334699999999884
20
-71.9918289999999956
11
192.1525000000000034
21
-72.0874999999999915
0
LINE
8
BLACK
6
CONTINUOUS
10
192.1525000000000034
20
-72.0874999999999915
11
192.1525000000000034
21
-72.7874999999999943
0
LINE
8
BLACK
6
CONTINUOUS
10
192.1525000000000034
20
-72.7874999999999943
11
192.1334699999999884
21
-72.8831709999999902
0
LINE
8
BLACK
6
CONTINUOUS
10
192.1334699999999884
20
-72.8831709999999902
11
192.0792769999999905
21
-72.9642769999999956
0
LINE
8
BLACK
6
CONTINUOUS
10
192.0792769999999905
20
-72.9642769999999956
11
191.998170999999985
21
-73.0184699999999935
0
LINE
8
BLACK
6
CONTINUOUS
10
191.998170999999985
20
-73.0184699999999935
11
191.9025000000000034
21
-73.0374999999999943
0
LINE
8
BLACK
6
CONTINUOUS
10
191.9025000000000034
20
-73.0374999999999943
11
191.0024999999999977
21
-73.0374999999999943
0
LINE
8
BLACK
6
CONTINUOUS
10
191.0024999999999977
20
-73.0374999999999943
11
190.9068289999999877
21
-73.0184699999999935
0
LINE
8
BLACK
6
CONTINUOUS
10
190.9068289999999877
20
-73.0184699999999935
11
190.8257229999999822
21
-72.9642769999999956
0
LINE
8
BLACK
6
CONTINUOUS
10
190.8257229999999822
20
-72.9642769999999956
11
190.7715299999999843
21
-72.8831709999999902
0
LINE
8
BLACK
6
CONTINUOUS
10
190.7715299999999843
20
-72.8831709999999902
11
190.7524999999999977
21
-72.7874999999999943
0
LINE
8
BLACK
6
CONTINUOUS
10
190.7524999999999977
20
-72.7874999999999943
11
190.7524999999999977
21
-72.0874999999999915
0
LINE
8
BLACK
6
CONTINUOUS
10
190.7524999999999977
20
-72.0874999999999915
11
190.7715299999999843
21
-71.9918289999999956
0
LINE
8
BLACK
6
CONTINUOUS
10
190.7715299999999843
20
-71.9918289999999956
11
190.8257229999999822
21
-71.9107229999999902
0
LINE
8
BLACK
6
CONTINUOUS
10
190.8257229999999822
20
-71.9107229999999902
11
190.9068289999999877
21
-71.8565299999999922
0
LINE
8
BLACK
6
CONTINUOUS
10
190.9068289999999877
20
-71.8565299999999922
11
191.0024999999999977
21
-71.8374999999999915
0
LINE
8
BLACK
6
CONTINUOUS
10
191.0024999999999977
20
-71.8374999999999915
11
191.9025000000000034
21
-71.8374999999999915
0
LINE
8
BLACK
6
CONTINUOUS
10
191.9025000000000034
20
-71.8374999999999915
11
191.998170999999985
21
-71.8565299999999922
0
LINE
8
BLACK
6
CONTINUOUS
10
199.0524029999999982
20
-72.4214180000000027
11
199.101066000000003
21
-72.4539339999999896
0
LINE
8
BLACK
6
CONTINUOUS
10
199.101066000000003
20
-72.4539339999999896
11
199.1335819999999899
21
-72.5025969999999944
0
LINE
8
BLACK
6
CONTINUOUS
10
199.1335819999999899
20
-72.5025969999999944
11
199.1449999999999818
21
-72.5600000000000023
0
LINE
8
BLACK
6
CONTINUOUS
10
199.1449999999999818
20
-72.5600000000000023
11
199.1449999999999818
21
-72.8599999999999994
0
LINE
8
BLACK
6
CONTINUOUS
10
199.1449999999999818
20
-72.8599999999999994
11
199.1335819999999899
21
-72.9174029999999931
0
LINE
8
BLACK
6
CONTINUOUS
10
199.1335819999999899
20
-72.9174029999999931
11
199.101066000000003
21
-72.9660659999999979
0
LINE
8
BLACK
6
CONTINUOUS
10
199.101066000000003
20
-72.9660659999999979
11
199.0524029999999982
21
-72.998581999999999
0
LINE
8
BLACK
6
CONTINUOUS
10
199.0524029999999982
20
-72.998581999999999
11
198.9950000000000045
21
-73.0099999999999909
0
LINE
8
BLACK
6
CONTINUOUS
10
198.9950000000000045
20
-73.0099999999999909
11
197.8199999999999932
21
-73.0099999999999909
0
LINE
8
BLACK
6
CONTINUOUS
10
197.8199999999999932
20
-73.0099999999999909
11
197.7625969999999995
21
-72.998581999999999
0
LINE
8
BLACK
6
CONTINUOUS
10
197.7625969999999995
20
-72.998581999999999
11
197.7139339999999947
21
-72.9660659999999979
0
LINE
8
BLACK
6
CONTINUOUS
10
197.7139339999999947
20
-72.9660659999999979
11
197.6814179999999794
21
-72.9174029999999931
0
LINE
8
BLACK
6
CONTINUOUS
10
197.6814179999999794
20
-72.9174029999999931
11
197.6699999999999875
21
-72.8599999999999994
0
LINE
8
BLACK
6
CONTINUOUS
10
197.6699999999999875
20
-72.8599999999999994
11
197.6699999999999875
21
-72.5600000000000023
0
LINE
8
BLACK
6
CONTINUOUS
10
197.6699999999999875
20
-72.5600000000000023
11
197.6814179999999794
21
-72.5025969999999944
0
LINE
8
BLACK
6
CONTINUOUS
10
197.6814179999999794
20
-72.5025969999999944
11
197.7139339999999947
21
-72.4539339999999896
0
LINE
8
BLACK
6
CONTINUOUS
10
197.7139339999999947
20
-72.4539339999999896
11
197.7625969999999995
21
-72.4214180000000027
0
LINE
8
BLACK
6
CONTINUOUS
10
197.7625969999999995
20
-72.4214180000000027
11
197.8199999999999932
21
-72.4099999999999966
0
LINE
8
BLACK
6
CONTINUOUS
10
197.8199999999999932
20
-72.4099999999999966
11
198.9950000000000045
21
-72.4099999999999966
0
LINE
8
BLACK
6
CONTINUOUS
10
198.9950000000000045
20
-72.4099999999999966
11
199.0524029999999982
21
-72.4214180000000027
0
LINE
8
BLACK
6
CONTINUOUS
10
167.7206709999999816
20
-71.391530000000003
11
167.8017769999999871
21
-71.445723000000001
0
LINE
8
BLACK
6
CONTINUOUS
10
167.8017769999999871
20
-71.445723000000001
11
167.855969999999985
21
-71.5268289999999922
0
LINE
8
BLACK
6
CONTINUOUS
10
167.855969999999985
20
-71.5268289999999922
11
167.875
21
-71.6225000000000023
0
LINE
8
BLACK
6
CONTINUOUS
10
167.875
20
-71.6225000000000023
11
167.875
21
-72.5224999999999937
0
LINE
8
BLACK
6
CONTINUOUS
10
167.875
20
-72.5224999999999937
11
167.855969999999985
21
-72.6181710000000038
0
LINE
8
BLACK
6
CONTINUOUS
10
167.855969999999985
20
-72.6181710000000038
11
167.8017769999999871
21
-72.699276999999995
0
LINE
8
BLACK
6
CONTINUOUS
10
167.8017769999999871
20
-72.699276999999995
11
167.7206709999999816
21
-72.753469999999993
0
LINE
8
BLACK
6
CONTINUOUS
10
167.7206709999999816
20
-72.753469999999993
11
167.625
21
-72.7724999999999937
0
LINE
8
BLACK
6
CONTINUOUS
10
167.625
20
-72.7724999999999937
11
166.9249999999999829
21
-72.7724999999999937
0
LINE
8
BLACK
6
CONTINUOUS
10
166.9249999999999829
20
-72.7724999999999937
11
166.8293290000000013
21
-72.753469999999993
0
LINE
8
BLACK
6
CONTINUOUS
10
166.8293290000000013
20
-72.753469999999993
11
166.7482229999999959
21
-72.699276999999995
0
LINE
8
BLACK
6
CONTINUOUS
10
166.7482229999999959
20
-72.699276999999995
11
166.6940299999999979
21
-72.6181710000000038
0
LINE
8
BLACK
6
CONTINUOUS
10
166.6940299999999979
20
-72.6181710000000038
11
166.6749999999999829
21
-72.5224999999999937
0
LINE
8
BLACK
6
CONTINUOUS
10
166.6749999999999829
20
-72.5224999999999937
11
166.6749999999999829
21
-71.6225000000000023
0
LINE
8
BLACK
6
CONTINUOUS
10
166.6749999999999829
20
-71.6225000000000023
11
166.6940299999999979
21
-71.5268289999999922
0
LINE
8
BLACK
6
CONTINUOUS
10
166.6940299999999979
20
-71.5268289999999922
11
166.7482229999999959
21
-71.445723000000001
0
LINE
8
BLACK
6
CONTINUOUS
10
166.7482229999999959
20
-71.445723000000001
11
166.8293290000000013
21
-71.391530000000003
0
LINE
8
BLACK
6
CONTINUOUS
10
166.8293290000000013
20
-71.391530000000003
11
166.9249999999999829
21
-71.3725000000000023
0
LINE
8
BLACK
6
CONTINUOUS
10
166.9249999999999829
20
-71.3725000000000023
11
167.625
21
-71.3725000000000023
0
LINE
8
BLACK
6
CONTINUOUS
10
167.625
20
-71.3725000000000023
11
167.7206709999999816
21
-71.391530000000003
0
LINE
8
BLACK
6
CONTINUOUS
10
169.7206709999999816
20
-71.391530000000003
11
169.8017769999999871
21
-71.445723000000001
0
LINE
8
BLACK
6
CONTINUOUS
10
169.8017769999999871
20
-71.445723000000001
11
169.855969999999985
21
-71.5268289999999922
0
LINE
8
BLACK
6
CONTINUOUS
10
169.855969999999985
20
-71.5268289999999922
11
169.875
21
-71.6225000000000023
0
LINE
8
BLACK
6
CONTINUOUS
10
169.875
20
-71.6225000000000023
11
169.875
21
-72.5224999999999937
0
LINE
8
BLACK
6
CONTINUOUS
10
169.875
20
-72.5224999999999937
11
169.855969999999985
21
-72.6181710000000038
0
LINE
8
BLACK
6
CONTINUOUS
10
169.855969999999985
20
-72.6181710000000038
11
169.8017769999999871
21
-72.699276999999995
0
LINE
8
BLACK
6
CONTINUOUS
10
169.8017769999999871
20
-72.699276999999995
11
169.7206709999999816
21
-72.753469999999993
0
LINE
8
BLACK
6
CONTINUOUS
10
169.7206709999999816
20
-72.753469999999993
11
169.625
21
-72.7724999999999937
0
LINE
8
BLACK
6
CONTINUOUS
10
169.625
20
-72.7724999999999937
11
168.9249999999999829
21
-72.7724999999999937
0
LINE
8
BLACK
6
CONTINUOUS
10
168.9249999999999829
20
-72.7724999999999937
11
168.8293290000000013
21
-72.753469999999993
0
LINE
8
BLACK
6
CONTINUOUS
10
168.8293290000000013
20
-72.753469999999993
11
168.7482229999999959
21
-72.699276999999995
0
LINE
8
BLACK
6
CONTINUOUS
10
168.7482229999999959
20
-72.699276999999995
11
168.6940299999999979
21
-72.6181710000000038
0
LINE
8
BLACK
6
CONTINUOUS
10
168.6940299999999979
20
-72.6181710000000038
11
168.6749999999999829
21
-72.5224999999999937
0
LINE
8
BLACK
6
CONTINUOUS
10
168.6749999999999829
20
-72.5224999999999937
11
168.6749999999999829
21
-71.6225000000000023
0
LINE
8
BLACK
6
CONTINUOUS
10
168.6749999999999829
20
-71.6225000000000023
11
168.6940299999999979
21
-71.5268289999999922
0
LINE
8
BLACK
6
CONTINUOUS
10
168.6940299999999979
20
-71.5268289999999922
11
168.7482229999999959
21
-71.445723000000001
0
LINE
8
BLACK
6
CONTINUOUS
10
168.7482229999999959
20
-71.445723000000001
11
168.8293290000000013
21
-71.391530000000003
0
LINE
8
BLACK
6
CONTINUOUS
10
168.8293290000000013
20
-71.391530000000003
11
168.9249999999999829
21
-71.3725000000000023
0
LINE
8
BLACK
6
CONTINUOUS
10
168.9249999999999829
20
-71.3725000000000023
11
169.625
21
-71.3725000000000023
0
LINE
8
BLACK
6
CONTINUOUS
10
169.625
20
-71.3725000000000023
11
169.7206709999999816
21
-71.391530000000003
0
LINE
8
BLACK
6
CONTINUOUS
10
171.8481709999999794
20
-71.391530000000003
11
171.9292769999999848
21
-71.445723000000001
0
LINE
8
BLACK
6
CONTINUOUS
10
171.9292769999999848
20
-71.445723000000001
11
171.9834699999999827
21
-71.5268289999999922
0
LINE
8
BLACK
6
CONTINUOUS
10
171.9834699999999827
20
-71.5268289999999922
11
172.0024999999999977
21
-71.6225000000000023
0
LINE
8
BLACK
6
CONTINUOUS
10
172.0024999999999977
20
-71.6225000000000023
11
172.0024999999999977
21
-72.5224999999999937
0
LINE
8
BLACK
6
CONTINUOUS
10
172.0024999999999977
20
-72.5224999999999937
11
171.9834699999999827
21
-72.6181710000000038
0
LINE
8
BLACK
6
CONTINUOUS
10
171.9834699999999827
20
-72.6181710000000038
11
171.9292769999999848
21
-72.699276999999995
0
LINE
8
BLACK
6
CONTINUOUS
10
171.9292769999999848
20
-72.699276999999995
11
171.8481709999999794
21
-72.753469999999993
0
LINE
8
BLACK
6
CONTINUOUS
10
171.8481709999999794
20
-72.753469999999993
11
171.7524999999999977
21
-72.7724999999999937
0
LINE
8
BLACK
6
CONTINUOUS
10
171.7524999999999977
20
-72.7724999999999937
11
171.0524999999999807
21
-72.7724999999999937
0
LINE
8
BLACK
6
CONTINUOUS
10
171.0524999999999807
20
-72.7724999999999937
11
170.956828999999999
21
-72.753469999999993
0
LINE
8
BLACK
6
CONTINUOUS
10
170.956828999999999
20
-72.753469999999993
11
170.8757229999999936
21
-72.699276999999995
0
LINE
8
BLACK
6
CONTINUOUS
10
170.8757229999999936
20
-72.699276999999995
11
170.8215299999999957
21
-72.6181710000000038
0
LINE
8
BLACK
6
CONTINUOUS
10
170.8215299999999957
20
-72.6181710000000038
11
170.8024999999999807
21
-72.5224999999999937
0
LINE
8
BLACK
6
CONTINUOUS
10
170.8024999999999807
20
-72.5224999999999937
11
170.8024999999999807
21
-71.6225000000000023
0
LINE
8
BLACK
6
CONTINUOUS
10
170.8024999999999807
20
-71.6225000000000023
11
170.8215299999999957
21
-71.5268289999999922
0
LINE
8
BLACK
6
CONTINUOUS
10
170.8215299999999957
20
-71.5268289999999922
11
170.8757229999999936
21
-71.445723000000001
0
LINE
8
BLACK
6
CONTINUOUS
10
170.8757229999999936
20
-71.445723000000001
11
170.956828999999999
21
-71.391530000000003
0
LINE
8
BLACK
6
CONTINUOUS
10
170.956828999999999
20
-71.391530000000003
11
171.0524999999999807
21
-71.3725000000000023
0
LINE
8
BLACK
6
CONTINUOUS
10
171.0524999999999807
20
-71.3725000000000023
11
171.7524999999999977
21
-71.3725000000000023
0
LINE
8
BLACK
6
CONTINUOUS
10
171.7524999999999977
20
-71.3725000000000023
11
171.8481709999999794
21
-71.391530000000003
0
LINE
8
BLACK
6
CONTINUOUS
10
173.8481709999999794
20
-71.391530000000003
11
173.9292769999999848
21
-71.445723000000001
0
LINE
8
BLACK
6
CONTINUOUS
10
173.9292769999999848
20
-71.445723000000001
11
173.9834699999999827
21
-71.5268289999999922
0
LINE
8
BLACK
6
CONTINUOUS
10
173.9834699999999827
20
-71.5268289999999922
11
174.0024999999999977
21
-71.6225000000000023
0
LINE
8
BLACK
6
CONTINUOUS
10
174.0024999999999977
20
-71.6225000000000023
11
174.0024999999999977
21
-72.5224999999999937
0
LINE
8
BLACK
6
CONTINUOUS
10
174.0024999999999977
20
-72.5224999999999937
11
173.9834699999999827
21
-72.6181710000000038
0
LINE
8
BLACK
6
CONTINUOUS
10
173.9834699999999827
20
-72.6181710000000038
11
173.9292769999999848
21
-72.699276999999995
0
LINE
8
BLACK
6
CONTINUOUS
10
173.9292769999999848
20
-72.699276999999995
11
173.8481709999999794
21
-72.753469999999993
0
LINE
8
BLACK
6
CONTINUOUS
10
173.8481709999999794
20
-72.753469999999993
11
173.7524999999999977
21
-72.7724999999999937
0
LINE
8
BLACK
6
CONTINUOUS
10
173.7524999999999977
20
-72.7724999999999937
11
173.0524999999999807
21
-72.7724999999999937
0
LINE
8
BLACK
6
CONTINUOUS
10
173.0524999999999807
20
-72.7724999999999937
11
172.956828999999999
21
-72.753469999999993
0
LINE
8
BLACK
6
CONTINUOUS
10
172.956828999999999
20
-72.753469999999993
11
172.8757229999999936
21
-72.699276999999995
0
LINE
8
BLACK
6
CONTINUOUS
10
172.8757229999999936
20
-72.699276999999995
11
172.8215299999999957
21
-72.6181710000000038
0
LINE
8
BLACK
6
CONTINUOUS
10
172.8215299999999957
20
-72.6181710000000038
11
172.8024999999999807
21
-72.5224999999999937
0
LINE
8
BLACK
6
CONTINUOUS
10
172.8024999999999807
20
-72.5224999999999937
11
172.8024999999999807
21
-71.6225000000000023
0
LINE
8
BLACK
6
CONTINUOUS
10
172.8024999999999807
20
-71.6225000000000023
11
172.8215299999999957
21
-71.5268289999999922
0
LINE
8
BLACK
6
CONTINUOUS
10
172.8215299999999957
20
-71.5268289999999922
11
172.8757229999999936
21
-71.445723000000001
0
LINE
8
BLACK
6
CONTINUOUS
10
172.8757229999999936
20
-71.445723000000001
11
172.956828999999999
21
-71.391530000000003
0
LINE
8
BLACK
6
CONTINUOUS
10
172.956828999999999
20
-71.391530000000003
11
173.0524999999999807
21
-71.3725000000000023
0
LINE
8
BLACK
6
CONTINUOUS
10
173.0524999999999807
20
-71.3725000000000023
11
173.7524999999999977
21
-71.3725000000000023
0
LINE
8
BLACK
6
CONTINUOUS
10
173.7524999999999977
20
-71.3725000000000023
11
173.8481709999999794
21
-71.391530000000003
0
LINE
8
BLACK
6
CONTINUOUS
10
180.1031710000000032
20
-71.391530000000003
11
180.1842769999999803
21
-71.445723000000001
0
LINE
8
BLACK
6
CONTINUOUS
10
180.1842769999999803
20
-71.445723000000001
11
180.2384699999999782
21
-71.5268289999999922
0
LINE
8
BLACK
6
CONTINUOUS
10
180.2384699999999782
20
-71.5268289999999922
11
180.2574999999999932
21
-71.6225000000000023
0
LINE
8
BLACK
6
CONTINUOUS
10
180.2574999999999932
20
-71.6225000000000023
11
180.2574999999999932
21
-72.5224999999999937
0
LINE
8
BLACK
6
CONTINUOUS
10
180.2574999999999932
20
-72.5224999999999937
11
180.2384699999999782
21
-72.6181710000000038
0
LINE
8
BLACK
6
CONTINUOUS
10
180.2384699999999782
20
-72.6181710000000038
11
180.1842769999999803
21
-72.699276999999995
0
LINE
8
BLACK
6
CONTINUOUS
10
180.1842769999999803
20
-72.699276999999995
11
180.1031710000000032
21
-72.753469999999993
0
LINE
8
BLACK
6
CONTINUOUS
10
180.1031710000000032
20
-72.753469999999993
11
180.0074999999999932
21
-72.7724999999999937
0
LINE
8
BLACK
6
CONTINUOUS
10
180.0074999999999932
20
-72.7724999999999937
11
179.3075000000000045
21
-72.7724999999999937
0
LINE
8
BLACK
6
CONTINUOUS
10
179.3075000000000045
20
-72.7724999999999937
11
179.2118289999999945
21
-72.753469999999993
0
LINE
8
BLACK
6
CONTINUOUS
10
179.2118289999999945
20
-72.753469999999993
11
179.130722999999989
21
-72.699276999999995
0
LINE
8
BLACK
6
CONTINUOUS
10
179.130722999999989
20
-72.699276999999995
11
179.0765299999999911
21
-72.6181710000000038
0
LINE
8
BLACK
6
CONTINUOUS
10
179.0765299999999911
20
-72.6181710000000038
11
179.0575000000000045
21
-72.5224999999999937
0
LINE
8
BLACK
6
CONTINUOUS
10
179.0575000000000045
20
-72.5224999999999937
11
179.0575000000000045
21
-71.6225000000000023
0
LINE
8
BLACK
6
CONTINUOUS
10
179.0575000000000045
20
-71.6225000000000023
11
179.0765299999999911
21
-71.5268289999999922
0
LINE
8
BLACK
6
CONTINUOUS
10
179.0765299999999911
20
-71.5268289999999922
11
179.130722999999989
21
-71.445723000000001
0
LINE
8
BLACK
6
CONTINUOUS
10
179.130722999999989
20
-71.445723000000001
11
179.2118289999999945
21
-71.391530000000003
0
LINE
8
BLACK
6
CONTINUOUS
10
179.2118289999999945
20
-71.391530000000003
11
179.3075000000000045
21
-71.3725000000000023
0
LINE
8
BLACK
6
CONTINUOUS
10
179.3075000000000045
20
-71.3725000000000023
11
180.0074999999999932
21
-71.3725000000000023
0
LINE
8
BLACK
6
CONTINUOUS
10
180.0074999999999932
20
-71.3725000000000023
11
180.1031710000000032
21
-71.391530000000003
0
LINE
8
BLACK
6
CONTINUOUS
10
182.1031710000000032
20
-71.391530000000003
11
182.1842769999999803
21
-71.445723000000001
0
LINE
8
BLACK
6
CONTINUOUS
10
182.1842769999999803
20
-71.445723000000001
11
182.2384699999999782
21
-71.5268289999999922
0
LINE
8
BLACK
6
CONTINUOUS
10
182.2384699999999782
20
-71.5268289999999922
11
182.2574999999999932
21
-71.6225000000000023
0
LINE
8
BLACK
6
CONTINUOUS
10
182.2574999999999932
20
-71.6225000000000023
11
182.2574999999999932
21
-72.5224999999999937
0
LINE
8
BLACK
6
CONTINUOUS
10
182.2574999999999932
20
-72.5224999999999937
11
182.2384699999999782
21
-72.6181710000000038
0
LINE
8
BLACK
6
CONTINUOUS
10
182.2384699999999782
20
-72.6181710000000038
11
182.1842769999999803
21
-72.699276999999995
0
LINE
8
BLACK
6
CONTINUOUS
10
182.1842769999999803
20
-72.699276999999995
11
182.1031710000000032
21
-72.753469999999993
0
LINE
8
BLACK
6
CONTINUOUS
10
182.1031710000000032
20
-72.753469999999993
11
182.0074999999999932
21
-72.7724999999999937
0
LINE
8
BLACK
6
CONTINUOUS
10
182.0074999999999932
20
-72.7724999999999937
11
181.3075000000000045
21
-72.7724999999999937
0
LINE
8
BLACK
6
CONTINUOUS
10
181.3075000000000045
20
-72.7724999999999937
11
181.2118289999999945
21
-72.753469999999993
0
LINE
8
BLACK
6
CONTINUOUS
10
181.2118289999999945
20
-72.753469999999993
11
181.130722999999989
21
-72.699276999999995
0
LINE
8
BLACK
6
CONTINUOUS
10
181.130722999999989
20
-72.699276999999995
11
181.0765299999999911
21
-72.6181710000000038
0
LINE
8
BLACK
6
CONTINUOUS
10
181.0765299999999911
20
-72.6181710000000038
11
181.0575000000000045
21
-72.5224999999999937
0
LINE
8
BLACK
6
CONTINUOUS
10
181.0575000000000045
20
-72.5224999999999937
11
181.0575000000000045
21
-71.6225000000000023
0
LINE
8
BLACK
6
CONTINUOUS
10
181.0575000000000045
20
-71.6225000000000023
11
181.0765299999999911
21
-71.5268289999999922
0
LINE
8
BLACK
6
CONTINUOUS
10
181.0765299999999911
20
-71.5268289999999922
11
181.130722999999989
21
-71.445723000000001
0
LINE
8
BLACK
6
CONTINUOUS
10
181.130722999999989
20
-71.445723000000001
11
181.2118289999999945
21
-71.391530000000003
0
LINE
8
BLACK
6
CONTINUOUS
10
181.2118289999999945
20
-71.391530000000003
11
181.3075000000000045
21
-71.3725000000000023
0
LINE
8
BLACK
6
CONTINUOUS
10
181.3075000000000045
20
-71.3725000000000023
11
182.0074999999999932
21
-71.3725000000000023
0
LINE
8
BLACK
6
CONTINUOUS
10
182.0074999999999932
20
-71.3725000000000023
11
182.1031710000000032
21
-71.391530000000003
0
LINE
8
BLACK
6
CONTINUOUS
10
197.1774029999999982
20
-71.4714179999999999
11
197.226066000000003
21
-71.503934000000001
0
LINE
8
BLACK
6
CONTINUOUS
10
197.226066000000003
20
-71.503934000000001
11
197.2585819999999899
21
-71.5525969999999916
0
LINE
8
BLACK
6
CONTINUOUS
10
197.2585819999999899
20
-71.5525969999999916
11
197.2699999999999818
21
-71.6099999999999994
0
LINE
8
BLACK
6
CONTINUOUS
10
197.2699999999999818
20
-71.6099999999999994
11
197.2699999999999818
21
-71.9099999999999966
0
LINE
8
BLACK
6
CONTINUOUS
10
197.2699999999999818
20
-71.9099999999999966
11
197.2585819999999899
21
-71.9674029999999902
0
LINE
8
BLACK
6
CONTINUOUS
10
197.2585819999999899
20
-71.9674029999999902
11
197.226066000000003
21
-72.016065999999995
0
LINE
8
BLACK
6
CONTINUOUS
10
197.226066000000003
20
-72.016065999999995
11
197.1774029999999982
21
-72.0485819999999961
0
LINE
8
BLACK
6
CONTINUOUS
10
197.1774029999999982
20
-72.0485819999999961
11
197.1200000000000045
21
-72.0600000000000023
0
LINE
8
BLACK
6
CONTINUOUS
10
197.1200000000000045
20
-72.0600000000000023
11
195.9449999999999932
21
-72.0600000000000023
0
LINE
8
BLACK
6
CONTINUOUS
10
195.9449999999999932
20
-72.0600000000000023
11
195.8875969999999995
21
-72.0485819999999961
0
LINE
8
BLACK
6
CONTINUOUS
10
195.8875969999999995
20
-72.0485819999999961
11
195.8389339999999947
21
-72.016065999999995
0
LINE
8
BLACK
6
CONTINUOUS
10
195.8389339999999947
20
-72.016065999999995
11
195.8064179999999794
21
-71.9674029999999902
0
LINE
8
BLACK
6
CONTINUOUS
10
195.8064179999999794
20
-71.9674029999999902
11
195.7949999999999875
21
-71.9099999999999966
0
LINE
8
BLACK
6
CONTINUOUS
10
195.7949999999999875
20
-71.9099999999999966
11
195.7949999999999875
21
-71.6099999999999994
0
LINE
8
BLACK
6
CONTINUOUS
10
195.7949999999999875
20
-71.6099999999999994
11
195.8064179999999794
21
-71.5525969999999916
0
LINE
8
BLACK
6
CONTINUOUS
10
195.8064179999999794
20
-71.5525969999999916
11
195.8389339999999947
21
-71.503934000000001
0
LINE
8
BLACK
6
CONTINUOUS
10
195.8389339999999947
20
-71.503934000000001
11
195.8875969999999995
21
-71.4714179999999999
0
LINE
8
BLACK
6
CONTINUOUS
10
195.8875969999999995
20
-71.4714179999999999
11
195.9449999999999932
21
-71.4599999999999937
0
LINE
8
BLACK
6
CONTINUOUS
10
195.9449999999999932
20
-71.4599999999999937
11
197.1200000000000045
21
-71.4599999999999937
0
LINE
8
BLACK
6
CONTINUOUS
10
197.1200000000000045
20
-71.4599999999999937
11
197.1774029999999982
21
-71.4714179999999999
0
LINE
8
BLACK
6
CONTINUOUS
10
189.458170999999993
20
-69.8565299999999922
11
189.5392769999999985
21
-69.9107229999999902
0
LINE
8
BLACK
6
CONTINUOUS
10
189.5392769999999985
20
-69.9107229999999902
11
189.5934699999999964
21
-69.9918289999999956
0
LINE
8
BLACK
6
CONTINUOUS
10
189.5934699999999964
20
-69.9918289999999956
11
189.6124999999999829
21
-70.0874999999999915
0
LINE
8
BLACK
6
CONTINUOUS
10
189.6124999999999829
20
-70.0874999999999915
11
189.6124999999999829
21
-70.7874999999999943
0
LINE
8
BLACK
6
CONTINUOUS
10
189.6124999999999829
20
-70.7874999999999943
11
189.5934699999999964
21
-70.8831709999999902
0
LINE
8
BLACK
6
CONTINUOUS
10
189.5934699999999964
20
-70.8831709999999902
11
189.5392769999999985
21
-70.9642769999999956
0
LINE
8
BLACK
6
CONTINUOUS
10
189.5392769999999985
20
-70.9642769999999956
11
189.458170999999993
21
-71.0184699999999935
0
LINE
8
BLACK
6
CONTINUOUS
10
189.458170999999993
20
-71.0184699999999935
11
189.3624999999999829
21
-71.0374999999999943
0
LINE
8
BLACK
6
CONTINUOUS
10
189.3624999999999829
20
-71.0374999999999943
11
188.4624999999999773
21
-71.0374999999999943
0
LINE
8
BLACK
6
CONTINUOUS
10
188.4624999999999773
20
-71.0374999999999943
11
188.3668289999999956
21
-71.0184699999999935
0
LINE
8
BLACK
6
CONTINUOUS
10
188.3668289999999956
20
-71.0184699999999935
11
188.2857229999999902
21
-70.9642769999999956
0
LINE
8
BLACK
6
CONTINUOUS
10
188.2857229999999902
20
-70.9642769999999956
11
188.2315299999999922
21
-70.8831709999999902
0
LINE
8
BLACK
6
CONTINUOUS
10
188.2315299999999922
20
-70.8831709999999902
11
188.2125000000000057
21
-70.7874999999999943
0
LINE
8
BLACK
6
CONTINUOUS
10
188.2125000000000057
20
-70.7874999999999943
11
188.2125000000000057
21
-70.0874999999999915
0
LINE
8
BLACK
6
CONTINUOUS
10
188.2125000000000057
20
-70.0874999999999915
11
188.2315299999999922
21
-69.9918289999999956
0
LINE
8
BLACK
6
CONTINUOUS
10
188.2315299999999922
20
-69.9918289999999956
11
188.2857229999999902
21
-69.9107229999999902
0
LINE
8
BLACK
6
CONTINUOUS
10
188.2857229999999902
20
-69.9107229999999902
11
188.3668289999999956
21
-69.8565299999999922
0
LINE
8
BLACK
6
CONTINUOUS
10
188.3668289999999956
20
-69.8565299999999922
11
188.4624999999999773
21
-69.8374999999999915
0
LINE
8
BLACK
6
CONTINUOUS
10
188.4624999999999773
20
-69.8374999999999915
11
189.3624999999999829
21
-69.8374999999999915
0
LINE
8
BLACK
6
CONTINUOUS
10
189.3624999999999829
20
-69.8374999999999915
11
189.458170999999993
21
-69.8565299999999922
0
LINE
8
BLACK
6
CONTINUOUS
10
191.998170999999985
20
-69.8565299999999922
11
192.0792769999999905
21
-69.9107229999999902
0
LINE
8
BLACK
6
CONTINUOUS
10
192.0792769999999905
20
-69.9107229999999902
11
192.1334699999999884
21
-69.9918289999999956
0
LINE
8
BLACK
6
CONTINUOUS
10
192.1334699999999884
20
-69.9918289999999956
11
192.1525000000000034
21
-70.0874999999999915
0
LINE
8
BLACK
6
CONTINUOUS
10
192.1525000000000034
20
-70.0874999999999915
11
192.1525000000000034
21
-70.7874999999999943
0
LINE
8
BLACK
6
CONTINUOUS
10
192.1525000000000034
20
-70.7874999999999943
11
192.1334699999999884
21
-70.8831709999999902
0
LINE
8
BLACK
6
CONTINUOUS
10
192.1334699999999884
20
-70.8831709999999902
11
192.0792769999999905
21
-70.9642769999999956
0
LINE
8
BLACK
6
CONTINUOUS
10
192.0792769999999905
20
-70.9642769999999956
11
191.998170999999985
21
-71.0184699999999935
0
LINE
8
BLACK
6
CONTINUOUS
10
191.998170999999985
20
-71.0184699999999935
11
191.9025000000000034
21
-71.0374999999999943
0
LINE
8
BLACK
6
CONTINUOUS
10
191.9025000000000034
20
-71.0374999999999943
11
191.0024999999999977
21
-71.0374999999999943
0
LINE
8
BLACK
6
CONTINUOUS
10
191.0024999999999977
20
-71.0374999999999943
11
190.9068289999999877
21
-71.0184699999999935
0
LINE
8
BLACK
6
CONTINUOUS
10
190.9068289999999877
20
-71.0184699999999935
11
190.8257229999999822
21
-70.9642769999999956
0
LINE
8
BLACK
6
CONTINUOUS
10
190.8257229999999822
20
-70.9642769999999956
11
190.7715299999999843
21
-70.8831709999999902
0
LINE
8
BLACK
6
CONTINUOUS
10
190.7715299999999843
20
-70.8831709999999902
11
190.7524999999999977
21
-70.7874999999999943
0
LINE
8
BLACK
6
CONTINUOUS
10
190.7524999999999977
20
-70.7874999999999943
11
190.7524999999999977
21
-70.0874999999999915
0
LINE
8
BLACK
6
CONTINUOUS
10
190.7524999999999977
20
-70.0874999999999915
11
190.7715299999999843
21
-69.9918289999999956
0
LINE
8
BLACK
6
CONTINUOUS
10
190.7715299999999843
20
-69.9918289999999956
11
190.8257229999999822
21
-69.9107229999999902
0
LINE
8
BLACK
6
CONTINUOUS
10
190.8257229999999822
20
-69.9107229999999902
11
190.9068289999999877
21
-69.8565299999999922
0
LINE
8
BLACK
6
CONTINUOUS
10
190.9068289999999877
20
-69.8565299999999922
11
191.0024999999999977
21
-69.8374999999999915
0
LINE
8
BLACK
6
CONTINUOUS
10
191.0024999999999977
20
-69.8374999999999915
11
191.9025000000000034
21
-69.8374999999999915
0
LINE
8
BLACK
6
CONTINUOUS
10
191.9025000000000034
20
-69.8374999999999915
11
191.998170999999985
21
-69.8565299999999922
0
LINE
8
BLACK
6
CONTINUOUS
10
204.2331709999999987
20
-69.4865300000000019
11
204.3142770000000041
21
-69.5407229999999998
0
LINE
8
BLACK
6
CONTINUOUS
10
204.3142770000000041
20
-69.5407229999999998
11
204.3684700000000021
21
-69.6218289999999911
0
LINE
8
BLACK
6
CONTINUOUS
10
204.3684700000000021
20
-69.6218289999999911
11
204.3874999999999886
21
-69.7175000000000011
0
LINE
8
BLACK
6
CONTINUOUS
10
204.3874999999999886
20
-69.7175000000000011
11
204.3874999999999886
21
-70.6174999999999926
0
LINE
8
BLACK
6
CONTINUOUS
10
204.3874999999999886
20
-70.6174999999999926
11
204.3684700000000021
21
-70.7131710000000027
0
LINE
8
BLACK
6
CONTINUOUS
10
204.3684700000000021
20
-70.7131710000000027
11
204.3142770000000041
21
-70.7942769999999939
0
LINE
8
BLACK
6
CONTINUOUS
10
204.3142770000000041
20
-70.7942769999999939
11
204.2331709999999987
21
-70.8484699999999918
0
LINE
8
BLACK
6
CONTINUOUS
10
204.2331709999999987
20
-70.8484699999999918
11
204.1374999999999886
21
-70.8674999999999926
0
LINE
8
BLACK
6
CONTINUOUS
10
204.1374999999999886
20
-70.8674999999999926
11
203.4375
21
-70.8674999999999926
0
LINE
8
BLACK
6
CONTINUOUS
10
203.4375
20
-70.8674999999999926
11
203.3418289999999899
21
-70.8484699999999918
0
LINE
8
BLACK
6
CONTINUOUS
10
203.3418289999999899
20
-70.8484699999999918
11
203.2607229999999845
21
-70.7942769999999939
0
LINE
8
BLACK
6
CONTINUOUS
10
203.2607229999999845
20
-70.7942769999999939
11
203.2065299999999866
21
-70.7131710000000027
0
LINE
8
BLACK
6
CONTINUOUS
10
203.2065299999999866
20
-70.7131710000000027
11
203.1875
21
-70.6174999999999926
0
LINE
8
BLACK
6
CONTINUOUS
10
203.1875
20
-70.6174999999999926
11
203.1875
21
-69.7175000000000011
0
LINE
8
BLACK
6
CONTINUOUS
10
203.1875
20
-69.7175000000000011
11
203.2065299999999866
21
-69.6218289999999911
0
LINE
8
BLACK
6
CONTINUOUS
10
203.2065299999999866
20
-69.6218289999999911
11
203.2607229999999845
21
-69.5407229999999998
0
LINE
8
BLACK
6
CONTINUOUS
10
203.2607229999999845
20
-69.5407229999999998
11
203.3418289999999899
21
-69.4865300000000019
0
LINE
8
BLACK
6
CONTINUOUS
10
203.3418289999999899
20
-69.4865300000000019
11
203.4375
21
-69.4675000000000011
0
LINE
8
BLACK
6
CONTINUOUS
10
203.4375
20
-69.4675000000000011
11
204.1374999999999886
21
-69.4675000000000011
0
LINE
8
BLACK
6
CONTINUOUS
10
204.1374999999999886
20
-69.4675000000000011
11
204.2331709999999987
21
-69.4865300000000019
0
LINE
8
BLACK
6
CONTINUOUS
10
206.2331709999999987
20
-69.4865300000000019
11
206.3142770000000041
21
-69.5407229999999998
0
LINE
8
BLACK
6
CONTINUOUS
10
206.3142770000000041
20
-69.5407229999999998
11
206.3684700000000021
21
-69.6218289999999911
0
LINE
8
BLACK
6
CONTINUOUS
10
206.3684700000000021
20
-69.6218289999999911
11
206.3874999999999886
21
-69.7175000000000011
0
LINE
8
BLACK
6
CONTINUOUS
10
206.3874999999999886
20
-69.7175000000000011
11
206.3874999999999886
21
-70.6174999999999926
0
LINE
8
BLACK
6
CONTINUOUS
10
206.3874999999999886
20
-70.6174999999999926
11
206.3684700000000021
21
-70.7131710000000027
0
LINE
8
BLACK
6
CONTINUOUS
10
206.3684700000000021
20
-70.7131710000000027
11
206.3142770000000041
21
-70.7942769999999939
0
LINE
8
BLACK
6
CONTINUOUS
10
206.3142770000000041
20
-70.7942769999999939
11
206.2331709999999987
21
-70.8484699999999918
0
LINE
8
BLACK
6
CONTINUOUS
10
206.2331709999999987
20
-70.8484699999999918
11
206.1374999999999886
21
-70.8674999999999926
0
LINE
8
BLACK
6
CONTINUOUS
10
206.1374999999999886
20
-70.8674999999999926
11
205.4375
21
-70.8674999999999926
0
LINE
8
BLACK
6
CONTINUOUS
10
205.4375
20
-70.8674999999999926
11
205.3418289999999899
21
-70.8484699999999918
0
LINE
8
BLACK
6
CONTINUOUS
10
205.3418289999999899
20
-70.8484699999999918
11
205.2607229999999845
21
-70.7942769999999939
0
LINE
8
BLACK
6
CONTINUOUS
10
205.2607229999999845
20
-70.7942769999999939
11
205.2065299999999866
21
-70.7131710000000027
0
LINE
8
BLACK
6
CONTINUOUS
10
205.2065299999999866
20
-70.7131710000000027
11
205.1875
21
-70.6174999999999926
0
LINE
8
BLACK
6
CONTINUOUS
10
205.1875
20
-70.6174999999999926
11
205.1875
21
-69.7175000000000011
0
LINE
8
BLACK
6
CONTINUOUS
10
205.1875
20
-69.7175000000000011
11
205.2065299999999866
21
-69.6218289999999911
0
LINE
8
BLACK
6
CONTINUOUS
10
205.2065299999999866
20
-69.6218289999999911
11
205.2607229999999845
21
-69.5407229999999998
0
LINE
8
BLACK
6
CONTINUOUS
10
205.2607229999999845
20
-69.5407229999999998
11
205.3418289999999899
21
-69.4865300000000019
0
LINE
8
BLACK
6
CONTINUOUS
10
205.3418289999999899
20
-69.4865300000000019
11
205.4375
21
-69.4675000000000011
0
LINE
8
BLACK
6
CONTINUOUS
10
205.4375
20
-69.4675000000000011
11
206.1374999999999886
21
-69.4675000000000011
0
LINE
8
BLACK
6
CONTINUOUS
10
206.1374999999999886
20
-69.4675000000000011
11
206.2331709999999987
21
-69.4865300000000019
0
LINE
8
BLACK
6
CONTINUOUS
10
173.9006709999999885
20
-69.3165300000000002
11
173.9817769999999939
21
-69.3707229999999981
0
LINE
8
BLACK
6
CONTINUOUS
10
173.9817769999999939
20
-69.3707229999999981
11
174.0359699999999918
21
-69.4518290000000036
0
LINE
8
BLACK
6
CONTINUOUS
10
174.0359699999999918
20
-69.4518290000000036
11
174.0549999999999784
21
-69.5474999999999994
0
LINE
8
BLACK
6
CONTINUOUS
10
174.0549999999999784
20
-69.5474999999999994
11
174.0549999999999784
21
-70.2475000000000023
0
LINE
8
BLACK
6
CONTINUOUS
10
174.0549999999999784
20
-70.2475000000000023
11
174.0359699999999918
21
-70.3431709999999981
0
LINE
8
BLACK
6
CONTINUOUS
10
174.0359699999999918
20
-70.3431709999999981
11
173.9817769999999939
21
-70.4242770000000036
0
LINE
8
BLACK
6
CONTINUOUS
10
173.9817769999999939
20
-70.4242770000000036
11
173.9006709999999885
21
-70.4784700000000015
0
LINE
8
BLACK
6
CONTINUOUS
10
173.9006709999999885
20
-70.4784700000000015
11
173.8049999999999784
21
-70.4975000000000023
0
LINE
8
BLACK
6
CONTINUOUS
10
173.8049999999999784
20
-70.4975000000000023
11
172.9050000000000011
21
-70.4975000000000023
0
LINE
8
BLACK
6
CONTINUOUS
10
172.9050000000000011
20
-70.4975000000000023
11
172.8093289999999911
21
-70.4784700000000015
0
LINE
8
BLACK
6
CONTINUOUS
10
172.8093289999999911
20
-70.4784700000000015
11
172.7282229999999856
21
-70.4242770000000036
0
LINE
8
BLACK
6
CONTINUOUS
10
172.7282229999999856
20
-70.4242770000000036
11
172.6740299999999877
21
-70.3431709999999981
0
LINE
8
BLACK
6
CONTINUOUS
10
172.6740299999999877
20
-70.3431709999999981
11
172.6550000000000011
21
-70.2475000000000023
0
LINE
8
BLACK
6
CONTINUOUS
10
172.6550000000000011
20
-70.2475000000000023
11
172.6550000000000011
21
-69.5474999999999994
0
LINE
8
BLACK
6
CONTINUOUS
10
172.6550000000000011
20
-69.5474999999999994
11
172.6740299999999877
21
-69.4518290000000036
0
LINE
8
BLACK
6
CONTINUOUS
10
172.6740299999999877
20
-69.4518290000000036
11
172.7282229999999856
21
-69.3707229999999981
0
LINE
8
BLACK
6
CONTINUOUS
10
172.7282229999999856
20
-69.3707229999999981
11
172.8093289999999911
21
-69.3165300000000002
0
LINE
8
BLACK
6
CONTINUOUS
10
172.8093289999999911
20
-69.3165300000000002
11
172.9050000000000011
21
-69.2974999999999994
0
LINE
8
BLACK
6
CONTINUOUS
10
172.9050000000000011
20
-69.2974999999999994
11
173.8049999999999784
21
-69.2974999999999994
0
LINE
8
BLACK
6
CONTINUOUS
10
173.8049999999999784
20
-69.2974999999999994
11
173.9006709999999885
21
-69.3165300000000002
0
LINE
8
BLACK
6
CONTINUOUS
10
177.5974999999999966
20
-69.7374999999999972
11
176.0974999999999966
21
-69.7374999999999972
0
LINE
8
BLACK
6
CONTINUOUS
10
176.0974999999999966
20
-69.7374999999999972
11
176.0974999999999966
21
-68.2374999999999972
0
LINE
8
BLACK
6
CONTINUOUS
10
176.0974999999999966
20
-68.2374999999999972
11
177.5974999999999966
21
-68.2374999999999972
0
LINE
8
BLACK
6
CONTINUOUS
10
177.5974999999999966
20
-68.2374999999999972
11
177.5974999999999966
21
-69.7374999999999972
0
LINE
8
BLACK
6
CONTINUOUS
10
197.1924029999999846
20
-68.2889179999999953
11
197.2410659999999893
21
-68.3214339999999964
0
LINE
8
BLACK
6
CONTINUOUS
10
197.2410659999999893
20
-68.3214339999999964
11
197.2735820000000047
21
-68.3700970000000012
0
LINE
8
BLACK
6
CONTINUOUS
10
197.2735820000000047
20
-68.3700970000000012
11
197.2849999999999966
21
-68.4274999999999949
0
LINE
8
BLACK
6
CONTINUOUS
10
197.2849999999999966
20
-68.4274999999999949
11
197.2849999999999966
21
-68.727499999999992
0
LINE
8
BLACK
6
CONTINUOUS
10
197.2849999999999966
20
-68.727499999999992
11
197.2735820000000047
21
-68.7849029999999999
0
LINE
8
BLACK
6
CONTINUOUS
10
197.2735820000000047
20
-68.7849029999999999
11
197.2410659999999893
21
-68.8335659999999905
0
LINE
8
BLACK
6
CONTINUOUS
10
197.2410659999999893
20
-68.8335659999999905
11
197.1924029999999846
21
-68.8660819999999916
0
LINE
8
BLACK
6
CONTINUOUS
10
197.1924029999999846
20
-68.8660819999999916
11
197.1349999999999909
21
-68.8774999999999977
0
LINE
8
BLACK
6
CONTINUOUS
10
197.1349999999999909
20
-68.8774999999999977
11
195.9599999999999795
21
-68.8774999999999977
0
LINE
8
BLACK
6
CONTINUOUS
10
195.9599999999999795
20
-68.8774999999999977
11
195.9025969999999859
21
-68.8660819999999916
0
LINE
8
BLACK
6
CONTINUOUS
10
195.9025969999999859
20
-68.8660819999999916
11
195.8539339999999811
21
-68.8335659999999905
0
LINE
8
BLACK
6
CONTINUOUS
10
195.8539339999999811
20
-68.8335659999999905
11
195.8214179999999942
21
-68.7849029999999999
0
LINE
8
BLACK
6
CONTINUOUS
10
195.8214179999999942
20
-68.7849029999999999
11
195.8100000000000023
21
-68.727499999999992
0
LINE
8
BLACK
6
CONTINUOUS
10
195.8100000000000023
20
-68.727499999999992
11
195.8100000000000023
21
-68.4274999999999949
0
LINE
8
BLACK
6
CONTINUOUS
10
195.8100000000000023
20
-68.4274999999999949
11
195.8214179999999942
21
-68.3700970000000012
0
LINE
8
BLACK
6
CONTINUOUS
10
195.8214179999999942
20
-68.3700970000000012
11
195.8539339999999811
21
-68.3214339999999964
0
LINE
8
BLACK
6
CONTINUOUS
10
195.8539339999999811
20
-68.3214339999999964
11
195.9025969999999859
21
-68.2889179999999953
0
LINE
8
BLACK
6
CONTINUOUS
10
195.9025969999999859
20
-68.2889179999999953
11
195.9599999999999795
21
-68.2775000000000034
0
LINE
8
BLACK
6
CONTINUOUS
10
195.9599999999999795
20
-68.2775000000000034
11
197.1349999999999909
21
-68.2775000000000034
0
LINE
8
BLACK
6
CONTINUOUS
10
197.1349999999999909
20
-68.2775000000000034
11
197.1924029999999846
21
-68.2889179999999953
0
LINE
8
BLACK
6
CONTINUOUS
10
173.9006709999999885
20
-67.3165300000000002
11
173.9817769999999939
21
-67.3707229999999981
0
LINE
8
BLACK
6
CONTINUOUS
10
173.9817769999999939
20
-67.3707229999999981
11
174.0359699999999918
21
-67.4518290000000036
0
LINE
8
BLACK
6
CONTINUOUS
10
174.0359699999999918
20
-67.4518290000000036
11
174.0549999999999784
21
-67.5474999999999994
0
LINE
8
BLACK
6
CONTINUOUS
10
174.0549999999999784
20
-67.5474999999999994
11
174.0549999999999784
21
-68.2475000000000023
0
LINE
8
BLACK
6
CONTINUOUS
10
174.0549999999999784
20
-68.2475000000000023
11
174.0359699999999918
21
-68.3431709999999981
0
LINE
8
BLACK
6
CONTINUOUS
10
174.0359699999999918
20
-68.3431709999999981
11
173.9817769999999939
21
-68.4242770000000036
0
LINE
8
BLACK
6
CONTINUOUS
10
173.9817769999999939
20
-68.4242770000000036
11
173.9006709999999885
21
-68.4784700000000015
0
LINE
8
BLACK
6
CONTINUOUS
10
173.9006709999999885
20
-68.4784700000000015
11
173.8049999999999784
21
-68.4975000000000023
0
LINE
8
BLACK
6
CONTINUOUS
10
173.8049999999999784
20
-68.4975000000000023
11
172.9050000000000011
21
-68.4975000000000023
0
LINE
8
BLACK
6
CONTINUOUS
10
172.9050000000000011
20
-68.4975000000000023
11
172.8093289999999911
21
-68.4784700000000015
0
LINE
8
BLACK
6
CONTINUOUS
10
172.8093289999999911
20
-68.4784700000000015
11
172.7282229999999856
21
-68.4242770000000036
0
LINE
8
BLACK
6
CONTINUOUS
10
172.7282229999999856
20
-68.4242770000000036
11
172.6740299999999877
21
-68.3431709999999981
0
LINE
8
BLACK
6
CONTINUOUS
10
172.6740299999999877
20
-68.3431709999999981
11
172.6550000000000011
21
-68.2475000000000023
0
LINE
8
BLACK
6
CONTINUOUS
10
172.6550000000000011
20
-68.2475000000000023
11
172.6550000000000011
21
-67.5474999999999994
0
LINE
8
BLACK
6
CONTINUOUS
10
172.6550000000000011
20
-67.5474999999999994
11
172.6740299999999877
21
-67.4518290000000036
0
LINE
8
BLACK
6
CONTINUOUS
10
172.6740299999999877
20
-67.4518290000000036
11
172.7282229999999856
21
-67.3707229999999981
0
LINE
8
BLACK
6
CONTINUOUS
10
172.7282229999999856
20
-67.3707229999999981
11
172.8093289999999911
21
-67.3165300000000002
0
LINE
8
BLACK
6
CONTINUOUS
10
172.8093289999999911
20
-67.3165300000000002
11
172.9050000000000011
21
-67.2974999999999994
0
LINE
8
BLACK
6
CONTINUOUS
10
172.9050000000000011
20
-67.2974999999999994
11
173.8049999999999784
21
-67.2974999999999994
0
LINE
8
BLACK
6
CONTINUOUS
10
173.8049999999999784
20
-67.2974999999999994
11
173.9006709999999885
21
-67.3165300000000002
0
LINE
8
BLACK
6
CONTINUOUS
10
204.2331709999999987
20
-66.9465299999999957
11
204.3142770000000041
21
-67.0007229999999936
0
LINE
8
BLACK
6
CONTINUOUS
10
204.3142770000000041
20
-67.0007229999999936
11
204.3684700000000021
21
-67.081828999999999
0
LINE
8
BLACK
6
CONTINUOUS
10
204.3684700000000021
20
-67.081828999999999
11
204.3874999999999886
21
-67.1774999999999949
0
LINE
8
BLACK
6
CONTINUOUS
10
204.3874999999999886
20
-67.1774999999999949
11
204.3874999999999886
21
-68.0775000000000006
0
LINE
8
BLACK
6
CONTINUOUS
10
204.3874999999999886
20
-68.0775000000000006
11
204.3684700000000021
21
-68.1731709999999964
0
LINE
8
BLACK
6
CONTINUOUS
10
204.3684700000000021
20
-68.1731709999999964
11
204.3142770000000041
21
-68.2542770000000019
0
LINE
8
BLACK
6
CONTINUOUS
10
204.3142770000000041
20
-68.2542770000000019
11
204.2331709999999987
21
-68.3084699999999998
0
LINE
8
BLACK
6
CONTINUOUS
10
204.2331709999999987
20
-68.3084699999999998
11
204.1374999999999886
21
-68.3275000000000006
0
LINE
8
BLACK
6
CONTINUOUS
10
204.1374999999999886
20
-68.3275000000000006
11
203.4375
21
-68.3275000000000006
0
LINE
8
BLACK
6
CONTINUOUS
10
203.4375
20
-68.3275000000000006
11
203.3418289999999899
21
-68.3084699999999998
0
LINE
8
BLACK
6
CONTINUOUS
10
203.3418289999999899
20
-68.3084699999999998
11
203.2607229999999845
21
-68.2542770000000019
0
LINE
8
BLACK
6
CONTINUOUS
10
203.2607229999999845
20
-68.2542770000000019
11
203.2065299999999866
21
-68.1731709999999964
0
LINE
8
BLACK
6
CONTINUOUS
10
203.2065299999999866
20
-68.1731709999999964
11
203.1875
21
-68.0775000000000006
0
LINE
8
BLACK
6
CONTINUOUS
10
203.1875
20
-68.0775000000000006
11
203.1875
21
-67.1774999999999949
0
LINE
8
BLACK
6
CONTINUOUS
10
203.1875
20
-67.1774999999999949
11
203.2065299999999866
21
-67.081828999999999
0
LINE
8
BLACK
6
CONTINUOUS
10
203.2065299999999866
20
-67.081828999999999
11
203.2607229999999845
21
-67.0007229999999936
0
LINE
8
BLACK
6
CONTINUOUS
10
203.2607229999999845
20
-67.0007229999999936
11
203.3418289999999899
21
-66.9465299999999957
0
LINE
8
BLACK
6
CONTINUOUS
10
203.3418289999999899
20
-66.9465299999999957
11
203.4375
21
-66.9274999999999949
0
LINE
8
BLACK
6
CONTINUOUS
10
203.4375
20
-66.9274999999999949
11
204.1374999999999886
21
-66.9274999999999949
0
LINE
8
BLACK
6
CONTINUOUS
10
204.1374999999999886
20
-66.9274999999999949
11
204.2331709999999987
21
-66.9465299999999957
0
LINE
8
BLACK
6
CONTINUOUS
10
206.2331709999999987
20
-66.9465299999999957
11
206.3142770000000041
21
-67.0007229999999936
0
LINE
8
BLACK
6
CONTINUOUS
10
206.3142770000000041
20
-67.0007229999999936
11
206.3684700000000021
21
-67.081828999999999
0
LINE
8
BLACK
6
CONTINUOUS
10
206.3684700000000021
20
-67.081828999999999
11
206.3874999999999886
21
-67.1774999999999949
0
LINE
8
BLACK
6
CONTINUOUS
10
206.3874999999999886
20
-67.1774999999999949
11
206.3874999999999886
21
-68.0775000000000006
0
LINE
8
BLACK
6
CONTINUOUS
10
206.3874999999999886
20
-68.0775000000000006
11
206.3684700000000021
21
-68.1731709999999964
0
LINE
8
BLACK
6
CONTINUOUS
10
206.3684700000000021
20
-68.1731709999999964
11
206.3142770000000041
21
-68.2542770000000019
0
LINE
8
BLACK
6
CONTINUOUS
10
206.3142770000000041
20
-68.2542770000000019
11
206.2331709999999987
21
-68.3084699999999998
0
LINE
8
BLACK
6
CONTINUOUS
10
206.2331709999999987
20
-68.3084699999999998
11
206.1374999999999886
21
-68.3275000000000006
0
LINE
8
BLACK
6
CONTINUOUS
10
206.1374999999999886
20
-68.3275000000000006
11
205.4375
21
-68.3275000000000006
0
LINE
8
BLACK
6
CONTINUOUS
10
205.4375
20
-68.3275000000000006
11
205.3418289999999899
21
-68.3084699999999998
0
LINE
8
BLACK
6
CONTINUOUS
10
205.3418289999999899
20
-68.3084699999999998
11
205.2607229999999845
21
-68.2542770000000019
0
LINE
8
BLACK
6
CONTINUOUS
10
205.2607229999999845
20
-68.2542770000000019
11
205.2065299999999866
21
-68.1731709999999964
0
LINE
8
BLACK
6
CONTINUOUS
10
205.2065299999999866
20
-68.1731709999999964
11
205.1875
21
-68.0775000000000006
0
LINE
8
BLACK
6
CONTINUOUS
10
205.1875
20
-68.0775000000000006
11
205.1875
21
-67.1774999999999949
0
LINE
8
BLACK
6
CONTINUOUS
10
205.1875
20
-67.1774999999999949
11
205.2065299999999866
21
-67.081828999999999
0
LINE
8
BLACK
6
CONTINUOUS
10
205.2065299999999866
20
-67.081828999999999
11
205.2607229999999845
21
-67.0007229999999936
0
LINE
8
BLACK
6
CONTINUOUS
10
205.2607229999999845
20
-67.0007229999999936
11
205.3418289999999899
21
-66.9465299999999957
0
LINE
8
BLACK
6
CONTINUOUS
10
205.3418289999999899
20
-66.9465299999999957
11
205.4375
21
-66.9274999999999949
0
LINE
8
BLACK
6
CONTINUOUS
10
205.4375
20
-66.9274999999999949
11
206.1374999999999886
21
-66.9274999999999949
0
LINE
8
BLACK
6
CONTINUOUS
10
206.1374999999999886
20
-66.9274999999999949
11
206.2331709999999987
21
-66.9465299999999957
0
LINE
8
BLACK
6
CONTINUOUS
10
153.8274999999999864
20
-68.3199999999999932
11
152.9274999999999807
21
-68.3199999999999932
0
LINE
8
BLACK
6
CONTINUOUS
10
152.9274999999999807
20
-68.3199999999999932
11
152.9274999999999807
21
-66.8199999999999932
0
LINE
8
BLACK
6
CONTINUOUS
10
152.9274999999999807
20
-66.8199999999999932
11
153.8274999999999864
21
-66.8199999999999932
0
LINE
8
BLACK
6
CONTINUOUS
10
153.8274999999999864
20
-66.8199999999999932
11
153.8274999999999864
21
-68.3199999999999932
0
LINE
8
BLACK
6
CONTINUOUS
10
155.0974999999999966
20
-68.3199999999999932
11
154.1974999999999909
21
-68.3199999999999932
0
LINE
8
BLACK
6
CONTINUOUS
10
154.1974999999999909
20
-68.3199999999999932
11
154.1974999999999909
21
-66.8199999999999932
0
LINE
8
BLACK
6
CONTINUOUS
10
154.1974999999999909
20
-66.8199999999999932
11
155.0974999999999966
21
-66.8199999999999932
0
LINE
8
BLACK
6
CONTINUOUS
10
155.0974999999999966
20
-66.8199999999999932
11
155.0974999999999966
21
-68.3199999999999932
0
LINE
8
BLACK
6
CONTINUOUS
10
156.3675000000000068
20
-68.3199999999999932
11
155.4675000000000011
21
-68.3199999999999932
0
LINE
8
BLACK
6
CONTINUOUS
10
155.4675000000000011
20
-68.3199999999999932
11
155.4675000000000011
21
-66.8199999999999932
0
LINE
8
BLACK
6
CONTINUOUS
10
155.4675000000000011
20
-66.8199999999999932
11
156.3675000000000068
21
-66.8199999999999932
0
LINE
8
BLACK
6
CONTINUOUS
10
156.3675000000000068
20
-66.8199999999999932
11
156.3675000000000068
21
-68.3199999999999932
0
LINE
8
BLACK
6
CONTINUOUS
10
157.6374999999999886
20
-68.3199999999999932
11
156.7374999999999829
21
-68.3199999999999932
0
LINE
8
BLACK
6
CONTINUOUS
10
156.7374999999999829
20
-68.3199999999999932
11
156.7374999999999829
21
-66.8199999999999932
0
LINE
8
BLACK
6
CONTINUOUS
10
156.7374999999999829
20
-66.8199999999999932
11
157.6374999999999886
21
-66.8199999999999932
0
LINE
8
BLACK
6
CONTINUOUS
10
157.6374999999999886
20
-66.8199999999999932
11
157.6374999999999886
21
-68.3199999999999932
0
LINE
8
BLACK
6
CONTINUOUS
10
158.9074999999999989
20
-68.3199999999999932
11
158.0074999999999932
21
-68.3199999999999932
0
LINE
8
BLACK
6
CONTINUOUS
10
158.0074999999999932
20
-68.3199999999999932
11
158.0074999999999932
21
-66.8199999999999932
0
LINE
8
BLACK
6
CONTINUOUS
10
158.0074999999999932
20
-66.8199999999999932
11
158.9074999999999989
21
-66.8199999999999932
0
LINE
8
BLACK
6
CONTINUOUS
10
158.9074999999999989
20
-66.8199999999999932
11
158.9074999999999989
21
-68.3199999999999932
0
LINE
8
BLACK
6
CONTINUOUS
10
160.1774999999999807
20
-68.3199999999999932
11
159.2775000000000034
21
-68.3199999999999932
0
LINE
8
BLACK
6
CONTINUOUS
10
159.2775000000000034
20
-68.3199999999999932
11
159.2775000000000034
21
-66.8199999999999932
0
LINE
8
BLACK
6
CONTINUOUS
10
159.2775000000000034
20
-66.8199999999999932
11
160.1774999999999807
21
-66.8199999999999932
0
LINE
8
BLACK
6
CONTINUOUS
10
160.1774999999999807
20
-66.8199999999999932
11
160.1774999999999807
21
-68.3199999999999932
0
LINE
8
BLACK
6
CONTINUOUS
10
161.4474999999999909
20
-68.3199999999999932
11
160.5474999999999852
21
-68.3199999999999932
0
LINE
8
BLACK
6
CONTINUOUS
10
160.5474999999999852
20
-68.3199999999999932
11
160.5474999999999852
21
-66.8199999999999932
0
LINE
8
BLACK
6
CONTINUOUS
10
160.5474999999999852
20
-66.8199999999999932
11
161.4474999999999909
21
-66.8199999999999932
0
LINE
8
BLACK
6
CONTINUOUS
10
161.4474999999999909
20
-66.8199999999999932
11
161.4474999999999909
21
-68.3199999999999932
0
LINE
8
BLACK
6
CONTINUOUS
10
162.7175000000000011
20
-68.3199999999999932
11
161.8174999999999955
21
-68.3199999999999932
0
LINE
8
BLACK
6
CONTINUOUS
10
161.8174999999999955
20
-68.3199999999999932
11
161.8174999999999955
21
-66.8199999999999932
0
LINE
8
BLACK
6
CONTINUOUS
10
161.8174999999999955
20
-66.8199999999999932
11
162.7175000000000011
21
-66.8199999999999932
0
LINE
8
BLACK
6
CONTINUOUS
10
162.7175000000000011
20
-66.8199999999999932
11
162.7175000000000011
21
-68.3199999999999932
0
LINE
8
BLACK
6
CONTINUOUS
10
163.9874999999999829
20
-68.3199999999999932
11
163.0875000000000057
21
-68.3199999999999932
0
LINE
8
BLACK
6
CONTINUOUS
10
163.0875000000000057
20
-68.3199999999999932
11
163.0875000000000057
21
-66.8199999999999932
0
LINE
8
BLACK
6
CONTINUOUS
10
163.0875000000000057
20
-66.8199999999999932
11
163.9874999999999829
21
-66.8199999999999932
0
LINE
8
BLACK
6
CONTINUOUS
10
163.9874999999999829
20
-66.8199999999999932
11
163.9874999999999829
21
-68.3199999999999932
0
LINE
8
BLACK
6
CONTINUOUS
10
165.2574999999999932
20
-68.3199999999999932
11
164.3574999999999875
21
-68.3199999999999932
0
LINE
8
BLACK
6
CONTINUOUS
10
164.3574999999999875
20
-68.3199999999999932
11
164.3574999999999875
21
-66.8199999999999932
0
LINE
8
BLACK
6
CONTINUOUS
10
164.3574999999999875
20
-66.8199999999999932
11
165.2574999999999932
21
-66.8199999999999932
0
LINE
8
BLACK
6
CONTINUOUS
10
165.2574999999999932
20
-66.8199999999999932
11
165.2574999999999932
21
-68.3199999999999932
0
LINE
8
BLACK
6
CONTINUOUS
10
166.5275000000000034
20
-68.3199999999999932
11
165.6274999999999977
21
-68.3199999999999932
0
LINE
8
BLACK
6
CONTINUOUS
10
165.6274999999999977
20
-68.3199999999999932
11
165.6274999999999977
21
-66.8199999999999932
0
LINE
8
BLACK
6
CONTINUOUS
10
165.6274999999999977
20
-66.8199999999999932
11
166.5275000000000034
21
-66.8199999999999932
0
LINE
8
BLACK
6
CONTINUOUS
10
166.5275000000000034
20
-66.8199999999999932
11
166.5275000000000034
21
-68.3199999999999932
0
LINE
8
BLACK
6
CONTINUOUS
10
167.7974999999999852
20
-68.3199999999999932
11
166.8974999999999795
21
-68.3199999999999932
0
LINE
8
BLACK
6
CONTINUOUS
10
166.8974999999999795
20
-68.3199999999999932
11
166.8974999999999795
21
-66.8199999999999932
0
LINE
8
BLACK
6
CONTINUOUS
10
166.8974999999999795
20
-66.8199999999999932
11
167.7974999999999852
21
-66.8199999999999932
0
LINE
8
BLACK
6
CONTINUOUS
10
167.7974999999999852
20
-66.8199999999999932
11
167.7974999999999852
21
-68.3199999999999932
0
LINE
8
BLACK
6
CONTINUOUS
10
169.0674999999999955
20
-68.3199999999999932
11
168.1674999999999898
21
-68.3199999999999932
0
LINE
8
BLACK
6
CONTINUOUS
10
168.1674999999999898
20
-68.3199999999999932
11
168.1674999999999898
21
-66.8199999999999932
0
LINE
8
BLACK
6
CONTINUOUS
10
168.1674999999999898
20
-66.8199999999999932
11
169.0674999999999955
21
-66.8199999999999932
0
LINE
8
BLACK
6
CONTINUOUS
10
169.0674999999999955
20
-66.8199999999999932
11
169.0674999999999955
21
-68.3199999999999932
0
LINE
8
BLACK
6
CONTINUOUS
10
170.3375000000000057
20
-68.3199999999999932
11
169.4375
21
-68.3199999999999932
0
LINE
8
BLACK
6
CONTINUOUS
10
169.4375
20
-68.3199999999999932
11
169.4375
21
-66.8199999999999932
0
LINE
8
BLACK
6
CONTINUOUS
10
169.4375
20
-66.8199999999999932
11
170.3375000000000057
21
-66.8199999999999932
0
LINE
8
BLACK
6
CONTINUOUS
10
170.3375000000000057
20
-66.8199999999999932
11
170.3375000000000057
21
-68.3199999999999932
0
LINE
8
BLACK
6
CONTINUOUS
10
199.0674029999999846
20
-67.3389179999999925
11
199.1160659999999893
21
-67.3714339999999936
0
LINE
8
BLACK
6
CONTINUOUS
10
199.1160659999999893
20
-67.3714339999999936
11
199.1485820000000047
21
-67.4200969999999984
0
LINE
8
BLACK
6
CONTINUOUS
10
199.1485820000000047
20
-67.4200969999999984
11
199.1599999999999966
21
-67.477499999999992
0
LINE
8
BLACK
6
CONTINUOUS
10
199.1599999999999966
20
-67.477499999999992
11
199.1599999999999966
21
-67.7775000000000034
0
LINE
8
BLACK
6
CONTINUOUS
10
199.1599999999999966
20
-67.7775000000000034
11
199.1485820000000047
21
-67.8349029999999971
0
LINE
8
BLACK
6
CONTINUOUS
10
199.1485820000000047
20
-67.8349029999999971
11
199.1160659999999893
21
-67.8835660000000018
0
LINE
8
BLACK
6
CONTINUOUS
10
199.1160659999999893
20
-67.8835660000000018
11
199.0674029999999846
21
-67.9160820000000029
0
LINE
8
BLACK
6
CONTINUOUS
10
199.0674029999999846
20
-67.9160820000000029
11
199.0099999999999909
21
-67.9274999999999949
0
LINE
8
BLACK
6
CONTINUOUS
10
199.0099999999999909
20
-67.9274999999999949
11
197.8349999999999795
21
-67.9274999999999949
0
LINE
8
BLACK
6
CONTINUOUS
10
197.8349999999999795
20
-67.9274999999999949
11
197.7775969999999859
21
-67.9160820000000029
0
LINE
8
BLACK
6
CONTINUOUS
10
197.7775969999999859
20
-67.9160820000000029
11
197.7289339999999811
21
-67.8835660000000018
0
LINE
8
BLACK
6
CONTINUOUS
10
197.7289339999999811
20
-67.8835660000000018
11
197.6964179999999942
21
-67.8349029999999971
0
LINE
8
BLACK
6
CONTINUOUS
10
197.6964179999999942
20
-67.8349029999999971
11
197.6850000000000023
21
-67.7775000000000034
0
LINE
8
BLACK
6
CONTINUOUS
10
197.6850000000000023
20
-67.7775000000000034
11
197.6850000000000023
21
-67.477499999999992
0
LINE
8
BLACK
6
CONTINUOUS
10
197.6850000000000023
20
-67.477499999999992
11
197.6964179999999942
21
-67.4200969999999984
0
LINE
8
BLACK
6
CONTINUOUS
10
197.6964179999999942
20
-67.4200969999999984
11
197.7289339999999811
21
-67.3714339999999936
0
LINE
8
BLACK
6
CONTINUOUS
10
197.7289339999999811
20
-67.3714339999999936
11
197.7775969999999859
21
-67.3389179999999925
0
LINE
8
BLACK
6
CONTINUOUS
10
197.7775969999999859
20
-67.3389179999999925
11
197.8349999999999795
21
-67.3275000000000006
0
LINE
8
BLACK
6
CONTINUOUS
10
197.8349999999999795
20
-67.3275000000000006
11
199.0099999999999909
21
-67.3275000000000006
0
LINE
8
BLACK
6
CONTINUOUS
10
199.0099999999999909
20
-67.3275000000000006
11
199.0674029999999846
21
-67.3389179999999925
0
LINE
8
BLACK
6
CONTINUOUS
10
197.1924029999999846
20
-66.3889180000000039
11
197.2410659999999893
21
-66.4214339999999908
0
LINE
8
BLACK
6
CONTINUOUS
10
197.2410659999999893
20
-66.4214339999999908
11
197.2735820000000047
21
-66.4700969999999955
0
LINE
8
BLACK
6
CONTINUOUS
10
197.2735820000000047
20
-66.4700969999999955
11
197.2849999999999966
21
-66.5275000000000034
0
LINE
8
BLACK
6
CONTINUOUS
10
197.2849999999999966
20
-66.5275000000000034
11
197.2849999999999966
21
-66.8275000000000006
0
LINE
8
BLACK
6
CONTINUOUS
10
197.2849999999999966
20
-66.8275000000000006
11
197.2735820000000047
21
-66.8849029999999942
0
LINE
8
BLACK
6
CONTINUOUS
10
197.2735820000000047
20
-66.8849029999999942
11
197.2410659999999893
21
-66.933565999999999
0
LINE
8
BLACK
6
CONTINUOUS
10
197.2410659999999893
20
-66.933565999999999
11
197.1924029999999846
21
-66.9660820000000001
0
LINE
8
BLACK
6
CONTINUOUS
10
197.1924029999999846
20
-66.9660820000000001
11
197.1349999999999909
21
-66.977499999999992
0
LINE
8
BLACK
6
CONTINUOUS
10
197.1349999999999909
20
-66.977499999999992
11
195.9599999999999795
21
-66.977499999999992
0
LINE
8
BLACK
6
CONTINUOUS
10
195.9599999999999795
20
-66.977499999999992
11
195.9025969999999859
21
-66.9660820000000001
0
LINE
8
BLACK
6
CONTINUOUS
10
195.9025969999999859
20
-66.9660820000000001
11
195.8539339999999811
21
-66.933565999999999
0
LINE
8
BLACK
6
CONTINUOUS
10
195.8539339999999811
20
-66.933565999999999
11
195.8214179999999942
21
-66.8849029999999942
0
LINE
8
BLACK
6
CONTINUOUS
10
195.8214179999999942
20
-66.8849029999999942
11
195.8100000000000023
21
-66.8275000000000006
0
LINE
8
BLACK
6
CONTINUOUS
10
195.8100000000000023
20
-66.8275000000000006
11
195.8100000000000023
21
-66.5275000000000034
0
LINE
8
BLACK
6
CONTINUOUS
10
195.8100000000000023
20
-66.5275000000000034
11
195.8214179999999942
21
-66.4700969999999955
0
LINE
8
BLACK
6
CONTINUOUS
10
195.8214179999999942
20
-66.4700969999999955
11
195.8539339999999811
21
-66.4214339999999908
0
LINE
8
BLACK
6
CONTINUOUS
10
195.8539339999999811
20
-66.4214339999999908
11
195.9025969999999859
21
-66.3889180000000039
0
LINE
8
BLACK
6
CONTINUOUS
10
195.9025969999999859
20
-66.3889180000000039
11
195.9599999999999795
21
-66.3774999999999977
0
LINE
8
BLACK
6
CONTINUOUS
10
195.9599999999999795
20
-66.3774999999999977
11
197.1349999999999909
21
-66.3774999999999977
0
LINE
8
BLACK
6
CONTINUOUS
10
197.1349999999999909
20
-66.3774999999999977
11
197.1924029999999846
21
-66.3889180000000039
0
LINE
8
BLACK
6
CONTINUOUS
10
204.2331709999999987
20
-64.4065300000000036
11
204.3142770000000041
21
-64.4607230000000015
0
LINE
8
BLACK
6
CONTINUOUS
10
204.3142770000000041
20
-64.4607230000000015
11
204.3684700000000021
21
-64.5418289999999928
0
LINE
8
BLACK
6
CONTINUOUS
10
204.3684700000000021
20
-64.5418289999999928
11
204.3874999999999886
21
-64.6375000000000028
0
LINE
8
BLACK
6
CONTINUOUS
10
204.3874999999999886
20
-64.6375000000000028
11
204.3874999999999886
21
-65.5374999999999943
0
LINE
8
BLACK
6
CONTINUOUS
10
204.3874999999999886
20
-65.5374999999999943
11
204.3684700000000021
21
-65.6331709999999902
0
LINE
8
BLACK
6
CONTINUOUS
10
204.3684700000000021
20
-65.6331709999999902
11
204.3142770000000041
21
-65.7142769999999956
0
LINE
8
BLACK
6
CONTINUOUS
10
204.3142770000000041
20
-65.7142769999999956
11
204.2331709999999987
21
-65.7684699999999935
0
LINE
8
BLACK
6
CONTINUOUS
10
204.2331709999999987
20
-65.7684699999999935
11
204.1374999999999886
21
-65.7874999999999943
0
LINE
8
BLACK
6
CONTINUOUS
10
204.1374999999999886
20
-65.7874999999999943
11
203.4375
21
-65.7874999999999943
0
LINE
8
BLACK
6
CONTINUOUS
10
203.4375
20
-65.7874999999999943
11
203.3418289999999899
21
-65.7684699999999935
0
LINE
8
BLACK
6
CONTINUOUS
10
203.3418289999999899
20
-65.7684699999999935
11
203.2607229999999845
21
-65.7142769999999956
0
LINE
8
BLACK
6
CONTINUOUS
10
203.2607229999999845
20
-65.7142769999999956
11
203.2065299999999866
21
-65.6331709999999902
0
LINE
8
BLACK
6
CONTINUOUS
10
203.2065299999999866
20
-65.6331709999999902
11
203.1875
21
-65.5374999999999943
0
LINE
8
BLACK
6
CONTINUOUS
10
203.1875
20
-65.5374999999999943
11
203.1875
21
-64.6375000000000028
0
LINE
8
BLACK
6
CONTINUOUS
10
203.1875
20
-64.6375000000000028
11
203.2065299999999866
21
-64.5418289999999928
0
LINE
8
BLACK
6
CONTINUOUS
10
203.2065299999999866
20
-64.5418289999999928
11
203.2607229999999845
21
-64.4607230000000015
0
LINE
8
BLACK
6
CONTINUOUS
10
203.2607229999999845
20
-64.4607230000000015
11
203.3418289999999899
21
-64.4065300000000036
0
LINE
8
BLACK
6
CONTINUOUS
10
203.3418289999999899
20
-64.4065300000000036
11
203.4375
21
-64.3875000000000028
0
LINE
8
BLACK
6
CONTINUOUS
10
203.4375
20
-64.3875000000000028
11
204.1374999999999886
21
-64.3875000000000028
0
LINE
8
BLACK
6
CONTINUOUS
10
204.1374999999999886
20
-64.3875000000000028
11
204.2331709999999987
21
-64.4065300000000036
0
LINE
8
BLACK
6
CONTINUOUS
10
206.2331709999999987
20
-64.4065300000000036
11
206.3142770000000041
21
-64.4607230000000015
0
LINE
8
BLACK
6
CONTINUOUS
10
206.3142770000000041
20
-64.4607230000000015
11
206.3684700000000021
21
-64.5418289999999928
0
LINE
8
BLACK
6
CONTINUOUS
10
206.3684700000000021
20
-64.5418289999999928
11
206.3874999999999886
21
-64.6375000000000028
0
LINE
8
BLACK
6
CONTINUOUS
10
206.3874999999999886
20
-64.6375000000000028
11
206.3874999999999886
21
-65.5374999999999943
0
LINE
8
BLACK
6
CONTINUOUS
10
206.3874999999999886
20
-65.5374999999999943
11
206.3684700000000021
21
-65.6331709999999902
0
LINE
8
BLACK
6
CONTINUOUS
10
206.3684700000000021
20
-65.6331709999999902
11
206.3142770000000041
21
-65.7142769999999956
0
LINE
8
BLACK
6
CONTINUOUS
10
206.3142770000000041
20
-65.7142769999999956
11
206.2331709999999987
21
-65.7684699999999935
0
LINE
8
BLACK
6
CONTINUOUS
10
206.2331709999999987
20
-65.7684699999999935
11
206.1374999999999886
21
-65.7874999999999943
0
LINE
8
BLACK
6
CONTINUOUS
10
206.1374999999999886
20
-65.7874999999999943
11
205.4375
21
-65.7874999999999943
0
LINE
8
BLACK
6
CONTINUOUS
10
205.4375
20
-65.7874999999999943
11
205.3418289999999899
21
-65.7684699999999935
0
LINE
8
BLACK
6
CONTINUOUS
10
205.3418289999999899
20
-65.7684699999999935
11
205.2607229999999845
21
-65.7142769999999956
0
LINE
8
BLACK
6
CONTINUOUS
10
205.2607229999999845
20
-65.7142769999999956
11
205.2065299999999866
21
-65.6331709999999902
0
LINE
8
BLACK
6
CONTINUOUS
10
205.2065299999999866
20
-65.6331709999999902
11
205.1875
21
-65.5374999999999943
0
LINE
8
BLACK
6
CONTINUOUS
10
205.1875
20
-65.5374999999999943
11
205.1875
21
-64.6375000000000028
0
LINE
8
BLACK
6
CONTINUOUS
10
205.1875
20
-64.6375000000000028
11
205.2065299999999866
21
-64.5418289999999928
0
LINE
8
BLACK
6
CONTINUOUS
10
205.2065299999999866
20
-64.5418289999999928
11
205.2607229999999845
21
-64.4607230000000015
0
LINE
8
BLACK
6
CONTINUOUS
10
205.2607229999999845
20
-64.4607230000000015
11
205.3418289999999899
21
-64.4065300000000036
0
LINE
8
BLACK
6
CONTINUOUS
10
205.3418289999999899
20
-64.4065300000000036
11
205.4375
21
-64.3875000000000028
0
LINE
8
BLACK
6
CONTINUOUS
10
205.4375
20
-64.3875000000000028
11
206.1374999999999886
21
-64.3875000000000028
0
LINE
8
BLACK
6
CONTINUOUS
10
206.1374999999999886
20
-64.3875000000000028
11
206.2331709999999987
21
-64.4065300000000036
0
LINE
8
BLACK
6
CONTINUOUS
10
171.8874999999999886
20
-64.980000000000004
11
170.3874999999999886
21
-64.980000000000004
0
LINE
8
BLACK
6
CONTINUOUS
10
170.3874999999999886
20
-64.980000000000004
11
170.3874999999999886
21
-64.0799999999999983
0
LINE
8
BLACK
6
CONTINUOUS
10
170.3874999999999886
20
-64.0799999999999983
11
171.8874999999999886
21
-64.0799999999999983
0
LINE
8
BLACK
6
CONTINUOUS
10
171.8874999999999886
20
-64.0799999999999983
11
171.8874999999999886
21
-64.980000000000004
0
LINE
8
BLACK
6
CONTINUOUS
10
197.1924029999999846
20
-63.2089179999999971
11
197.2410659999999893
21
-63.2414339999999982
0
LINE
8
BLACK
6
CONTINUOUS
10
197.2410659999999893
20
-63.2414339999999982
11
197.2735820000000047
21
-63.2900969999999958
0
LINE
8
BLACK
6
CONTINUOUS
10
197.2735820000000047
20
-63.2900969999999958
11
197.2849999999999966
21
-63.3474999999999966
0
LINE
8
BLACK
6
CONTINUOUS
10
197.2849999999999966
20
-63.3474999999999966
11
197.2849999999999966
21
-63.6474999999999937
0
LINE
8
BLACK
6
CONTINUOUS
10
197.2849999999999966
20
-63.6474999999999937
11
197.2735820000000047
21
-63.7049029999999945
0
LINE
8
BLACK
6
CONTINUOUS
10
197.2735820000000047
20
-63.7049029999999945
11
197.2410659999999893
21
-63.7535659999999993
0
LINE
8
BLACK
6
CONTINUOUS
10
197.2410659999999893
20
-63.7535659999999993
11
197.1924029999999846
21
-63.7860820000000004
0
LINE
8
BLACK
6
CONTINUOUS
10
197.1924029999999846
20
-63.7860820000000004
11
197.1349999999999909
21
-63.7974999999999994
0
LINE
8
BLACK
6
CONTINUOUS
10
197.1349999999999909
20
-63.7974999999999994
11
195.9599999999999795
21
-63.7974999999999994
0
LINE
8
BLACK
6
CONTINUOUS
10
195.9599999999999795
20
-63.7974999999999994
11
195.9025969999999859
21
-63.7860820000000004
0
LINE
8
BLACK
6
CONTINUOUS
10
195.9025969999999859
20
-63.7860820000000004
11
195.8539339999999811
21
-63.7535659999999993
0
LINE
8
BLACK
6
CONTINUOUS
10
195.8539339999999811
20
-63.7535659999999993
11
195.8214179999999942
21
-63.7049029999999945
0
LINE
8
BLACK
6
CONTINUOUS
10
195.8214179999999942
20
-63.7049029999999945
11
195.8100000000000023
21
-63.6474999999999937
0
LINE
8
BLACK
6
CONTINUOUS
10
195.8100000000000023
20
-63.6474999999999937
11
195.8100000000000023
21
-63.3474999999999966
0
LINE
8
BLACK
6
CONTINUOUS
10
195.8100000000000023
20
-63.3474999999999966
11
195.8214179999999942
21
-63.2900969999999958
0
LINE
8
BLACK
6
CONTINUOUS
10
195.8214179999999942
20
-63.2900969999999958
11
195.8539339999999811
21
-63.2414339999999982
0
LINE
8
BLACK
6
CONTINUOUS
10
195.8539339999999811
20
-63.2414339999999982
11
195.9025969999999859
21
-63.2089179999999971
0
LINE
8
BLACK
6
CONTINUOUS
10
195.9025969999999859
20
-63.2089179999999971
11
195.9599999999999795
21
-63.197499999999998
0
LINE
8
BLACK
6
CONTINUOUS
10
195.9599999999999795
20
-63.197499999999998
11
197.1349999999999909
21
-63.197499999999998
0
LINE
8
BLACK
6
CONTINUOUS
10
197.1349999999999909
20
-63.197499999999998
11
197.1924029999999846
21
-63.2089179999999971
0
LINE
8
BLACK
6
CONTINUOUS
10
171.8874999999999886
20
-63.7099999999999937
11
170.3874999999999886
21
-63.7099999999999937
0
LINE
8
BLACK
6
CONTINUOUS
10
170.3874999999999886
20
-63.7099999999999937
11
170.3874999999999886
21
-62.8099999999999952
0
LINE
8
BLACK
6
CONTINUOUS
10
170.3874999999999886
20
-62.8099999999999952
11
171.8874999999999886
21
-62.8099999999999952
0
LINE
8
BLACK
6
CONTINUOUS
10
171.8874999999999886
20
-62.8099999999999952
11
171.8874999999999886
21
-63.7099999999999937
0
LINE
8
BLACK
6
CONTINUOUS
10
204.2331709999999987
20
-61.8665299999999974
11
204.3142770000000041
21
-61.9207229999999953
0
LINE
8
BLACK
6
CONTINUOUS
10
204.3142770000000041
20
-61.9207229999999953
11
204.3684700000000021
21
-62.0018290000000007
0
LINE
8
BLACK
6
CONTINUOUS
10
204.3684700000000021
20
-62.0018290000000007
11
204.3874999999999886
21
-62.0974999999999966
0
LINE
8
BLACK
6
CONTINUOUS
10
204.3874999999999886
20
-62.0974999999999966
11
204.3874999999999886
21
-62.9974999999999952
0
LINE
8
BLACK
6
CONTINUOUS
10
204.3874999999999886
20
-62.9974999999999952
11
204.3684700000000021
21
-63.0931709999999981
0
LINE
8
BLACK
6
CONTINUOUS
10
204.3684700000000021
20
-63.0931709999999981
11
204.3142770000000041
21
-63.1742769999999965
0
LINE
8
BLACK
6
CONTINUOUS
10
204.3142770000000041
20
-63.1742769999999965
11
204.2331709999999987
21
-63.2284699999999944
0
LINE
8
BLACK
6
CONTINUOUS
10
204.2331709999999987
20
-63.2284699999999944
11
204.1374999999999886
21
-63.2474999999999952
0
LINE
8
BLACK
6
CONTINUOUS
10
204.1374999999999886
20
-63.2474999999999952
11
203.4375
21
-63.2474999999999952
0
LINE
8
BLACK
6
CONTINUOUS
10
203.4375
20
-63.2474999999999952
11
203.3418289999999899
21
-63.2284699999999944
0
LINE
8
BLACK
6
CONTINUOUS
10
203.3418289999999899
20
-63.2284699999999944
11
203.2607229999999845
21
-63.1742769999999965
0
LINE
8
BLACK
6
CONTINUOUS
10
203.2607229999999845
20
-63.1742769999999965
11
203.2065299999999866
21
-63.0931709999999981
0
LINE
8
BLACK
6
CONTINUOUS
10
203.2065299999999866
20
-63.0931709999999981
11
203.1875
21
-62.9974999999999952
0
LINE
8
BLACK
6
CONTINUOUS
10
203.1875
20
-62.9974999999999952
11
203.1875
21
-62.0974999999999966
0
LINE
8
BLACK
6
CONTINUOUS
10
203.1875
20
-62.0974999999999966
11
203.2065299999999866
21
-62.0018290000000007
0
LINE
8
BLACK
6
CONTINUOUS
10
203.2065299999999866
20
-62.0018290000000007
11
203.2607229999999845
21
-61.9207229999999953
0
LINE
8
BLACK
6
CONTINUOUS
10
203.2607229999999845
20
-61.9207229999999953
11
203.3418289999999899
21
-61.8665299999999974
0
LINE
8
BLACK
6
CONTINUOUS
10
203.3418289999999899
20
-61.8665299999999974
11
203.4375
21
-61.8474999999999966
0
LINE
8
BLACK
6
CONTINUOUS
10
203.4375
20
-61.8474999999999966
11
204.1374999999999886
21
-61.8474999999999966
0
LINE
8
BLACK
6
CONTINUOUS
10
204.1374999999999886
20
-61.8474999999999966
11
204.2331709999999987
21
-61.8665299999999974
0
LINE
8
BLACK
6
CONTINUOUS
10
206.2331709999999987
20
-61.8665299999999974
11
206.3142770000000041
21
-61.9207229999999953
0
LINE
8
BLACK
6
CONTINUOUS
10
206.3142770000000041
20
-61.9207229999999953
11
206.3684700000000021
21
-62.0018290000000007
0
LINE
8
BLACK
6
CONTINUOUS
10
206.3684700000000021
20
-62.0018290000000007
11
206.3874999999999886
21
-62.0974999999999966
0
LINE
8
BLACK
6
CONTINUOUS
10
206.3874999999999886
20
-62.0974999999999966
11
206.3874999999999886
21
-62.9974999999999952
0
LINE
8
BLACK
6
CONTINUOUS
10
206.3874999999999886
20
-62.9974999999999952
11
206.3684700000000021
21
-63.0931709999999981
0
LINE
8
BLACK
6
CONTINUOUS
10
206.3684700000000021
20
-63.0931709999999981
11
206.3142770000000041
21
-63.1742769999999965
0
LINE
8
BLACK
6
CONTINUOUS
10
206.3142770000000041
20
-63.1742769999999965
11
206.2331709999999987
21
-63.2284699999999944
0
LINE
8
BLACK
6
CONTINUOUS
10
206.2331709999999987
20
-63.2284699999999944
11
206.1374999999999886
21
-63.2474999999999952
0
LINE
8
BLACK
6
CONTINUOUS
10
206.1374999999999886
20
-63.2474999999999952
11
205.4375
21
-63.2474999999999952
0
LINE
8
BLACK
6
CONTINUOUS
10
205.4375
20
-63.2474999999999952
11
205.3418289999999899
21
-63.2284699999999944
0
LINE
8
BLACK
6
CONTINUOUS
10
205.3418289999999899
20
-63.2284699999999944
11
205.2607229999999845
21
-63.1742769999999965
0
LINE
8
BLACK
6
CONTINUOUS
10
205.2607229999999845
20
-63.1742769999999965
11
205.2065299999999866
21
-63.0931709999999981
0
LINE
8
BLACK
6
CONTINUOUS
10
205.2065299999999866
20
-63.0931709999999981
11
205.1875
21
-62.9974999999999952
0
LINE
8
BLACK
6
CONTINUOUS
10
205.1875
20
-62.9974999999999952
11
205.1875
21
-62.0974999999999966
0
LINE
8
BLACK
6
CONTINUOUS
10
205.1875
20
-62.0974999999999966
11
205.2065299999999866
21
-62.0018290000000007
0
LINE
8
BLACK
6
CONTINUOUS
10
205.2065299999999866
20
-62.0018290000000007
11
205.2607229999999845
21
-61.9207229999999953
0
LINE
8
BLACK
6
CONTINUOUS
10
205.2607229999999845
20
-61.9207229999999953
11
205.3418289999999899
21
-61.8665299999999974
0
LINE
8
BLACK
6
CONTINUOUS
10
205.3418289999999899
20
-61.8665299999999974
11
205.4375
21
-61.8474999999999966
0
LINE
8
BLACK
6
CONTINUOUS
10
205.4375
20
-61.8474999999999966
11
206.1374999999999886
21
-61.8474999999999966
0
LINE
8
BLACK
6
CONTINUOUS
10
206.1374999999999886
20
-61.8474999999999966
11
206.2331709999999987
21
-61.8665299999999974
0
LINE
8
BLACK
6
CONTINUOUS
10
199.0674029999999846
20
-62.2589179999999942
11
199.1160659999999893
21
-62.2914339999999953
0
LINE
8
BLACK
6
CONTINUOUS
10
199.1160659999999893
20
-62.2914339999999953
11
199.1485820000000047
21
-62.3400970000000001
0
LINE
8
BLACK
6
CONTINUOUS
10
199.1485820000000047
20
-62.3400970000000001
11
199.1599999999999966
21
-62.3974999999999937
0
LINE
8
BLACK
6
CONTINUOUS
10
199.1599999999999966
20
-62.3974999999999937
11
199.1599999999999966
21
-62.697499999999998
0
LINE
8
BLACK
6
CONTINUOUS
10
199.1599999999999966
20
-62.697499999999998
11
199.1485820000000047
21
-62.7549029999999988
0
LINE
8
BLACK
6
CONTINUOUS
10
199.1485820000000047
20
-62.7549029999999988
11
199.1160659999999893
21
-62.8035659999999964
0
LINE
8
BLACK
6
CONTINUOUS
10
199.1160659999999893
20
-62.8035659999999964
11
199.0674029999999846
21
-62.8360819999999975
0
LINE
8
BLACK
6
CONTINUOUS
10
199.0674029999999846
20
-62.8360819999999975
11
199.0099999999999909
21
-62.8474999999999966
0
LINE
8
BLACK
6
CONTINUOUS
10
199.0099999999999909
20
-62.8474999999999966
11
197.8349999999999795
21
-62.8474999999999966
0
LINE
8
BLACK
6
CONTINUOUS
10
197.8349999999999795
20
-62.8474999999999966
11
197.7775969999999859
21
-62.8360819999999975
0
LINE
8
BLACK
6
CONTINUOUS
10
197.7775969999999859
20
-62.8360819999999975
11
197.7289339999999811
21
-62.8035659999999964
0
LINE
8
BLACK
6
CONTINUOUS
10
197.7289339999999811
20
-62.8035659999999964
11
197.6964179999999942
21
-62.7549029999999988
0
LINE
8
BLACK
6
CONTINUOUS
10
197.6964179999999942
20
-62.7549029999999988
11
197.6850000000000023
21
-62.697499999999998
0
LINE
8
BLACK
6
CONTINUOUS
10
197.6850000000000023
20
-62.697499999999998
11
197.6850000000000023
21
-62.3974999999999937
0
LINE
8
BLACK
6
CONTINUOUS
10
197.6850000000000023
20
-62.3974999999999937
11
197.6964179999999942
21
-62.3400970000000001
0
LINE
8
BLACK
6
CONTINUOUS
10
197.6964179999999942
20
-62.3400970000000001
11
197.7289339999999811
21
-62.2914339999999953
0
LINE
8
BLACK
6
CONTINUOUS
10
197.7289339999999811
20
-62.2914339999999953
11
197.7775969999999859
21
-62.2589179999999942
0
LINE
8
BLACK
6
CONTINUOUS
10
197.7775969999999859
20
-62.2589179999999942
11
197.8349999999999795
21
-62.2474999999999952
0
LINE
8
BLACK
6
CONTINUOUS
10
197.8349999999999795
20
-62.2474999999999952
11
199.0099999999999909
21
-62.2474999999999952
0
LINE
8
BLACK
6
CONTINUOUS
10
199.0099999999999909
20
-62.2474999999999952
11
199.0674029999999846
21
-62.2589179999999942
0
LINE
8
BLACK
6
CONTINUOUS
10
171.8874999999999886
20
-62.4399999999999977
11
170.3874999999999886
21
-62.4399999999999977
0
LINE
8
BLACK
6
CONTINUOUS
10
170.3874999999999886
20
-62.4399999999999977
11
170.3874999999999886
21
-61.5399999999999991
0
LINE
8
BLACK
6
CONTINUOUS
10
170.3874999999999886
20
-61.5399999999999991
11
171.8874999999999886
21
-61.5399999999999991
0
LINE
8
BLACK
6
CONTINUOUS
10
171.8874999999999886
20
-61.5399999999999991
11
171.8874999999999886
21
-62.4399999999999977
0
LINE
8
BLACK
6
CONTINUOUS
10
177.5974999999999966
20
-61.9375
11
176.0974999999999966
21
-61.9375
0
LINE
8
BLACK
6
CONTINUOUS
10
176.0974999999999966
20
-61.9375
11
176.0974999999999966
21
-60.4375
0
LINE
8
BLACK
6
CONTINUOUS
10
176.0974999999999966
20
-60.4375
11
177.5974999999999966
21
-60.4375
0
LINE
8
BLACK
6
CONTINUOUS
10
177.5974999999999966
20
-60.4375
11
177.5974999999999966
21
-61.9375
0
LINE
8
BLACK
6
CONTINUOUS
10
197.1924029999999846
20
-61.3089179999999985
11
197.2410659999999893
21
-61.3414339999999996
0
LINE
8
BLACK
6
CONTINUOUS
10
197.2410659999999893
20
-61.3414339999999996
11
197.2735820000000047
21
-61.3900969999999973
0
LINE
8
BLACK
6
CONTINUOUS
10
197.2735820000000047
20
-61.3900969999999973
11
197.2849999999999966
21
-61.447499999999998
0
LINE
8
BLACK
6
CONTINUOUS
10
197.2849999999999966
20
-61.447499999999998
11
197.2849999999999966
21
-61.7474999999999952
0
LINE
8
BLACK
6
CONTINUOUS
10
197.2849999999999966
20
-61.7474999999999952
11
197.2735820000000047
21
-61.8049029999999959
0
LINE
8
BLACK
6
CONTINUOUS
10
197.2735820000000047
20
-61.8049029999999959
11
197.2410659999999893
21
-61.8535660000000007
0
LINE
8
BLACK
6
CONTINUOUS
10
197.2410659999999893
20
-61.8535660000000007
11
197.1924029999999846
21
-61.8860819999999947
0
LINE
8
BLACK
6
CONTINUOUS
10
197.1924029999999846
20
-61.8860819999999947
11
197.1349999999999909
21
-61.8974999999999937
0
LINE
8
BLACK
6
CONTINUOUS
10
197.1349999999999909
20
-61.8974999999999937
11
195.9599999999999795
21
-61.8974999999999937
0
LINE
8
BLACK
6
CONTINUOUS
10
195.9599999999999795
20
-61.8974999999999937
11
195.9025969999999859
21
-61.8860819999999947
0
LINE
8
BLACK
6
CONTINUOUS
10
195.9025969999999859
20
-61.8860819999999947
11
195.8539339999999811
21
-61.8535660000000007
0
LINE
8
BLACK
6
CONTINUOUS
10
195.8539339999999811
20
-61.8535660000000007
11
195.8214179999999942
21
-61.8049029999999959
0
LINE
8
BLACK
6
CONTINUOUS
10
195.8214179999999942
20
-61.8049029999999959
11
195.8100000000000023
21
-61.7474999999999952
0
LINE
8
BLACK
6
CONTINUOUS
10
195.8100000000000023
20
-61.7474999999999952
11
195.8100000000000023
21
-61.447499999999998
0
LINE
8
BLACK
6
CONTINUOUS
10
195.8100000000000023
20
-61.447499999999998
11
195.8214179999999942
21
-61.3900969999999973
0
LINE
8
BLACK
6
CONTINUOUS
10
195.8214179999999942
20
-61.3900969999999973
11
195.8539339999999811
21
-61.3414339999999996
0
LINE
8
BLACK
6
CONTINUOUS
10
195.8539339999999811
20
-61.3414339999999996
11
195.9025969999999859
21
-61.3089179999999985
0
LINE
8
BLACK
6
CONTINUOUS
10
195.9025969999999859
20
-61.3089179999999985
11
195.9599999999999795
21
-61.2974999999999994
0
LINE
8
BLACK
6
CONTINUOUS
10
195.9599999999999795
20
-61.2974999999999994
11
197.1349999999999909
21
-61.2974999999999994
0
LINE
8
BLACK
6
CONTINUOUS
10
197.1349999999999909
20
-61.2974999999999994
11
197.1924029999999846
21
-61.3089179999999985
0
LINE
8
BLACK
6
CONTINUOUS
10
159.7175000000000011
20
-61.5499999999999972
11
158.6674999999999898
21
-61.5499999999999972
0
LINE
8
BLACK
6
CONTINUOUS
10
158.6674999999999898
20
-61.5499999999999972
11
158.6674999999999898
21
-60.5
0
LINE
8
BLACK
6
CONTINUOUS
10
158.6674999999999898
20
-60.5
11
159.7175000000000011
21
-60.5
0
LINE
8
BLACK
6
CONTINUOUS
10
159.7175000000000011
20
-60.5
11
159.7175000000000011
21
-61.5499999999999972
0
LINE
8
BLACK
6
CONTINUOUS
10
161.2425000000000068
20
-61.5499999999999972
11
160.1924999999999955
21
-61.5499999999999972
0
LINE
8
BLACK
6
CONTINUOUS
10
160.1924999999999955
20
-61.5499999999999972
11
160.1924999999999955
21
-60.5
0
LINE
8
BLACK
6
CONTINUOUS
10
160.1924999999999955
20
-60.5
11
161.2425000000000068
21
-60.5
0
LINE
8
BLACK
6
CONTINUOUS
10
161.2425000000000068
20
-60.5
11
161.2425000000000068
21
-61.5499999999999972
0
LINE
8
BLACK
6
CONTINUOUS
10
162.7674999999999841
20
-61.5499999999999972
11
161.7175000000000011
21
-61.5499999999999972
0
LINE
8
BLACK
6
CONTINUOUS
10
161.7175000000000011
20
-61.5499999999999972
11
161.7175000000000011
21
-60.5
0
LINE
8
BLACK
6
CONTINUOUS
10
161.7175000000000011
20
-60.5
11
162.7674999999999841
21
-60.5
0
LINE
8
BLACK
6
CONTINUOUS
10
162.7674999999999841
20
-60.5
11
162.7674999999999841
21
-61.5499999999999972
0
LINE
8
BLACK
6
CONTINUOUS
10
171.8874999999999886
20
-61.1699999999999946
11
170.3874999999999886
21
-61.1699999999999946
0
LINE
8
BLACK
6
CONTINUOUS
10
170.3874999999999886
20
-61.1699999999999946
11
170.3874999999999886
21
-60.269999999999996
0
LINE
8
BLACK
6
CONTINUOUS
10
170.3874999999999886
20
-60.269999999999996
11
171.8874999999999886
21
-60.269999999999996
0
LINE
8
BLACK
6
CONTINUOUS
10
171.8874999999999886
20
-60.269999999999996
11
171.8874999999999886
21
-61.1699999999999946
0
LINE
8
BLACK
6
CONTINUOUS
10
204.2331709999999987
20
-59.3265299999999982
11
204.3142770000000041
21
-59.3807229999999961
0
LINE
8
BLACK
6
CONTINUOUS
10
204.3142770000000041
20
-59.3807229999999961
11
204.3684700000000021
21
-59.4618289999999945
0
LINE
8
BLACK
6
CONTINUOUS
10
204.3684700000000021
20
-59.4618289999999945
11
204.3874999999999886
21
-59.5574999999999974
0
LINE
8
BLACK
6
CONTINUOUS
10
204.3874999999999886
20
-59.5574999999999974
11
204.3874999999999886
21
-60.457499999999996
0
LINE
8
BLACK
6
CONTINUOUS
10
204.3874999999999886
20
-60.457499999999996
11
204.3684700000000021
21
-60.553170999999999
0
LINE
8
BLACK
6
CONTINUOUS
10
204.3684700000000021
20
-60.553170999999999
11
204.3142770000000041
21
-60.6342769999999973
0
LINE
8
BLACK
6
CONTINUOUS
10
204.3142770000000041
20
-60.6342769999999973
11
204.2331709999999987
21
-60.6884699999999953
0
LINE
8
BLACK
6
CONTINUOUS
10
204.2331709999999987
20
-60.6884699999999953
11
204.1374999999999886
21
-60.707499999999996
0
LINE
8
BLACK
6
CONTINUOUS
10
204.1374999999999886
20
-60.707499999999996
11
203.4375
21
-60.707499999999996
0
LINE
8
BLACK
6
CONTINUOUS
10
203.4375
20
-60.707499999999996
11
203.3418289999999899
21
-60.6884699999999953
0
LINE
8
BLACK
6
CONTINUOUS
10
203.3418289999999899
20
-60.6884699999999953
11
203.2607229999999845
21
-60.6342769999999973
0
LINE
8
BLACK
6
CONTINUOUS
10
203.2607229999999845
20
-60.6342769999999973
11
203.2065299999999866
21
-60.553170999999999
0
LINE
8
BLACK
6
CONTINUOUS
10
203.2065299999999866
20
-60.553170999999999
11
203.1875
21
-60.457499999999996
0
LINE
8
BLACK
6
CONTINUOUS
10
203.1875
20
-60.457499999999996
11
203.1875
21
-59.5574999999999974
0
LINE
8
BLACK
6
CONTINUOUS
10
203.1875
20
-59.5574999999999974
11
203.2065299999999866
21
-59.4618289999999945
0
LINE
8
BLACK
6
CONTINUOUS
10
203.2065299999999866
20
-59.4618289999999945
11
203.2607229999999845
21
-59.3807229999999961
0
LINE
8
BLACK
6
CONTINUOUS
10
203.2607229999999845
20
-59.3807229999999961
11
203.3418289999999899
21
-59.3265299999999982
0
LINE
8
BLACK
6
CONTINUOUS
10
203.3418289999999899
20
-59.3265299999999982
11
203.4375
21
-59.3074999999999974
0
LINE
8
BLACK
6
CONTINUOUS
10
203.4375
20
-59.3074999999999974
11
204.1374999999999886
21
-59.3074999999999974
0
LINE
8
BLACK
6
CONTINUOUS
10
204.1374999999999886
20
-59.3074999999999974
11
204.2331709999999987
21
-59.3265299999999982
0
LINE
8
BLACK
6
CONTINUOUS
10
206.2331709999999987
20
-59.3265299999999982
11
206.3142770000000041
21
-59.3807229999999961
0
LINE
8
BLACK
6
CONTINUOUS
10
206.3142770000000041
20
-59.3807229999999961
11
206.3684700000000021
21
-59.4618289999999945
0
LINE
8
BLACK
6
CONTINUOUS
10
206.3684700000000021
20
-59.4618289999999945
11
206.3874999999999886
21
-59.5574999999999974
0
LINE
8
BLACK
6
CONTINUOUS
10
206.3874999999999886
20
-59.5574999999999974
11
206.3874999999999886
21
-60.457499999999996
0
LINE
8
BLACK
6
CONTINUOUS
10
206.3874999999999886
20
-60.457499999999996
11
206.3684700000000021
21
-60.553170999999999
0
LINE
8
BLACK
6
CONTINUOUS
10
206.3684700000000021
20
-60.553170999999999
11
206.3142770000000041
21
-60.6342769999999973
0
LINE
8
BLACK
6
CONTINUOUS
10
206.3142770000000041
20
-60.6342769999999973
11
206.2331709999999987
21
-60.6884699999999953
0
LINE
8
BLACK
6
CONTINUOUS
10
206.2331709999999987
20
-60.6884699999999953
11
206.1374999999999886
21
-60.707499999999996
0
LINE
8
BLACK
6
CONTINUOUS
10
206.1374999999999886
20
-60.707499999999996
11
205.4375
21
-60.707499999999996
0
LINE
8
BLACK
6
CONTINUOUS
10
205.4375
20
-60.707499999999996
11
205.3418289999999899
21
-60.6884699999999953
0
LINE
8
BLACK
6
CONTINUOUS
10
205.3418289999999899
20
-60.6884699999999953
11
205.2607229999999845
21
-60.6342769999999973
0
LINE
8
BLACK
6
CONTINUOUS
10
205.2607229999999845
20
-60.6342769999999973
11
205.2065299999999866
21
-60.553170999999999
0
LINE
8
BLACK
6
CONTINUOUS
10
205.2065299999999866
20
-60.553170999999999
11
205.1875
21
-60.457499999999996
0
LINE
8
BLACK
6
CONTINUOUS
10
205.1875
20
-60.457499999999996
11
205.1875
21
-59.5574999999999974
0
LINE
8
BLACK
6
CONTINUOUS
10
205.1875
20
-59.5574999999999974
11
205.2065299999999866
21
-59.4618289999999945
0
LINE
8
BLACK
6
CONTINUOUS
10
205.2065299999999866
20
-59.4618289999999945
11
205.2607229999999845
21
-59.3807229999999961
0
LINE
8
BLACK
6
CONTINUOUS
10
205.2607229999999845
20
-59.3807229999999961
11
205.3418289999999899
21
-59.3265299999999982
0
LINE
8
BLACK
6
CONTINUOUS
10
205.3418289999999899
20
-59.3265299999999982
11
205.4375
21
-59.3074999999999974
0
LINE
8
BLACK
6
CONTINUOUS
10
205.4375
20
-59.3074999999999974
11
206.1374999999999886
21
-59.3074999999999974
0
LINE
8
BLACK
6
CONTINUOUS
10
206.1374999999999886
20
-59.3074999999999974
11
206.2331709999999987
21
-59.3265299999999982
0
LINE
8
BLACK
6
CONTINUOUS
10
159.7175000000000011
20
-60.0249999999999986
11
158.6674999999999898
21
-60.0249999999999986
0
LINE
8
BLACK
6
CONTINUOUS
10
158.6674999999999898
20
-60.0249999999999986
11
158.6674999999999898
21
-58.9749999999999943
0
LINE
8
BLACK
6
CONTINUOUS
10
158.6674999999999898
20
-58.9749999999999943
11
159.7175000000000011
21
-58.9749999999999943
0
LINE
8
BLACK
6
CONTINUOUS
10
159.7175000000000011
20
-58.9749999999999943
11
159.7175000000000011
21
-60.0249999999999986
0
LINE
8
BLACK
6
CONTINUOUS
10
161.2425000000000068
20
-60.0249999999999986
11
160.1924999999999955
21
-60.0249999999999986
0
LINE
8
BLACK
6
CONTINUOUS
10
160.1924999999999955
20
-60.0249999999999986
11
160.1924999999999955
21
-58.9749999999999943
0
LINE
8
BLACK
6
CONTINUOUS
10
160.1924999999999955
20
-58.9749999999999943
11
161.2425000000000068
21
-58.9749999999999943
0
LINE
8
BLACK
6
CONTINUOUS
10
161.2425000000000068
20
-58.9749999999999943
11
161.2425000000000068
21
-60.0249999999999986
0
LINE
8
BLACK
6
CONTINUOUS
10
162.7674999999999841
20
-60.0249999999999986
11
161.7175000000000011
21
-60.0249999999999986
0
LINE
8
BLACK
6
CONTINUOUS
10
161.7175000000000011
20
-60.0249999999999986
11
161.7175000000000011
21
-58.9749999999999943
0
LINE
8
BLACK
6
CONTINUOUS
10
161.7175000000000011
20
-58.9749999999999943
11
162.7674999999999841
21
-58.9749999999999943
0
LINE
8
BLACK
6
CONTINUOUS
10
162.7674999999999841
20
-58.9749999999999943
11
162.7674999999999841
21
-60.0249999999999986
0
LINE
8
BLACK
6
CONTINUOUS
10
171.8874999999999886
20
-59.8999999999999986
11
170.3874999999999886
21
-59.8999999999999986
0
LINE
8
BLACK
6
CONTINUOUS
10
170.3874999999999886
20
-59.8999999999999986
11
170.3874999999999886
21
-59.
0
LINE
8
BLACK
6
CONTINUOUS
10
170.3874999999999886
20
-59.
11
171.8874999999999886
21
-59.
0
LINE
8
BLACK
6
CONTINUOUS
10
171.8874999999999886
20
-59.
11
171.8874999999999886
21
-59.8999999999999986
0
LINE
8
BLACK
6
CONTINUOUS
10
182.5574029999999937
20
-58.7639179999999968
11
182.6060659999999984
21
-58.7964339999999979
0
LINE
8
BLACK
6
CONTINUOUS
10
182.6060659999999984
20
-58.7964339999999979
11
182.6385819999999853
21
-58.8450969999999955
0
LINE
8
BLACK
6
CONTINUOUS
10
182.6385819999999853
20
-58.8450969999999955
11
182.6500000000000057
21
-58.9024999999999963
0
LINE
8
BLACK
6
CONTINUOUS
10
182.6500000000000057
20
-58.9024999999999963
11
182.6500000000000057
21
-59.2025000000000006
0
LINE
8
BLACK
6
CONTINUOUS
10
182.6500000000000057
20
-59.2025000000000006
11
182.6385819999999853
21
-59.2599029999999942
0
LINE
8
BLACK
6
CONTINUOUS
10
182.6385819999999853
20
-59.2599029999999942
11
182.6060659999999984
21
-59.308565999999999
0
LINE
8
BLACK
6
CONTINUOUS
10
182.6060659999999984
20
-59.308565999999999
11
182.5574029999999937
21
-59.3410820000000001
0
LINE
8
BLACK
6
CONTINUOUS
10
182.5574029999999937
20
-59.3410820000000001
11
182.5
21
-59.3524999999999991
0
LINE
8
BLACK
6
CONTINUOUS
10
182.5
20
-59.3524999999999991
11
181.3249999999999886
21
-59.3524999999999991
0
LINE
8
BLACK
6
CONTINUOUS
10
181.3249999999999886
20
-59.3524999999999991
11
181.267596999999995
21
-59.3410820000000001
0
LINE
8
BLACK
6
CONTINUOUS
10
181.267596999999995
20
-59.3410820000000001
11
181.2189339999999902
21
-59.308565999999999
0
LINE
8
BLACK
6
CONTINUOUS
10
181.2189339999999902
20
-59.308565999999999
11
181.1864180000000033
21
-59.2599029999999942
0
LINE
8
BLACK
6
CONTINUOUS
10
181.1864180000000033
20
-59.2599029999999942
11
181.1749999999999829
21
-59.2025000000000006
0
LINE
8
BLACK
6
CONTINUOUS
10
181.1749999999999829
20
-59.2025000000000006
11
181.1749999999999829
21
-58.9024999999999963
0
LINE
8
BLACK
6
CONTINUOUS
10
181.1749999999999829
20
-58.9024999999999963
11
181.1864180000000033
21
-58.8450969999999955
0
LINE
8
BLACK
6
CONTINUOUS
10
181.1864180000000033
20
-58.8450969999999955
11
181.2189339999999902
21
-58.7964339999999979
0
LINE
8
BLACK
6
CONTINUOUS
10
181.2189339999999902
20
-58.7964339999999979
11
181.267596999999995
21
-58.7639179999999968
0
LINE
8
BLACK
6
CONTINUOUS
10
181.267596999999995
20
-58.7639179999999968
11
181.3249999999999886
21
-58.7524999999999977
0
LINE
8
BLACK
6
CONTINUOUS
10
181.3249999999999886
20
-58.7524999999999977
11
182.5
21
-58.7524999999999977
0
LINE
8
BLACK
6
CONTINUOUS
10
182.5
20
-58.7524999999999977
11
182.5574029999999937
21
-58.7639179999999968
0
LINE
8
BLACK
6
CONTINUOUS
10
171.8874999999999886
20
-58.6299999999999955
11
170.3874999999999886
21
-58.6299999999999955
0
LINE
8
BLACK
6
CONTINUOUS
10
170.3874999999999886
20
-58.6299999999999955
11
170.3874999999999886
21
-57.7299999999999969
0
LINE
8
BLACK
6
CONTINUOUS
10
170.3874999999999886
20
-57.7299999999999969
11
171.8874999999999886
21
-57.7299999999999969
0
LINE
8
BLACK
6
CONTINUOUS
10
171.8874999999999886
20
-57.7299999999999969
11
171.8874999999999886
21
-58.6299999999999955
0
LINE
8
BLACK
6
CONTINUOUS
10
159.7175000000000011
20
-58.5
11
158.6674999999999898
21
-58.5
0
LINE
8
BLACK
6
CONTINUOUS
10
158.6674999999999898
20
-58.5
11
158.6674999999999898
21
-57.4499999999999957
0
LINE
8
BLACK
6
CONTINUOUS
10
158.6674999999999898
20
-57.4499999999999957
11
159.7175000000000011
21
-57.4499999999999957
0
LINE
8
BLACK
6
CONTINUOUS
10
159.7175000000000011
20
-57.4499999999999957
11
159.7175000000000011
21
-58.5
0
LINE
8
BLACK
6
CONTINUOUS
10
161.2425000000000068
20
-58.5
11
160.1924999999999955
21
-58.5
0
LINE
8
BLACK
6
CONTINUOUS
10
160.1924999999999955
20
-58.5
11
160.1924999999999955
21
-57.4499999999999957
0
LINE
8
BLACK
6
CONTINUOUS
10
160.1924999999999955
20
-57.4499999999999957
11
161.2425000000000068
21
-57.4499999999999957
0
LINE
8
BLACK
6
CONTINUOUS
10
161.2425000000000068
20
-57.4499999999999957
11
161.2425000000000068
21
-58.5
0
LINE
8
BLACK
6
CONTINUOUS
10
162.7674999999999841
20
-58.5
11
161.7175000000000011
21
-58.5
0
LINE
8
BLACK
6
CONTINUOUS
10
161.7175000000000011
20
-58.5
11
161.7175000000000011
21
-57.4499999999999957
0
LINE
8
BLACK
6
CONTINUOUS
10
161.7175000000000011
20
-57.4499999999999957
11
162.7674999999999841
21
-57.4499999999999957
0
LINE
8
BLACK
6
CONTINUOUS
10
162.7674999999999841
20
-57.4499999999999957
11
162.7674999999999841
21
-58.5
0
LINE
8
BLACK
6
CONTINUOUS
10
180.6824029999999937
20
-57.8139179999999939
11
180.7310659999999984
21
-57.846433999999995
0
LINE
8
BLACK
6
CONTINUOUS
10
180.7310659999999984
20
-57.846433999999995
11
180.7635819999999853
21
-57.8950969999999998
0
LINE
8
BLACK
6
CONTINUOUS
10
180.7635819999999853
20
-57.8950969999999998
11
180.7750000000000057
21
-57.9525000000000006
0
LINE
8
BLACK
6
CONTINUOUS
10
180.7750000000000057
20
-57.9525000000000006
11
180.7750000000000057
21
-58.2524999999999977
0
LINE
8
BLACK
6
CONTINUOUS
10
180.7750000000000057
20
-58.2524999999999977
11
180.7635819999999853
21
-58.3099029999999985
0
LINE
8
BLACK
6
CONTINUOUS
10
180.7635819999999853
20
-58.3099029999999985
11
180.7310659999999984
21
-58.3585659999999962
0
LINE
8
BLACK
6
CONTINUOUS
10
180.7310659999999984
20
-58.3585659999999962
11
180.6824029999999937
21
-58.3910819999999973
0
LINE
8
BLACK
6
CONTINUOUS
10
180.6824029999999937
20
-58.3910819999999973
11
180.625
21
-58.4024999999999963
0
LINE
8
BLACK
6
CONTINUOUS
10
180.625
20
-58.4024999999999963
11
179.4499999999999886
21
-58.4024999999999963
0
LINE
8
BLACK
6
CONTINUOUS
10
179.4499999999999886
20
-58.4024999999999963
11
179.392596999999995
21
-58.3910819999999973
0
LINE
8
BLACK
6
CONTINUOUS
10
179.392596999999995
20
-58.3910819999999973
11
179.3439339999999902
21
-58.3585659999999962
0
LINE
8
BLACK
6
CONTINUOUS
10
179.3439339999999902
20
-58.3585659999999962
11
179.3114180000000033
21
-58.3099029999999985
0
LINE
8
BLACK
6
CONTINUOUS
10
179.3114180000000033
20
-58.3099029999999985
11
179.2999999999999829
21
-58.2524999999999977
0
LINE
8
BLACK
6
CONTINUOUS
10
179.2999999999999829
20
-58.2524999999999977
11
179.2999999999999829
21
-57.9525000000000006
0
LINE
8
BLACK
6
CONTINUOUS
10
179.2999999999999829
20
-57.9525000000000006
11
179.3114180000000033
21
-57.8950969999999998
0
LINE
8
BLACK
6
CONTINUOUS
10
179.3114180000000033
20
-57.8950969999999998
11
179.3439339999999902
21
-57.846433999999995
0
LINE
8
BLACK
6
CONTINUOUS
10
179.3439339999999902
20
-57.846433999999995
11
179.392596999999995
21
-57.8139179999999939
0
LINE
8
BLACK
6
CONTINUOUS
10
179.392596999999995
20
-57.8139179999999939
11
179.4499999999999886
21
-57.8024999999999949
0
LINE
8
BLACK
6
CONTINUOUS
10
179.4499999999999886
20
-57.8024999999999949
11
180.625
21
-57.8024999999999949
0
LINE
8
BLACK
6
CONTINUOUS
10
180.625
20
-57.8024999999999949
11
180.6824029999999937
21
-57.8139179999999939
0
LINE
8
BLACK
6
CONTINUOUS
10
198.373170999999985
20
-56.6665299999999945
11
198.4542769999999905
21
-56.7207229999999996
0
LINE
8
BLACK
6
CONTINUOUS
10
198.4542769999999905
20
-56.7207229999999996
11
198.5084699999999884
21
-56.8018289999999979
0
LINE
8
BLACK
6
CONTINUOUS
10
198.5084699999999884
20
-56.8018289999999979
11
198.5275000000000034
21
-56.8975000000000009
0
LINE
8
BLACK
6
CONTINUOUS
10
198.5275000000000034
20
-56.8975000000000009
11
198.5275000000000034
21
-57.572499999999998
0
LINE
8
BLACK
6
CONTINUOUS
10
198.5275000000000034
20
-57.572499999999998
11
198.5084699999999884
21
-57.6681709999999939
0
LINE
8
BLACK
6
CONTINUOUS
10
198.5084699999999884
20
-57.6681709999999939
11
198.4542769999999905
21
-57.7492769999999993
0
LINE
8
BLACK
6
CONTINUOUS
10
198.4542769999999905
20
-57.7492769999999993
11
198.373170999999985
21
-57.8034699999999972
0
LINE
8
BLACK
6
CONTINUOUS
10
198.373170999999985
20
-57.8034699999999972
11
198.2775000000000034
21
-57.822499999999998
0
LINE
8
BLACK
6
CONTINUOUS
10
198.2775000000000034
20
-57.822499999999998
11
197.3274999999999864
21
-57.822499999999998
0
LINE
8
BLACK
6
CONTINUOUS
10
197.3274999999999864
20
-57.822499999999998
11
197.2318290000000047
21
-57.8034699999999972
0
LINE
8
BLACK
6
CONTINUOUS
10
197.2318290000000047
20
-57.8034699999999972
11
197.1507229999999993
21
-57.7492769999999993
0
LINE
8
BLACK
6
CONTINUOUS
10
197.1507229999999993
20
-57.7492769999999993
11
197.0965300000000013
21
-57.6681709999999939
0
LINE
8
BLACK
6
CONTINUOUS
10
197.0965300000000013
20
-57.6681709999999939
11
197.0774999999999864
21
-57.572499999999998
0
LINE
8
BLACK
6
CONTINUOUS
10
197.0774999999999864
20
-57.572499999999998
11
197.0774999999999864
21
-56.8975000000000009
0
LINE
8
BLACK
6
CONTINUOUS
10
197.0774999999999864
20
-56.8975000000000009
11
197.0965300000000013
21
-56.8018289999999979
0
LINE
8
BLACK
6
CONTINUOUS
10
197.0965300000000013
20
-56.8018289999999979
11
197.1507229999999993
21
-56.7207229999999996
0
LINE
8
BLACK
6
CONTINUOUS
10
197.1507229999999993
20
-56.7207229999999996
11
197.2318290000000047
21
-56.6665299999999945
0
LINE
8
BLACK
6
CONTINUOUS
10
197.2318290000000047
20
-56.6665299999999945
11
197.3274999999999864
21
-56.6475000000000009
0
LINE
8
BLACK
6
CONTINUOUS
10
197.3274999999999864
20
-56.6475000000000009
11
198.2775000000000034
21
-56.6475000000000009
0
LINE
8
BLACK
6
CONTINUOUS
10
198.2775000000000034
20
-56.6475000000000009
11
198.373170999999985
21
-56.6665299999999945
0
LINE
8
BLACK
6
CONTINUOUS
10
177.3931709999999953
20
-56.6665299999999945
11
177.4742770000000007
21
-56.7207229999999996
0
LINE
8
BLACK
6
CONTINUOUS
10
177.4742770000000007
20
-56.7207229999999996
11
177.5284699999999987
21
-56.8018289999999979
0
LINE
8
BLACK
6
CONTINUOUS
10
177.5284699999999987
20
-56.8018289999999979
11
177.5474999999999852
21
-56.8975000000000009
0
LINE
8
BLACK
6
CONTINUOUS
10
177.5474999999999852
20
-56.8975000000000009
11
177.5474999999999852
21
-57.5474999999999994
0
LINE
8
BLACK
6
CONTINUOUS
10
177.5474999999999852
20
-57.5474999999999994
11
177.5284699999999987
21
-57.6431709999999953
0
LINE
8
BLACK
6
CONTINUOUS
10
177.5284699999999987
20
-57.6431709999999953
11
177.4742770000000007
21
-57.7242770000000007
0
LINE
8
BLACK
6
CONTINUOUS
10
177.4742770000000007
20
-57.7242770000000007
11
177.3931709999999953
21
-57.7784699999999987
0
LINE
8
BLACK
6
CONTINUOUS
10
177.3931709999999953
20
-57.7784699999999987
11
177.2974999999999852
21
-57.7974999999999994
0
LINE
8
BLACK
6
CONTINUOUS
10
177.2974999999999852
20
-57.7974999999999994
11
176.3974999999999795
21
-57.7974999999999994
0
LINE
8
BLACK
6
CONTINUOUS
10
176.3974999999999795
20
-57.7974999999999994
11
176.3018289999999979
21
-57.7784699999999987
0
LINE
8
BLACK
6
CONTINUOUS
10
176.3018289999999979
20
-57.7784699999999987
11
176.2207229999999925
21
-57.7242770000000007
0
LINE
8
BLACK
6
CONTINUOUS
10
176.2207229999999925
20
-57.7242770000000007
11
176.1665299999999945
21
-57.6431709999999953
0
LINE
8
BLACK
6
CONTINUOUS
10
176.1665299999999945
20
-57.6431709999999953
11
176.1474999999999795
21
-57.5474999999999994
0
LINE
8
BLACK
6
CONTINUOUS
10
176.1474999999999795
20
-57.5474999999999994
11
176.1474999999999795
21
-56.8975000000000009
0
LINE
8
BLACK
6
CONTINUOUS
10
176.1474999999999795
20
-56.8975000000000009
11
176.1665299999999945
21
-56.8018289999999979
0
LINE
8
BLACK
6
CONTINUOUS
10
176.1665299999999945
20
-56.8018289999999979
11
176.2207229999999925
21
-56.7207229999999996
0
LINE
8
BLACK
6
CONTINUOUS
10
176.2207229999999925
20
-56.7207229999999996
11
176.3018289999999979
21
-56.6665299999999945
0
LINE
8
BLACK
6
CONTINUOUS
10
176.3018289999999979
20
-56.6665299999999945
11
176.3974999999999795
21
-56.6475000000000009
0
LINE
8
BLACK
6
CONTINUOUS
10
176.3974999999999795
20
-56.6475000000000009
11
177.2974999999999852
21
-56.6475000000000009
0
LINE
8
BLACK
6
CONTINUOUS
10
177.2974999999999852
20
-56.6475000000000009
11
177.3931709999999953
21
-56.6665299999999945
0
LINE
8
BLACK
6
CONTINUOUS
10
182.5574029999999937
20
-56.8639179999999982
11
182.6060659999999984
21
-56.8964339999999993
0
LINE
8
BLACK
6
CONTINUOUS
10
182.6060659999999984
20
-56.8964339999999993
11
182.6385819999999853
21
-56.945096999999997
0
LINE
8
BLACK
6
CONTINUOUS
10
182.6385819999999853
20
-56.945096999999997
11
182.6500000000000057
21
-57.0024999999999977
0
LINE
8
BLACK
6
CONTINUOUS
10
182.6500000000000057
20
-57.0024999999999977
11
182.6500000000000057
21
-57.3024999999999949
0
LINE
8
BLACK
6
CONTINUOUS
10
182.6500000000000057
20
-57.3024999999999949
11
182.6385819999999853
21
-57.3599029999999956
0
LINE
8
BLACK
6
CONTINUOUS
10
182.6385819999999853
20
-57.3599029999999956
11
182.6060659999999984
21
-57.4085660000000004
0
LINE
8
BLACK
6
CONTINUOUS
10
182.6060659999999984
20
-57.4085660000000004
11
182.5574029999999937
21
-57.4410819999999944
0
LINE
8
BLACK
6
CONTINUOUS
10
182.5574029999999937
20
-57.4410819999999944
11
182.5
21
-57.4525000000000006
0
LINE
8
BLACK
6
CONTINUOUS
10
182.5
20
-57.4525000000000006
11
181.3249999999999886
21
-57.4525000000000006
0
LINE
8
BLACK
6
CONTINUOUS
10
181.3249999999999886
20
-57.4525000000000006
11
181.267596999999995
21
-57.4410819999999944
0
LINE
8
BLACK
6
CONTINUOUS
10
181.267596999999995
20
-57.4410819999999944
11
181.2189339999999902
21
-57.4085660000000004
0
LINE
8
BLACK
6
CONTINUOUS
10
181.2189339999999902
20
-57.4085660000000004
11
181.1864180000000033
21
-57.3599029999999956
0
LINE
8
BLACK
6
CONTINUOUS
10
181.1864180000000033
20
-57.3599029999999956
11
181.1749999999999829
21
-57.3024999999999949
0
LINE
8
BLACK
6
CONTINUOUS
10
181.1749999999999829
20
-57.3024999999999949
11
181.1749999999999829
21
-57.0024999999999977
0
LINE
8
BLACK
6
CONTINUOUS
10
181.1749999999999829
20
-57.0024999999999977
11
181.1864180000000033
21
-56.945096999999997
0
LINE
8
BLACK
6
CONTINUOUS
10
181.1864180000000033
20
-56.945096999999997
11
181.2189339999999902
21
-56.8964339999999993
0
LINE
8
BLACK
6
CONTINUOUS
10
181.2189339999999902
20
-56.8964339999999993
11
181.267596999999995
21
-56.8639179999999982
0
LINE
8
BLACK
6
CONTINUOUS
10
181.267596999999995
20
-56.8639179999999982
11
181.3249999999999886
21
-56.8524999999999991
0
LINE
8
BLACK
6
CONTINUOUS
10
181.3249999999999886
20
-56.8524999999999991
11
182.5
21
-56.8524999999999991
0
LINE
8
BLACK
6
CONTINUOUS
10
182.5
20
-56.8524999999999991
11
182.5574029999999937
21
-56.8639179999999982
0
LINE
8
BLACK
6
CONTINUOUS
10
171.8874999999999886
20
-57.3599999999999994
11
170.3874999999999886
21
-57.3599999999999994
0
LINE
8
BLACK
6
CONTINUOUS
10
170.3874999999999886
20
-57.3599999999999994
11
170.3874999999999886
21
-56.4600000000000009
0
LINE
8
BLACK
6
CONTINUOUS
10
170.3874999999999886
20
-56.4600000000000009
11
171.8874999999999886
21
-56.4600000000000009
0
LINE
8
BLACK
6
CONTINUOUS
10
171.8874999999999886
20
-56.4600000000000009
11
171.8874999999999886
21
-57.3599999999999994
0
LINE
8
BLACK
6
CONTINUOUS
10
183.2131709999999885
20
-54.4140299999999968
11
183.2942769999999939
21
-54.4682229999999947
0
LINE
8
BLACK
6
CONTINUOUS
10
183.2942769999999939
20
-54.4682229999999947
11
183.3484699999999918
21
-54.5493290000000002
0
LINE
8
BLACK
6
CONTINUOUS
10
183.3484699999999918
20
-54.5493290000000002
11
183.3674999999999784
21
-54.644999999999996
0
LINE
8
BLACK
6
CONTINUOUS
10
183.3674999999999784
20
-54.644999999999996
11
183.3674999999999784
21
-55.8449999999999989
0
LINE
8
BLACK
6
CONTINUOUS
10
183.3674999999999784
20
-55.8449999999999989
11
183.3484699999999918
21
-55.9406709999999947
0
LINE
8
BLACK
6
CONTINUOUS
10
183.3484699999999918
20
-55.9406709999999947
11
183.2942769999999939
21
-56.0217770000000002
0
LINE
8
BLACK
6
CONTINUOUS
10
183.2942769999999939
20
-56.0217770000000002
11
183.2131709999999885
21
-56.0759699999999981
0
LINE
8
BLACK
6
CONTINUOUS
10
183.2131709999999885
20
-56.0759699999999981
11
183.1174999999999784
21
-56.0949999999999989
0
LINE
8
BLACK
6
CONTINUOUS
10
183.1174999999999784
20
-56.0949999999999989
11
182.3174999999999955
21
-56.0949999999999989
0
LINE
8
BLACK
6
CONTINUOUS
10
182.3174999999999955
20
-56.0949999999999989
11
182.2218289999999854
21
-56.0759699999999981
0
LINE
8
BLACK
6
CONTINUOUS
10
182.2218289999999854
20
-56.0759699999999981
11
182.1407229999999799
21
-56.0217770000000002
0
LINE
8
BLACK
6
CONTINUOUS
10
182.1407229999999799
20
-56.0217770000000002
11
182.086529999999982
21
-55.9406709999999947
0
LINE
8
BLACK
6
CONTINUOUS
10
182.086529999999982
20
-55.9406709999999947
11
182.0674999999999955
21
-55.8449999999999989
0
LINE
8
BLACK
6
CONTINUOUS
10
182.0674999999999955
20
-55.8449999999999989
11
182.0674999999999955
21
-54.644999999999996
0
LINE
8
BLACK
6
CONTINUOUS
10
182.0674999999999955
20
-54.644999999999996
11
182.086529999999982
21
-54.5493290000000002
0
LINE
8
BLACK
6
CONTINUOUS
10
182.086529999999982
20
-54.5493290000000002
11
182.1407229999999799
21
-54.4682229999999947
0
LINE
8
BLACK
6
CONTINUOUS
10
182.1407229999999799
20
-54.4682229999999947
11
182.2218289999999854
21
-54.4140299999999968
0
LINE
8
BLACK
6
CONTINUOUS
10
182.2218289999999854
20
-54.4140299999999968
11
182.3174999999999955
21
-54.394999999999996
0
LINE
8
BLACK
6
CONTINUOUS
10
182.3174999999999955
20
-54.394999999999996
11
183.1174999999999784
21
-54.394999999999996
0
LINE
8
BLACK
6
CONTINUOUS
10
183.1174999999999784
20
-54.394999999999996
11
183.2131709999999885
21
-54.4140299999999968
0
LINE
8
BLACK
6
CONTINUOUS
10
186.7131709999999885
20
-54.4140299999999968
11
186.7942769999999939
21
-54.4682229999999947
0
LINE
8
BLACK
6
CONTINUOUS
10
186.7942769999999939
20
-54.4682229999999947
11
186.8484699999999918
21
-54.5493290000000002
0
LINE
8
BLACK
6
CONTINUOUS
10
186.8484699999999918
20
-54.5493290000000002
11
186.8674999999999784
21
-54.644999999999996
0
LINE
8
BLACK
6
CONTINUOUS
10
186.8674999999999784
20
-54.644999999999996
11
186.8674999999999784
21
-55.8449999999999989
0
LINE
8
BLACK
6
CONTINUOUS
10
186.8674999999999784
20
-55.8449999999999989
11
186.8484699999999918
21
-55.9406709999999947
0
LINE
8
BLACK
6
CONTINUOUS
10
186.8484699999999918
20
-55.9406709999999947
11
186.7942769999999939
21
-56.0217770000000002
0
LINE
8
BLACK
6
CONTINUOUS
10
186.7942769999999939
20
-56.0217770000000002
11
186.7131709999999885
21
-56.0759699999999981
0
LINE
8
BLACK
6
CONTINUOUS
10
186.7131709999999885
20
-56.0759699999999981
11
186.6174999999999784
21
-56.0949999999999989
0
LINE
8
BLACK
6
CONTINUOUS
10
186.6174999999999784
20
-56.0949999999999989
11
185.8174999999999955
21
-56.0949999999999989
0
LINE
8
BLACK
6
CONTINUOUS
10
185.8174999999999955
20
-56.0949999999999989
11
185.7218289999999854
21
-56.0759699999999981
0
LINE
8
BLACK
6
CONTINUOUS
10
185.7218289999999854
20
-56.0759699999999981
11
185.6407229999999799
21
-56.0217770000000002
0
LINE
8
BLACK
6
CONTINUOUS
10
185.6407229999999799
20
-56.0217770000000002
11
185.586529999999982
21
-55.9406709999999947
0
LINE
8
BLACK
6
CONTINUOUS
10
185.586529999999982
20
-55.9406709999999947
11
185.5674999999999955
21
-55.8449999999999989
0
LINE
8
BLACK
6
CONTINUOUS
10
185.5674999999999955
20
-55.8449999999999989
11
185.5674999999999955
21
-54.644999999999996
0
LINE
8
BLACK
6
CONTINUOUS
10
185.5674999999999955
20
-54.644999999999996
11
185.586529999999982
21
-54.5493290000000002
0
LINE
8
BLACK
6
CONTINUOUS
10
185.586529999999982
20
-54.5493290000000002
11
185.6407229999999799
21
-54.4682229999999947
0
LINE
8
BLACK
6
CONTINUOUS
10
185.6407229999999799
20
-54.4682229999999947
11
185.7218289999999854
21
-54.4140299999999968
0
LINE
8
BLACK
6
CONTINUOUS
10
185.7218289999999854
20
-54.4140299999999968
11
185.8174999999999955
21
-54.394999999999996
0
LINE
8
BLACK
6
CONTINUOUS
10
185.8174999999999955
20
-54.394999999999996
11
186.6174999999999784
21
-54.394999999999996
0
LINE
8
BLACK
6
CONTINUOUS
10
186.6174999999999784
20
-54.394999999999996
11
186.7131709999999885
21
-54.4140299999999968
0
LINE
8
BLACK
6
CONTINUOUS
10
171.8874999999999886
20
-56.0899999999999963
11
170.3874999999999886
21
-56.0899999999999963
0
LINE
8
BLACK
6
CONTINUOUS
10
170.3874999999999886
20
-56.0899999999999963
11
170.3874999999999886
21
-55.1899999999999977
0
LINE
8
BLACK
6
CONTINUOUS
10
170.3874999999999886
20
-55.1899999999999977
11
171.8874999999999886
21
-55.1899999999999977
0
LINE
8
BLACK
6
CONTINUOUS
10
171.8874999999999886
20
-55.1899999999999977
11
171.8874999999999886
21
-56.0899999999999963
0
LINE
8
BLACK
6
CONTINUOUS
10
189.895670999999993
20
-54.5390299999999968
11
189.9767769999999985
21
-54.5932229999999947
0
LINE
8
BLACK
6
CONTINUOUS
10
189.9767769999999985
20
-54.5932229999999947
11
190.0309699999999964
21
-54.6743290000000002
0
LINE
8
BLACK
6
CONTINUOUS
10
190.0309699999999964
20
-54.6743290000000002
11
190.0499999999999829
21
-54.769999999999996
0
LINE
8
BLACK
6
CONTINUOUS
10
190.0499999999999829
20
-54.769999999999996
11
190.0499999999999829
21
-55.7199999999999989
0
LINE
8
BLACK
6
CONTINUOUS
10
190.0499999999999829
20
-55.7199999999999989
11
190.0309699999999964
21
-55.8156709999999947
0
LINE
8
BLACK
6
CONTINUOUS
10
190.0309699999999964
20
-55.8156709999999947
11
189.9767769999999985
21
-55.8967770000000002
0
LINE
8
BLACK
6
CONTINUOUS
10
189.9767769999999985
20
-55.8967770000000002
11
189.895670999999993
21
-55.9509699999999981
0
LINE
8
BLACK
6
CONTINUOUS
10
189.895670999999993
20
-55.9509699999999981
11
189.7999999999999829
21
-55.9699999999999989
0
LINE
8
BLACK
6
CONTINUOUS
10
189.7999999999999829
20
-55.9699999999999989
11
189.125
21
-55.9699999999999989
0
LINE
8
BLACK
6
CONTINUOUS
10
189.125
20
-55.9699999999999989
11
189.0293289999999899
21
-55.9509699999999981
0
LINE
8
BLACK
6
CONTINUOUS
10
189.0293289999999899
20
-55.9509699999999981
11
188.9482229999999845
21
-55.8967770000000002
0
LINE
8
BLACK
6
CONTINUOUS
10
188.9482229999999845
20
-55.8967770000000002
11
188.8940299999999866
21
-55.8156709999999947
0
LINE
8
BLACK
6
CONTINUOUS
10
188.8940299999999866
20
-55.8156709999999947
11
188.875
21
-55.7199999999999989
0
LINE
8
BLACK
6
CONTINUOUS
10
188.875
20
-55.7199999999999989
11
188.875
21
-54.769999999999996
0
LINE
8
BLACK
6
CONTINUOUS
10
188.875
20
-54.769999999999996
11
188.8940299999999866
21
-54.6743290000000002
0
LINE
8
BLACK
6
CONTINUOUS
10
188.8940299999999866
20
-54.6743290000000002
11
188.9482229999999845
21
-54.5932229999999947
0
LINE
8
BLACK
6
CONTINUOUS
10
188.9482229999999845
20
-54.5932229999999947
11
189.0293289999999899
21
-54.5390299999999968
0
LINE
8
BLACK
6
CONTINUOUS
10
189.0293289999999899
20
-54.5390299999999968
11
189.125
21
-54.519999999999996
0
LINE
8
BLACK
6
CONTINUOUS
10
189.125
20
-54.519999999999996
11
189.7999999999999829
21
-54.519999999999996
0
LINE
8
BLACK
6
CONTINUOUS
10
189.7999999999999829
20
-54.519999999999996
11
189.895670999999993
21
-54.5390299999999968
0
LINE
8
BLACK
6
CONTINUOUS
10
191.9706709999999816
20
-54.5390299999999968
11
192.0517769999999871
21
-54.5932229999999947
0
LINE
8
BLACK
6
CONTINUOUS
10
192.0517769999999871
20
-54.5932229999999947
11
192.105969999999985
21
-54.6743290000000002
0
LINE
8
BLACK
6
CONTINUOUS
10
192.105969999999985
20
-54.6743290000000002
11
192.125
21
-54.769999999999996
0
LINE
8
BLACK
6
CONTINUOUS
10
192.125
20
-54.769999999999996
11
192.125
21
-55.7199999999999989
0
LINE
8
BLACK
6
CONTINUOUS
10
192.125
20
-55.7199999999999989
11
192.105969999999985
21
-55.8156709999999947
0
LINE
8
BLACK
6
CONTINUOUS
10
192.105969999999985
20
-55.8156709999999947
11
192.0517769999999871
21
-55.8967770000000002
0
LINE
8
BLACK
6
CONTINUOUS
10
192.0517769999999871
20
-55.8967770000000002
11
191.9706709999999816
21
-55.9509699999999981
0
LINE
8
BLACK
6
CONTINUOUS
10
191.9706709999999816
20
-55.9509699999999981
11
191.875
21
-55.9699999999999989
0
LINE
8
BLACK
6
CONTINUOUS
10
191.875
20
-55.9699999999999989
11
191.1999999999999886
21
-55.9699999999999989
0
LINE
8
BLACK
6
CONTINUOUS
10
191.1999999999999886
20
-55.9699999999999989
11
191.1043289999999786
21
-55.9509699999999981
0
LINE
8
BLACK
6
CONTINUOUS
10
191.1043289999999786
20
-55.9509699999999981
11
191.0232230000000015
21
-55.8967770000000002
0
LINE
8
BLACK
6
CONTINUOUS
10
191.0232230000000015
20
-55.8967770000000002
11
190.9690300000000036
21
-55.8156709999999947
0
LINE
8
BLACK
6
CONTINUOUS
10
190.9690300000000036
20
-55.8156709999999947
11
190.9499999999999886
21
-55.7199999999999989
0
LINE
8
BLACK
6
CONTINUOUS
10
190.9499999999999886
20
-55.7199999999999989
11
190.9499999999999886
21
-54.769999999999996
0
LINE
8
BLACK
6
CONTINUOUS
10
190.9499999999999886
20
-54.769999999999996
11
190.9690300000000036
21
-54.6743290000000002
0
LINE
8
BLACK
6
CONTINUOUS
10
190.9690300000000036
20
-54.6743290000000002
11
191.0232230000000015
21
-54.5932229999999947
0
LINE
8
BLACK
6
CONTINUOUS
10
191.0232230000000015
20
-54.5932229999999947
11
191.1043289999999786
21
-54.5390299999999968
0
LINE
8
BLACK
6
CONTINUOUS
10
191.1043289999999786
20
-54.5390299999999968
11
191.1999999999999886
21
-54.519999999999996
0
LINE
8
BLACK
6
CONTINUOUS
10
191.1999999999999886
20
-54.519999999999996
11
191.875
21
-54.519999999999996
0
LINE
8
BLACK
6
CONTINUOUS
10
191.875
20
-54.519999999999996
11
191.9706709999999816
21
-54.5390299999999968
0
LINE
8
BLACK
6
CONTINUOUS
10
194.0231709999999907
20
-54.5390299999999968
11
194.1042769999999962
21
-54.5932229999999947
0
LINE
8
BLACK
6
CONTINUOUS
10
194.1042769999999962
20
-54.5932229999999947
11
194.1584699999999941
21
-54.6743290000000002
0
LINE
8
BLACK
6
CONTINUOUS
10
194.1584699999999941
20
-54.6743290000000002
11
194.1774999999999807
21
-54.769999999999996
0
LINE
8
BLACK
6
CONTINUOUS
10
194.1774999999999807
20
-54.769999999999996
11
194.1774999999999807
21
-55.7199999999999989
0
LINE
8
BLACK
6
CONTINUOUS
10
194.1774999999999807
20
-55.7199999999999989
11
194.1584699999999941
21
-55.8156709999999947
0
LINE
8
BLACK
6
CONTINUOUS
10
194.1584699999999941
20
-55.8156709999999947
11
194.1042769999999962
21
-55.8967770000000002
0
LINE
8
BLACK
6
CONTINUOUS
10
194.1042769999999962
20
-55.8967770000000002
11
194.0231709999999907
21
-55.9509699999999981
0
LINE
8
BLACK
6
CONTINUOUS
10
194.0231709999999907
20
-55.9509699999999981
11
193.9274999999999807
21
-55.9699999999999989
0
LINE
8
BLACK
6
CONTINUOUS
10
193.9274999999999807
20
-55.9699999999999989
11
193.2524999999999977
21
-55.9699999999999989
0
LINE
8
BLACK
6
CONTINUOUS
10
193.2524999999999977
20
-55.9699999999999989
11
193.1568289999999877
21
-55.9509699999999981
0
LINE
8
BLACK
6
CONTINUOUS
10
193.1568289999999877
20
-55.9509699999999981
11
193.0757229999999822
21
-55.8967770000000002
0
LINE
8
BLACK
6
CONTINUOUS
10
193.0757229999999822
20
-55.8967770000000002
11
193.0215299999999843
21
-55.8156709999999947
0
LINE
8
BLACK
6
CONTINUOUS
10
193.0215299999999843
20
-55.8156709999999947
11
193.0024999999999977
21
-55.7199999999999989
0
LINE
8
BLACK
6
CONTINUOUS
10
193.0024999999999977
20
-55.7199999999999989
11
193.0024999999999977
21
-54.769999999999996
0
LINE
8
BLACK
6
CONTINUOUS
10
193.0024999999999977
20
-54.769999999999996
11
193.0215299999999843
21
-54.6743290000000002
0
LINE
8
BLACK
6
CONTINUOUS
10
193.0215299999999843
20
-54.6743290000000002
11
193.0757229999999822
21
-54.5932229999999947
0
LINE
8
BLACK
6
CONTINUOUS
10
193.0757229999999822
20
-54.5932229999999947
11
193.1568289999999877
21
-54.5390299999999968
0
LINE
8
BLACK
6
CONTINUOUS
10
193.1568289999999877
20
-54.5390299999999968
11
193.2524999999999977
21
-54.519999999999996
0
LINE
8
BLACK
6
CONTINUOUS
10
193.2524999999999977
20
-54.519999999999996
11
193.9274999999999807
21
-54.519999999999996
0
LINE
8
BLACK
6
CONTINUOUS
10
193.9274999999999807
20
-54.519999999999996
11
194.0231709999999907
21
-54.5390299999999968
0
LINE
8
BLACK
6
CONTINUOUS
10
196.0981709999999794
20
-54.5390299999999968
11
196.1792769999999848
21
-54.5932229999999947
0
LINE
8
BLACK
6
CONTINUOUS
10
196.1792769999999848
20
-54.5932229999999947
11
196.2334699999999827
21
-54.6743290000000002
0
LINE
8
BLACK
6
CONTINUOUS
10
196.2334699999999827
20
-54.6743290000000002
11
196.2524999999999977
21
-54.769999999999996
0
LINE
8
BLACK
6
CONTINUOUS
10
196.2524999999999977
20
-54.769999999999996
11
196.2524999999999977
21
-55.7199999999999989
0
LINE
8
BLACK
6
CONTINUOUS
10
196.2524999999999977
20
-55.7199999999999989
11
196.2334699999999827
21
-55.8156709999999947
0
LINE
8
BLACK
6
CONTINUOUS
10
196.2334699999999827
20
-55.8156709999999947
11
196.1792769999999848
21
-55.8967770000000002
0
LINE
8
BLACK
6
CONTINUOUS
10
196.1792769999999848
20
-55.8967770000000002
11
196.0981709999999794
21
-55.9509699999999981
0
LINE
8
BLACK
6
CONTINUOUS
10
196.0981709999999794
20
-55.9509699999999981
11
196.0024999999999977
21
-55.9699999999999989
0
LINE
8
BLACK
6
CONTINUOUS
10
196.0024999999999977
20
-55.9699999999999989
11
195.3274999999999864
21
-55.9699999999999989
0
LINE
8
BLACK
6
CONTINUOUS
10
195.3274999999999864
20
-55.9699999999999989
11
195.2318290000000047
21
-55.9509699999999981
0
LINE
8
BLACK
6
CONTINUOUS
10
195.2318290000000047
20
-55.9509699999999981
11
195.1507229999999993
21
-55.8967770000000002
0
LINE
8
BLACK
6
CONTINUOUS
10
195.1507229999999993
20
-55.8967770000000002
11
195.0965300000000013
21
-55.8156709999999947
0
LINE
8
BLACK
6
CONTINUOUS
10
195.0965300000000013
20
-55.8156709999999947
11
195.0774999999999864
21
-55.7199999999999989
0
LINE
8
BLACK
6
CONTINUOUS
10
195.0774999999999864
20
-55.7199999999999989
11
195.0774999999999864
21
-54.769999999999996
0
LINE
8
BLACK
6
CONTINUOUS
10
195.0774999999999864
20
-54.769999999999996
11
195.0965300000000013
21
-54.6743290000000002
0
LINE
8
BLACK
6
CONTINUOUS
10
195.0965300000000013
20
-54.6743290000000002
11
195.1507229999999993
21
-54.5932229999999947
0
LINE
8
BLACK
6
CONTINUOUS
10
195.1507229999999993
20
-54.5932229999999947
11
195.2318290000000047
21
-54.5390299999999968
0
LINE
8
BLACK
6
CONTINUOUS
10
195.2318290000000047
20
-54.5390299999999968
11
195.3274999999999864
21
-54.519999999999996
0
LINE
8
BLACK
6
CONTINUOUS
10
195.3274999999999864
20
-54.519999999999996
11
196.0024999999999977
21
-54.519999999999996
0
LINE
8
BLACK
6
CONTINUOUS
10
196.0024999999999977
20
-54.519999999999996
11
196.0981709999999794
21
-54.5390299999999968
0
LINE
8
BLACK
6
CONTINUOUS
10
177.3931709999999953
20
-54.6165299999999974
11
177.4742770000000007
21
-54.6707229999999953
0
LINE
8
BLACK
6
CONTINUOUS
10
177.4742770000000007
20
-54.6707229999999953
11
177.5284699999999987
21
-54.7518290000000007
0
LINE
8
BLACK
6
CONTINUOUS
10
177.5284699999999987
20
-54.7518290000000007
11
177.5474999999999852
21
-54.8474999999999966
0
LINE
8
BLACK
6
CONTINUOUS
10
177.5474999999999852
20
-54.8474999999999966
11
177.5474999999999852
21
-55.4974999999999952
0
LINE
8
BLACK
6
CONTINUOUS
10
177.5474999999999852
20
-55.4974999999999952
11
177.5284699999999987
21
-55.5931709999999981
0
LINE
8
BLACK
6
CONTINUOUS
10
177.5284699999999987
20
-55.5931709999999981
11
177.4742770000000007
21
-55.6742769999999965
0
LINE
8
BLACK
6
CONTINUOUS
10
177.4742770000000007
20
-55.6742769999999965
11
177.3931709999999953
21
-55.7284699999999944
0
LINE
8
BLACK
6
CONTINUOUS
10
177.3931709999999953
20
-55.7284699999999944
11
177.2974999999999852
21
-55.7474999999999952
0
LINE
8
BLACK
6
CONTINUOUS
10
177.2974999999999852
20
-55.7474999999999952
11
176.3974999999999795
21
-55.7474999999999952
0
LINE
8
BLACK
6
CONTINUOUS
10
176.3974999999999795
20
-55.7474999999999952
11
176.3018289999999979
21
-55.7284699999999944
0
LINE
8
BLACK
6
CONTINUOUS
10
176.3018289999999979
20
-55.7284699999999944
11
176.2207229999999925
21
-55.6742769999999965
0
LINE
8
BLACK
6
CONTINUOUS
10
176.2207229999999925
20
-55.6742769999999965
11
176.1665299999999945
21
-55.5931709999999981
0
LINE
8
BLACK
6
CONTINUOUS
10
176.1665299999999945
20
-55.5931709999999981
11
176.1474999999999795
21
-55.4974999999999952
0
LINE
8
BLACK
6
CONTINUOUS
10
176.1474999999999795
20
-55.4974999999999952
11
176.1474999999999795
21
-54.8474999999999966
0
LINE
8
BLACK
6
CONTINUOUS
10
176.1474999999999795
20
-54.8474999999999966
11
176.1665299999999945
21
-54.7518290000000007
0
LINE
8
BLACK
6
CONTINUOUS
10
176.1665299999999945
20
-54.7518290000000007
11
176.2207229999999925
21
-54.6707229999999953
0
LINE
8
BLACK
6
CONTINUOUS
10
176.2207229999999925
20
-54.6707229999999953
11
176.3018289999999979
21
-54.6165299999999974
0
LINE
8
BLACK
6
CONTINUOUS
10
176.3018289999999979
20
-54.6165299999999974
11
176.3974999999999795
21
-54.5974999999999966
0
LINE
8
BLACK
6
CONTINUOUS
10
176.3974999999999795
20
-54.5974999999999966
11
177.2974999999999852
21
-54.5974999999999966
0
LINE
8
BLACK
6
CONTINUOUS
10
177.2974999999999852
20
-54.5974999999999966
11
177.3931709999999953
21
-54.6165299999999974
0
LINE
8
BLACK
6
CONTINUOUS
10
198.373170999999985
20
-54.5915299999999988
11
198.4542769999999905
21
-54.6457229999999967
0
LINE
8
BLACK
6
CONTINUOUS
10
198.4542769999999905
20
-54.6457229999999967
11
198.5084699999999884
21
-54.7268289999999951
0
LINE
8
BLACK
6
CONTINUOUS
10
198.5084699999999884
20
-54.7268289999999951
11
198.5275000000000034
21
-54.822499999999998
0
LINE
8
BLACK
6
CONTINUOUS
10
198.5275000000000034
20
-54.822499999999998
11
198.5275000000000034
21
-55.4974999999999952
0
LINE
8
BLACK
6
CONTINUOUS
10
198.5275000000000034
20
-55.4974999999999952
11
198.5084699999999884
21
-55.5931709999999981
0
LINE
8
BLACK
6
CONTINUOUS
10
198.5084699999999884
20
-55.5931709999999981
11
198.4542769999999905
21
-55.6742769999999965
0
LINE
8
BLACK
6
CONTINUOUS
10
198.4542769999999905
20
-55.6742769999999965
11
198.373170999999985
21
-55.7284699999999944
0
LINE
8
BLACK
6
CONTINUOUS
10
198.373170999999985
20
-55.7284699999999944
11
198.2775000000000034
21
-55.7474999999999952
0
LINE
8
BLACK
6
CONTINUOUS
10
198.2775000000000034
20
-55.7474999999999952
11
197.3274999999999864
21
-55.7474999999999952
0
LINE
8
BLACK
6
CONTINUOUS
10
197.3274999999999864
20
-55.7474999999999952
11
197.2318290000000047
21
-55.7284699999999944
0
LINE
8
BLACK
6
CONTINUOUS
10
197.2318290000000047
20
-55.7284699999999944
11
197.1507229999999993
21
-55.6742769999999965
0
LINE
8
BLACK
6
CONTINUOUS
10
197.1507229999999993
20
-55.6742769999999965
11
197.0965300000000013
21
-55.5931709999999981
0
LINE
8
BLACK
6
CONTINUOUS
10
197.0965300000000013
20
-55.5931709999999981
11
197.0774999999999864
21
-55.4974999999999952
0
LINE
8
BLACK
6
CONTINUOUS
10
197.0774999999999864
20
-55.4974999999999952
11
197.0774999999999864
21
-54.822499999999998
0
LINE
8
BLACK
6
CONTINUOUS
10
197.0774999999999864
20
-54.822499999999998
11
197.0965300000000013
21
-54.7268289999999951
0
LINE
8
BLACK
6
CONTINUOUS
10
197.0965300000000013
20
-54.7268289999999951
11
197.1507229999999993
21
-54.6457229999999967
0
LINE
8
BLACK
6
CONTINUOUS
10
197.1507229999999993
20
-54.6457229999999967
11
197.2318290000000047
21
-54.5915299999999988
0
LINE
8
BLACK
6
CONTINUOUS
10
197.2318290000000047
20
-54.5915299999999988
11
197.3274999999999864
21
-54.572499999999998
0
LINE
8
BLACK
6
CONTINUOUS
10
197.3274999999999864
20
-54.572499999999998
11
198.2775000000000034
21
-54.572499999999998
0
LINE
8
BLACK
6
CONTINUOUS
10
198.2775000000000034
20
-54.572499999999998
11
198.373170999999985
21
-54.5915299999999988
0
LINE
8
BLACK
6
CONTINUOUS
10
171.8874999999999886
20
-54.8200000000000003
11
170.3874999999999886
21
-54.8200000000000003
0
LINE
8
BLACK
6
CONTINUOUS
10
170.3874999999999886
20
-54.8200000000000003
11
170.3874999999999886
21
-53.9199999999999946
0
LINE
8
BLACK
6
CONTINUOUS
10
170.3874999999999886
20
-53.9199999999999946
11
171.8874999999999886
21
-53.9199999999999946
0
LINE
8
BLACK
6
CONTINUOUS
10
171.8874999999999886
20
-53.9199999999999946
11
171.8874999999999886
21
-54.8200000000000003
0
LINE
8
BLACK
6
CONTINUOUS
10
171.8874999999999886
20
-53.5499999999999972
11
170.3874999999999886
21
-53.5499999999999972
0
LINE
8
BLACK
6
CONTINUOUS
10
170.3874999999999886
20
-53.5499999999999972
11
170.3874999999999886
21
-52.6499999999999986
0
LINE
8
BLACK
6
CONTINUOUS
10
170.3874999999999886
20
-52.6499999999999986
11
171.8874999999999886
21
-52.6499999999999986
0
LINE
8
BLACK
6
CONTINUOUS
10
171.8874999999999886
20
-52.6499999999999986
11
171.8874999999999886
21
-53.5499999999999972
0
LINE
8
BLACK
6
CONTINUOUS
10
190.7386039999999809
20
-52.5021269999999944
11
190.8115990000000011
21
-52.5509009999999961
0
LINE
8
BLACK
6
CONTINUOUS
10
190.8115990000000011
20
-52.5509009999999961
11
190.8603729999999814
21
-52.6238959999999949
0
LINE
8
BLACK
6
CONTINUOUS
10
190.8603729999999814
20
-52.6238959999999949
11
190.8774999999999977
21
-52.7100000000000009
0
LINE
8
BLACK
6
CONTINUOUS
10
190.8774999999999977
20
-52.7100000000000009
11
190.8774999999999977
21
-53.1599999999999966
0
LINE
8
BLACK
6
CONTINUOUS
10
190.8774999999999977
20
-53.1599999999999966
11
190.8603729999999814
21
-53.2461039999999954
0
LINE
8
BLACK
6
CONTINUOUS
10
190.8603729999999814
20
-53.2461039999999954
11
190.8115990000000011
21
-53.3190989999999942
0
LINE
8
BLACK
6
CONTINUOUS
10
190.8115990000000011
20
-53.3190989999999942
11
190.7386039999999809
21
-53.3678729999999959
0
LINE
8
BLACK
6
CONTINUOUS
10
190.7386039999999809
20
-53.3678729999999959
11
190.6525000000000034
21
-53.384999999999998
0
LINE
8
BLACK
6
CONTINUOUS
10
190.6525000000000034
20
-53.384999999999998
11
189.8024999999999807
21
-53.384999999999998
0
LINE
8
BLACK
6
CONTINUOUS
10
189.8024999999999807
20
-53.384999999999998
11
189.7163960000000031
21
-53.3678729999999959
0
LINE
8
BLACK
6
CONTINUOUS
10
189.7163960000000031
20
-53.3678729999999959
11
189.643400999999983
21
-53.3190989999999942
0
LINE
8
BLACK
6
CONTINUOUS
10
189.643400999999983
20
-53.3190989999999942
11
189.5946270000000027
21
-53.2461039999999954
0
LINE
8
BLACK
6
CONTINUOUS
10
189.5946270000000027
20
-53.2461039999999954
11
189.5774999999999864
21
-53.1599999999999966
0
LINE
8
BLACK
6
CONTINUOUS
10
189.5774999999999864
20
-53.1599999999999966
11
189.5774999999999864
21
-52.7100000000000009
0
LINE
8
BLACK
6
CONTINUOUS
10
189.5774999999999864
20
-52.7100000000000009
11
189.5946270000000027
21
-52.6238959999999949
0
LINE
8
BLACK
6
CONTINUOUS
10
189.5946270000000027
20
-52.6238959999999949
11
189.643400999999983
21
-52.5509009999999961
0
LINE
8
BLACK
6
CONTINUOUS
10
189.643400999999983
20
-52.5509009999999961
11
189.7163960000000031
21
-52.5021269999999944
0
LINE
8
BLACK
6
CONTINUOUS
10
189.7163960000000031
20
-52.5021269999999944
11
189.8024999999999807
21
-52.4849999999999994
0
LINE
8
BLACK
6
CONTINUOUS
10
189.8024999999999807
20
-52.4849999999999994
11
190.6525000000000034
21
-52.4849999999999994
0
LINE
8
BLACK
6
CONTINUOUS
10
190.6525000000000034
20
-52.4849999999999994
11
190.7386039999999809
21
-52.5021269999999944
0
LINE
8
BLACK
6
CONTINUOUS
10
194.3581709999999987
20
-51.5065299999999979
11
194.4392770000000041
21
-51.5607229999999959
0
LINE
8
BLACK
6
CONTINUOUS
10
194.4392770000000041
20
-51.5607229999999959
11
194.4934700000000021
21
-51.6418289999999942
0
LINE
8
BLACK
6
CONTINUOUS
10
194.4934700000000021
20
-51.6418289999999942
11
194.5124999999999886
21
-51.7374999999999972
0
LINE
8
BLACK
6
CONTINUOUS
10
194.5124999999999886
20
-51.7374999999999972
11
194.5124999999999886
21
-53.0374999999999943
0
LINE
8
BLACK
6
CONTINUOUS
10
194.5124999999999886
20
-53.0374999999999943
11
194.4934700000000021
21
-53.1331709999999973
0
LINE
8
BLACK
6
CONTINUOUS
10
194.4934700000000021
20
-53.1331709999999973
11
194.4392770000000041
21
-53.2142769999999956
0
LINE
8
BLACK
6
CONTINUOUS
10
194.4392770000000041
20
-53.2142769999999956
11
194.3581709999999987
21
-53.2684700000000007
0
LINE
8
BLACK
6
CONTINUOUS
10
194.3581709999999987
20
-53.2684700000000007
11
194.2624999999999886
21
-53.2874999999999943
0
LINE
8
BLACK
6
CONTINUOUS
10
194.2624999999999886
20
-53.2874999999999943
11
192.2624999999999886
21
-53.2874999999999943
0
LINE
8
BLACK
6
CONTINUOUS
10
192.2624999999999886
20
-53.2874999999999943
11
192.1668289999999786
21
-53.2684700000000007
0
LINE
8
BLACK
6
CONTINUOUS
10
192.1668289999999786
20
-53.2684700000000007
11
192.0857230000000015
21
-53.2142769999999956
0
LINE
8
BLACK
6
CONTINUOUS
10
192.0857230000000015
20
-53.2142769999999956
11
192.0315300000000036
21
-53.1331709999999973
0
LINE
8
BLACK
6
CONTINUOUS
10
192.0315300000000036
20
-53.1331709999999973
11
192.0124999999999886
21
-53.0374999999999943
0
LINE
8
BLACK
6
CONTINUOUS
10
192.0124999999999886
20
-53.0374999999999943
11
192.0124999999999886
21
-51.7374999999999972
0
LINE
8
BLACK
6
CONTINUOUS
10
192.0124999999999886
20
-51.7374999999999972
11
192.0315300000000036
21
-51.6418289999999942
0
LINE
8
BLACK
6
CONTINUOUS
10
192.0315300000000036
20
-51.6418289999999942
11
192.0857230000000015
21
-51.5607229999999959
0
LINE
8
BLACK
6
CONTINUOUS
10
192.0857230000000015
20
-51.5607229999999959
11
192.1668289999999786
21
-51.5065299999999979
0
LINE
8
BLACK
6
CONTINUOUS
10
192.1668289999999786
20
-51.5065299999999979
11
192.2624999999999886
21
-51.4874999999999972
0
LINE
8
BLACK
6
CONTINUOUS
10
192.2624999999999886
20
-51.4874999999999972
11
194.2624999999999886
21
-51.4874999999999972
0
LINE
8
BLACK
6
CONTINUOUS
10
194.2624999999999886
20
-51.4874999999999972
11
194.3581709999999987
21
-51.5065299999999979
0
LINE
8
BLACK
6
CONTINUOUS
10
198.3581709999999987
20
-51.5065299999999979
11
198.4392770000000041
21
-51.5607229999999959
0
LINE
8
BLACK
6
CONTINUOUS
10
198.4392770000000041
20
-51.5607229999999959
11
198.4934700000000021
21
-51.6418289999999942
0
LINE
8
BLACK
6
CONTINUOUS
10
198.4934700000000021
20
-51.6418289999999942
11
198.5124999999999886
21
-51.7374999999999972
0
LINE
8
BLACK
6
CONTINUOUS
10
198.5124999999999886
20
-51.7374999999999972
11
198.5124999999999886
21
-53.0374999999999943
0
LINE
8
BLACK
6
CONTINUOUS
10
198.5124999999999886
20
-53.0374999999999943
11
198.4934700000000021
21
-53.1331709999999973
0
LINE
8
BLACK
6
CONTINUOUS
10
198.4934700000000021
20
-53.1331709999999973
11
198.4392770000000041
21
-53.2142769999999956
0
LINE
8
BLACK
6
CONTINUOUS
10
198.4392770000000041
20
-53.2142769999999956
11
198.3581709999999987
21
-53.2684700000000007
0
LINE
8
BLACK
6
CONTINUOUS
10
198.3581709999999987
20
-53.2684700000000007
11
198.2624999999999886
21
-53.2874999999999943
0
LINE
8
BLACK
6
CONTINUOUS
10
198.2624999999999886
20
-53.2874999999999943
11
196.2624999999999886
21
-53.2874999999999943
0
LINE
8
BLACK
6
CONTINUOUS
10
196.2624999999999886
20
-53.2874999999999943
11
196.1668289999999786
21
-53.2684700000000007
0
LINE
8
BLACK
6
CONTINUOUS
10
196.1668289999999786
20
-53.2684700000000007
11
196.0857230000000015
21
-53.2142769999999956
0
LINE
8
BLACK
6
CONTINUOUS
10
196.0857230000000015
20
-53.2142769999999956
11
196.0315300000000036
21
-53.1331709999999973
0
LINE
8
BLACK
6
CONTINUOUS
10
196.0315300000000036
20
-53.1331709999999973
11
196.0124999999999886
21
-53.0374999999999943
0
LINE
8
BLACK
6
CONTINUOUS
10
196.0124999999999886
20
-53.0374999999999943
11
196.0124999999999886
21
-51.7374999999999972
0
LINE
8
BLACK
6
CONTINUOUS
10
196.0124999999999886
20
-51.7374999999999972
11
196.0315300000000036
21
-51.6418289999999942
0
LINE
8
BLACK
6
CONTINUOUS
10
196.0315300000000036
20
-51.6418289999999942
11
196.0857230000000015
21
-51.5607229999999959
0
LINE
8
BLACK
6
CONTINUOUS
10
196.0857230000000015
20
-51.5607229999999959
11
196.1668289999999786
21
-51.5065299999999979
0
LINE
8
BLACK
6
CONTINUOUS
10
196.1668289999999786
20
-51.5065299999999979
11
196.2624999999999886
21
-51.4874999999999972
0
LINE
8
BLACK
6
CONTINUOUS
10
196.2624999999999886
20
-51.4874999999999972
11
198.2624999999999886
21
-51.4874999999999972
0
LINE
8
BLACK
6
CONTINUOUS
10
198.2624999999999886
20
-51.4874999999999972
11
198.3581709999999987
21
-51.5065299999999979
0
LINE
8
BLACK
6
CONTINUOUS
10
174.3881709999999998
20
-51.0715299999999957
11
174.4692770000000053
21
-51.1257230000000007
0
LINE
8
BLACK
6
CONTINUOUS
10
174.4692770000000053
20
-51.1257230000000007
11
174.5234700000000032
21
-51.206828999999999
0
LINE
8
BLACK
6
CONTINUOUS
10
174.5234700000000032
20
-51.206828999999999
11
174.5424999999999898
21
-51.3024999999999949
0
LINE
8
BLACK
6
CONTINUOUS
10
174.5424999999999898
20
-51.3024999999999949
11
174.5424999999999898
21
-52.2025000000000006
0
LINE
8
BLACK
6
CONTINUOUS
10
174.5424999999999898
20
-52.2025000000000006
11
174.5234700000000032
21
-52.2981709999999964
0
LINE
8
BLACK
6
CONTINUOUS
10
174.5234700000000032
20
-52.2981709999999964
11
174.4692770000000053
21
-52.3792769999999948
0
LINE
8
BLACK
6
CONTINUOUS
10
174.4692770000000053
20
-52.3792769999999948
11
174.3881709999999998
21
-52.4334699999999998
0
LINE
8
BLACK
6
CONTINUOUS
10
174.3881709999999998
20
-52.4334699999999998
11
174.2924999999999898
21
-52.4525000000000006
0
LINE
8
BLACK
6
CONTINUOUS
10
174.2924999999999898
20
-52.4525000000000006
11
173.5925000000000011
21
-52.4525000000000006
0
LINE
8
BLACK
6
CONTINUOUS
10
173.5925000000000011
20
-52.4525000000000006
11
173.4968289999999911
21
-52.4334699999999998
0
LINE
8
BLACK
6
CONTINUOUS
10
173.4968289999999911
20
-52.4334699999999998
11
173.4157229999999856
21
-52.3792769999999948
0
LINE
8
BLACK
6
CONTINUOUS
10
173.4157229999999856
20
-52.3792769999999948
11
173.3615299999999877
21
-52.2981709999999964
0
LINE
8
BLACK
6
CONTINUOUS
10
173.3615299999999877
20
-52.2981709999999964
11
173.3425000000000011
21
-52.2025000000000006
0
LINE
8
BLACK
6
CONTINUOUS
10
173.3425000000000011
20
-52.2025000000000006
11
173.3425000000000011
21
-51.3024999999999949
0
LINE
8
BLACK
6
CONTINUOUS
10
173.3425000000000011
20
-51.3024999999999949
11
173.3615299999999877
21
-51.206828999999999
0
LINE
8
BLACK
6
CONTINUOUS
10
173.3615299999999877
20
-51.206828999999999
11
173.4157229999999856
21
-51.1257230000000007
0
LINE
8
BLACK
6
CONTINUOUS
10
173.4157229999999856
20
-51.1257230000000007
11
173.4968289999999911
21
-51.0715299999999957
0
LINE
8
BLACK
6
CONTINUOUS
10
173.4968289999999911
20
-51.0715299999999957
11
173.5925000000000011
21
-51.0524999999999949
0
LINE
8
BLACK
6
CONTINUOUS
10
173.5925000000000011
20
-51.0524999999999949
11
174.2924999999999898
21
-51.0524999999999949
0
LINE
8
BLACK
6
CONTINUOUS
10
174.2924999999999898
20
-51.0524999999999949
11
174.3881709999999998
21
-51.0715299999999957
0
LINE
8
BLACK
6
CONTINUOUS
10
176.3881709999999998
20
-51.0715299999999957
11
176.4692770000000053
21
-51.1257230000000007
0
LINE
8
BLACK
6
CONTINUOUS
10
176.4692770000000053
20
-51.1257230000000007
11
176.5234700000000032
21
-51.206828999999999
0
LINE
8
BLACK
6
CONTINUOUS
10
176.5234700000000032
20
-51.206828999999999
11
176.5424999999999898
21
-51.3024999999999949
0
LINE
8
BLACK
6
CONTINUOUS
10
176.5424999999999898
20
-51.3024999999999949
11
176.5424999999999898
21
-52.2025000000000006
0
LINE
8
BLACK
6
CONTINUOUS
10
176.5424999999999898
20
-52.2025000000000006
11
176.5234700000000032
21
-52.2981709999999964
0
LINE
8
BLACK
6
CONTINUOUS
10
176.5234700000000032
20
-52.2981709999999964
11
176.4692770000000053
21
-52.3792769999999948
0
LINE
8
BLACK
6
CONTINUOUS
10
176.4692770000000053
20
-52.3792769999999948
11
176.3881709999999998
21
-52.4334699999999998
0
LINE
8
BLACK
6
CONTINUOUS
10
176.3881709999999998
20
-52.4334699999999998
11
176.2924999999999898
21
-52.4525000000000006
0
LINE
8
BLACK
6
CONTINUOUS
10
176.2924999999999898
20
-52.4525000000000006
11
175.5925000000000011
21
-52.4525000000000006
0
LINE
8
BLACK
6
CONTINUOUS
10
175.5925000000000011
20
-52.4525000000000006
11
175.4968289999999911
21
-52.4334699999999998
0
LINE
8
BLACK
6
CONTINUOUS
10
175.4968289999999911
20
-52.4334699999999998
11
175.4157229999999856
21
-52.3792769999999948
0
LINE
8
BLACK
6
CONTINUOUS
10
175.4157229999999856
20
-52.3792769999999948
11
175.3615299999999877
21
-52.2981709999999964
0
LINE
8
BLACK
6
CONTINUOUS
10
175.3615299999999877
20
-52.2981709999999964
11
175.3425000000000011
21
-52.2025000000000006
0
LINE
8
BLACK
6
CONTINUOUS
10
175.3425000000000011
20
-52.2025000000000006
11
175.3425000000000011
21
-51.3024999999999949
0
LINE
8
BLACK
6
CONTINUOUS
10
175.3425000000000011
20
-51.3024999999999949
11
175.3615299999999877
21
-51.206828999999999
0
LINE
8
BLACK
6
CONTINUOUS
10
175.3615299999999877
20
-51.206828999999999
11
175.4157229999999856
21
-51.1257230000000007
0
LINE
8
BLACK
6
CONTINUOUS
10
175.4157229999999856
20
-51.1257230000000007
11
175.4968289999999911
21
-51.0715299999999957
0
LINE
8
BLACK
6
CONTINUOUS
10
175.4968289999999911
20
-51.0715299999999957
11
175.5925000000000011
21
-51.0524999999999949
0
LINE
8
BLACK
6
CONTINUOUS
10
175.5925000000000011
20
-51.0524999999999949
11
176.2924999999999898
21
-51.0524999999999949
0
LINE
8
BLACK
6
CONTINUOUS
10
176.2924999999999898
20
-51.0524999999999949
11
176.3881709999999998
21
-51.0715299999999957
0
LINE
8
BLACK
6
CONTINUOUS
10
189.4025000000000034
20
-50.9849999999999994
11
190.8774999999999977
21
-50.9849999999999994
0
LINE
8
BLACK
6
CONTINUOUS
10
190.8774999999999977
20
-50.9849999999999994
11
190.8774999999999977
21
-51.884999999999998
0
LINE
8
BLACK
6
CONTINUOUS
10
190.8774999999999977
20
-51.884999999999998
11
189.4025000000000034
21
-51.884999999999998
0
LINE
8
BLACK
6
CONTINUOUS
10
189.4025000000000034
20
-51.884999999999998
11
189.4025000000000034
21
-52.3014999999999972
0
LINE
8
BLACK
6
CONTINUOUS
10
189.4025000000000034
20
-52.3014999999999972
11
186.2775000000000034
21
-52.3014999999999972
0
LINE
8
BLACK
6
CONTINUOUS
10
186.2775000000000034
20
-52.3014999999999972
11
186.2775000000000034
21
-50.5685000000000002
0
LINE
8
BLACK
6
CONTINUOUS
10
186.2775000000000034
20
-50.5685000000000002
11
189.4025000000000034
21
-50.5685000000000002
0
LINE
8
BLACK
6
CONTINUOUS
10
189.4025000000000034
20
-50.5685000000000002
11
189.4025000000000034
21
-50.9849999999999994
0
LINE
8
BLACK
6
CONTINUOUS
10
153.8274999999999864
20
-50.8200000000000003
11
152.9274999999999807
21
-50.8200000000000003
0
LINE
8
BLACK
6
CONTINUOUS
10
152.9274999999999807
20
-50.8200000000000003
11
152.9274999999999807
21
-49.3200000000000003
0
LINE
8
BLACK
6
CONTINUOUS
10
152.9274999999999807
20
-49.3200000000000003
11
153.8274999999999864
21
-49.3200000000000003
0
LINE
8
BLACK
6
CONTINUOUS
10
153.8274999999999864
20
-49.3200000000000003
11
153.8274999999999864
21
-50.8200000000000003
0
LINE
8
BLACK
6
CONTINUOUS
10
155.0974999999999966
20
-50.8200000000000003
11
154.1974999999999909
21
-50.8200000000000003
0
LINE
8
BLACK
6
CONTINUOUS
10
154.1974999999999909
20
-50.8200000000000003
11
154.1974999999999909
21
-49.3200000000000003
0
LINE
8
BLACK
6
CONTINUOUS
10
154.1974999999999909
20
-49.3200000000000003
11
155.0974999999999966
21
-49.3200000000000003
0
LINE
8
BLACK
6
CONTINUOUS
10
155.0974999999999966
20
-49.3200000000000003
11
155.0974999999999966
21
-50.8200000000000003
0
LINE
8
BLACK
6
CONTINUOUS
10
156.3675000000000068
20
-50.8200000000000003
11
155.4675000000000011
21
-50.8200000000000003
0
LINE
8
BLACK
6
CONTINUOUS
10
155.4675000000000011
20
-50.8200000000000003
11
155.4675000000000011
21
-49.3200000000000003
0
LINE
8
BLACK
6
CONTINUOUS
10
155.4675000000000011
20
-49.3200000000000003
11
156.3675000000000068
21
-49.3200000000000003
0
LINE
8
BLACK
6
CONTINUOUS
10
156.3675000000000068
20
-49.3200000000000003
11
156.3675000000000068
21
-50.8200000000000003
0
LINE
8
BLACK
6
CONTINUOUS
10
157.6374999999999886
20
-50.8200000000000003
11
156.7374999999999829
21
-50.8200000000000003
0
LINE
8
BLACK
6
CONTINUOUS
10
156.7374999999999829
20
-50.8200000000000003
11
156.7374999999999829
21
-49.3200000000000003
0
LINE
8
BLACK
6
CONTINUOUS
10
156.7374999999999829
20
-49.3200000000000003
11
157.6374999999999886
21
-49.3200000000000003
0
LINE
8
BLACK
6
CONTINUOUS
10
157.6374999999999886
20
-49.3200000000000003
11
157.6374999999999886
21
-50.8200000000000003
0
LINE
8
BLACK
6
CONTINUOUS
10
158.9074999999999989
20
-50.8200000000000003
11
158.0074999999999932
21
-50.8200000000000003
0
LINE
8
BLACK
6
CONTINUOUS
10
158.0074999999999932
20
-50.8200000000000003
11
158.0074999999999932
21
-49.3200000000000003
0
LINE
8
BLACK
6
CONTINUOUS
10
158.0074999999999932
20
-49.3200000000000003
11
158.9074999999999989
21
-49.3200000000000003
0
LINE
8
BLACK
6
CONTINUOUS
10
158.9074999999999989
20
-49.3200000000000003
11
158.9074999999999989
21
-50.8200000000000003
0
LINE
8
BLACK
6
CONTINUOUS
10
160.1774999999999807
20
-50.8200000000000003
11
159.2775000000000034
21
-50.8200000000000003
0
LINE
8
BLACK
6
CONTINUOUS
10
159.2775000000000034
20
-50.8200000000000003
11
159.2775000000000034
21
-49.3200000000000003
0
LINE
8
BLACK
6
CONTINUOUS
10
159.2775000000000034
20
-49.3200000000000003
11
160.1774999999999807
21
-49.3200000000000003
0
LINE
8
BLACK
6
CONTINUOUS
10
160.1774999999999807
20
-49.3200000000000003
11
160.1774999999999807
21
-50.8200000000000003
0
LINE
8
BLACK
6
CONTINUOUS
10
161.4474999999999909
20
-50.8200000000000003
11
160.5474999999999852
21
-50.8200000000000003
0
LINE
8
BLACK
6
CONTINUOUS
10
160.5474999999999852
20
-50.8200000000000003
11
160.5474999999999852
21
-49.3200000000000003
0
LINE
8
BLACK
6
CONTINUOUS
10
160.5474999999999852
20
-49.3200000000000003
11
161.4474999999999909
21
-49.3200000000000003
0
LINE
8
BLACK
6
CONTINUOUS
10
161.4474999999999909
20
-49.3200000000000003
11
161.4474999999999909
21
-50.8200000000000003
0
LINE
8
BLACK
6
CONTINUOUS
10
162.7175000000000011
20
-50.8200000000000003
11
161.8174999999999955
21
-50.8200000000000003
0
LINE
8
BLACK
6
CONTINUOUS
10
161.8174999999999955
20
-50.8200000000000003
11
161.8174999999999955
21
-49.3200000000000003
0
LINE
8
BLACK
6
CONTINUOUS
10
161.8174999999999955
20
-49.3200000000000003
11
162.7175000000000011
21
-49.3200000000000003
0
LINE
8
BLACK
6
CONTINUOUS
10
162.7175000000000011
20
-49.3200000000000003
11
162.7175000000000011
21
-50.8200000000000003
0
LINE
8
BLACK
6
CONTINUOUS
10
163.9874999999999829
20
-50.8200000000000003
11
163.0875000000000057
21
-50.8200000000000003
0
LINE
8
BLACK
6
CONTINUOUS
10
163.0875000000000057
20
-50.8200000000000003
11
163.0875000000000057
21
-49.3200000000000003
0
LINE
8
BLACK
6
CONTINUOUS
10
163.0875000000000057
20
-49.3200000000000003
11
163.9874999999999829
21
-49.3200000000000003
0
LINE
8
BLACK
6
CONTINUOUS
10
163.9874999999999829
20
-49.3200000000000003
11
163.9874999999999829
21
-50.8200000000000003
0
LINE
8
BLACK
6
CONTINUOUS
10
165.2574999999999932
20
-50.8200000000000003
11
164.3574999999999875
21
-50.8200000000000003
0
LINE
8
BLACK
6
CONTINUOUS
10
164.3574999999999875
20
-50.8200000000000003
11
164.3574999999999875
21
-49.3200000000000003
0
LINE
8
BLACK
6
CONTINUOUS
10
164.3574999999999875
20
-49.3200000000000003
11
165.2574999999999932
21
-49.3200000000000003
0
LINE
8
BLACK
6
CONTINUOUS
10
165.2574999999999932
20
-49.3200000000000003
11
165.2574999999999932
21
-50.8200000000000003
0
LINE
8
BLACK
6
CONTINUOUS
10
166.5275000000000034
20
-50.8200000000000003
11
165.6274999999999977
21
-50.8200000000000003
0
LINE
8
BLACK
6
CONTINUOUS
10
165.6274999999999977
20
-50.8200000000000003
11
165.6274999999999977
21
-49.3200000000000003
0
LINE
8
BLACK
6
CONTINUOUS
10
165.6274999999999977
20
-49.3200000000000003
11
166.5275000000000034
21
-49.3200000000000003
0
LINE
8
BLACK
6
CONTINUOUS
10
166.5275000000000034
20
-49.3200000000000003
11
166.5275000000000034
21
-50.8200000000000003
0
LINE
8
BLACK
6
CONTINUOUS
10
167.7974999999999852
20
-50.8200000000000003
11
166.8974999999999795
21
-50.8200000000000003
0
LINE
8
BLACK
6
CONTINUOUS
10
166.8974999999999795
20
-50.8200000000000003
11
166.8974999999999795
21
-49.3200000000000003
0
LINE
8
BLACK
6
CONTINUOUS
10
166.8974999999999795
20
-49.3200000000000003
11
167.7974999999999852
21
-49.3200000000000003
0
LINE
8
BLACK
6
CONTINUOUS
10
167.7974999999999852
20
-49.3200000000000003
11
167.7974999999999852
21
-50.8200000000000003
0
LINE
8
BLACK
6
CONTINUOUS
10
169.0674999999999955
20
-50.8200000000000003
11
168.1674999999999898
21
-50.8200000000000003
0
LINE
8
BLACK
6
CONTINUOUS
10
168.1674999999999898
20
-50.8200000000000003
11
168.1674999999999898
21
-49.3200000000000003
0
LINE
8
BLACK
6
CONTINUOUS
10
168.1674999999999898
20
-49.3200000000000003
11
169.0674999999999955
21
-49.3200000000000003
0
LINE
8
BLACK
6
CONTINUOUS
10
169.0674999999999955
20
-49.3200000000000003
11
169.0674999999999955
21
-50.8200000000000003
0
LINE
8
BLACK
6
CONTINUOUS
10
170.3375000000000057
20
-50.8200000000000003
11
169.4375
21
-50.8200000000000003
0
LINE
8
BLACK
6
CONTINUOUS
10
169.4375
20
-50.8200000000000003
11
169.4375
21
-49.3200000000000003
0
LINE
8
BLACK
6
CONTINUOUS
10
169.4375
20
-49.3200000000000003
11
170.3375000000000057
21
-49.3200000000000003
0
LINE
8
BLACK
6
CONTINUOUS
10
170.3375000000000057
20
-49.3200000000000003
11
170.3375000000000057
21
-50.8200000000000003
0
LINE
8
BLACK
6
CONTINUOUS
10
190.7386039999999809
20
-49.5021269999999944
11
190.8115990000000011
21
-49.5509009999999961
0
LINE
8
BLACK
6
CONTINUOUS
10
190.8115990000000011
20
-49.5509009999999961
11
190.8603729999999814
21
-49.6238959999999949
0
LINE
8
BLACK
6
CONTINUOUS
10
190.8603729999999814
20
-49.6238959999999949
11
190.8774999999999977
21
-49.7100000000000009
0
LINE
8
BLACK
6
CONTINUOUS
10
190.8774999999999977
20
-49.7100000000000009
11
190.8774999999999977
21
-50.1599999999999966
0
LINE
8
BLACK
6
CONTINUOUS
10
190.8774999999999977
20
-50.1599999999999966
11
190.8603729999999814
21
-50.2461039999999954
0
LINE
8
BLACK
6
CONTINUOUS
10
190.8603729999999814
20
-50.2461039999999954
11
190.8115990000000011
21
-50.3190989999999942
0
LINE
8
BLACK
6
CONTINUOUS
10
190.8115990000000011
20
-50.3190989999999942
11
190.7386039999999809
21
-50.3678729999999959
0
LINE
8
BLACK
6
CONTINUOUS
10
190.7386039999999809
20
-50.3678729999999959
11
190.6525000000000034
21
-50.384999999999998
0
LINE
8
BLACK
6
CONTINUOUS
10
190.6525000000000034
20
-50.384999999999998
11
189.8024999999999807
21
-50.384999999999998
0
LINE
8
BLACK
6
CONTINUOUS
10
189.8024999999999807
20
-50.384999999999998
11
189.7163960000000031
21
-50.3678729999999959
0
LINE
8
BLACK
6
CONTINUOUS
10
189.7163960000000031
20
-50.3678729999999959
11
189.643400999999983
21
-50.3190989999999942
0
LINE
8
BLACK
6
CONTINUOUS
10
189.643400999999983
20
-50.3190989999999942
11
189.5946270000000027
21
-50.2461039999999954
0
LINE
8
BLACK
6
CONTINUOUS
10
189.5946270000000027
20
-50.2461039999999954
11
189.5774999999999864
21
-50.1599999999999966
0
LINE
8
BLACK
6
CONTINUOUS
10
189.5774999999999864
20
-50.1599999999999966
11
189.5774999999999864
21
-49.7100000000000009
0
LINE
8
BLACK
6
CONTINUOUS
10
189.5774999999999864
20
-49.7100000000000009
11
189.5946270000000027
21
-49.6238959999999949
0
LINE
8
BLACK
6
CONTINUOUS
10
189.5946270000000027
20
-49.6238959999999949
11
189.643400999999983
21
-49.5509009999999961
0
LINE
8
BLACK
6
CONTINUOUS
10
189.643400999999983
20
-49.5509009999999961
11
189.7163960000000031
21
-49.5021269999999944
0
LINE
8
BLACK
6
CONTINUOUS
10
189.7163960000000031
20
-49.5021269999999944
11
189.8024999999999807
21
-49.4849999999999994
0
LINE
8
BLACK
6
CONTINUOUS
10
189.8024999999999807
20
-49.4849999999999994
11
190.6525000000000034
21
-49.4849999999999994
0
LINE
8
BLACK
6
CONTINUOUS
10
190.6525000000000034
20
-49.4849999999999994
11
190.7386039999999809
21
-49.5021269999999944
0
LINE
8
BLACK
6
CONTINUOUS
10
177.5974999999999966
20
-50.3699999999999974
11
176.0974999999999966
21
-50.3699999999999974
0
LINE
8
BLACK
6
CONTINUOUS
10
176.0974999999999966
20
-50.3699999999999974
11
176.0974999999999966
21
-48.8699999999999974
0
LINE
8
BLACK
6
CONTINUOUS
10
176.0974999999999966
20
-48.8699999999999974
11
177.5974999999999966
21
-48.8699999999999974
0
LINE
8
BLACK
6
CONTINUOUS
10
177.5974999999999966
20
-48.8699999999999974
11
177.5974999999999966
21
-50.3699999999999974
0
LINE
8
BLACK
6
CONTINUOUS
10
192.7531709999999805
20
-48.8240300000000005
11
192.8342769999999859
21
-48.8782229999999984
0
LINE
8
BLACK
6
CONTINUOUS
10
192.8342769999999859
20
-48.8782229999999984
11
192.8884699999999839
21
-48.9593289999999968
0
LINE
8
BLACK
6
CONTINUOUS
10
192.8884699999999839
20
-48.9593289999999968
11
192.9074999999999989
21
-49.0549999999999997
0
LINE
8
BLACK
6
CONTINUOUS
10
192.9074999999999989
20
-49.0549999999999997
11
192.9074999999999989
21
-50.0049999999999955
0
LINE
8
BLACK
6
CONTINUOUS
10
192.9074999999999989
20
-50.0049999999999955
11
192.8884699999999839
21
-50.1006709999999984
0
LINE
8
BLACK
6
CONTINUOUS
10
192.8884699999999839
20
-50.1006709999999984
11
192.8342769999999859
21
-50.1817769999999967
0
LINE
8
BLACK
6
CONTINUOUS
10
192.8342769999999859
20
-50.1817769999999967
11
192.7531709999999805
21
-50.2359699999999947
0
LINE
8
BLACK
6
CONTINUOUS
10
192.7531709999999805
20
-50.2359699999999947
11
192.6574999999999989
21
-50.2549999999999955
0
LINE
8
BLACK
6
CONTINUOUS
10
192.6574999999999989
20
-50.2549999999999955
11
191.9824999999999875
21
-50.2549999999999955
0
LINE
8
BLACK
6
CONTINUOUS
10
191.9824999999999875
20
-50.2549999999999955
11
191.8868289999999774
21
-50.2359699999999947
0
LINE
8
BLACK
6
CONTINUOUS
10
191.8868289999999774
20
-50.2359699999999947
11
191.8057230000000004
21
-50.1817769999999967
0
LINE
8
BLACK
6
CONTINUOUS
10
191.8057230000000004
20
-50.1817769999999967
11
191.7515300000000025
21
-50.1006709999999984
0
LINE
8
BLACK
6
CONTINUOUS
10
191.7515300000000025
20
-50.1006709999999984
11
191.7324999999999875
21
-50.0049999999999955
0
LINE
8
BLACK
6
CONTINUOUS
10
191.7324999999999875
20
-50.0049999999999955
11
191.7324999999999875
21
-49.0549999999999997
0
LINE
8
BLACK
6
CONTINUOUS
10
191.7324999999999875
20
-49.0549999999999997
11
191.7515300000000025
21
-48.9593289999999968
0
LINE
8
BLACK
6
CONTINUOUS
10
191.7515300000000025
20
-48.9593289999999968
11
191.8057230000000004
21
-48.8782229999999984
0
LINE
8
BLACK
6
CONTINUOUS
10
191.8057230000000004
20
-48.8782229999999984
11
191.8868289999999774
21
-48.8240300000000005
0
LINE
8
BLACK
6
CONTINUOUS
10
191.8868289999999774
20
-48.8240300000000005
11
191.9824999999999875
21
-48.8049999999999997
0
LINE
8
BLACK
6
CONTINUOUS
10
191.9824999999999875
20
-48.8049999999999997
11
192.6574999999999989
21
-48.8049999999999997
0
LINE
8
BLACK
6
CONTINUOUS
10
192.6574999999999989
20
-48.8049999999999997
11
192.7531709999999805
21
-48.8240300000000005
0
LINE
8
BLACK
6
CONTINUOUS
10
194.8281709999999975
20
-48.8240300000000005
11
194.909277000000003
21
-48.8782229999999984
0
LINE
8
BLACK
6
CONTINUOUS
10
194.909277000000003
20
-48.8782229999999984
11
194.9634700000000009
21
-48.9593289999999968
0
LINE
8
BLACK
6
CONTINUOUS
10
194.9634700000000009
20
-48.9593289999999968
11
194.9824999999999875
21
-49.0549999999999997
0
LINE
8
BLACK
6
CONTINUOUS
10
194.9824999999999875
20
-49.0549999999999997
11
194.9824999999999875
21
-50.0049999999999955
0
LINE
8
BLACK
6
CONTINUOUS
10
194.9824999999999875
20
-50.0049999999999955
11
194.9634700000000009
21
-50.1006709999999984
0
LINE
8
BLACK
6
CONTINUOUS
10
194.9634700000000009
20
-50.1006709999999984
11
194.909277000000003
21
-50.1817769999999967
0
LINE
8
BLACK
6
CONTINUOUS
10
194.909277000000003
20
-50.1817769999999967
11
194.8281709999999975
21
-50.2359699999999947
0
LINE
8
BLACK
6
CONTINUOUS
10
194.8281709999999975
20
-50.2359699999999947
11
194.7324999999999875
21
-50.2549999999999955
0
LINE
8
BLACK
6
CONTINUOUS
10
194.7324999999999875
20
-50.2549999999999955
11
194.0575000000000045
21
-50.2549999999999955
0
LINE
8
BLACK
6
CONTINUOUS
10
194.0575000000000045
20
-50.2549999999999955
11
193.9618289999999945
21
-50.2359699999999947
0
LINE
8
BLACK
6
CONTINUOUS
10
193.9618289999999945
20
-50.2359699999999947
11
193.880722999999989
21
-50.1817769999999967
0
LINE
8
BLACK
6
CONTINUOUS
10
193.880722999999989
20
-50.1817769999999967
11
193.8265299999999911
21
-50.1006709999999984
0
LINE
8
BLACK
6
CONTINUOUS
10
193.8265299999999911
20
-50.1006709999999984
11
193.8075000000000045
21
-50.0049999999999955
0
LINE
8
BLACK
6
CONTINUOUS
10
193.8075000000000045
20
-50.0049999999999955
11
193.8075000000000045
21
-49.0549999999999997
0
LINE
8
BLACK
6
CONTINUOUS
10
193.8075000000000045
20
-49.0549999999999997
11
193.8265299999999911
21
-48.9593289999999968
0
LINE
8
BLACK
6
CONTINUOUS
10
193.8265299999999911
20
-48.9593289999999968
11
193.880722999999989
21
-48.8782229999999984
0
LINE
8
BLACK
6
CONTINUOUS
10
193.880722999999989
20
-48.8782229999999984
11
193.9618289999999945
21
-48.8240300000000005
0
LINE
8
BLACK
6
CONTINUOUS
10
193.9618289999999945
20
-48.8240300000000005
11
194.0575000000000045
21
-48.8049999999999997
0
LINE
8
BLACK
6
CONTINUOUS
10
194.0575000000000045
20
-48.8049999999999997
11
194.7324999999999875
21
-48.8049999999999997
0
LINE
8
BLACK
6
CONTINUOUS
10
194.7324999999999875
20
-48.8049999999999997
11
194.8281709999999975
21
-48.8240300000000005
0
LINE
8
BLACK
6
CONTINUOUS
10
196.6131709999999941
20
-48.8490299999999991
11
196.6942769999999996
21
-48.903222999999997
0
LINE
8
BLACK
6
CONTINUOUS
10
196.6942769999999996
20
-48.903222999999997
11
196.7484699999999975
21
-48.9843289999999953
0
LINE
8
BLACK
6
CONTINUOUS
10
196.7484699999999975
20
-48.9843289999999953
11
196.7674999999999841
21
-49.0799999999999983
0
LINE
8
BLACK
6
CONTINUOUS
10
196.7674999999999841
20
-49.0799999999999983
11
196.7674999999999841
21
-49.9799999999999969
0
LINE
8
BLACK
6
CONTINUOUS
10
196.7674999999999841
20
-49.9799999999999969
11
196.7484699999999975
21
-50.0756709999999998
0
LINE
8
BLACK
6
CONTINUOUS
10
196.7484699999999975
20
-50.0756709999999998
11
196.6942769999999996
21
-50.1567769999999982
0
LINE
8
BLACK
6
CONTINUOUS
10
196.6942769999999996
20
-50.1567769999999982
11
196.6131709999999941
21
-50.2109699999999961
0
LINE
8
BLACK
6
CONTINUOUS
10
196.6131709999999941
20
-50.2109699999999961
11
196.5174999999999841
21
-50.2299999999999969
0
LINE
8
BLACK
6
CONTINUOUS
10
196.5174999999999841
20
-50.2299999999999969
11
195.8174999999999955
21
-50.2299999999999969
0
LINE
8
BLACK
6
CONTINUOUS
10
195.8174999999999955
20
-50.2299999999999969
11
195.7218289999999854
21
-50.2109699999999961
0
LINE
8
BLACK
6
CONTINUOUS
10
195.7218289999999854
20
-50.2109699999999961
11
195.6407229999999799
21
-50.1567769999999982
0
LINE
8
BLACK
6
CONTINUOUS
10
195.6407229999999799
20
-50.1567769999999982
11
195.586529999999982
21
-50.0756709999999998
0
LINE
8
BLACK
6
CONTINUOUS
10
195.586529999999982
20
-50.0756709999999998
11
195.5674999999999955
21
-49.9799999999999969
0
LINE
8
BLACK
6
CONTINUOUS
10
195.5674999999999955
20
-49.9799999999999969
11
195.5674999999999955
21
-49.0799999999999983
0
LINE
8
BLACK
6
CONTINUOUS
10
195.5674999999999955
20
-49.0799999999999983
11
195.586529999999982
21
-48.9843289999999953
0
LINE
8
BLACK
6
CONTINUOUS
10
195.586529999999982
20
-48.9843289999999953
11
195.6407229999999799
21
-48.903222999999997
0
LINE
8
BLACK
6
CONTINUOUS
10
195.6407229999999799
20
-48.903222999999997
11
195.7218289999999854
21
-48.8490299999999991
0
LINE
8
BLACK
6
CONTINUOUS
10
195.7218289999999854
20
-48.8490299999999991
11
195.8174999999999955
21
-48.8299999999999983
0
LINE
8
BLACK
6
CONTINUOUS
10
195.8174999999999955
20
-48.8299999999999983
11
196.5174999999999841
21
-48.8299999999999983
0
LINE
8
BLACK
6
CONTINUOUS
10
196.5174999999999841
20
-48.8299999999999983
11
196.6131709999999941
21
-48.8490299999999991
0
LINE
8
BLACK
6
CONTINUOUS
10
198.6131709999999941
20
-48.8490299999999991
11
198.6942769999999996
21
-48.903222999999997
0
LINE
8
BLACK
6
CONTINUOUS
10
198.6942769999999996
20
-48.903222999999997
11
198.7484699999999975
21
-48.9843289999999953
0
LINE
8
BLACK
6
CONTINUOUS
10
198.7484699999999975
20
-48.9843289999999953
11
198.7674999999999841
21
-49.0799999999999983
0
LINE
8
BLACK
6
CONTINUOUS
10
198.7674999999999841
20
-49.0799999999999983
11
198.7674999999999841
21
-49.9799999999999969
0
LINE
8
BLACK
6
CONTINUOUS
10
198.7674999999999841
20
-49.9799999999999969
11
198.7484699999999975
21
-50.0756709999999998
0
LINE
8
BLACK
6
CONTINUOUS
10
198.7484699999999975
20
-50.0756709999999998
11
198.6942769999999996
21
-50.1567769999999982
0
LINE
8
BLACK
6
CONTINUOUS
10
198.6942769999999996
20
-50.1567769999999982
11
198.6131709999999941
21
-50.2109699999999961
0
LINE
8
BLACK
6
CONTINUOUS
10
198.6131709999999941
20
-50.2109699999999961
11
198.5174999999999841
21
-50.2299999999999969
0
LINE
8
BLACK
6
CONTINUOUS
10
198.5174999999999841
20
-50.2299999999999969
11
197.8174999999999955
21
-50.2299999999999969
0
LINE
8
BLACK
6
CONTINUOUS
10
197.8174999999999955
20
-50.2299999999999969
11
197.7218289999999854
21
-50.2109699999999961
0
LINE
8
BLACK
6
CONTINUOUS
10
197.7218289999999854
20
-50.2109699999999961
11
197.6407229999999799
21
-50.1567769999999982
0
LINE
8
BLACK
6
CONTINUOUS
10
197.6407229999999799
20
-50.1567769999999982
11
197.586529999999982
21
-50.0756709999999998
0
LINE
8
BLACK
6
CONTINUOUS
10
197.586529999999982
20
-50.0756709999999998
11
197.5674999999999955
21
-49.9799999999999969
0
LINE
8
BLACK
6
CONTINUOUS
10
197.5674999999999955
20
-49.9799999999999969
11
197.5674999999999955
21
-49.0799999999999983
0
LINE
8
BLACK
6
CONTINUOUS
10
197.5674999999999955
20
-49.0799999999999983
11
197.586529999999982
21
-48.9843289999999953
0
LINE
8
BLACK
6
CONTINUOUS
10
197.586529999999982
20
-48.9843289999999953
11
197.6407229999999799
21
-48.903222999999997
0
LINE
8
BLACK
6
CONTINUOUS
10
197.6407229999999799
20
-48.903222999999997
11
197.7218289999999854
21
-48.8490299999999991
0
LINE
8
BLACK
6
CONTINUOUS
10
197.7218289999999854
20
-48.8490299999999991
11
197.8174999999999955
21
-48.8299999999999983
0
LINE
8
BLACK
6
CONTINUOUS
10
197.8174999999999955
20
-48.8299999999999983
11
198.5174999999999841
21
-48.8299999999999983
0
LINE
8
BLACK
6
CONTINUOUS
10
198.5174999999999841
20
-48.8299999999999983
11
198.6131709999999941
21
-48.8490299999999991
0
LINE
8
BLACK
6
CONTINUOUS
10
185.0974029999999857
20
-45.4289179999999959
11
185.1460659999999905
21
-45.461433999999997
0
LINE
8
BLACK
6
CONTINUOUS
10
185.1460659999999905
20
-45.461433999999997
11
185.1785820000000058
21
-45.5100969999999947
0
LINE
8
BLACK
6
CONTINUOUS
10
185.1785820000000058
20
-45.5100969999999947
11
185.1899999999999977
21
-45.5674999999999955
0
LINE
8
BLACK
6
CONTINUOUS
10
185.1899999999999977
20
-45.5674999999999955
11
185.1899999999999977
21
-45.8674999999999997
0
LINE
8
BLACK
6
CONTINUOUS
10
185.1899999999999977
20
-45.8674999999999997
11
185.1785820000000058
21
-45.9249030000000005
0
LINE
8
BLACK
6
CONTINUOUS
10
185.1785820000000058
20
-45.9249030000000005
11
185.1460659999999905
21
-45.9735659999999982
0
LINE
8
BLACK
6
CONTINUOUS
10
185.1460659999999905
20
-45.9735659999999982
11
185.0974029999999857
21
-46.0060819999999993
0
LINE
8
BLACK
6
CONTINUOUS
10
185.0974029999999857
20
-46.0060819999999993
11
185.039999999999992
21
-46.0174999999999983
0
LINE
8
BLACK
6
CONTINUOUS
10
185.039999999999992
20
-46.0174999999999983
11
183.8649999999999807
21
-46.0174999999999983
0
LINE
8
BLACK
6
CONTINUOUS
10
183.8649999999999807
20
-46.0174999999999983
11
183.807596999999987
21
-46.0060819999999993
0
LINE
8
BLACK
6
CONTINUOUS
10
183.807596999999987
20
-46.0060819999999993
11
183.7589339999999822
21
-45.9735659999999982
0
LINE
8
BLACK
6
CONTINUOUS
10
183.7589339999999822
20
-45.9735659999999982
11
183.7264179999999953
21
-45.9249030000000005
0
LINE
8
BLACK
6
CONTINUOUS
10
183.7264179999999953
20
-45.9249030000000005
11
183.7150000000000034
21
-45.8674999999999997
0
LINE
8
BLACK
6
CONTINUOUS
10
183.7150000000000034
20
-45.8674999999999997
11
183.7150000000000034
21
-45.5674999999999955
0
LINE
8
BLACK
6
CONTINUOUS
10
183.7150000000000034
20
-45.5674999999999955
11
183.7264179999999953
21
-45.5100969999999947
0
LINE
8
BLACK
6
CONTINUOUS
10
183.7264179999999953
20
-45.5100969999999947
11
183.7589339999999822
21
-45.461433999999997
0
LINE
8
BLACK
6
CONTINUOUS
10
183.7589339999999822
20
-45.461433999999997
11
183.807596999999987
21
-45.4289179999999959
0
LINE
8
BLACK
6
CONTINUOUS
10
183.807596999999987
20
-45.4289179999999959
11
183.8649999999999807
21
-45.4174999999999969
0
LINE
8
BLACK
6
CONTINUOUS
10
183.8649999999999807
20
-45.4174999999999969
11
185.039999999999992
21
-45.4174999999999969
0
LINE
8
BLACK
6
CONTINUOUS
10
185.039999999999992
20
-45.4174999999999969
11
185.0974029999999857
21
-45.4289179999999959
0
LINE
8
BLACK
6
CONTINUOUS
10
183.2224029999999857
20
-44.4789180000000002
11
183.2710659999999905
21
-44.5114340000000013
0
LINE
8
BLACK
6
CONTINUOUS
10
183.2710659999999905
20
-44.5114340000000013
11
183.3035820000000058
21
-44.560096999999999
0
LINE
8
BLACK
6
CONTINUOUS
10
183.3035820000000058
20
-44.560096999999999
11
183.3149999999999977
21
-44.6174999999999997
0
LINE
8
BLACK
6
CONTINUOUS
10
183.3149999999999977
20
-44.6174999999999997
11
183.3149999999999977
21
-44.9174999999999969
0
LINE
8
BLACK
6
CONTINUOUS
10
183.3149999999999977
20
-44.9174999999999969
11
183.3035820000000058
21
-44.9749029999999976
0
LINE
8
BLACK
6
CONTINUOUS
10
183.3035820000000058
20
-44.9749029999999976
11
183.2710659999999905
21
-45.0235659999999953
0
LINE
8
BLACK
6
CONTINUOUS
10
183.2710659999999905
20
-45.0235659999999953
11
183.2224029999999857
21
-45.0560819999999964
0
LINE
8
BLACK
6
CONTINUOUS
10
183.2224029999999857
20
-45.0560819999999964
11
183.164999999999992
21
-45.0674999999999955
0
LINE
8
BLACK
6
CONTINUOUS
10
183.164999999999992
20
-45.0674999999999955
11
181.9899999999999807
21
-45.0674999999999955
0
LINE
8
BLACK
6
CONTINUOUS
10
181.9899999999999807
20
-45.0674999999999955
11
181.932596999999987
21
-45.0560819999999964
0
LINE
8
BLACK
6
CONTINUOUS
10
181.932596999999987
20
-45.0560819999999964
11
181.8839339999999822
21
-45.0235659999999953
0
LINE
8
BLACK
6
CONTINUOUS
10
181.8839339999999822
20
-45.0235659999999953
11
181.8514179999999953
21
-44.9749029999999976
0
LINE
8
BLACK
6
CONTINUOUS
10
181.8514179999999953
20
-44.9749029999999976
11
181.8400000000000034
21
-44.9174999999999969
0
LINE
8
BLACK
6
CONTINUOUS
10
181.8400000000000034
20
-44.9174999999999969
11
181.8400000000000034
21
-44.6174999999999997
0
LINE
8
BLACK
6
CONTINUOUS
10
181.8400000000000034
20
-44.6174999999999997
11
181.8514179999999953
21
-44.560096999999999
0
LINE
8
BLACK
6
CONTINUOUS
10
181.8514179999999953
20
-44.560096999999999
11
181.8839339999999822
21
-44.5114340000000013
0
LINE
8
BLACK
6
CONTINUOUS
10
181.8839339999999822
20
-44.5114340000000013
11
181.932596999999987
21
-44.4789180000000002
0
LINE
8
BLACK
6
CONTINUOUS
10
181.932596999999987
20
-44.4789180000000002
11
181.9899999999999807
21
-44.4675000000000011
0
LINE
8
BLACK
6
CONTINUOUS
10
181.9899999999999807
20
-44.4675000000000011
11
183.164999999999992
21
-44.4675000000000011
0
LINE
8
BLACK
6
CONTINUOUS
10
183.164999999999992
20
-44.4675000000000011
11
183.2224029999999857
21
-44.4789180000000002
0
LINE
8
BLACK
6
CONTINUOUS
10
171.9956709999999873
20
-43.2815299999999965
11
172.0767769999999928
21
-43.3357230000000015
0
LINE
8
BLACK
6
CONTINUOUS
10
172.0767769999999928
20
-43.3357230000000015
11
172.1309699999999907
21
-43.4168289999999999
0
LINE
8
BLACK
6
CONTINUOUS
10
172.1309699999999907
20
-43.4168289999999999
11
172.1500000000000057
21
-43.5124999999999957
0
LINE
8
BLACK
6
CONTINUOUS
10
172.1500000000000057
20
-43.5124999999999957
11
172.1500000000000057
21
-44.2124999999999986
0
LINE
8
BLACK
6
CONTINUOUS
10
172.1500000000000057
20
-44.2124999999999986
11
172.1309699999999907
21
-44.3081710000000015
0
LINE
8
BLACK
6
CONTINUOUS
10
172.1309699999999907
20
-44.3081710000000015
11
172.0767769999999928
21
-44.3892769999999999
0
LINE
8
BLACK
6
CONTINUOUS
10
172.0767769999999928
20
-44.3892769999999999
11
171.9956709999999873
21
-44.4434699999999978
0
LINE
8
BLACK
6
CONTINUOUS
10
171.9956709999999873
20
-44.4434699999999978
11
171.9000000000000057
21
-44.4624999999999986
0
LINE
8
BLACK
6
CONTINUOUS
10
171.9000000000000057
20
-44.4624999999999986
11
171.
21
-44.4624999999999986
0
LINE
8
BLACK
6
CONTINUOUS
10
171.
20
-44.4624999999999986
11
170.9043289999999899
21
-44.4434699999999978
0
LINE
8
BLACK
6
CONTINUOUS
10
170.9043289999999899
20
-44.4434699999999978
11
170.8232229999999845
21
-44.3892769999999999
0
LINE
8
BLACK
6
CONTINUOUS
10
170.8232229999999845
20
-44.3892769999999999
11
170.7690299999999866
21
-44.3081710000000015
0
LINE
8
BLACK
6
CONTINUOUS
10
170.7690299999999866
20
-44.3081710000000015
11
170.75
21
-44.2124999999999986
0
LINE
8
BLACK
6
CONTINUOUS
10
170.75
20
-44.2124999999999986
11
170.75
21
-43.5124999999999957
0
LINE
8
BLACK
6
CONTINUOUS
10
170.75
20
-43.5124999999999957
11
170.7690299999999866
21
-43.4168289999999999
0
LINE
8
BLACK
6
CONTINUOUS
10
170.7690299999999866
20
-43.4168289999999999
11
170.8232229999999845
21
-43.3357230000000015
0
LINE
8
BLACK
6
CONTINUOUS
10
170.8232229999999845
20
-43.3357230000000015
11
170.9043289999999899
21
-43.2815299999999965
0
LINE
8
BLACK
6
CONTINUOUS
10
170.9043289999999899
20
-43.2815299999999965
11
171.
21
-43.2624999999999957
0
LINE
8
BLACK
6
CONTINUOUS
10
171.
20
-43.2624999999999957
11
171.9000000000000057
21
-43.2624999999999957
0
LINE
8
BLACK
6
CONTINUOUS
10
171.9000000000000057
20
-43.2624999999999957
11
171.9956709999999873
21
-43.2815299999999965
0
LINE
8
BLACK
6
CONTINUOUS
10
174.2181709999999839
20
-43.2815299999999965
11
174.2992769999999894
21
-43.3357230000000015
0
LINE
8
BLACK
6
CONTINUOUS
10
174.2992769999999894
20
-43.3357230000000015
11
174.3534699999999873
21
-43.4168289999999999
0
LINE
8
BLACK
6
CONTINUOUS
10
174.3534699999999873
20
-43.4168289999999999
11
174.3725000000000023
21
-43.5124999999999957
0
LINE
8
BLACK
6
CONTINUOUS
10
174.3725000000000023
20
-43.5124999999999957
11
174.3725000000000023
21
-44.2124999999999986
0
LINE
8
BLACK
6
CONTINUOUS
10
174.3725000000000023
20
-44.2124999999999986
11
174.3534699999999873
21
-44.3081710000000015
0
LINE
8
BLACK
6
CONTINUOUS
10
174.3534699999999873
20
-44.3081710000000015
11
174.2992769999999894
21
-44.3892769999999999
0
LINE
8
BLACK
6
CONTINUOUS
10
174.2992769999999894
20
-44.3892769999999999
11
174.2181709999999839
21
-44.4434699999999978
0
LINE
8
BLACK
6
CONTINUOUS
10
174.2181709999999839
20
-44.4434699999999978
11
174.1225000000000023
21
-44.4624999999999986
0
LINE
8
BLACK
6
CONTINUOUS
10
174.1225000000000023
20
-44.4624999999999986
11
173.2224999999999966
21
-44.4624999999999986
0
LINE
8
BLACK
6
CONTINUOUS
10
173.2224999999999966
20
-44.4624999999999986
11
173.1268289999999865
21
-44.4434699999999978
0
LINE
8
BLACK
6
CONTINUOUS
10
173.1268289999999865
20
-44.4434699999999978
11
173.0457229999999811
21
-44.3892769999999999
0
LINE
8
BLACK
6
CONTINUOUS
10
173.0457229999999811
20
-44.3892769999999999
11
172.9915299999999831
21
-44.3081710000000015
0
LINE
8
BLACK
6
CONTINUOUS
10
172.9915299999999831
20
-44.3081710000000015
11
172.9724999999999966
21
-44.2124999999999986
0
LINE
8
BLACK
6
CONTINUOUS
10
172.9724999999999966
20
-44.2124999999999986
11
172.9724999999999966
21
-43.5124999999999957
0
LINE
8
BLACK
6
CONTINUOUS
10
172.9724999999999966
20
-43.5124999999999957
11
172.9915299999999831
21
-43.4168289999999999
0
LINE
8
BLACK
6
CONTINUOUS
10
172.9915299999999831
20
-43.4168289999999999
11
173.0457229999999811
21
-43.3357230000000015
0
LINE
8
BLACK
6
CONTINUOUS
10
173.0457229999999811
20
-43.3357230000000015
11
173.1268289999999865
21
-43.2815299999999965
0
LINE
8
BLACK
6
CONTINUOUS
10
173.1268289999999865
20
-43.2815299999999965
11
173.2224999999999966
21
-43.2624999999999957
0
LINE
8
BLACK
6
CONTINUOUS
10
173.2224999999999966
20
-43.2624999999999957
11
174.1225000000000023
21
-43.2624999999999957
0
LINE
8
BLACK
6
CONTINUOUS
10
174.1225000000000023
20
-43.2624999999999957
11
174.2181709999999839
21
-43.2815299999999965
0
LINE
8
BLACK
6
CONTINUOUS
10
185.0974029999999857
20
-43.5289179999999973
11
185.1460659999999905
21
-43.5614339999999984
0
LINE
8
BLACK
6
CONTINUOUS
10
185.1460659999999905
20
-43.5614339999999984
11
185.1785820000000058
21
-43.6100969999999961
0
LINE
8
BLACK
6
CONTINUOUS
10
185.1785820000000058
20
-43.6100969999999961
11
185.1899999999999977
21
-43.6674999999999969
0
LINE
8
BLACK
6
CONTINUOUS
10
185.1899999999999977
20
-43.6674999999999969
11
185.1899999999999977
21
-43.9675000000000011
0
LINE
8
BLACK
6
CONTINUOUS
10
185.1899999999999977
20
-43.9675000000000011
11
185.1785820000000058
21
-44.0249029999999948
0
LINE
8
BLACK
6
CONTINUOUS
10
185.1785820000000058
20
-44.0249029999999948
11
185.1460659999999905
21
-44.0735659999999996
0
LINE
8
BLACK
6
CONTINUOUS
10
185.1460659999999905
20
-44.0735659999999996
11
185.0974029999999857
21
-44.1060820000000007
0
LINE
8
BLACK
6
CONTINUOUS
10
185.0974029999999857
20
-44.1060820000000007
11
185.039999999999992
21
-44.1174999999999997
0
LINE
8
BLACK
6
CONTINUOUS
10
185.039999999999992
20
-44.1174999999999997
11
183.8649999999999807
21
-44.1174999999999997
0
LINE
8
BLACK
6
CONTINUOUS
10
183.8649999999999807
20
-44.1174999999999997
11
183.807596999999987
21
-44.1060820000000007
0
LINE
8
BLACK
6
CONTINUOUS
10
183.807596999999987
20
-44.1060820000000007
11
183.7589339999999822
21
-44.0735659999999996
0
LINE
8
BLACK
6
CONTINUOUS
10
183.7589339999999822
20
-44.0735659999999996
11
183.7264179999999953
21
-44.0249029999999948
0
LINE
8
BLACK
6
CONTINUOUS
10
183.7264179999999953
20
-44.0249029999999948
11
183.7150000000000034
21
-43.9675000000000011
0
LINE
8
BLACK
6
CONTINUOUS
10
183.7150000000000034
20
-43.9675000000000011
11
183.7150000000000034
21
-43.6674999999999969
0
LINE
8
BLACK
6
CONTINUOUS
10
183.7150000000000034
20
-43.6674999999999969
11
183.7264179999999953
21
-43.6100969999999961
0
LINE
8
BLACK
6
CONTINUOUS
10
183.7264179999999953
20
-43.6100969999999961
11
183.7589339999999822
21
-43.5614339999999984
0
LINE
8
BLACK
6
CONTINUOUS
10
183.7589339999999822
20
-43.5614339999999984
11
183.807596999999987
21
-43.5289179999999973
0
LINE
8
BLACK
6
CONTINUOUS
10
183.807596999999987
20
-43.5289179999999973
11
183.8649999999999807
21
-43.5174999999999983
0
LINE
8
BLACK
6
CONTINUOUS
10
183.8649999999999807
20
-43.5174999999999983
11
185.039999999999992
21
-43.5174999999999983
0
LINE
8
BLACK
6
CONTINUOUS
10
185.039999999999992
20
-43.5174999999999983
11
185.0974029999999857
21
-43.5289179999999973
0
LINE
8
BLACK
6
CONTINUOUS
10
177.5974999999999966
20
-42.5700000000000003
11
176.0974999999999966
21
-42.5700000000000003
0
LINE
8
BLACK
6
CONTINUOUS
10
176.0974999999999966
20
-42.5700000000000003
11
176.0974999999999966
21
-41.0700000000000003
0
LINE
8
BLACK
6
CONTINUOUS
10
176.0974999999999966
20
-41.0700000000000003
11
177.5974999999999966
21
-41.0700000000000003
0
LINE
8
BLACK
6
CONTINUOUS
10
177.5974999999999966
20
-41.0700000000000003
11
177.5974999999999966
21
-42.5700000000000003
0
LINE
8
BLACK
6
CONTINUOUS
10
171.9956709999999873
20
-41.2815299999999965
11
172.0767769999999928
21
-41.3357230000000015
0
LINE
8
BLACK
6
CONTINUOUS
10
172.0767769999999928
20
-41.3357230000000015
11
172.1309699999999907
21
-41.4168289999999999
0
LINE
8
BLACK
6
CONTINUOUS
10
172.1309699999999907
20
-41.4168289999999999
11
172.1500000000000057
21
-41.5124999999999957
0
LINE
8
BLACK
6
CONTINUOUS
10
172.1500000000000057
20
-41.5124999999999957
11
172.1500000000000057
21
-42.2124999999999986
0
LINE
8
BLACK
6
CONTINUOUS
10
172.1500000000000057
20
-42.2124999999999986
11
172.1309699999999907
21
-42.3081710000000015
0
LINE
8
BLACK
6
CONTINUOUS
10
172.1309699999999907
20
-42.3081710000000015
11
172.0767769999999928
21
-42.3892769999999999
0
LINE
8
BLACK
6
CONTINUOUS
10
172.0767769999999928
20
-42.3892769999999999
11
171.9956709999999873
21
-42.4434699999999978
0
LINE
8
BLACK
6
CONTINUOUS
10
171.9956709999999873
20
-42.4434699999999978
11
171.9000000000000057
21
-42.4624999999999986
0
LINE
8
BLACK
6
CONTINUOUS
10
171.9000000000000057
20
-42.4624999999999986
11
171.
21
-42.4624999999999986
0
LINE
8
BLACK
6
CONTINUOUS
10
171.
20
-42.4624999999999986
11
170.9043289999999899
21
-42.4434699999999978
0
LINE
8
BLACK
6
CONTINUOUS
10
170.9043289999999899
20
-42.4434699999999978
11
170.8232229999999845
21
-42.3892769999999999
0
LINE
8
BLACK
6
CONTINUOUS
10
170.8232229999999845
20
-42.3892769999999999
11
170.7690299999999866
21
-42.3081710000000015
0
LINE
8
BLACK
6
CONTINUOUS
10
170.7690299999999866
20
-42.3081710000000015
11
170.75
21
-42.2124999999999986
0
LINE
8
BLACK
6
CONTINUOUS
10
170.75
20
-42.2124999999999986
11
170.75
21
-41.5124999999999957
0
LINE
8
BLACK
6
CONTINUOUS
10
170.75
20
-41.5124999999999957
11
170.7690299999999866
21
-41.4168289999999999
0
LINE
8
BLACK
6
CONTINUOUS
10
170.7690299999999866
20
-41.4168289999999999
11
170.8232229999999845
21
-41.3357230000000015
0
LINE
8
BLACK
6
CONTINUOUS
10
170.8232229999999845
20
-41.3357230000000015
11
170.9043289999999899
21
-41.2815299999999965
0
LINE
8
BLACK
6
CONTINUOUS
10
170.9043289999999899
20
-41.2815299999999965
11
171.
21
-41.2624999999999957
0
LINE
8
BLACK
6
CONTINUOUS
10
171.
20
-41.2624999999999957
11
171.9000000000000057
21
-41.2624999999999957
0
LINE
8
BLACK
6
CONTINUOUS
10
171.9000000000000057
20
-41.2624999999999957
11
171.9956709999999873
21
-41.2815299999999965
0
LINE
8
BLACK
6
CONTINUOUS
10
174.2181709999999839
20
-41.2815299999999965
11
174.2992769999999894
21
-41.3357230000000015
0
LINE
8
BLACK
6
CONTINUOUS
10
174.2992769999999894
20
-41.3357230000000015
11
174.3534699999999873
21
-41.4168289999999999
0
LINE
8
BLACK
6
CONTINUOUS
10
174.3534699999999873
20
-41.4168289999999999
11
174.3725000000000023
21
-41.5124999999999957
0
LINE
8
BLACK
6
CONTINUOUS
10
174.3725000000000023
20
-41.5124999999999957
11
174.3725000000000023
21
-42.2124999999999986
0
LINE
8
BLACK
6
CONTINUOUS
10
174.3725000000000023
20
-42.2124999999999986
11
174.3534699999999873
21
-42.3081710000000015
0
LINE
8
BLACK
6
CONTINUOUS
10
174.3534699999999873
20
-42.3081710000000015
11
174.2992769999999894
21
-42.3892769999999999
0
LINE
8
BLACK
6
CONTINUOUS
10
174.2992769999999894
20
-42.3892769999999999
11
174.2181709999999839
21
-42.4434699999999978
0
LINE
8
BLACK
6
CONTINUOUS
10
174.2181709999999839
20
-42.4434699999999978
11
174.1225000000000023
21
-42.4624999999999986
0
LINE
8
BLACK
6
CONTINUOUS
10
174.1225000000000023
20
-42.4624999999999986
11
173.2224999999999966
21
-42.4624999999999986
0
LINE
8
BLACK
6
CONTINUOUS
10
173.2224999999999966
20
-42.4624999999999986
11
173.1268289999999865
21
-42.4434699999999978
0
LINE
8
BLACK
6
CONTINUOUS
10
173.1268289999999865
20
-42.4434699999999978
11
173.0457229999999811
21
-42.3892769999999999
0
LINE
8
BLACK
6
CONTINUOUS
10
173.0457229999999811
20
-42.3892769999999999
11
172.9915299999999831
21
-42.3081710000000015
0
LINE
8
BLACK
6
CONTINUOUS
10
172.9915299999999831
20
-42.3081710000000015
11
172.9724999999999966
21
-42.2124999999999986
0
LINE
8
BLACK
6
CONTINUOUS
10
172.9724999999999966
20
-42.2124999999999986
11
172.9724999999999966
21
-41.5124999999999957
0
LINE
8
BLACK
6
CONTINUOUS
10
172.9724999999999966
20
-41.5124999999999957
11
172.9915299999999831
21
-41.4168289999999999
0
LINE
8
BLACK
6
CONTINUOUS
10
172.9915299999999831
20
-41.4168289999999999
11
173.0457229999999811
21
-41.3357230000000015
0
LINE
8
BLACK
6
CONTINUOUS
10
173.0457229999999811
20
-41.3357230000000015
11
173.1268289999999865
21
-41.2815299999999965
0
LINE
8
BLACK
6
CONTINUOUS
10
173.1268289999999865
20
-41.2815299999999965
11
173.2224999999999966
21
-41.2624999999999957
0
LINE
8
BLACK
6
CONTINUOUS
10
173.2224999999999966
20
-41.2624999999999957
11
174.1225000000000023
21
-41.2624999999999957
0
LINE
8
BLACK
6
CONTINUOUS
10
174.1225000000000023
20
-41.2624999999999957
11
174.2181709999999839
21
-41.2815299999999965
  0
ENDSEC
  0
EOF
