  0
SECTION
  2
HEADER
  9
$ANGBASE
  50
0.0
  9
$ANGDIR
  70
1
  9
$MEASUREMENT
  70
1
  0
ENDSEC
  0
SECTION
  2
TABLES
  0
TABLE
  2
LTYPE
  70
4
  0
LTYPE
  5
40F
  2
CONTINUOUS
  70
0
  3
Solid line
  72
65
  73
0
  40
0.0
  0
LTYPE
  5
410
  2
DASHDOT
 70
0
  3
Dash Dot ____ _ ____ _
 72
65
 73
4
 40
2.0
 49
1.25
 49
-0.25
 49
0.25
 49
-0.25
  0
LTYPE
  5
411
  2
DASHED
 70
0
  3
Dashed __ __ __ __ __
 72
65
 73
2
 40
0.75
 49
0.5
 49
-0.25
  0
LTYPE
  5
43B
  2
DOTTED
 70
0
  3
Dotted .  .  .  .
 72
65
 73
2
 40
0.2
 49
0.0
 49
-0.2
  0
ENDTAB
  0
TABLE
  2
STYLE
  70
4
  0
STYLE
  2
KICAD
  70
0
  40
0
  41
1
  42
1
  50
0
  71
0
  3
isocp.shx
  0
STYLE
  2
KICADB
  70
0
  40
0
  41
1
  42
1
  50
0
  71
0
  3
isocp.shx
  0
STYLE
  2
KICADI
  70
0
  40
0
  41
1
  42
1
  50
15
  71
0
  3
isocp.shx
  0
STYLE
  2
KICADBI
  70
0
  40
0
  41
1
  42
1
  50
15
  71
0
  3
isocp.shx
  0
ENDTAB
  0
TABLE
  2
LAYER
  70
1
  0
LAYER
  2
BLACK
  70
0
  62
7
  6
CONTINUOUS
  0
ENDTAB
  0
ENDSEC
  0
SECTION
  2
ENTITIES
0
LINE
8
BLACK
6
CONTINUOUS
10
197.1924029999999846
20
-75.9089179999999999
11
197.2410659999999893
21
-75.941434000000001
0
LINE
8
BLACK
6
CONTINUOUS
10
197.2410659999999893
20
-75.941434000000001
11
197.2735820000000047
21
-75.9900969999999916
0
LINE
8
BLACK
6
CONTINUOUS
10
197.2735820000000047
20
-75.9900969999999916
11
197.2849999999999966
21
-76.0474999999999994
0
LINE
8
BLACK
6
CONTINUOUS
10
197.2849999999999966
20
-76.0474999999999994
11
197.2849999999999966
21
-76.3474999999999966
0
LINE
8
BLACK
6
CONTINUOUS
10
197.2849999999999966
20
-76.3474999999999966
11
197.2735820000000047
21
-76.4049029999999902
0
LINE
8
BLACK
6
CONTINUOUS
10
197.2735820000000047
20
-76.4049029999999902
11
197.2410659999999893
21
-76.453565999999995
0
LINE
8
BLACK
6
CONTINUOUS
10
197.2410659999999893
20
-76.453565999999995
11
197.1924029999999846
21
-76.4860819999999961
0
LINE
8
BLACK
6
CONTINUOUS
10
197.1924029999999846
20
-76.4860819999999961
11
197.1349999999999909
21
-76.4975000000000023
0
LINE
8
BLACK
6
CONTINUOUS
10
197.1349999999999909
20
-76.4975000000000023
11
195.9599999999999795
21
-76.4975000000000023
0
LINE
8
BLACK
6
CONTINUOUS
10
195.9599999999999795
20
-76.4975000000000023
11
195.9025969999999859
21
-76.4860819999999961
0
LINE
8
BLACK
6
CONTINUOUS
10
195.9025969999999859
20
-76.4860819999999961
11
195.8539339999999811
21
-76.453565999999995
0
LINE
8
BLACK
6
CONTINUOUS
10
195.8539339999999811
20
-76.453565999999995
11
195.8214179999999942
21
-76.4049029999999902
0
LINE
8
BLACK
6
CONTINUOUS
10
195.8214179999999942
20
-76.4049029999999902
11
195.8100000000000023
21
-76.3474999999999966
0
LINE
8
BLACK
6
CONTINUOUS
10
195.8100000000000023
20
-76.3474999999999966
11
195.8100000000000023
21
-76.0474999999999994
0
LINE
8
BLACK
6
CONTINUOUS
10
195.8100000000000023
20
-76.0474999999999994
11
195.8214179999999942
21
-75.9900969999999916
0
LINE
8
BLACK
6
CONTINUOUS
10
195.8214179999999942
20
-75.9900969999999916
11
195.8539339999999811
21
-75.941434000000001
0
LINE
8
BLACK
6
CONTINUOUS
10
195.8539339999999811
20
-75.941434000000001
11
195.9025969999999859
21
-75.9089179999999999
0
LINE
8
BLACK
6
CONTINUOUS
10
195.9025969999999859
20
-75.9089179999999999
11
195.9599999999999795
21
-75.8974999999999937
0
LINE
8
BLACK
6
CONTINUOUS
10
195.9599999999999795
20
-75.8974999999999937
11
197.1349999999999909
21
-75.8974999999999937
0
LINE
8
BLACK
6
CONTINUOUS
10
197.1349999999999909
20
-75.8974999999999937
11
197.1924029999999846
21
-75.9089179999999999
0
LINE
8
BLACK
6
CONTINUOUS
10
199.0674029999999846
20
-74.9589179999999971
11
199.1160659999999893
21
-74.9914339999999982
0
LINE
8
BLACK
6
CONTINUOUS
10
199.1160659999999893
20
-74.9914339999999982
11
199.1485820000000047
21
-75.0400970000000029
0
LINE
8
BLACK
6
CONTINUOUS
10
199.1485820000000047
20
-75.0400970000000029
11
199.1599999999999966
21
-75.0974999999999966
0
LINE
8
BLACK
6
CONTINUOUS
10
199.1599999999999966
20
-75.0974999999999966
11
199.1599999999999966
21
-75.3974999999999937
0
LINE
8
BLACK
6
CONTINUOUS
10
199.1599999999999966
20
-75.3974999999999937
11
199.1485820000000047
21
-75.4549030000000016
0
LINE
8
BLACK
6
CONTINUOUS
10
199.1485820000000047
20
-75.4549030000000016
11
199.1160659999999893
21
-75.5035659999999922
0
LINE
8
BLACK
6
CONTINUOUS
10
199.1160659999999893
20
-75.5035659999999922
11
199.0674029999999846
21
-75.5360819999999933
0
LINE
8
BLACK
6
CONTINUOUS
10
199.0674029999999846
20
-75.5360819999999933
11
199.0099999999999909
21
-75.5474999999999994
0
LINE
8
BLACK
6
CONTINUOUS
10
199.0099999999999909
20
-75.5474999999999994
11
197.8349999999999795
21
-75.5474999999999994
0
LINE
8
BLACK
6
CONTINUOUS
10
197.8349999999999795
20
-75.5474999999999994
11
197.7775969999999859
21
-75.5360819999999933
0
LINE
8
BLACK
6
CONTINUOUS
10
197.7775969999999859
20
-75.5360819999999933
11
197.7289339999999811
21
-75.5035659999999922
0
LINE
8
BLACK
6
CONTINUOUS
10
197.7289339999999811
20
-75.5035659999999922
11
197.6964179999999942
21
-75.4549030000000016
0
LINE
8
BLACK
6
CONTINUOUS
10
197.6964179999999942
20
-75.4549030000000016
11
197.6850000000000023
21
-75.3974999999999937
0
LINE
8
BLACK
6
CONTINUOUS
10
197.6850000000000023
20
-75.3974999999999937
11
197.6850000000000023
21
-75.0974999999999966
0
LINE
8
BLACK
6
CONTINUOUS
10
197.6850000000000023
20
-75.0974999999999966
11
197.6964179999999942
21
-75.0400970000000029
0
LINE
8
BLACK
6
CONTINUOUS
10
197.6964179999999942
20
-75.0400970000000029
11
197.7289339999999811
21
-74.9914339999999982
0
LINE
8
BLACK
6
CONTINUOUS
10
197.7289339999999811
20
-74.9914339999999982
11
197.7775969999999859
21
-74.9589179999999971
0
LINE
8
BLACK
6
CONTINUOUS
10
197.7775969999999859
20
-74.9589179999999971
11
197.8349999999999795
21
-74.9474999999999909
0
LINE
8
BLACK
6
CONTINUOUS
10
197.8349999999999795
20
-74.9474999999999909
11
199.0099999999999909
21
-74.9474999999999909
0
LINE
8
BLACK
6
CONTINUOUS
10
199.0099999999999909
20
-74.9474999999999909
11
199.0674029999999846
21
-74.9589179999999971
0
LINE
8
BLACK
6
CONTINUOUS
10
197.1924029999999846
20
-74.0089179999999942
11
197.2410659999999893
21
-74.0414339999999953
0
LINE
8
BLACK
6
CONTINUOUS
10
197.2410659999999893
20
-74.0414339999999953
11
197.2735820000000047
21
-74.0900970000000001
0
LINE
8
BLACK
6
CONTINUOUS
10
197.2735820000000047
20
-74.0900970000000001
11
197.2849999999999966
21
-74.1474999999999937
0
LINE
8
BLACK
6
CONTINUOUS
10
197.2849999999999966
20
-74.1474999999999937
11
197.2849999999999966
21
-74.4474999999999909
0
LINE
8
BLACK
6
CONTINUOUS
10
197.2849999999999966
20
-74.4474999999999909
11
197.2735820000000047
21
-74.5049029999999988
0
LINE
8
BLACK
6
CONTINUOUS
10
197.2735820000000047
20
-74.5049029999999988
11
197.2410659999999893
21
-74.5535660000000036
0
LINE
8
BLACK
6
CONTINUOUS
10
197.2410659999999893
20
-74.5535660000000036
11
197.1924029999999846
21
-74.5860819999999904
0
LINE
8
BLACK
6
CONTINUOUS
10
197.1924029999999846
20
-74.5860819999999904
11
197.1349999999999909
21
-74.5974999999999966
0
LINE
8
BLACK
6
CONTINUOUS
10
197.1349999999999909
20
-74.5974999999999966
11
195.9599999999999795
21
-74.5974999999999966
0
LINE
8
BLACK
6
CONTINUOUS
10
195.9599999999999795
20
-74.5974999999999966
11
195.9025969999999859
21
-74.5860819999999904
0
LINE
8
BLACK
6
CONTINUOUS
10
195.9025969999999859
20
-74.5860819999999904
11
195.8539339999999811
21
-74.5535660000000036
0
LINE
8
BLACK
6
CONTINUOUS
10
195.8539339999999811
20
-74.5535660000000036
11
195.8214179999999942
21
-74.5049029999999988
0
LINE
8
BLACK
6
CONTINUOUS
10
195.8214179999999942
20
-74.5049029999999988
11
195.8100000000000023
21
-74.4474999999999909
0
LINE
8
BLACK
6
CONTINUOUS
10
195.8100000000000023
20
-74.4474999999999909
11
195.8100000000000023
21
-74.1474999999999937
0
LINE
8
BLACK
6
CONTINUOUS
10
195.8100000000000023
20
-74.1474999999999937
11
195.8214179999999942
21
-74.0900970000000001
0
LINE
8
BLACK
6
CONTINUOUS
10
195.8214179999999942
20
-74.0900970000000001
11
195.8539339999999811
21
-74.0414339999999953
0
LINE
8
BLACK
6
CONTINUOUS
10
195.8539339999999811
20
-74.0414339999999953
11
195.9025969999999859
21
-74.0089179999999942
0
LINE
8
BLACK
6
CONTINUOUS
10
195.9025969999999859
20
-74.0089179999999942
11
195.9599999999999795
21
-73.9975000000000023
0
LINE
8
BLACK
6
CONTINUOUS
10
195.9599999999999795
20
-73.9975000000000023
11
197.1349999999999909
21
-73.9975000000000023
0
LINE
8
BLACK
6
CONTINUOUS
10
197.1349999999999909
20
-73.9975000000000023
11
197.1924029999999846
21
-74.0089179999999942
0
LINE
8
BLACK
6
CONTINUOUS
10
197.1924029999999846
20
-70.8289180000000016
11
197.2410659999999893
21
-70.8614340000000027
0
LINE
8
BLACK
6
CONTINUOUS
10
197.2410659999999893
20
-70.8614340000000027
11
197.2735820000000047
21
-70.9100969999999933
0
LINE
8
BLACK
6
CONTINUOUS
10
197.2735820000000047
20
-70.9100969999999933
11
197.2849999999999966
21
-70.9675000000000011
0
LINE
8
BLACK
6
CONTINUOUS
10
197.2849999999999966
20
-70.9675000000000011
11
197.2849999999999966
21
-71.2674999999999983
0
LINE
8
BLACK
6
CONTINUOUS
10
197.2849999999999966
20
-71.2674999999999983
11
197.2735820000000047
21
-71.3249029999999919
0
LINE
8
BLACK
6
CONTINUOUS
10
197.2735820000000047
20
-71.3249029999999919
11
197.2410659999999893
21
-71.3735659999999967
0
LINE
8
BLACK
6
CONTINUOUS
10
197.2410659999999893
20
-71.3735659999999967
11
197.1924029999999846
21
-71.4060819999999978
0
LINE
8
BLACK
6
CONTINUOUS
10
197.1924029999999846
20
-71.4060819999999978
11
197.1349999999999909
21
-71.4174999999999898
0
LINE
8
BLACK
6
CONTINUOUS
10
197.1349999999999909
20
-71.4174999999999898
11
195.9599999999999795
21
-71.4174999999999898
0
LINE
8
BLACK
6
CONTINUOUS
10
195.9599999999999795
20
-71.4174999999999898
11
195.9025969999999859
21
-71.4060819999999978
0
LINE
8
BLACK
6
CONTINUOUS
10
195.9025969999999859
20
-71.4060819999999978
11
195.8539339999999811
21
-71.3735659999999967
0
LINE
8
BLACK
6
CONTINUOUS
10
195.8539339999999811
20
-71.3735659999999967
11
195.8214179999999942
21
-71.3249029999999919
0
LINE
8
BLACK
6
CONTINUOUS
10
195.8214179999999942
20
-71.3249029999999919
11
195.8100000000000023
21
-71.2674999999999983
0
LINE
8
BLACK
6
CONTINUOUS
10
195.8100000000000023
20
-71.2674999999999983
11
195.8100000000000023
21
-70.9675000000000011
0
LINE
8
BLACK
6
CONTINUOUS
10
195.8100000000000023
20
-70.9675000000000011
11
195.8214179999999942
21
-70.9100969999999933
0
LINE
8
BLACK
6
CONTINUOUS
10
195.8214179999999942
20
-70.9100969999999933
11
195.8539339999999811
21
-70.8614340000000027
0
LINE
8
BLACK
6
CONTINUOUS
10
195.8539339999999811
20
-70.8614340000000027
11
195.9025969999999859
21
-70.8289180000000016
0
LINE
8
BLACK
6
CONTINUOUS
10
195.9025969999999859
20
-70.8289180000000016
11
195.9599999999999795
21
-70.8174999999999955
0
LINE
8
BLACK
6
CONTINUOUS
10
195.9599999999999795
20
-70.8174999999999955
11
197.1349999999999909
21
-70.8174999999999955
0
LINE
8
BLACK
6
CONTINUOUS
10
197.1349999999999909
20
-70.8174999999999955
11
197.1924029999999846
21
-70.8289180000000016
0
LINE
8
BLACK
6
CONTINUOUS
10
199.0674029999999846
20
-69.8789179999999988
11
199.1160659999999893
21
-69.9114339999999999
0
LINE
8
BLACK
6
CONTINUOUS
10
199.1160659999999893
20
-69.9114339999999999
11
199.1485820000000047
21
-69.9600969999999904
0
LINE
8
BLACK
6
CONTINUOUS
10
199.1485820000000047
20
-69.9600969999999904
11
199.1599999999999966
21
-70.0174999999999983
0
LINE
8
BLACK
6
CONTINUOUS
10
199.1599999999999966
20
-70.0174999999999983
11
199.1599999999999966
21
-70.3174999999999955
0
LINE
8
BLACK
6
CONTINUOUS
10
199.1599999999999966
20
-70.3174999999999955
11
199.1485820000000047
21
-70.3749030000000033
0
LINE
8
BLACK
6
CONTINUOUS
10
199.1485820000000047
20
-70.3749030000000033
11
199.1160659999999893
21
-70.4235659999999939
0
LINE
8
BLACK
6
CONTINUOUS
10
199.1160659999999893
20
-70.4235659999999939
11
199.0674029999999846
21
-70.456081999999995
0
LINE
8
BLACK
6
CONTINUOUS
10
199.0674029999999846
20
-70.456081999999995
11
199.0099999999999909
21
-70.4675000000000011
0
LINE
8
BLACK
6
CONTINUOUS
10
199.0099999999999909
20
-70.4675000000000011
11
197.8349999999999795
21
-70.4675000000000011
0
LINE
8
BLACK
6
CONTINUOUS
10
197.8349999999999795
20
-70.4675000000000011
11
197.7775969999999859
21
-70.456081999999995
0
LINE
8
BLACK
6
CONTINUOUS
10
197.7775969999999859
20
-70.456081999999995
11
197.7289339999999811
21
-70.4235659999999939
0
LINE
8
BLACK
6
CONTINUOUS
10
197.7289339999999811
20
-70.4235659999999939
11
197.6964179999999942
21
-70.3749030000000033
0
LINE
8
BLACK
6
CONTINUOUS
10
197.6964179999999942
20
-70.3749030000000033
11
197.6850000000000023
21
-70.3174999999999955
0
LINE
8
BLACK
6
CONTINUOUS
10
197.6850000000000023
20
-70.3174999999999955
11
197.6850000000000023
21
-70.0174999999999983
0
LINE
8
BLACK
6
CONTINUOUS
10
197.6850000000000023
20
-70.0174999999999983
11
197.6964179999999942
21
-69.9600969999999904
0
LINE
8
BLACK
6
CONTINUOUS
10
197.6964179999999942
20
-69.9600969999999904
11
197.7289339999999811
21
-69.9114339999999999
0
LINE
8
BLACK
6
CONTINUOUS
10
197.7289339999999811
20
-69.9114339999999999
11
197.7775969999999859
21
-69.8789179999999988
0
LINE
8
BLACK
6
CONTINUOUS
10
197.7775969999999859
20
-69.8789179999999988
11
197.8349999999999795
21
-69.8674999999999926
0
LINE
8
BLACK
6
CONTINUOUS
10
197.8349999999999795
20
-69.8674999999999926
11
199.0099999999999909
21
-69.8674999999999926
0
LINE
8
BLACK
6
CONTINUOUS
10
199.0099999999999909
20
-69.8674999999999926
11
199.0674029999999846
21
-69.8789179999999988
0
LINE
8
BLACK
6
CONTINUOUS
10
197.1924029999999846
20
-68.9289179999999959
11
197.2410659999999893
21
-68.961433999999997
0
LINE
8
BLACK
6
CONTINUOUS
10
197.2410659999999893
20
-68.961433999999997
11
197.2735820000000047
21
-69.0100970000000018
0
LINE
8
BLACK
6
CONTINUOUS
10
197.2735820000000047
20
-69.0100970000000018
11
197.2849999999999966
21
-69.0674999999999955
0
LINE
8
BLACK
6
CONTINUOUS
10
197.2849999999999966
20
-69.0674999999999955
11
197.2849999999999966
21
-69.3674999999999926
0
LINE
8
BLACK
6
CONTINUOUS
10
197.2849999999999966
20
-69.3674999999999926
11
197.2735820000000047
21
-69.4249030000000005
0
LINE
8
BLACK
6
CONTINUOUS
10
197.2735820000000047
20
-69.4249030000000005
11
197.2410659999999893
21
-69.473565999999991
0
LINE
8
BLACK
6
CONTINUOUS
10
197.2410659999999893
20
-69.473565999999991
11
197.1924029999999846
21
-69.5060819999999921
0
LINE
8
BLACK
6
CONTINUOUS
10
197.1924029999999846
20
-69.5060819999999921
11
197.1349999999999909
21
-69.5174999999999983
0
LINE
8
BLACK
6
CONTINUOUS
10
197.1349999999999909
20
-69.5174999999999983
11
195.9599999999999795
21
-69.5174999999999983
0
LINE
8
BLACK
6
CONTINUOUS
10
195.9599999999999795
20
-69.5174999999999983
11
195.9025969999999859
21
-69.5060819999999921
0
LINE
8
BLACK
6
CONTINUOUS
10
195.9025969999999859
20
-69.5060819999999921
11
195.8539339999999811
21
-69.473565999999991
0
LINE
8
BLACK
6
CONTINUOUS
10
195.8539339999999811
20
-69.473565999999991
11
195.8214179999999942
21
-69.4249030000000005
0
LINE
8
BLACK
6
CONTINUOUS
10
195.8214179999999942
20
-69.4249030000000005
11
195.8100000000000023
21
-69.3674999999999926
0
LINE
8
BLACK
6
CONTINUOUS
10
195.8100000000000023
20
-69.3674999999999926
11
195.8100000000000023
21
-69.0674999999999955
0
LINE
8
BLACK
6
CONTINUOUS
10
195.8100000000000023
20
-69.0674999999999955
11
195.8214179999999942
21
-69.0100970000000018
0
LINE
8
BLACK
6
CONTINUOUS
10
195.8214179999999942
20
-69.0100970000000018
11
195.8539339999999811
21
-68.961433999999997
0
LINE
8
BLACK
6
CONTINUOUS
10
195.8539339999999811
20
-68.961433999999997
11
195.9025969999999859
21
-68.9289179999999959
0
LINE
8
BLACK
6
CONTINUOUS
10
195.9025969999999859
20
-68.9289179999999959
11
195.9599999999999795
21
-68.917500000000004
0
LINE
8
BLACK
6
CONTINUOUS
10
195.9599999999999795
20
-68.917500000000004
11
197.1349999999999909
21
-68.917500000000004
0
LINE
8
BLACK
6
CONTINUOUS
10
197.1349999999999909
20
-68.917500000000004
11
197.1924029999999846
21
-68.9289179999999959
0
LINE
8
BLACK
6
CONTINUOUS
10
197.1924029999999846
20
-65.7489180000000033
11
197.2410659999999893
21
-65.7814339999999902
0
LINE
8
BLACK
6
CONTINUOUS
10
197.2410659999999893
20
-65.7814339999999902
11
197.2735820000000047
21
-65.830096999999995
0
LINE
8
BLACK
6
CONTINUOUS
10
197.2735820000000047
20
-65.830096999999995
11
197.2849999999999966
21
-65.8875000000000028
0
LINE
8
BLACK
6
CONTINUOUS
10
197.2849999999999966
20
-65.8875000000000028
11
197.2849999999999966
21
-66.1875
0
LINE
8
BLACK
6
CONTINUOUS
10
197.2849999999999966
20
-66.1875
11
197.2735820000000047
21
-66.2449029999999937
0
LINE
8
BLACK
6
CONTINUOUS
10
197.2735820000000047
20
-66.2449029999999937
11
197.2410659999999893
21
-66.2935659999999984
0
LINE
8
BLACK
6
CONTINUOUS
10
197.2410659999999893
20
-66.2935659999999984
11
197.1924029999999846
21
-66.3260819999999995
0
LINE
8
BLACK
6
CONTINUOUS
10
197.1924029999999846
20
-66.3260819999999995
11
197.1349999999999909
21
-66.3374999999999915
0
LINE
8
BLACK
6
CONTINUOUS
10
197.1349999999999909
20
-66.3374999999999915
11
195.9599999999999795
21
-66.3374999999999915
0
LINE
8
BLACK
6
CONTINUOUS
10
195.9599999999999795
20
-66.3374999999999915
11
195.9025969999999859
21
-66.3260819999999995
0
LINE
8
BLACK
6
CONTINUOUS
10
195.9025969999999859
20
-66.3260819999999995
11
195.8539339999999811
21
-66.2935659999999984
0
LINE
8
BLACK
6
CONTINUOUS
10
195.8539339999999811
20
-66.2935659999999984
11
195.8214179999999942
21
-66.2449029999999937
0
LINE
8
BLACK
6
CONTINUOUS
10
195.8214179999999942
20
-66.2449029999999937
11
195.8100000000000023
21
-66.1875
0
LINE
8
BLACK
6
CONTINUOUS
10
195.8100000000000023
20
-66.1875
11
195.8100000000000023
21
-65.8875000000000028
0
LINE
8
BLACK
6
CONTINUOUS
10
195.8100000000000023
20
-65.8875000000000028
11
195.8214179999999942
21
-65.830096999999995
0
LINE
8
BLACK
6
CONTINUOUS
10
195.8214179999999942
20
-65.830096999999995
11
195.8539339999999811
21
-65.7814339999999902
0
LINE
8
BLACK
6
CONTINUOUS
10
195.8539339999999811
20
-65.7814339999999902
11
195.9025969999999859
21
-65.7489180000000033
0
LINE
8
BLACK
6
CONTINUOUS
10
195.9025969999999859
20
-65.7489180000000033
11
195.9599999999999795
21
-65.7374999999999972
0
LINE
8
BLACK
6
CONTINUOUS
10
195.9599999999999795
20
-65.7374999999999972
11
197.1349999999999909
21
-65.7374999999999972
0
LINE
8
BLACK
6
CONTINUOUS
10
197.1349999999999909
20
-65.7374999999999972
11
197.1924029999999846
21
-65.7489180000000033
0
LINE
8
BLACK
6
CONTINUOUS
10
199.0674029999999846
20
-64.7989180000000005
11
199.1160659999999893
21
-64.8314340000000016
0
LINE
8
BLACK
6
CONTINUOUS
10
199.1160659999999893
20
-64.8314340000000016
11
199.1485820000000047
21
-64.8800969999999921
0
LINE
8
BLACK
6
CONTINUOUS
10
199.1485820000000047
20
-64.8800969999999921
11
199.1599999999999966
21
-64.9375
0
LINE
8
BLACK
6
CONTINUOUS
10
199.1599999999999966
20
-64.9375
11
199.1599999999999966
21
-65.2374999999999972
0
LINE
8
BLACK
6
CONTINUOUS
10
199.1599999999999966
20
-65.2374999999999972
11
199.1485820000000047
21
-65.2949029999999908
0
LINE
8
BLACK
6
CONTINUOUS
10
199.1485820000000047
20
-65.2949029999999908
11
199.1160659999999893
21
-65.3435659999999956
0
LINE
8
BLACK
6
CONTINUOUS
10
199.1160659999999893
20
-65.3435659999999956
11
199.0674029999999846
21
-65.3760819999999967
0
LINE
8
BLACK
6
CONTINUOUS
10
199.0674029999999846
20
-65.3760819999999967
11
199.0099999999999909
21
-65.3875000000000028
0
LINE
8
BLACK
6
CONTINUOUS
10
199.0099999999999909
20
-65.3875000000000028
11
197.8349999999999795
21
-65.3875000000000028
0
LINE
8
BLACK
6
CONTINUOUS
10
197.8349999999999795
20
-65.3875000000000028
11
197.7775969999999859
21
-65.3760819999999967
0
LINE
8
BLACK
6
CONTINUOUS
10
197.7775969999999859
20
-65.3760819999999967
11
197.7289339999999811
21
-65.3435659999999956
0
LINE
8
BLACK
6
CONTINUOUS
10
197.7289339999999811
20
-65.3435659999999956
11
197.6964179999999942
21
-65.2949029999999908
0
LINE
8
BLACK
6
CONTINUOUS
10
197.6964179999999942
20
-65.2949029999999908
11
197.6850000000000023
21
-65.2374999999999972
0
LINE
8
BLACK
6
CONTINUOUS
10
197.6850000000000023
20
-65.2374999999999972
11
197.6850000000000023
21
-64.9375
0
LINE
8
BLACK
6
CONTINUOUS
10
197.6850000000000023
20
-64.9375
11
197.6964179999999942
21
-64.8800969999999921
0
LINE
8
BLACK
6
CONTINUOUS
10
197.6964179999999942
20
-64.8800969999999921
11
197.7289339999999811
21
-64.8314340000000016
0
LINE
8
BLACK
6
CONTINUOUS
10
197.7289339999999811
20
-64.8314340000000016
11
197.7775969999999859
21
-64.7989180000000005
0
LINE
8
BLACK
6
CONTINUOUS
10
197.7775969999999859
20
-64.7989180000000005
11
197.8349999999999795
21
-64.7874999999999943
0
LINE
8
BLACK
6
CONTINUOUS
10
197.8349999999999795
20
-64.7874999999999943
11
199.0099999999999909
21
-64.7874999999999943
0
LINE
8
BLACK
6
CONTINUOUS
10
199.0099999999999909
20
-64.7874999999999943
11
199.0674029999999846
21
-64.7989180000000005
0
LINE
8
BLACK
6
CONTINUOUS
10
197.1924029999999846
20
-63.8489179999999976
11
197.2410659999999893
21
-63.8814339999999987
0
LINE
8
BLACK
6
CONTINUOUS
10
197.2410659999999893
20
-63.8814339999999987
11
197.2735820000000047
21
-63.9300969999999964
0
LINE
8
BLACK
6
CONTINUOUS
10
197.2735820000000047
20
-63.9300969999999964
11
197.2849999999999966
21
-63.9874999999999972
0
LINE
8
BLACK
6
CONTINUOUS
10
197.2849999999999966
20
-63.9874999999999972
11
197.2849999999999966
21
-64.2874999999999943
0
LINE
8
BLACK
6
CONTINUOUS
10
197.2849999999999966
20
-64.2874999999999943
11
197.2735820000000047
21
-64.3449030000000022
0
LINE
8
BLACK
6
CONTINUOUS
10
197.2735820000000047
20
-64.3449030000000022
11
197.2410659999999893
21
-64.3935659999999928
0
LINE
8
BLACK
6
CONTINUOUS
10
197.2410659999999893
20
-64.3935659999999928
11
197.1924029999999846
21
-64.4260819999999939
0
LINE
8
BLACK
6
CONTINUOUS
10
197.1924029999999846
20
-64.4260819999999939
11
197.1349999999999909
21
-64.4375
0
LINE
8
BLACK
6
CONTINUOUS
10
197.1349999999999909
20
-64.4375
11
195.9599999999999795
21
-64.4375
0
LINE
8
BLACK
6
CONTINUOUS
10
195.9599999999999795
20
-64.4375
11
195.9025969999999859
21
-64.4260819999999939
0
LINE
8
BLACK
6
CONTINUOUS
10
195.9025969999999859
20
-64.4260819999999939
11
195.8539339999999811
21
-64.3935659999999928
0
LINE
8
BLACK
6
CONTINUOUS
10
195.8539339999999811
20
-64.3935659999999928
11
195.8214179999999942
21
-64.3449030000000022
0
LINE
8
BLACK
6
CONTINUOUS
10
195.8214179999999942
20
-64.3449030000000022
11
195.8100000000000023
21
-64.2874999999999943
0
LINE
8
BLACK
6
CONTINUOUS
10
195.8100000000000023
20
-64.2874999999999943
11
195.8100000000000023
21
-63.9874999999999972
0
LINE
8
BLACK
6
CONTINUOUS
10
195.8100000000000023
20
-63.9874999999999972
11
195.8214179999999942
21
-63.9300969999999964
0
LINE
8
BLACK
6
CONTINUOUS
10
195.8214179999999942
20
-63.9300969999999964
11
195.8539339999999811
21
-63.8814339999999987
0
LINE
8
BLACK
6
CONTINUOUS
10
195.8539339999999811
20
-63.8814339999999987
11
195.9025969999999859
21
-63.8489179999999976
0
LINE
8
BLACK
6
CONTINUOUS
10
195.9025969999999859
20
-63.8489179999999976
11
195.9599999999999795
21
-63.8374999999999986
0
LINE
8
BLACK
6
CONTINUOUS
10
195.9599999999999795
20
-63.8374999999999986
11
197.1349999999999909
21
-63.8374999999999986
0
LINE
8
BLACK
6
CONTINUOUS
10
197.1349999999999909
20
-63.8374999999999986
11
197.1924029999999846
21
-63.8489179999999976
0
LINE
8
BLACK
6
CONTINUOUS
10
197.1924029999999846
20
-60.6689179999999979
11
197.2410659999999893
21
-60.701433999999999
0
LINE
8
BLACK
6
CONTINUOUS
10
197.2410659999999893
20
-60.701433999999999
11
197.2735820000000047
21
-60.7500969999999967
0
LINE
8
BLACK
6
CONTINUOUS
10
197.2735820000000047
20
-60.7500969999999967
11
197.2849999999999966
21
-60.8074999999999974
0
LINE
8
BLACK
6
CONTINUOUS
10
197.2849999999999966
20
-60.8074999999999974
11
197.2849999999999966
21
-61.1074999999999946
0
LINE
8
BLACK
6
CONTINUOUS
10
197.2849999999999966
20
-61.1074999999999946
11
197.2735820000000047
21
-61.1649029999999954
0
LINE
8
BLACK
6
CONTINUOUS
10
197.2735820000000047
20
-61.1649029999999954
11
197.2410659999999893
21
-61.2135660000000001
0
LINE
8
BLACK
6
CONTINUOUS
10
197.2410659999999893
20
-61.2135660000000001
11
197.1924029999999846
21
-61.2460819999999941
0
LINE
8
BLACK
6
CONTINUOUS
10
197.1924029999999846
20
-61.2460819999999941
11
197.1349999999999909
21
-61.2575000000000003
0
LINE
8
BLACK
6
CONTINUOUS
10
197.1349999999999909
20
-61.2575000000000003
11
195.9599999999999795
21
-61.2575000000000003
0
LINE
8
BLACK
6
CONTINUOUS
10
195.9599999999999795
20
-61.2575000000000003
11
195.9025969999999859
21
-61.2460819999999941
0
LINE
8
BLACK
6
CONTINUOUS
10
195.9025969999999859
20
-61.2460819999999941
11
195.8539339999999811
21
-61.2135660000000001
0
LINE
8
BLACK
6
CONTINUOUS
10
195.8539339999999811
20
-61.2135660000000001
11
195.8214179999999942
21
-61.1649029999999954
0
LINE
8
BLACK
6
CONTINUOUS
10
195.8214179999999942
20
-61.1649029999999954
11
195.8100000000000023
21
-61.1074999999999946
0
LINE
8
BLACK
6
CONTINUOUS
10
195.8100000000000023
20
-61.1074999999999946
11
195.8100000000000023
21
-60.8074999999999974
0
LINE
8
BLACK
6
CONTINUOUS
10
195.8100000000000023
20
-60.8074999999999974
11
195.8214179999999942
21
-60.7500969999999967
0
LINE
8
BLACK
6
CONTINUOUS
10
195.8214179999999942
20
-60.7500969999999967
11
195.8539339999999811
21
-60.701433999999999
0
LINE
8
BLACK
6
CONTINUOUS
10
195.8539339999999811
20
-60.701433999999999
11
195.9025969999999859
21
-60.6689179999999979
0
LINE
8
BLACK
6
CONTINUOUS
10
195.9025969999999859
20
-60.6689179999999979
11
195.9599999999999795
21
-60.6574999999999989
0
LINE
8
BLACK
6
CONTINUOUS
10
195.9599999999999795
20
-60.6574999999999989
11
197.1349999999999909
21
-60.6574999999999989
0
LINE
8
BLACK
6
CONTINUOUS
10
197.1349999999999909
20
-60.6574999999999989
11
197.1924029999999846
21
-60.6689179999999979
0
LINE
8
BLACK
6
CONTINUOUS
10
199.0674029999999846
20
-59.7189179999999951
11
199.1160659999999893
21
-59.7514339999999962
0
LINE
8
BLACK
6
CONTINUOUS
10
199.1160659999999893
20
-59.7514339999999962
11
199.1485820000000047
21
-59.8000969999999938
0
LINE
8
BLACK
6
CONTINUOUS
10
199.1485820000000047
20
-59.8000969999999938
11
199.1599999999999966
21
-59.8574999999999946
0
LINE
8
BLACK
6
CONTINUOUS
10
199.1599999999999966
20
-59.8574999999999946
11
199.1599999999999966
21
-60.1574999999999989
0
LINE
8
BLACK
6
CONTINUOUS
10
199.1599999999999966
20
-60.1574999999999989
11
199.1485820000000047
21
-60.2149029999999996
0
LINE
8
BLACK
6
CONTINUOUS
10
199.1485820000000047
20
-60.2149029999999996
11
199.1160659999999893
21
-60.2635659999999973
0
LINE
8
BLACK
6
CONTINUOUS
10
199.1160659999999893
20
-60.2635659999999973
11
199.0674029999999846
21
-60.2960819999999984
0
LINE
8
BLACK
6
CONTINUOUS
10
199.0674029999999846
20
-60.2960819999999984
11
199.0099999999999909
21
-60.3074999999999974
0
LINE
8
BLACK
6
CONTINUOUS
10
199.0099999999999909
20
-60.3074999999999974
11
197.8349999999999795
21
-60.3074999999999974
0
LINE
8
BLACK
6
CONTINUOUS
10
197.8349999999999795
20
-60.3074999999999974
11
197.7775969999999859
21
-60.2960819999999984
0
LINE
8
BLACK
6
CONTINUOUS
10
197.7775969999999859
20
-60.2960819999999984
11
197.7289339999999811
21
-60.2635659999999973
0
LINE
8
BLACK
6
CONTINUOUS
10
197.7289339999999811
20
-60.2635659999999973
11
197.6964179999999942
21
-60.2149029999999996
0
LINE
8
BLACK
6
CONTINUOUS
10
197.6964179999999942
20
-60.2149029999999996
11
197.6850000000000023
21
-60.1574999999999989
0
LINE
8
BLACK
6
CONTINUOUS
10
197.6850000000000023
20
-60.1574999999999989
11
197.6850000000000023
21
-59.8574999999999946
0
LINE
8
BLACK
6
CONTINUOUS
10
197.6850000000000023
20
-59.8574999999999946
11
197.6964179999999942
21
-59.8000969999999938
0
LINE
8
BLACK
6
CONTINUOUS
10
197.6964179999999942
20
-59.8000969999999938
11
197.7289339999999811
21
-59.7514339999999962
0
LINE
8
BLACK
6
CONTINUOUS
10
197.7289339999999811
20
-59.7514339999999962
11
197.7775969999999859
21
-59.7189179999999951
0
LINE
8
BLACK
6
CONTINUOUS
10
197.7775969999999859
20
-59.7189179999999951
11
197.8349999999999795
21
-59.707499999999996
0
LINE
8
BLACK
6
CONTINUOUS
10
197.8349999999999795
20
-59.707499999999996
11
199.0099999999999909
21
-59.707499999999996
0
LINE
8
BLACK
6
CONTINUOUS
10
199.0099999999999909
20
-59.707499999999996
11
199.0674029999999846
21
-59.7189179999999951
0
LINE
8
BLACK
6
CONTINUOUS
10
197.1924029999999846
20
-58.7689179999999993
11
197.2410659999999893
21
-58.8014340000000004
0
LINE
8
BLACK
6
CONTINUOUS
10
197.2410659999999893
20
-58.8014340000000004
11
197.2735820000000047
21
-58.8500969999999981
0
LINE
8
BLACK
6
CONTINUOUS
10
197.2735820000000047
20
-58.8500969999999981
11
197.2849999999999966
21
-58.9074999999999989
0
LINE
8
BLACK
6
CONTINUOUS
10
197.2849999999999966
20
-58.9074999999999989
11
197.2849999999999966
21
-59.207499999999996
0
LINE
8
BLACK
6
CONTINUOUS
10
197.2849999999999966
20
-59.207499999999996
11
197.2735820000000047
21
-59.2649029999999968
0
LINE
8
BLACK
6
CONTINUOUS
10
197.2735820000000047
20
-59.2649029999999968
11
197.2410659999999893
21
-59.3135659999999945
0
LINE
8
BLACK
6
CONTINUOUS
10
197.2410659999999893
20
-59.3135659999999945
11
197.1924029999999846
21
-59.3460819999999956
0
LINE
8
BLACK
6
CONTINUOUS
10
197.1924029999999846
20
-59.3460819999999956
11
197.1349999999999909
21
-59.3574999999999946
0
LINE
8
BLACK
6
CONTINUOUS
10
197.1349999999999909
20
-59.3574999999999946
11
195.9599999999999795
21
-59.3574999999999946
0
LINE
8
BLACK
6
CONTINUOUS
10
195.9599999999999795
20
-59.3574999999999946
11
195.9025969999999859
21
-59.3460819999999956
0
LINE
8
BLACK
6
CONTINUOUS
10
195.9025969999999859
20
-59.3460819999999956
11
195.8539339999999811
21
-59.3135659999999945
0
LINE
8
BLACK
6
CONTINUOUS
10
195.8539339999999811
20
-59.3135659999999945
11
195.8214179999999942
21
-59.2649029999999968
0
LINE
8
BLACK
6
CONTINUOUS
10
195.8214179999999942
20
-59.2649029999999968
11
195.8100000000000023
21
-59.207499999999996
0
LINE
8
BLACK
6
CONTINUOUS
10
195.8100000000000023
20
-59.207499999999996
11
195.8100000000000023
21
-58.9074999999999989
0
LINE
8
BLACK
6
CONTINUOUS
10
195.8100000000000023
20
-58.9074999999999989
11
195.8214179999999942
21
-58.8500969999999981
0
LINE
8
BLACK
6
CONTINUOUS
10
195.8214179999999942
20
-58.8500969999999981
11
195.8539339999999811
21
-58.8014340000000004
0
LINE
8
BLACK
6
CONTINUOUS
10
195.8539339999999811
20
-58.8014340000000004
11
195.9025969999999859
21
-58.7689179999999993
0
LINE
8
BLACK
6
CONTINUOUS
10
195.9025969999999859
20
-58.7689179999999993
11
195.9599999999999795
21
-58.7575000000000003
0
LINE
8
BLACK
6
CONTINUOUS
10
195.9599999999999795
20
-58.7575000000000003
11
197.1349999999999909
21
-58.7575000000000003
0
LINE
8
BLACK
6
CONTINUOUS
10
197.1349999999999909
20
-58.7575000000000003
11
197.1924029999999846
21
-58.7689179999999993
0
LINE
8
BLACK
6
CONTINUOUS
10
180.4206709999999987
20
-45.3565299999999993
11
180.5017770000000041
21
-45.4107229999999973
0
LINE
8
BLACK
6
CONTINUOUS
10
180.5017770000000041
20
-45.4107229999999973
11
180.5559700000000021
21
-45.4918289999999956
0
LINE
8
BLACK
6
CONTINUOUS
10
180.5559700000000021
20
-45.4918289999999956
11
180.5749999999999886
21
-45.5874999999999986
0
LINE
8
BLACK
6
CONTINUOUS
10
180.5749999999999886
20
-45.5874999999999986
11
180.5749999999999886
21
-46.4874999999999972
0
LINE
8
BLACK
6
CONTINUOUS
10
180.5749999999999886
20
-46.4874999999999972
11
180.5559700000000021
21
-46.5831710000000001
0
LINE
8
BLACK
6
CONTINUOUS
10
180.5559700000000021
20
-46.5831710000000001
11
180.5017770000000041
21
-46.6642769999999985
0
LINE
8
BLACK
6
CONTINUOUS
10
180.5017770000000041
20
-46.6642769999999985
11
180.4206709999999987
21
-46.7184699999999964
0
LINE
8
BLACK
6
CONTINUOUS
10
180.4206709999999987
20
-46.7184699999999964
11
180.3249999999999886
21
-46.7374999999999972
0
LINE
8
BLACK
6
CONTINUOUS
10
180.3249999999999886
20
-46.7374999999999972
11
179.625
21
-46.7374999999999972
0
LINE
8
BLACK
6
CONTINUOUS
10
179.625
20
-46.7374999999999972
11
179.5293289999999899
21
-46.7184699999999964
0
LINE
8
BLACK
6
CONTINUOUS
10
179.5293289999999899
20
-46.7184699999999964
11
179.4482229999999845
21
-46.6642769999999985
0
LINE
8
BLACK
6
CONTINUOUS
10
179.4482229999999845
20
-46.6642769999999985
11
179.3940299999999866
21
-46.5831710000000001
0
LINE
8
BLACK
6
CONTINUOUS
10
179.3940299999999866
20
-46.5831710000000001
11
179.375
21
-46.4874999999999972
0
LINE
8
BLACK
6
CONTINUOUS
10
179.375
20
-46.4874999999999972
11
179.375
21
-45.5874999999999986
0
LINE
8
BLACK
6
CONTINUOUS
10
179.375
20
-45.5874999999999986
11
179.3940299999999866
21
-45.4918289999999956
0
LINE
8
BLACK
6
CONTINUOUS
10
179.3940299999999866
20
-45.4918289999999956
11
179.4482229999999845
21
-45.4107229999999973
0
LINE
8
BLACK
6
CONTINUOUS
10
179.4482229999999845
20
-45.4107229999999973
11
179.5293289999999899
21
-45.3565299999999993
0
LINE
8
BLACK
6
CONTINUOUS
10
179.5293289999999899
20
-45.3565299999999993
11
179.625
21
-45.3374999999999986
0
LINE
8
BLACK
6
CONTINUOUS
10
179.625
20
-45.3374999999999986
11
180.3249999999999886
21
-45.3374999999999986
0
LINE
8
BLACK
6
CONTINUOUS
10
180.3249999999999886
20
-45.3374999999999986
11
180.4206709999999987
21
-45.3565299999999993
0
LINE
8
BLACK
6
CONTINUOUS
10
182.4206709999999987
20
-45.3565299999999993
11
182.5017770000000041
21
-45.4107229999999973
0
LINE
8
BLACK
6
CONTINUOUS
10
182.5017770000000041
20
-45.4107229999999973
11
182.5559700000000021
21
-45.4918289999999956
0
LINE
8
BLACK
6
CONTINUOUS
10
182.5559700000000021
20
-45.4918289999999956
11
182.5749999999999886
21
-45.5874999999999986
0
LINE
8
BLACK
6
CONTINUOUS
10
182.5749999999999886
20
-45.5874999999999986
11
182.5749999999999886
21
-46.4874999999999972
0
LINE
8
BLACK
6
CONTINUOUS
10
182.5749999999999886
20
-46.4874999999999972
11
182.5559700000000021
21
-46.5831710000000001
0
LINE
8
BLACK
6
CONTINUOUS
10
182.5559700000000021
20
-46.5831710000000001
11
182.5017770000000041
21
-46.6642769999999985
0
LINE
8
BLACK
6
CONTINUOUS
10
182.5017770000000041
20
-46.6642769999999985
11
182.4206709999999987
21
-46.7184699999999964
0
LINE
8
BLACK
6
CONTINUOUS
10
182.4206709999999987
20
-46.7184699999999964
11
182.3249999999999886
21
-46.7374999999999972
0
LINE
8
BLACK
6
CONTINUOUS
10
182.3249999999999886
20
-46.7374999999999972
11
181.625
21
-46.7374999999999972
0
LINE
8
BLACK
6
CONTINUOUS
10
181.625
20
-46.7374999999999972
11
181.5293289999999899
21
-46.7184699999999964
0
LINE
8
BLACK
6
CONTINUOUS
10
181.5293289999999899
20
-46.7184699999999964
11
181.4482229999999845
21
-46.6642769999999985
0
LINE
8
BLACK
6
CONTINUOUS
10
181.4482229999999845
20
-46.6642769999999985
11
181.3940299999999866
21
-46.5831710000000001
0
LINE
8
BLACK
6
CONTINUOUS
10
181.3940299999999866
20
-46.5831710000000001
11
181.375
21
-46.4874999999999972
0
LINE
8
BLACK
6
CONTINUOUS
10
181.375
20
-46.4874999999999972
11
181.375
21
-45.5874999999999986
0
LINE
8
BLACK
6
CONTINUOUS
10
181.375
20
-45.5874999999999986
11
181.3940299999999866
21
-45.4918289999999956
0
LINE
8
BLACK
6
CONTINUOUS
10
181.3940299999999866
20
-45.4918289999999956
11
181.4482229999999845
21
-45.4107229999999973
0
LINE
8
BLACK
6
CONTINUOUS
10
181.4482229999999845
20
-45.4107229999999973
11
181.5293289999999899
21
-45.3565299999999993
0
LINE
8
BLACK
6
CONTINUOUS
10
181.5293289999999899
20
-45.3565299999999993
11
181.625
21
-45.3374999999999986
0
LINE
8
BLACK
6
CONTINUOUS
10
181.625
20
-45.3374999999999986
11
182.3249999999999886
21
-45.3374999999999986
0
LINE
8
BLACK
6
CONTINUOUS
10
182.3249999999999886
20
-45.3374999999999986
11
182.4206709999999987
21
-45.3565299999999993
0
LINE
8
BLACK
6
CONTINUOUS
10
180.5681709999999782
20
-43.2815299999999965
11
180.6492769999999837
21
-43.3357230000000015
0
LINE
8
BLACK
6
CONTINUOUS
10
180.6492769999999837
20
-43.3357230000000015
11
180.7034699999999816
21
-43.4168289999999999
0
LINE
8
BLACK
6
CONTINUOUS
10
180.7034699999999816
20
-43.4168289999999999
11
180.7224999999999966
21
-43.5124999999999957
0
LINE
8
BLACK
6
CONTINUOUS
10
180.7224999999999966
20
-43.5124999999999957
11
180.7224999999999966
21
-44.2124999999999986
0
LINE
8
BLACK
6
CONTINUOUS
10
180.7224999999999966
20
-44.2124999999999986
11
180.7034699999999816
21
-44.3081710000000015
0
LINE
8
BLACK
6
CONTINUOUS
10
180.7034699999999816
20
-44.3081710000000015
11
180.6492769999999837
21
-44.3892769999999999
0
LINE
8
BLACK
6
CONTINUOUS
10
180.6492769999999837
20
-44.3892769999999999
11
180.5681709999999782
21
-44.4434699999999978
0
LINE
8
BLACK
6
CONTINUOUS
10
180.5681709999999782
20
-44.4434699999999978
11
180.4724999999999966
21
-44.4624999999999986
0
LINE
8
BLACK
6
CONTINUOUS
10
180.4724999999999966
20
-44.4624999999999986
11
179.5724999999999909
21
-44.4624999999999986
0
LINE
8
BLACK
6
CONTINUOUS
10
179.5724999999999909
20
-44.4624999999999986
11
179.4768289999999809
21
-44.4434699999999978
0
LINE
8
BLACK
6
CONTINUOUS
10
179.4768289999999809
20
-44.4434699999999978
11
179.3957230000000038
21
-44.3892769999999999
0
LINE
8
BLACK
6
CONTINUOUS
10
179.3957230000000038
20
-44.3892769999999999
11
179.3415300000000059
21
-44.3081710000000015
0
LINE
8
BLACK
6
CONTINUOUS
10
179.3415300000000059
20
-44.3081710000000015
11
179.3224999999999909
21
-44.2124999999999986
0
LINE
8
BLACK
6
CONTINUOUS
10
179.3224999999999909
20
-44.2124999999999986
11
179.3224999999999909
21
-43.5124999999999957
0
LINE
8
BLACK
6
CONTINUOUS
10
179.3224999999999909
20
-43.5124999999999957
11
179.3415300000000059
21
-43.4168289999999999
0
LINE
8
BLACK
6
CONTINUOUS
10
179.3415300000000059
20
-43.4168289999999999
11
179.3957230000000038
21
-43.3357230000000015
0
LINE
8
BLACK
6
CONTINUOUS
10
179.3957230000000038
20
-43.3357230000000015
11
179.4768289999999809
21
-43.2815299999999965
0
LINE
8
BLACK
6
CONTINUOUS
10
179.4768289999999809
20
-43.2815299999999965
11
179.5724999999999909
21
-43.2624999999999957
0
LINE
8
BLACK
6
CONTINUOUS
10
179.5724999999999909
20
-43.2624999999999957
11
180.4724999999999966
21
-43.2624999999999957
0
LINE
8
BLACK
6
CONTINUOUS
10
180.4724999999999966
20
-43.2624999999999957
11
180.5681709999999782
21
-43.2815299999999965
0
LINE
8
BLACK
6
CONTINUOUS
10
182.7906710000000032
20
-43.2815299999999965
11
182.8717769999999803
21
-43.3357230000000015
0
LINE
8
BLACK
6
CONTINUOUS
10
182.8717769999999803
20
-43.3357230000000015
11
182.9259699999999782
21
-43.4168289999999999
0
LINE
8
BLACK
6
CONTINUOUS
10
182.9259699999999782
20
-43.4168289999999999
11
182.9449999999999932
21
-43.5124999999999957
0
LINE
8
BLACK
6
CONTINUOUS
10
182.9449999999999932
20
-43.5124999999999957
11
182.9449999999999932
21
-44.2124999999999986
0
LINE
8
BLACK
6
CONTINUOUS
10
182.9449999999999932
20
-44.2124999999999986
11
182.9259699999999782
21
-44.3081710000000015
0
LINE
8
BLACK
6
CONTINUOUS
10
182.9259699999999782
20
-44.3081710000000015
11
182.8717769999999803
21
-44.3892769999999999
0
LINE
8
BLACK
6
CONTINUOUS
10
182.8717769999999803
20
-44.3892769999999999
11
182.7906710000000032
21
-44.4434699999999978
0
LINE
8
BLACK
6
CONTINUOUS
10
182.7906710000000032
20
-44.4434699999999978
11
182.6949999999999932
21
-44.4624999999999986
0
LINE
8
BLACK
6
CONTINUOUS
10
182.6949999999999932
20
-44.4624999999999986
11
181.7949999999999875
21
-44.4624999999999986
0
LINE
8
BLACK
6
CONTINUOUS
10
181.7949999999999875
20
-44.4624999999999986
11
181.6993290000000059
21
-44.4434699999999978
0
LINE
8
BLACK
6
CONTINUOUS
10
181.6993290000000059
20
-44.4434699999999978
11
181.6182230000000004
21
-44.3892769999999999
0
LINE
8
BLACK
6
CONTINUOUS
10
181.6182230000000004
20
-44.3892769999999999
11
181.5640300000000025
21
-44.3081710000000015
0
LINE
8
BLACK
6
CONTINUOUS
10
181.5640300000000025
20
-44.3081710000000015
11
181.5449999999999875
21
-44.2124999999999986
0
LINE
8
BLACK
6
CONTINUOUS
10
181.5449999999999875
20
-44.2124999999999986
11
181.5449999999999875
21
-43.5124999999999957
0
LINE
8
BLACK
6
CONTINUOUS
10
181.5449999999999875
20
-43.5124999999999957
11
181.5640300000000025
21
-43.4168289999999999
0
LINE
8
BLACK
6
CONTINUOUS
10
181.5640300000000025
20
-43.4168289999999999
11
181.6182230000000004
21
-43.3357230000000015
0
LINE
8
BLACK
6
CONTINUOUS
10
181.6182230000000004
20
-43.3357230000000015
11
181.6993290000000059
21
-43.2815299999999965
0
LINE
8
BLACK
6
CONTINUOUS
10
181.6993290000000059
20
-43.2815299999999965
11
181.7949999999999875
21
-43.2624999999999957
0
LINE
8
BLACK
6
CONTINUOUS
10
181.7949999999999875
20
-43.2624999999999957
11
182.6949999999999932
21
-43.2624999999999957
0
LINE
8
BLACK
6
CONTINUOUS
10
182.6949999999999932
20
-43.2624999999999957
11
182.7906710000000032
21
-43.2815299999999965
0
LINE
8
BLACK
6
CONTINUOUS
10
185.0131709999999998
20
-43.2815299999999965
11
185.0942770000000053
21
-43.3357230000000015
0
LINE
8
BLACK
6
CONTINUOUS
10
185.0942770000000053
20
-43.3357230000000015
11
185.1484700000000032
21
-43.4168289999999999
0
LINE
8
BLACK
6
CONTINUOUS
10
185.1484700000000032
20
-43.4168289999999999
11
185.1674999999999898
21
-43.5124999999999957
0
LINE
8
BLACK
6
CONTINUOUS
10
185.1674999999999898
20
-43.5124999999999957
11
185.1674999999999898
21
-44.2124999999999986
0
LINE
8
BLACK
6
CONTINUOUS
10
185.1674999999999898
20
-44.2124999999999986
11
185.1484700000000032
21
-44.3081710000000015
0
LINE
8
BLACK
6
CONTINUOUS
10
185.1484700000000032
20
-44.3081710000000015
11
185.0942770000000053
21
-44.3892769999999999
0
LINE
8
BLACK
6
CONTINUOUS
10
185.0942770000000053
20
-44.3892769999999999
11
185.0131709999999998
21
-44.4434699999999978
0
LINE
8
BLACK
6
CONTINUOUS
10
185.0131709999999998
20
-44.4434699999999978
11
184.9174999999999898
21
-44.4624999999999986
0
LINE
8
BLACK
6
CONTINUOUS
10
184.9174999999999898
20
-44.4624999999999986
11
184.0174999999999841
21
-44.4624999999999986
0
LINE
8
BLACK
6
CONTINUOUS
10
184.0174999999999841
20
-44.4624999999999986
11
183.9218290000000025
21
-44.4434699999999978
0
LINE
8
BLACK
6
CONTINUOUS
10
183.9218290000000025
20
-44.4434699999999978
11
183.840722999999997
21
-44.3892769999999999
0
LINE
8
BLACK
6
CONTINUOUS
10
183.840722999999997
20
-44.3892769999999999
11
183.7865299999999991
21
-44.3081710000000015
0
LINE
8
BLACK
6
CONTINUOUS
10
183.7865299999999991
20
-44.3081710000000015
11
183.7674999999999841
21
-44.2124999999999986
0
LINE
8
BLACK
6
CONTINUOUS
10
183.7674999999999841
20
-44.2124999999999986
11
183.7674999999999841
21
-43.5124999999999957
0
LINE
8
BLACK
6
CONTINUOUS
10
183.7674999999999841
20
-43.5124999999999957
11
183.7865299999999991
21
-43.4168289999999999
0
LINE
8
BLACK
6
CONTINUOUS
10
183.7865299999999991
20
-43.4168289999999999
11
183.840722999999997
21
-43.3357230000000015
0
LINE
8
BLACK
6
CONTINUOUS
10
183.840722999999997
20
-43.3357230000000015
11
183.9218290000000025
21
-43.2815299999999965
0
LINE
8
BLACK
6
CONTINUOUS
10
183.9218290000000025
20
-43.2815299999999965
11
184.0174999999999841
21
-43.2624999999999957
0
LINE
8
BLACK
6
CONTINUOUS
10
184.0174999999999841
20
-43.2624999999999957
11
184.9174999999999898
21
-43.2624999999999957
0
LINE
8
BLACK
6
CONTINUOUS
10
184.9174999999999898
20
-43.2624999999999957
11
185.0131709999999998
21
-43.2815299999999965
0
LINE
8
BLACK
6
CONTINUOUS
10
180.5681709999999782
20
-41.2815299999999965
11
180.6492769999999837
21
-41.3357230000000015
0
LINE
8
BLACK
6
CONTINUOUS
10
180.6492769999999837
20
-41.3357230000000015
11
180.7034699999999816
21
-41.4168289999999999
0
LINE
8
BLACK
6
CONTINUOUS
10
180.7034699999999816
20
-41.4168289999999999
11
180.7224999999999966
21
-41.5124999999999957
0
LINE
8
BLACK
6
CONTINUOUS
10
180.7224999999999966
20
-41.5124999999999957
11
180.7224999999999966
21
-42.2124999999999986
0
LINE
8
BLACK
6
CONTINUOUS
10
180.7224999999999966
20
-42.2124999999999986
11
180.7034699999999816
21
-42.3081710000000015
0
LINE
8
BLACK
6
CONTINUOUS
10
180.7034699999999816
20
-42.3081710000000015
11
180.6492769999999837
21
-42.3892769999999999
0
LINE
8
BLACK
6
CONTINUOUS
10
180.6492769999999837
20
-42.3892769999999999
11
180.5681709999999782
21
-42.4434699999999978
0
LINE
8
BLACK
6
CONTINUOUS
10
180.5681709999999782
20
-42.4434699999999978
11
180.4724999999999966
21
-42.4624999999999986
0
LINE
8
BLACK
6
CONTINUOUS
10
180.4724999999999966
20
-42.4624999999999986
11
179.5724999999999909
21
-42.4624999999999986
0
LINE
8
BLACK
6
CONTINUOUS
10
179.5724999999999909
20
-42.4624999999999986
11
179.4768289999999809
21
-42.4434699999999978
0
LINE
8
BLACK
6
CONTINUOUS
10
179.4768289999999809
20
-42.4434699999999978
11
179.3957230000000038
21
-42.3892769999999999
0
LINE
8
BLACK
6
CONTINUOUS
10
179.3957230000000038
20
-42.3892769999999999
11
179.3415300000000059
21
-42.3081710000000015
0
LINE
8
BLACK
6
CONTINUOUS
10
179.3415300000000059
20
-42.3081710000000015
11
179.3224999999999909
21
-42.2124999999999986
0
LINE
8
BLACK
6
CONTINUOUS
10
179.3224999999999909
20
-42.2124999999999986
11
179.3224999999999909
21
-41.5124999999999957
0
LINE
8
BLACK
6
CONTINUOUS
10
179.3224999999999909
20
-41.5124999999999957
11
179.3415300000000059
21
-41.4168289999999999
0
LINE
8
BLACK
6
CONTINUOUS
10
179.3415300000000059
20
-41.4168289999999999
11
179.3957230000000038
21
-41.3357230000000015
0
LINE
8
BLACK
6
CONTINUOUS
10
179.3957230000000038
20
-41.3357230000000015
11
179.4768289999999809
21
-41.2815299999999965
0
LINE
8
BLACK
6
CONTINUOUS
10
179.4768289999999809
20
-41.2815299999999965
11
179.5724999999999909
21
-41.2624999999999957
0
LINE
8
BLACK
6
CONTINUOUS
10
179.5724999999999909
20
-41.2624999999999957
11
180.4724999999999966
21
-41.2624999999999957
0
LINE
8
BLACK
6
CONTINUOUS
10
180.4724999999999966
20
-41.2624999999999957
11
180.5681709999999782
21
-41.2815299999999965
0
LINE
8
BLACK
6
CONTINUOUS
10
182.7906710000000032
20
-41.2815299999999965
11
182.8717769999999803
21
-41.3357230000000015
0
LINE
8
BLACK
6
CONTINUOUS
10
182.8717769999999803
20
-41.3357230000000015
11
182.9259699999999782
21
-41.4168289999999999
0
LINE
8
BLACK
6
CONTINUOUS
10
182.9259699999999782
20
-41.4168289999999999
11
182.9449999999999932
21
-41.5124999999999957
0
LINE
8
BLACK
6
CONTINUOUS
10
182.9449999999999932
20
-41.5124999999999957
11
182.9449999999999932
21
-42.2124999999999986
0
LINE
8
BLACK
6
CONTINUOUS
10
182.9449999999999932
20
-42.2124999999999986
11
182.9259699999999782
21
-42.3081710000000015
0
LINE
8
BLACK
6
CONTINUOUS
10
182.9259699999999782
20
-42.3081710000000015
11
182.8717769999999803
21
-42.3892769999999999
0
LINE
8
BLACK
6
CONTINUOUS
10
182.8717769999999803
20
-42.3892769999999999
11
182.7906710000000032
21
-42.4434699999999978
0
LINE
8
BLACK
6
CONTINUOUS
10
182.7906710000000032
20
-42.4434699999999978
11
182.6949999999999932
21
-42.4624999999999986
0
LINE
8
BLACK
6
CONTINUOUS
10
182.6949999999999932
20
-42.4624999999999986
11
181.7949999999999875
21
-42.4624999999999986
0
LINE
8
BLACK
6
CONTINUOUS
10
181.7949999999999875
20
-42.4624999999999986
11
181.6993290000000059
21
-42.4434699999999978
0
LINE
8
BLACK
6
CONTINUOUS
10
181.6993290000000059
20
-42.4434699999999978
11
181.6182230000000004
21
-42.3892769999999999
0
LINE
8
BLACK
6
CONTINUOUS
10
181.6182230000000004
20
-42.3892769999999999
11
181.5640300000000025
21
-42.3081710000000015
0
LINE
8
BLACK
6
CONTINUOUS
10
181.5640300000000025
20
-42.3081710000000015
11
181.5449999999999875
21
-42.2124999999999986
0
LINE
8
BLACK
6
CONTINUOUS
10
181.5449999999999875
20
-42.2124999999999986
11
181.5449999999999875
21
-41.5124999999999957
0
LINE
8
BLACK
6
CONTINUOUS
10
181.5449999999999875
20
-41.5124999999999957
11
181.5640300000000025
21
-41.4168289999999999
0
LINE
8
BLACK
6
CONTINUOUS
10
181.5640300000000025
20
-41.4168289999999999
11
181.6182230000000004
21
-41.3357230000000015
0
LINE
8
BLACK
6
CONTINUOUS
10
181.6182230000000004
20
-41.3357230000000015
11
181.6993290000000059
21
-41.2815299999999965
0
LINE
8
BLACK
6
CONTINUOUS
10
181.6993290000000059
20
-41.2815299999999965
11
181.7949999999999875
21
-41.2624999999999957
0
LINE
8
BLACK
6
CONTINUOUS
10
181.7949999999999875
20
-41.2624999999999957
11
182.6949999999999932
21
-41.2624999999999957
0
LINE
8
BLACK
6
CONTINUOUS
10
182.6949999999999932
20
-41.2624999999999957
11
182.7906710000000032
21
-41.2815299999999965
0
LINE
8
BLACK
6
CONTINUOUS
10
185.0131709999999998
20
-41.2815299999999965
11
185.0942770000000053
21
-41.3357230000000015
0
LINE
8
BLACK
6
CONTINUOUS
10
185.0942770000000053
20
-41.3357230000000015
11
185.1484700000000032
21
-41.4168289999999999
0
LINE
8
BLACK
6
CONTINUOUS
10
185.1484700000000032
20
-41.4168289999999999
11
185.1674999999999898
21
-41.5124999999999957
0
LINE
8
BLACK
6
CONTINUOUS
10
185.1674999999999898
20
-41.5124999999999957
11
185.1674999999999898
21
-42.2124999999999986
0
LINE
8
BLACK
6
CONTINUOUS
10
185.1674999999999898
20
-42.2124999999999986
11
185.1484700000000032
21
-42.3081710000000015
0
LINE
8
BLACK
6
CONTINUOUS
10
185.1484700000000032
20
-42.3081710000000015
11
185.0942770000000053
21
-42.3892769999999999
0
LINE
8
BLACK
6
CONTINUOUS
10
185.0942770000000053
20
-42.3892769999999999
11
185.0131709999999998
21
-42.4434699999999978
0
LINE
8
BLACK
6
CONTINUOUS
10
185.0131709999999998
20
-42.4434699999999978
11
184.9174999999999898
21
-42.4624999999999986
0
LINE
8
BLACK
6
CONTINUOUS
10
184.9174999999999898
20
-42.4624999999999986
11
184.0174999999999841
21
-42.4624999999999986
0
LINE
8
BLACK
6
CONTINUOUS
10
184.0174999999999841
20
-42.4624999999999986
11
183.9218290000000025
21
-42.4434699999999978
0
LINE
8
BLACK
6
CONTINUOUS
10
183.9218290000000025
20
-42.4434699999999978
11
183.840722999999997
21
-42.3892769999999999
0
LINE
8
BLACK
6
CONTINUOUS
10
183.840722999999997
20
-42.3892769999999999
11
183.7865299999999991
21
-42.3081710000000015
0
LINE
8
BLACK
6
CONTINUOUS
10
183.7865299999999991
20
-42.3081710000000015
11
183.7674999999999841
21
-42.2124999999999986
0
LINE
8
BLACK
6
CONTINUOUS
10
183.7674999999999841
20
-42.2124999999999986
11
183.7674999999999841
21
-41.5124999999999957
0
LINE
8
BLACK
6
CONTINUOUS
10
183.7674999999999841
20
-41.5124999999999957
11
183.7865299999999991
21
-41.4168289999999999
0
LINE
8
BLACK
6
CONTINUOUS
10
183.7865299999999991
20
-41.4168289999999999
11
183.840722999999997
21
-41.3357230000000015
0
LINE
8
BLACK
6
CONTINUOUS
10
183.840722999999997
20
-41.3357230000000015
11
183.9218290000000025
21
-41.2815299999999965
0
LINE
8
BLACK
6
CONTINUOUS
10
183.9218290000000025
20
-41.2815299999999965
11
184.0174999999999841
21
-41.2624999999999957
0
LINE
8
BLACK
6
CONTINUOUS
10
184.0174999999999841
20
-41.2624999999999957
11
184.9174999999999898
21
-41.2624999999999957
0
LINE
8
BLACK
6
CONTINUOUS
10
184.9174999999999898
20
-41.2624999999999957
11
185.0131709999999998
21
-41.2815299999999965
  0
ENDSEC
  0
EOF
