  0
SECTION
  2
HEADER
  9
$ANGBASE
  50
0.0
  9
$ANGDIR
  70
1
  9
$MEASUREMENT
  70
1
  0
ENDSEC
  0
SECTION
  2
TABLES
  0
TABLE
  2
LTYPE
  70
4
  0
LTYPE
  5
40F
  2
CONTINUOUS
  70
0
  3
Solid line
  72
65
  73
0
  40
0.0
  0
LTYPE
  5
410
  2
DASHDOT
 70
0
  3
Dash Dot ____ _ ____ _
 72
65
 73
4
 40
2.0
 49
1.25
 49
-0.25
 49
0.25
 49
-0.25
  0
LTYPE
  5
411
  2
DASHED
 70
0
  3
Dashed __ __ __ __ __
 72
65
 73
2
 40
0.75
 49
0.5
 49
-0.25
  0
LTYPE
  5
43B
  2
DOTTED
 70
0
  3
Dotted .  .  .  .
 72
65
 73
2
 40
0.2
 49
0.0
 49
-0.2
  0
ENDTAB
  0
TABLE
  2
STYLE
  70
4
  0
STYLE
  2
KICAD
  70
0
  40
0
  41
1
  42
1
  50
0
  71
0
  3
isocp.shx
  0
STYLE
  2
KICADB
  70
0
  40
0
  41
1
  42
1
  50
0
  71
0
  3
isocp.shx
  0
STYLE
  2
KICADI
  70
0
  40
0
  41
1
  42
1
  50
15
  71
0
  3
isocp.shx
  0
STYLE
  2
KICADBI
  70
0
  40
0
  41
1
  42
1
  50
15
  71
0
  3
isocp.shx
  0
ENDTAB
  0
TABLE
  2
LAYER
  70
1
  0
LAYER
  2
BLACK
  70
0
  62
7
  6
CONTINUOUS
  0
ENDTAB
  0
ENDSEC
  0
SECTION
  2
ENTITIES
0
LINE
8
BLACK
6
CONTINUOUS
10
151.7649999999999864
20
-39.0524999999999949
11
208.2999999999999829
21
-39.0524999999999949
0
LINE
8
BLACK
6
CONTINUOUS
10
208.2999999999999829
20
-39.0524999999999949
11
208.2999999999999829
21
-78.7399999999999949
0
LINE
8
BLACK
6
CONTINUOUS
10
208.2999999999999829
20
-78.7399999999999949
11
151.7649999999999864
21
-78.7399999999999949
0
LINE
8
BLACK
6
CONTINUOUS
10
151.7649999999999864
20
-78.7399999999999949
11
151.7649999999999864
21
-39.0524999999999949
0
CIRCLE
8
BLACK
10
196.2150000000000034
20
-43.8149999999999977
40
0.175
0
CIRCLE
8
BLACK
10
193.7150000000000034
20
-43.8149999999999977
40
0.175
0
CIRCLE
8
BLACK
10
191.2150000000000034
20
-43.8149999999999977
40
0.175
0
CIRCLE
8
BLACK
10
188.7150000000000034
20
-43.8149999999999977
40
0.175
0
CIRCLE
8
BLACK
10
154.6225000000000023
20
-42.5449999999999946
40
0.175
0
CIRCLE
8
BLACK
10
157.1624999999999943
20
-42.5449999999999946
40
0.175
0
CIRCLE
8
BLACK
10
159.7024999999999864
20
-42.5449999999999946
40
0.175
0
CIRCLE
8
BLACK
10
162.2425000000000068
20
-42.5449999999999946
40
0.175
0
CIRCLE
8
BLACK
10
164.7824999999999989
20
-42.5449999999999946
40
0.175
0
CIRCLE
8
BLACK
10
167.3224999999999909
20
-42.5449999999999946
40
0.175
0
CIRCLE
8
BLACK
10
159.9549999999999841
20
-61.0249999999999986
40
0.15
0
CIRCLE
8
BLACK
10
161.4799999999999898
20
-61.0249999999999986
40
0.15
0
CIRCLE
8
BLACK
10
159.1924999999999955
20
-60.2624999999999957
40
0.15
0
CIRCLE
8
BLACK
10
160.7175000000000011
20
-60.2624999999999957
40
0.15
0
CIRCLE
8
BLACK
10
162.2425000000000068
20
-60.2624999999999957
40
0.15
0
CIRCLE
8
BLACK
10
159.9549999999999841
20
-59.5
40
0.15
0
CIRCLE
8
BLACK
10
161.4799999999999898
20
-59.5
40
0.15
0
CIRCLE
8
BLACK
10
159.1924999999999955
20
-58.7374999999999972
40
0.15
0
CIRCLE
8
BLACK
10
160.7175000000000011
20
-58.7374999999999972
40
0.15
0
CIRCLE
8
BLACK
10
162.2425000000000068
20
-58.7374999999999972
40
0.15
0
CIRCLE
8
BLACK
10
159.9549999999999841
20
-57.9749999999999943
40
0.15
0
CIRCLE
8
BLACK
10
161.4799999999999898
20
-57.9749999999999943
40
0.15
0
CIRCLE
8
BLACK
10
183.8324999999999818
20
-75.2475000000000023
40
0.175
0
CIRCLE
8
BLACK
10
186.3725000000000023
20
-75.2475000000000023
40
0.175
0
CIRCLE
8
BLACK
10
188.9124999999999943
20
-75.2475000000000023
40
0.175
0
CIRCLE
8
BLACK
10
191.4524999999999864
20
-75.2475000000000023
40
0.175
0
CIRCLE
8
BLACK
10
167.3224999999999909
20
-75.2475000000000023
40
0.175
0
CIRCLE
8
BLACK
10
169.8624999999999829
20
-75.2475000000000023
40
0.175
0
CIRCLE
8
BLACK
10
191.4524999999999864
20
-62.8649999999999949
40
0.175
0
CIRCLE
8
BLACK
10
186.4524999999999864
20
-62.8649999999999949
40
0.175
0
CIRCLE
8
BLACK
10
179.3874999999999886
20
-75.2475000000000023
40
0.175
0
CIRCLE
8
BLACK
10
176.8474999999999966
20
-75.2475000000000023
40
0.175
0
CIRCLE
8
BLACK
10
174.3075000000000045
20
-75.2475000000000023
40
0.175
0
CIRCLE
8
BLACK
10
201.2949999999999875
20
-42.2274999999999991
40
0.175
0
CIRCLE
8
BLACK
10
201.2949999999999875
20
-44.7674999999999983
40
0.175
0
CIRCLE
8
BLACK
10
201.2949999999999875
20
-47.3074999999999974
40
0.175
0
CIRCLE
8
BLACK
10
201.2949999999999875
20
-49.8474999999999966
40
0.175
0
CIRCLE
8
BLACK
10
201.2949999999999875
20
-52.3874999999999957
40
0.175
0
CIRCLE
8
BLACK
10
201.2949999999999875
20
-54.9274999999999949
40
0.175
0
CIRCLE
8
BLACK
10
201.2949999999999875
20
-57.467499999999994
40
0.175
0
CIRCLE
8
BLACK
10
201.295000999999985
20
-60.0082769999999996
40
0.175
0
CIRCLE
8
BLACK
10
201.295000999999985
20
-62.5482769999999988
40
0.175
0
CIRCLE
8
BLACK
10
201.295000999999985
20
-65.0882769999999908
40
0.175
0
CIRCLE
8
BLACK
10
201.295000999999985
20
-67.6282769999999971
40
0.175
0
CIRCLE
8
BLACK
10
201.295000999999985
20
-70.1682770000000033
40
0.175
0
CIRCLE
8
BLACK
10
201.295000999999985
20
-72.7082769999999954
40
0.175
0
CIRCLE
8
BLACK
10
201.295000999999985
20
-75.2482770000000016
40
0.175
  0
ENDSEC
  0
EOF
