%TF.GenerationSoftware,KiCad,Pcbnew,8.0.5*%
%TF.CreationDate,2024-10-06T21:19:30+02:00*%
%TF.ProjectId,UCB32,55434233-322e-46b6-9963-61645f706362,rev?*%
%TF.SameCoordinates,Original*%
%TF.FileFunction,Legend,Bot*%
%TF.FilePolarity,Positive*%
%FSLAX46Y46*%
G04 Gerber Fmt 4.6, Leading zero omitted, Abs format (unit mm)*
G04 Created by KiCad (PCBNEW 8.0.5) date 2024-10-06 21:19:30*
%MOMM*%
%LPD*%
G01*
G04 APERTURE LIST*
%ADD10C,0.150000*%
%ADD11C,0.120000*%
G04 APERTURE END LIST*
D10*
X192592438Y-45945588D02*
X192544819Y-45850350D01*
X192544819Y-45850350D02*
X192544819Y-45707493D01*
X192544819Y-45707493D02*
X192592438Y-45564636D01*
X192592438Y-45564636D02*
X192687676Y-45469398D01*
X192687676Y-45469398D02*
X192782914Y-45421779D01*
X192782914Y-45421779D02*
X192973390Y-45374160D01*
X192973390Y-45374160D02*
X193116247Y-45374160D01*
X193116247Y-45374160D02*
X193306723Y-45421779D01*
X193306723Y-45421779D02*
X193401961Y-45469398D01*
X193401961Y-45469398D02*
X193497200Y-45564636D01*
X193497200Y-45564636D02*
X193544819Y-45707493D01*
X193544819Y-45707493D02*
X193544819Y-45802731D01*
X193544819Y-45802731D02*
X193497200Y-45945588D01*
X193497200Y-45945588D02*
X193449580Y-45993207D01*
X193449580Y-45993207D02*
X193116247Y-45993207D01*
X193116247Y-45993207D02*
X193116247Y-45802731D01*
X193544819Y-46421779D02*
X192544819Y-46421779D01*
X192544819Y-46421779D02*
X193544819Y-46993207D01*
X193544819Y-46993207D02*
X192544819Y-46993207D01*
X193544819Y-47469398D02*
X192544819Y-47469398D01*
X192544819Y-47469398D02*
X192544819Y-47707493D01*
X192544819Y-47707493D02*
X192592438Y-47850350D01*
X192592438Y-47850350D02*
X192687676Y-47945588D01*
X192687676Y-47945588D02*
X192782914Y-47993207D01*
X192782914Y-47993207D02*
X192973390Y-48040826D01*
X192973390Y-48040826D02*
X193116247Y-48040826D01*
X193116247Y-48040826D02*
X193306723Y-47993207D01*
X193306723Y-47993207D02*
X193401961Y-47945588D01*
X193401961Y-47945588D02*
X193497200Y-47850350D01*
X193497200Y-47850350D02*
X193544819Y-47707493D01*
X193544819Y-47707493D02*
X193544819Y-47469398D01*
X178892319Y-70726541D02*
X178892319Y-71345588D01*
X178892319Y-71345588D02*
X179273271Y-71012255D01*
X179273271Y-71012255D02*
X179273271Y-71155112D01*
X179273271Y-71155112D02*
X179320890Y-71250350D01*
X179320890Y-71250350D02*
X179368509Y-71297969D01*
X179368509Y-71297969D02*
X179463747Y-71345588D01*
X179463747Y-71345588D02*
X179701842Y-71345588D01*
X179701842Y-71345588D02*
X179797080Y-71297969D01*
X179797080Y-71297969D02*
X179844700Y-71250350D01*
X179844700Y-71250350D02*
X179892319Y-71155112D01*
X179892319Y-71155112D02*
X179892319Y-70869398D01*
X179892319Y-70869398D02*
X179844700Y-70774160D01*
X179844700Y-70774160D02*
X179797080Y-70726541D01*
X178892319Y-71631303D02*
X179892319Y-71964636D01*
X179892319Y-71964636D02*
X178892319Y-72297969D01*
X178892319Y-72536065D02*
X178892319Y-73155112D01*
X178892319Y-73155112D02*
X179273271Y-72821779D01*
X179273271Y-72821779D02*
X179273271Y-72964636D01*
X179273271Y-72964636D02*
X179320890Y-73059874D01*
X179320890Y-73059874D02*
X179368509Y-73107493D01*
X179368509Y-73107493D02*
X179463747Y-73155112D01*
X179463747Y-73155112D02*
X179701842Y-73155112D01*
X179701842Y-73155112D02*
X179797080Y-73107493D01*
X179797080Y-73107493D02*
X179844700Y-73059874D01*
X179844700Y-73059874D02*
X179892319Y-72964636D01*
X179892319Y-72964636D02*
X179892319Y-72678922D01*
X179892319Y-72678922D02*
X179844700Y-72583684D01*
X179844700Y-72583684D02*
X179797080Y-72536065D01*
X156667319Y-44326422D02*
X156667319Y-44897850D01*
X157667319Y-44612136D02*
X156667319Y-44612136D01*
X157667319Y-45135946D02*
X157000652Y-45659755D01*
X157000652Y-45135946D02*
X157667319Y-45659755D01*
X173859938Y-71345588D02*
X173812319Y-71250350D01*
X173812319Y-71250350D02*
X173812319Y-71107493D01*
X173812319Y-71107493D02*
X173859938Y-70964636D01*
X173859938Y-70964636D02*
X173955176Y-70869398D01*
X173955176Y-70869398D02*
X174050414Y-70821779D01*
X174050414Y-70821779D02*
X174240890Y-70774160D01*
X174240890Y-70774160D02*
X174383747Y-70774160D01*
X174383747Y-70774160D02*
X174574223Y-70821779D01*
X174574223Y-70821779D02*
X174669461Y-70869398D01*
X174669461Y-70869398D02*
X174764700Y-70964636D01*
X174764700Y-70964636D02*
X174812319Y-71107493D01*
X174812319Y-71107493D02*
X174812319Y-71202731D01*
X174812319Y-71202731D02*
X174764700Y-71345588D01*
X174764700Y-71345588D02*
X174717080Y-71393207D01*
X174717080Y-71393207D02*
X174383747Y-71393207D01*
X174383747Y-71393207D02*
X174383747Y-71202731D01*
X174812319Y-71821779D02*
X173812319Y-71821779D01*
X173812319Y-71821779D02*
X174812319Y-72393207D01*
X174812319Y-72393207D02*
X173812319Y-72393207D01*
X174812319Y-72869398D02*
X173812319Y-72869398D01*
X173812319Y-72869398D02*
X173812319Y-73107493D01*
X173812319Y-73107493D02*
X173859938Y-73250350D01*
X173859938Y-73250350D02*
X173955176Y-73345588D01*
X173955176Y-73345588D02*
X174050414Y-73393207D01*
X174050414Y-73393207D02*
X174240890Y-73440826D01*
X174240890Y-73440826D02*
X174383747Y-73440826D01*
X174383747Y-73440826D02*
X174574223Y-73393207D01*
X174574223Y-73393207D02*
X174669461Y-73345588D01*
X174669461Y-73345588D02*
X174764700Y-73250350D01*
X174764700Y-73250350D02*
X174812319Y-73107493D01*
X174812319Y-73107493D02*
X174812319Y-72869398D01*
X195386366Y-45421779D02*
X195386366Y-46183684D01*
X195767319Y-45802731D02*
X195005414Y-45802731D01*
X194767319Y-47136064D02*
X194767319Y-46659874D01*
X194767319Y-46659874D02*
X195243509Y-46612255D01*
X195243509Y-46612255D02*
X195195890Y-46659874D01*
X195195890Y-46659874D02*
X195148271Y-46755112D01*
X195148271Y-46755112D02*
X195148271Y-46993207D01*
X195148271Y-46993207D02*
X195195890Y-47088445D01*
X195195890Y-47088445D02*
X195243509Y-47136064D01*
X195243509Y-47136064D02*
X195338747Y-47183683D01*
X195338747Y-47183683D02*
X195576842Y-47183683D01*
X195576842Y-47183683D02*
X195672080Y-47136064D01*
X195672080Y-47136064D02*
X195719700Y-47088445D01*
X195719700Y-47088445D02*
X195767319Y-46993207D01*
X195767319Y-46993207D02*
X195767319Y-46755112D01*
X195767319Y-46755112D02*
X195719700Y-46659874D01*
X195719700Y-46659874D02*
X195672080Y-46612255D01*
X194767319Y-47469398D02*
X195767319Y-47802731D01*
X195767319Y-47802731D02*
X194767319Y-48136064D01*
X161747319Y-44374041D02*
X161747319Y-44993088D01*
X161747319Y-44993088D02*
X162128271Y-44659755D01*
X162128271Y-44659755D02*
X162128271Y-44802612D01*
X162128271Y-44802612D02*
X162175890Y-44897850D01*
X162175890Y-44897850D02*
X162223509Y-44945469D01*
X162223509Y-44945469D02*
X162318747Y-44993088D01*
X162318747Y-44993088D02*
X162556842Y-44993088D01*
X162556842Y-44993088D02*
X162652080Y-44945469D01*
X162652080Y-44945469D02*
X162699700Y-44897850D01*
X162699700Y-44897850D02*
X162747319Y-44802612D01*
X162747319Y-44802612D02*
X162747319Y-44516898D01*
X162747319Y-44516898D02*
X162699700Y-44421660D01*
X162699700Y-44421660D02*
X162652080Y-44374041D01*
X161747319Y-45278803D02*
X162747319Y-45612136D01*
X162747319Y-45612136D02*
X161747319Y-45945469D01*
X161747319Y-46183565D02*
X161747319Y-46802612D01*
X161747319Y-46802612D02*
X162128271Y-46469279D01*
X162128271Y-46469279D02*
X162128271Y-46612136D01*
X162128271Y-46612136D02*
X162175890Y-46707374D01*
X162175890Y-46707374D02*
X162223509Y-46754993D01*
X162223509Y-46754993D02*
X162318747Y-46802612D01*
X162318747Y-46802612D02*
X162556842Y-46802612D01*
X162556842Y-46802612D02*
X162652080Y-46754993D01*
X162652080Y-46754993D02*
X162699700Y-46707374D01*
X162699700Y-46707374D02*
X162747319Y-46612136D01*
X162747319Y-46612136D02*
X162747319Y-46326422D01*
X162747319Y-46326422D02*
X162699700Y-46231184D01*
X162699700Y-46231184D02*
X162652080Y-46183565D01*
X167779700Y-70774160D02*
X167827319Y-70917017D01*
X167827319Y-70917017D02*
X167827319Y-71155112D01*
X167827319Y-71155112D02*
X167779700Y-71250350D01*
X167779700Y-71250350D02*
X167732080Y-71297969D01*
X167732080Y-71297969D02*
X167636842Y-71345588D01*
X167636842Y-71345588D02*
X167541604Y-71345588D01*
X167541604Y-71345588D02*
X167446366Y-71297969D01*
X167446366Y-71297969D02*
X167398747Y-71250350D01*
X167398747Y-71250350D02*
X167351128Y-71155112D01*
X167351128Y-71155112D02*
X167303509Y-70964636D01*
X167303509Y-70964636D02*
X167255890Y-70869398D01*
X167255890Y-70869398D02*
X167208271Y-70821779D01*
X167208271Y-70821779D02*
X167113033Y-70774160D01*
X167113033Y-70774160D02*
X167017795Y-70774160D01*
X167017795Y-70774160D02*
X166922557Y-70821779D01*
X166922557Y-70821779D02*
X166874938Y-70869398D01*
X166874938Y-70869398D02*
X166827319Y-70964636D01*
X166827319Y-70964636D02*
X166827319Y-71202731D01*
X166827319Y-71202731D02*
X166874938Y-71345588D01*
X167827319Y-71774160D02*
X166827319Y-71774160D01*
X166827319Y-71774160D02*
X167827319Y-72345588D01*
X167827319Y-72345588D02*
X166827319Y-72345588D01*
X166827319Y-72726541D02*
X166827319Y-73393207D01*
X166827319Y-73393207D02*
X167827319Y-72726541D01*
X167827319Y-72726541D02*
X167827319Y-73393207D01*
X191909700Y-70456660D02*
X191957319Y-70599517D01*
X191957319Y-70599517D02*
X191957319Y-70837612D01*
X191957319Y-70837612D02*
X191909700Y-70932850D01*
X191909700Y-70932850D02*
X191862080Y-70980469D01*
X191862080Y-70980469D02*
X191766842Y-71028088D01*
X191766842Y-71028088D02*
X191671604Y-71028088D01*
X191671604Y-71028088D02*
X191576366Y-70980469D01*
X191576366Y-70980469D02*
X191528747Y-70932850D01*
X191528747Y-70932850D02*
X191481128Y-70837612D01*
X191481128Y-70837612D02*
X191433509Y-70647136D01*
X191433509Y-70647136D02*
X191385890Y-70551898D01*
X191385890Y-70551898D02*
X191338271Y-70504279D01*
X191338271Y-70504279D02*
X191243033Y-70456660D01*
X191243033Y-70456660D02*
X191147795Y-70456660D01*
X191147795Y-70456660D02*
X191052557Y-70504279D01*
X191052557Y-70504279D02*
X191004938Y-70551898D01*
X191004938Y-70551898D02*
X190957319Y-70647136D01*
X190957319Y-70647136D02*
X190957319Y-70885231D01*
X190957319Y-70885231D02*
X191004938Y-71028088D01*
X191862080Y-72028088D02*
X191909700Y-71980469D01*
X191909700Y-71980469D02*
X191957319Y-71837612D01*
X191957319Y-71837612D02*
X191957319Y-71742374D01*
X191957319Y-71742374D02*
X191909700Y-71599517D01*
X191909700Y-71599517D02*
X191814461Y-71504279D01*
X191814461Y-71504279D02*
X191719223Y-71456660D01*
X191719223Y-71456660D02*
X191528747Y-71409041D01*
X191528747Y-71409041D02*
X191385890Y-71409041D01*
X191385890Y-71409041D02*
X191195414Y-71456660D01*
X191195414Y-71456660D02*
X191100176Y-71504279D01*
X191100176Y-71504279D02*
X191004938Y-71599517D01*
X191004938Y-71599517D02*
X190957319Y-71742374D01*
X190957319Y-71742374D02*
X190957319Y-71837612D01*
X190957319Y-71837612D02*
X191004938Y-71980469D01*
X191004938Y-71980469D02*
X191052557Y-72028088D01*
X191957319Y-72932850D02*
X191957319Y-72456660D01*
X191957319Y-72456660D02*
X190957319Y-72456660D01*
X166874938Y-44993088D02*
X166827319Y-44897850D01*
X166827319Y-44897850D02*
X166827319Y-44754993D01*
X166827319Y-44754993D02*
X166874938Y-44612136D01*
X166874938Y-44612136D02*
X166970176Y-44516898D01*
X166970176Y-44516898D02*
X167065414Y-44469279D01*
X167065414Y-44469279D02*
X167255890Y-44421660D01*
X167255890Y-44421660D02*
X167398747Y-44421660D01*
X167398747Y-44421660D02*
X167589223Y-44469279D01*
X167589223Y-44469279D02*
X167684461Y-44516898D01*
X167684461Y-44516898D02*
X167779700Y-44612136D01*
X167779700Y-44612136D02*
X167827319Y-44754993D01*
X167827319Y-44754993D02*
X167827319Y-44850231D01*
X167827319Y-44850231D02*
X167779700Y-44993088D01*
X167779700Y-44993088D02*
X167732080Y-45040707D01*
X167732080Y-45040707D02*
X167398747Y-45040707D01*
X167398747Y-45040707D02*
X167398747Y-44850231D01*
X167827319Y-45469279D02*
X166827319Y-45469279D01*
X166827319Y-45469279D02*
X167827319Y-46040707D01*
X167827319Y-46040707D02*
X166827319Y-46040707D01*
X167827319Y-46516898D02*
X166827319Y-46516898D01*
X166827319Y-46516898D02*
X166827319Y-46754993D01*
X166827319Y-46754993D02*
X166874938Y-46897850D01*
X166874938Y-46897850D02*
X166970176Y-46993088D01*
X166970176Y-46993088D02*
X167065414Y-47040707D01*
X167065414Y-47040707D02*
X167255890Y-47088326D01*
X167255890Y-47088326D02*
X167398747Y-47088326D01*
X167398747Y-47088326D02*
X167589223Y-47040707D01*
X167589223Y-47040707D02*
X167684461Y-46993088D01*
X167684461Y-46993088D02*
X167779700Y-46897850D01*
X167779700Y-46897850D02*
X167827319Y-46754993D01*
X167827319Y-46754993D02*
X167827319Y-46516898D01*
X183384938Y-70710588D02*
X183337319Y-70615350D01*
X183337319Y-70615350D02*
X183337319Y-70472493D01*
X183337319Y-70472493D02*
X183384938Y-70329636D01*
X183384938Y-70329636D02*
X183480176Y-70234398D01*
X183480176Y-70234398D02*
X183575414Y-70186779D01*
X183575414Y-70186779D02*
X183765890Y-70139160D01*
X183765890Y-70139160D02*
X183908747Y-70139160D01*
X183908747Y-70139160D02*
X184099223Y-70186779D01*
X184099223Y-70186779D02*
X184194461Y-70234398D01*
X184194461Y-70234398D02*
X184289700Y-70329636D01*
X184289700Y-70329636D02*
X184337319Y-70472493D01*
X184337319Y-70472493D02*
X184337319Y-70567731D01*
X184337319Y-70567731D02*
X184289700Y-70710588D01*
X184289700Y-70710588D02*
X184242080Y-70758207D01*
X184242080Y-70758207D02*
X183908747Y-70758207D01*
X183908747Y-70758207D02*
X183908747Y-70567731D01*
X184337319Y-71186779D02*
X183337319Y-71186779D01*
X183337319Y-71186779D02*
X184337319Y-71758207D01*
X184337319Y-71758207D02*
X183337319Y-71758207D01*
X184337319Y-72234398D02*
X183337319Y-72234398D01*
X183337319Y-72234398D02*
X183337319Y-72472493D01*
X183337319Y-72472493D02*
X183384938Y-72615350D01*
X183384938Y-72615350D02*
X183480176Y-72710588D01*
X183480176Y-72710588D02*
X183575414Y-72758207D01*
X183575414Y-72758207D02*
X183765890Y-72805826D01*
X183765890Y-72805826D02*
X183908747Y-72805826D01*
X183908747Y-72805826D02*
X184099223Y-72758207D01*
X184099223Y-72758207D02*
X184194461Y-72710588D01*
X184194461Y-72710588D02*
X184289700Y-72615350D01*
X184289700Y-72615350D02*
X184337319Y-72472493D01*
X184337319Y-72472493D02*
X184337319Y-72234398D01*
X169414938Y-71345588D02*
X169367319Y-71250350D01*
X169367319Y-71250350D02*
X169367319Y-71107493D01*
X169367319Y-71107493D02*
X169414938Y-70964636D01*
X169414938Y-70964636D02*
X169510176Y-70869398D01*
X169510176Y-70869398D02*
X169605414Y-70821779D01*
X169605414Y-70821779D02*
X169795890Y-70774160D01*
X169795890Y-70774160D02*
X169938747Y-70774160D01*
X169938747Y-70774160D02*
X170129223Y-70821779D01*
X170129223Y-70821779D02*
X170224461Y-70869398D01*
X170224461Y-70869398D02*
X170319700Y-70964636D01*
X170319700Y-70964636D02*
X170367319Y-71107493D01*
X170367319Y-71107493D02*
X170367319Y-71202731D01*
X170367319Y-71202731D02*
X170319700Y-71345588D01*
X170319700Y-71345588D02*
X170272080Y-71393207D01*
X170272080Y-71393207D02*
X169938747Y-71393207D01*
X169938747Y-71393207D02*
X169938747Y-71202731D01*
X170367319Y-71821779D02*
X169367319Y-71821779D01*
X169367319Y-71821779D02*
X170367319Y-72393207D01*
X170367319Y-72393207D02*
X169367319Y-72393207D01*
X170367319Y-72869398D02*
X169367319Y-72869398D01*
X169367319Y-72869398D02*
X169367319Y-73107493D01*
X169367319Y-73107493D02*
X169414938Y-73250350D01*
X169414938Y-73250350D02*
X169510176Y-73345588D01*
X169510176Y-73345588D02*
X169605414Y-73393207D01*
X169605414Y-73393207D02*
X169795890Y-73440826D01*
X169795890Y-73440826D02*
X169938747Y-73440826D01*
X169938747Y-73440826D02*
X170129223Y-73393207D01*
X170129223Y-73393207D02*
X170224461Y-73345588D01*
X170224461Y-73345588D02*
X170319700Y-73250350D01*
X170319700Y-73250350D02*
X170367319Y-73107493D01*
X170367319Y-73107493D02*
X170367319Y-72869398D01*
X185877319Y-70726541D02*
X185877319Y-71345588D01*
X185877319Y-71345588D02*
X186258271Y-71012255D01*
X186258271Y-71012255D02*
X186258271Y-71155112D01*
X186258271Y-71155112D02*
X186305890Y-71250350D01*
X186305890Y-71250350D02*
X186353509Y-71297969D01*
X186353509Y-71297969D02*
X186448747Y-71345588D01*
X186448747Y-71345588D02*
X186686842Y-71345588D01*
X186686842Y-71345588D02*
X186782080Y-71297969D01*
X186782080Y-71297969D02*
X186829700Y-71250350D01*
X186829700Y-71250350D02*
X186877319Y-71155112D01*
X186877319Y-71155112D02*
X186877319Y-70869398D01*
X186877319Y-70869398D02*
X186829700Y-70774160D01*
X186829700Y-70774160D02*
X186782080Y-70726541D01*
X185877319Y-71631303D02*
X186877319Y-71964636D01*
X186877319Y-71964636D02*
X185877319Y-72297969D01*
X185877319Y-72536065D02*
X185877319Y-73155112D01*
X185877319Y-73155112D02*
X186258271Y-72821779D01*
X186258271Y-72821779D02*
X186258271Y-72964636D01*
X186258271Y-72964636D02*
X186305890Y-73059874D01*
X186305890Y-73059874D02*
X186353509Y-73107493D01*
X186353509Y-73107493D02*
X186448747Y-73155112D01*
X186448747Y-73155112D02*
X186686842Y-73155112D01*
X186686842Y-73155112D02*
X186782080Y-73107493D01*
X186782080Y-73107493D02*
X186829700Y-73059874D01*
X186829700Y-73059874D02*
X186877319Y-72964636D01*
X186877319Y-72964636D02*
X186877319Y-72678922D01*
X186877319Y-72678922D02*
X186829700Y-72583684D01*
X186829700Y-72583684D02*
X186782080Y-72536065D01*
X177352319Y-72298088D02*
X177352319Y-71726660D01*
X177352319Y-72012374D02*
X176352319Y-72012374D01*
X176352319Y-72012374D02*
X176495176Y-71917136D01*
X176495176Y-71917136D02*
X176590414Y-71821898D01*
X176590414Y-71821898D02*
X176638033Y-71726660D01*
X176352319Y-72631422D02*
X177352319Y-72869517D01*
X177352319Y-72869517D02*
X176638033Y-73059993D01*
X176638033Y-73059993D02*
X177352319Y-73250469D01*
X177352319Y-73250469D02*
X176352319Y-73488565D01*
X189369700Y-70456660D02*
X189417319Y-70599517D01*
X189417319Y-70599517D02*
X189417319Y-70837612D01*
X189417319Y-70837612D02*
X189369700Y-70932850D01*
X189369700Y-70932850D02*
X189322080Y-70980469D01*
X189322080Y-70980469D02*
X189226842Y-71028088D01*
X189226842Y-71028088D02*
X189131604Y-71028088D01*
X189131604Y-71028088D02*
X189036366Y-70980469D01*
X189036366Y-70980469D02*
X188988747Y-70932850D01*
X188988747Y-70932850D02*
X188941128Y-70837612D01*
X188941128Y-70837612D02*
X188893509Y-70647136D01*
X188893509Y-70647136D02*
X188845890Y-70551898D01*
X188845890Y-70551898D02*
X188798271Y-70504279D01*
X188798271Y-70504279D02*
X188703033Y-70456660D01*
X188703033Y-70456660D02*
X188607795Y-70456660D01*
X188607795Y-70456660D02*
X188512557Y-70504279D01*
X188512557Y-70504279D02*
X188464938Y-70551898D01*
X188464938Y-70551898D02*
X188417319Y-70647136D01*
X188417319Y-70647136D02*
X188417319Y-70885231D01*
X188417319Y-70885231D02*
X188464938Y-71028088D01*
X189417319Y-71456660D02*
X188417319Y-71456660D01*
X188417319Y-71456660D02*
X188417319Y-71694755D01*
X188417319Y-71694755D02*
X188464938Y-71837612D01*
X188464938Y-71837612D02*
X188560176Y-71932850D01*
X188560176Y-71932850D02*
X188655414Y-71980469D01*
X188655414Y-71980469D02*
X188845890Y-72028088D01*
X188845890Y-72028088D02*
X188988747Y-72028088D01*
X188988747Y-72028088D02*
X189179223Y-71980469D01*
X189179223Y-71980469D02*
X189274461Y-71932850D01*
X189274461Y-71932850D02*
X189369700Y-71837612D01*
X189369700Y-71837612D02*
X189417319Y-71694755D01*
X189417319Y-71694755D02*
X189417319Y-71456660D01*
X189131604Y-72409041D02*
X189131604Y-72885231D01*
X189417319Y-72313803D02*
X188417319Y-72647136D01*
X188417319Y-72647136D02*
X189417319Y-72980469D01*
X188718866Y-45739279D02*
X188718866Y-46501184D01*
X189099819Y-46120231D02*
X188337914Y-46120231D01*
X188576009Y-47310707D02*
X188623628Y-47453564D01*
X188623628Y-47453564D02*
X188671247Y-47501183D01*
X188671247Y-47501183D02*
X188766485Y-47548802D01*
X188766485Y-47548802D02*
X188909342Y-47548802D01*
X188909342Y-47548802D02*
X189004580Y-47501183D01*
X189004580Y-47501183D02*
X189052200Y-47453564D01*
X189052200Y-47453564D02*
X189099819Y-47358326D01*
X189099819Y-47358326D02*
X189099819Y-46977374D01*
X189099819Y-46977374D02*
X188099819Y-46977374D01*
X188099819Y-46977374D02*
X188099819Y-47310707D01*
X188099819Y-47310707D02*
X188147438Y-47405945D01*
X188147438Y-47405945D02*
X188195057Y-47453564D01*
X188195057Y-47453564D02*
X188290295Y-47501183D01*
X188290295Y-47501183D02*
X188385533Y-47501183D01*
X188385533Y-47501183D02*
X188480771Y-47453564D01*
X188480771Y-47453564D02*
X188528390Y-47405945D01*
X188528390Y-47405945D02*
X188576009Y-47310707D01*
X188576009Y-47310707D02*
X188576009Y-46977374D01*
X160207319Y-45040707D02*
X159731128Y-44707374D01*
X160207319Y-44469279D02*
X159207319Y-44469279D01*
X159207319Y-44469279D02*
X159207319Y-44850231D01*
X159207319Y-44850231D02*
X159254938Y-44945469D01*
X159254938Y-44945469D02*
X159302557Y-44993088D01*
X159302557Y-44993088D02*
X159397795Y-45040707D01*
X159397795Y-45040707D02*
X159540652Y-45040707D01*
X159540652Y-45040707D02*
X159635890Y-44993088D01*
X159635890Y-44993088D02*
X159683509Y-44945469D01*
X159683509Y-44945469D02*
X159731128Y-44850231D01*
X159731128Y-44850231D02*
X159731128Y-44469279D01*
X160207319Y-45374041D02*
X159540652Y-45897850D01*
X159540652Y-45374041D02*
X160207319Y-45897850D01*
X197580238Y-58017557D02*
X197675476Y-57969938D01*
X197675476Y-57969938D02*
X197770714Y-57874700D01*
X197770714Y-57874700D02*
X197913571Y-57731842D01*
X197913571Y-57731842D02*
X198008809Y-57684223D01*
X198008809Y-57684223D02*
X198104047Y-57684223D01*
X198056428Y-57922319D02*
X198151666Y-57874700D01*
X198151666Y-57874700D02*
X198246904Y-57779461D01*
X198246904Y-57779461D02*
X198294523Y-57588985D01*
X198294523Y-57588985D02*
X198294523Y-57255652D01*
X198294523Y-57255652D02*
X198246904Y-57065176D01*
X198246904Y-57065176D02*
X198151666Y-56969938D01*
X198151666Y-56969938D02*
X198056428Y-56922319D01*
X198056428Y-56922319D02*
X197865952Y-56922319D01*
X197865952Y-56922319D02*
X197770714Y-56969938D01*
X197770714Y-56969938D02*
X197675476Y-57065176D01*
X197675476Y-57065176D02*
X197627857Y-57255652D01*
X197627857Y-57255652D02*
X197627857Y-57588985D01*
X197627857Y-57588985D02*
X197675476Y-57779461D01*
X197675476Y-57779461D02*
X197770714Y-57874700D01*
X197770714Y-57874700D02*
X197865952Y-57922319D01*
X197865952Y-57922319D02*
X198056428Y-57922319D01*
X196675476Y-57922319D02*
X197246904Y-57922319D01*
X196961190Y-57922319D02*
X196961190Y-56922319D01*
X196961190Y-56922319D02*
X197056428Y-57065176D01*
X197056428Y-57065176D02*
X197151666Y-57160414D01*
X197151666Y-57160414D02*
X197246904Y-57208033D01*
X181141666Y-48397319D02*
X181474999Y-47921128D01*
X181713094Y-48397319D02*
X181713094Y-47397319D01*
X181713094Y-47397319D02*
X181332142Y-47397319D01*
X181332142Y-47397319D02*
X181236904Y-47444938D01*
X181236904Y-47444938D02*
X181189285Y-47492557D01*
X181189285Y-47492557D02*
X181141666Y-47587795D01*
X181141666Y-47587795D02*
X181141666Y-47730652D01*
X181141666Y-47730652D02*
X181189285Y-47825890D01*
X181189285Y-47825890D02*
X181236904Y-47873509D01*
X181236904Y-47873509D02*
X181332142Y-47921128D01*
X181332142Y-47921128D02*
X181713094Y-47921128D01*
X180570237Y-47825890D02*
X180665475Y-47778271D01*
X180665475Y-47778271D02*
X180713094Y-47730652D01*
X180713094Y-47730652D02*
X180760713Y-47635414D01*
X180760713Y-47635414D02*
X180760713Y-47587795D01*
X180760713Y-47587795D02*
X180713094Y-47492557D01*
X180713094Y-47492557D02*
X180665475Y-47444938D01*
X180665475Y-47444938D02*
X180570237Y-47397319D01*
X180570237Y-47397319D02*
X180379761Y-47397319D01*
X180379761Y-47397319D02*
X180284523Y-47444938D01*
X180284523Y-47444938D02*
X180236904Y-47492557D01*
X180236904Y-47492557D02*
X180189285Y-47587795D01*
X180189285Y-47587795D02*
X180189285Y-47635414D01*
X180189285Y-47635414D02*
X180236904Y-47730652D01*
X180236904Y-47730652D02*
X180284523Y-47778271D01*
X180284523Y-47778271D02*
X180379761Y-47825890D01*
X180379761Y-47825890D02*
X180570237Y-47825890D01*
X180570237Y-47825890D02*
X180665475Y-47873509D01*
X180665475Y-47873509D02*
X180713094Y-47921128D01*
X180713094Y-47921128D02*
X180760713Y-48016366D01*
X180760713Y-48016366D02*
X180760713Y-48206842D01*
X180760713Y-48206842D02*
X180713094Y-48302080D01*
X180713094Y-48302080D02*
X180665475Y-48349700D01*
X180665475Y-48349700D02*
X180570237Y-48397319D01*
X180570237Y-48397319D02*
X180379761Y-48397319D01*
X180379761Y-48397319D02*
X180284523Y-48349700D01*
X180284523Y-48349700D02*
X180236904Y-48302080D01*
X180236904Y-48302080D02*
X180189285Y-48206842D01*
X180189285Y-48206842D02*
X180189285Y-48016366D01*
X180189285Y-48016366D02*
X180236904Y-47921128D01*
X180236904Y-47921128D02*
X180284523Y-47873509D01*
X180284523Y-47873509D02*
X180379761Y-47825890D01*
X187144819Y-41902142D02*
X186668628Y-41568809D01*
X187144819Y-41330714D02*
X186144819Y-41330714D01*
X186144819Y-41330714D02*
X186144819Y-41711666D01*
X186144819Y-41711666D02*
X186192438Y-41806904D01*
X186192438Y-41806904D02*
X186240057Y-41854523D01*
X186240057Y-41854523D02*
X186335295Y-41902142D01*
X186335295Y-41902142D02*
X186478152Y-41902142D01*
X186478152Y-41902142D02*
X186573390Y-41854523D01*
X186573390Y-41854523D02*
X186621009Y-41806904D01*
X186621009Y-41806904D02*
X186668628Y-41711666D01*
X186668628Y-41711666D02*
X186668628Y-41330714D01*
X186240057Y-42283095D02*
X186192438Y-42330714D01*
X186192438Y-42330714D02*
X186144819Y-42425952D01*
X186144819Y-42425952D02*
X186144819Y-42664047D01*
X186144819Y-42664047D02*
X186192438Y-42759285D01*
X186192438Y-42759285D02*
X186240057Y-42806904D01*
X186240057Y-42806904D02*
X186335295Y-42854523D01*
X186335295Y-42854523D02*
X186430533Y-42854523D01*
X186430533Y-42854523D02*
X186573390Y-42806904D01*
X186573390Y-42806904D02*
X187144819Y-42235476D01*
X187144819Y-42235476D02*
X187144819Y-42854523D01*
X186240057Y-43235476D02*
X186192438Y-43283095D01*
X186192438Y-43283095D02*
X186144819Y-43378333D01*
X186144819Y-43378333D02*
X186144819Y-43616428D01*
X186144819Y-43616428D02*
X186192438Y-43711666D01*
X186192438Y-43711666D02*
X186240057Y-43759285D01*
X186240057Y-43759285D02*
X186335295Y-43806904D01*
X186335295Y-43806904D02*
X186430533Y-43806904D01*
X186430533Y-43806904D02*
X186573390Y-43759285D01*
X186573390Y-43759285D02*
X187144819Y-43187857D01*
X187144819Y-43187857D02*
X187144819Y-43806904D01*
X197580238Y-63097557D02*
X197675476Y-63049938D01*
X197675476Y-63049938D02*
X197770714Y-62954700D01*
X197770714Y-62954700D02*
X197913571Y-62811842D01*
X197913571Y-62811842D02*
X198008809Y-62764223D01*
X198008809Y-62764223D02*
X198104047Y-62764223D01*
X198056428Y-63002319D02*
X198151666Y-62954700D01*
X198151666Y-62954700D02*
X198246904Y-62859461D01*
X198246904Y-62859461D02*
X198294523Y-62668985D01*
X198294523Y-62668985D02*
X198294523Y-62335652D01*
X198294523Y-62335652D02*
X198246904Y-62145176D01*
X198246904Y-62145176D02*
X198151666Y-62049938D01*
X198151666Y-62049938D02*
X198056428Y-62002319D01*
X198056428Y-62002319D02*
X197865952Y-62002319D01*
X197865952Y-62002319D02*
X197770714Y-62049938D01*
X197770714Y-62049938D02*
X197675476Y-62145176D01*
X197675476Y-62145176D02*
X197627857Y-62335652D01*
X197627857Y-62335652D02*
X197627857Y-62668985D01*
X197627857Y-62668985D02*
X197675476Y-62859461D01*
X197675476Y-62859461D02*
X197770714Y-62954700D01*
X197770714Y-62954700D02*
X197865952Y-63002319D01*
X197865952Y-63002319D02*
X198056428Y-63002319D01*
X197294523Y-62002319D02*
X196675476Y-62002319D01*
X196675476Y-62002319D02*
X197008809Y-62383271D01*
X197008809Y-62383271D02*
X196865952Y-62383271D01*
X196865952Y-62383271D02*
X196770714Y-62430890D01*
X196770714Y-62430890D02*
X196723095Y-62478509D01*
X196723095Y-62478509D02*
X196675476Y-62573747D01*
X196675476Y-62573747D02*
X196675476Y-62811842D01*
X196675476Y-62811842D02*
X196723095Y-62907080D01*
X196723095Y-62907080D02*
X196770714Y-62954700D01*
X196770714Y-62954700D02*
X196865952Y-63002319D01*
X196865952Y-63002319D02*
X197151666Y-63002319D01*
X197151666Y-63002319D02*
X197246904Y-62954700D01*
X197246904Y-62954700D02*
X197294523Y-62907080D01*
X182887857Y-40777319D02*
X183221190Y-40301128D01*
X183459285Y-40777319D02*
X183459285Y-39777319D01*
X183459285Y-39777319D02*
X183078333Y-39777319D01*
X183078333Y-39777319D02*
X182983095Y-39824938D01*
X182983095Y-39824938D02*
X182935476Y-39872557D01*
X182935476Y-39872557D02*
X182887857Y-39967795D01*
X182887857Y-39967795D02*
X182887857Y-40110652D01*
X182887857Y-40110652D02*
X182935476Y-40205890D01*
X182935476Y-40205890D02*
X182983095Y-40253509D01*
X182983095Y-40253509D02*
X183078333Y-40301128D01*
X183078333Y-40301128D02*
X183459285Y-40301128D01*
X182506904Y-39872557D02*
X182459285Y-39824938D01*
X182459285Y-39824938D02*
X182364047Y-39777319D01*
X182364047Y-39777319D02*
X182125952Y-39777319D01*
X182125952Y-39777319D02*
X182030714Y-39824938D01*
X182030714Y-39824938D02*
X181983095Y-39872557D01*
X181983095Y-39872557D02*
X181935476Y-39967795D01*
X181935476Y-39967795D02*
X181935476Y-40063033D01*
X181935476Y-40063033D02*
X181983095Y-40205890D01*
X181983095Y-40205890D02*
X182554523Y-40777319D01*
X182554523Y-40777319D02*
X181935476Y-40777319D01*
X181602142Y-39777319D02*
X180983095Y-39777319D01*
X180983095Y-39777319D02*
X181316428Y-40158271D01*
X181316428Y-40158271D02*
X181173571Y-40158271D01*
X181173571Y-40158271D02*
X181078333Y-40205890D01*
X181078333Y-40205890D02*
X181030714Y-40253509D01*
X181030714Y-40253509D02*
X180983095Y-40348747D01*
X180983095Y-40348747D02*
X180983095Y-40586842D01*
X180983095Y-40586842D02*
X181030714Y-40682080D01*
X181030714Y-40682080D02*
X181078333Y-40729700D01*
X181078333Y-40729700D02*
X181173571Y-40777319D01*
X181173571Y-40777319D02*
X181459285Y-40777319D01*
X181459285Y-40777319D02*
X181554523Y-40729700D01*
X181554523Y-40729700D02*
X181602142Y-40682080D01*
X202104523Y-39459819D02*
X201437857Y-40459819D01*
X201437857Y-39459819D02*
X202104523Y-40459819D01*
X201152142Y-39459819D02*
X200533095Y-39459819D01*
X200533095Y-39459819D02*
X200866428Y-39840771D01*
X200866428Y-39840771D02*
X200723571Y-39840771D01*
X200723571Y-39840771D02*
X200628333Y-39888390D01*
X200628333Y-39888390D02*
X200580714Y-39936009D01*
X200580714Y-39936009D02*
X200533095Y-40031247D01*
X200533095Y-40031247D02*
X200533095Y-40269342D01*
X200533095Y-40269342D02*
X200580714Y-40364580D01*
X200580714Y-40364580D02*
X200628333Y-40412200D01*
X200628333Y-40412200D02*
X200723571Y-40459819D01*
X200723571Y-40459819D02*
X201009285Y-40459819D01*
X201009285Y-40459819D02*
X201104523Y-40412200D01*
X201104523Y-40412200D02*
X201152142Y-40364580D01*
X202104523Y-77242319D02*
X201437857Y-78242319D01*
X201437857Y-77242319D02*
X202104523Y-78242319D01*
X201104523Y-77337557D02*
X201056904Y-77289938D01*
X201056904Y-77289938D02*
X200961666Y-77242319D01*
X200961666Y-77242319D02*
X200723571Y-77242319D01*
X200723571Y-77242319D02*
X200628333Y-77289938D01*
X200628333Y-77289938D02*
X200580714Y-77337557D01*
X200580714Y-77337557D02*
X200533095Y-77432795D01*
X200533095Y-77432795D02*
X200533095Y-77528033D01*
X200533095Y-77528033D02*
X200580714Y-77670890D01*
X200580714Y-77670890D02*
X201152142Y-78242319D01*
X201152142Y-78242319D02*
X200533095Y-78242319D01*
X197565238Y-73260057D02*
X197660476Y-73212438D01*
X197660476Y-73212438D02*
X197755714Y-73117200D01*
X197755714Y-73117200D02*
X197898571Y-72974342D01*
X197898571Y-72974342D02*
X197993809Y-72926723D01*
X197993809Y-72926723D02*
X198089047Y-72926723D01*
X198041428Y-73164819D02*
X198136666Y-73117200D01*
X198136666Y-73117200D02*
X198231904Y-73021961D01*
X198231904Y-73021961D02*
X198279523Y-72831485D01*
X198279523Y-72831485D02*
X198279523Y-72498152D01*
X198279523Y-72498152D02*
X198231904Y-72307676D01*
X198231904Y-72307676D02*
X198136666Y-72212438D01*
X198136666Y-72212438D02*
X198041428Y-72164819D01*
X198041428Y-72164819D02*
X197850952Y-72164819D01*
X197850952Y-72164819D02*
X197755714Y-72212438D01*
X197755714Y-72212438D02*
X197660476Y-72307676D01*
X197660476Y-72307676D02*
X197612857Y-72498152D01*
X197612857Y-72498152D02*
X197612857Y-72831485D01*
X197612857Y-72831485D02*
X197660476Y-73021961D01*
X197660476Y-73021961D02*
X197755714Y-73117200D01*
X197755714Y-73117200D02*
X197850952Y-73164819D01*
X197850952Y-73164819D02*
X198041428Y-73164819D01*
X197279523Y-72164819D02*
X196612857Y-72164819D01*
X196612857Y-72164819D02*
X197041428Y-73164819D01*
X178572319Y-42695833D02*
X178096128Y-42362500D01*
X178572319Y-42124405D02*
X177572319Y-42124405D01*
X177572319Y-42124405D02*
X177572319Y-42505357D01*
X177572319Y-42505357D02*
X177619938Y-42600595D01*
X177619938Y-42600595D02*
X177667557Y-42648214D01*
X177667557Y-42648214D02*
X177762795Y-42695833D01*
X177762795Y-42695833D02*
X177905652Y-42695833D01*
X177905652Y-42695833D02*
X178000890Y-42648214D01*
X178000890Y-42648214D02*
X178048509Y-42600595D01*
X178048509Y-42600595D02*
X178096128Y-42505357D01*
X178096128Y-42505357D02*
X178096128Y-42124405D01*
X178572319Y-43172024D02*
X178572319Y-43362500D01*
X178572319Y-43362500D02*
X178524700Y-43457738D01*
X178524700Y-43457738D02*
X178477080Y-43505357D01*
X178477080Y-43505357D02*
X178334223Y-43600595D01*
X178334223Y-43600595D02*
X178143747Y-43648214D01*
X178143747Y-43648214D02*
X177762795Y-43648214D01*
X177762795Y-43648214D02*
X177667557Y-43600595D01*
X177667557Y-43600595D02*
X177619938Y-43552976D01*
X177619938Y-43552976D02*
X177572319Y-43457738D01*
X177572319Y-43457738D02*
X177572319Y-43267262D01*
X177572319Y-43267262D02*
X177619938Y-43172024D01*
X177619938Y-43172024D02*
X177667557Y-43124405D01*
X177667557Y-43124405D02*
X177762795Y-43076786D01*
X177762795Y-43076786D02*
X178000890Y-43076786D01*
X178000890Y-43076786D02*
X178096128Y-43124405D01*
X178096128Y-43124405D02*
X178143747Y-43172024D01*
X178143747Y-43172024D02*
X178191366Y-43267262D01*
X178191366Y-43267262D02*
X178191366Y-43457738D01*
X178191366Y-43457738D02*
X178143747Y-43552976D01*
X178143747Y-43552976D02*
X178096128Y-43600595D01*
X178096128Y-43600595D02*
X178000890Y-43648214D01*
X197580238Y-68177557D02*
X197675476Y-68129938D01*
X197675476Y-68129938D02*
X197770714Y-68034700D01*
X197770714Y-68034700D02*
X197913571Y-67891842D01*
X197913571Y-67891842D02*
X198008809Y-67844223D01*
X198008809Y-67844223D02*
X198104047Y-67844223D01*
X198056428Y-68082319D02*
X198151666Y-68034700D01*
X198151666Y-68034700D02*
X198246904Y-67939461D01*
X198246904Y-67939461D02*
X198294523Y-67748985D01*
X198294523Y-67748985D02*
X198294523Y-67415652D01*
X198294523Y-67415652D02*
X198246904Y-67225176D01*
X198246904Y-67225176D02*
X198151666Y-67129938D01*
X198151666Y-67129938D02*
X198056428Y-67082319D01*
X198056428Y-67082319D02*
X197865952Y-67082319D01*
X197865952Y-67082319D02*
X197770714Y-67129938D01*
X197770714Y-67129938D02*
X197675476Y-67225176D01*
X197675476Y-67225176D02*
X197627857Y-67415652D01*
X197627857Y-67415652D02*
X197627857Y-67748985D01*
X197627857Y-67748985D02*
X197675476Y-67939461D01*
X197675476Y-67939461D02*
X197770714Y-68034700D01*
X197770714Y-68034700D02*
X197865952Y-68082319D01*
X197865952Y-68082319D02*
X198056428Y-68082319D01*
X196723095Y-67082319D02*
X197199285Y-67082319D01*
X197199285Y-67082319D02*
X197246904Y-67558509D01*
X197246904Y-67558509D02*
X197199285Y-67510890D01*
X197199285Y-67510890D02*
X197104047Y-67463271D01*
X197104047Y-67463271D02*
X196865952Y-67463271D01*
X196865952Y-67463271D02*
X196770714Y-67510890D01*
X196770714Y-67510890D02*
X196723095Y-67558509D01*
X196723095Y-67558509D02*
X196675476Y-67653747D01*
X196675476Y-67653747D02*
X196675476Y-67891842D01*
X196675476Y-67891842D02*
X196723095Y-67987080D01*
X196723095Y-67987080D02*
X196770714Y-68034700D01*
X196770714Y-68034700D02*
X196865952Y-68082319D01*
X196865952Y-68082319D02*
X197104047Y-68082319D01*
X197104047Y-68082319D02*
X197199285Y-68034700D01*
X197199285Y-68034700D02*
X197246904Y-67987080D01*
D11*
%TO.C,Q1*%
X196835000Y-58447500D02*
X197485000Y-58447500D01*
X196835000Y-61567500D02*
X197485000Y-61567500D01*
X198135000Y-58447500D02*
X197485000Y-58447500D01*
X198135000Y-61567500D02*
X197485000Y-61567500D01*
X196562500Y-61847500D02*
X196082500Y-61847500D01*
X196322500Y-61517500D01*
X196562500Y-61847500D01*
G36*
X196562500Y-61847500D02*
G01*
X196082500Y-61847500D01*
X196322500Y-61517500D01*
X196562500Y-61847500D01*
G37*
%TO.C,R8*%
X180747936Y-45302500D02*
X181202064Y-45302500D01*
X180747936Y-46772500D02*
X181202064Y-46772500D01*
%TO.C,R22*%
X183732500Y-42635436D02*
X183732500Y-43089564D01*
X185202500Y-42635436D02*
X185202500Y-43089564D01*
%TO.C,Q3*%
X196835000Y-63527500D02*
X197485000Y-63527500D01*
X196835000Y-66647500D02*
X197485000Y-66647500D01*
X198135000Y-63527500D02*
X197485000Y-63527500D01*
X198135000Y-66647500D02*
X197485000Y-66647500D01*
X196562500Y-66927500D02*
X196082500Y-66927500D01*
X196322500Y-66597500D01*
X196562500Y-66927500D01*
G36*
X196562500Y-66927500D02*
G01*
X196082500Y-66927500D01*
X196322500Y-66597500D01*
X196562500Y-66927500D01*
G37*
%TO.C,R23*%
X181510000Y-42635436D02*
X181510000Y-43089564D01*
X182980000Y-42635436D02*
X182980000Y-43089564D01*
%TO.C,X3*%
X199965000Y-40897500D02*
X201295000Y-40897500D01*
X199965000Y-42227500D02*
X199965000Y-40897500D01*
X199965000Y-43497500D02*
X202625000Y-43497500D01*
X199965000Y-58797500D02*
X199965000Y-43497500D01*
X199965000Y-58797500D02*
X202625000Y-58797500D01*
X202625000Y-58797500D02*
X202625000Y-43497500D01*
%TO.C,X2*%
X199965001Y-58678277D02*
X201295001Y-58678277D01*
X199965001Y-60008277D02*
X199965001Y-58678277D01*
X199965001Y-61278277D02*
X202625001Y-61278277D01*
X199965001Y-76578277D02*
X199965001Y-61278277D01*
X199965001Y-76578277D02*
X202625001Y-76578277D01*
X202625001Y-76578277D02*
X202625001Y-61278277D01*
%TO.C,Q7*%
X196835000Y-73687500D02*
X197485000Y-73687500D01*
X196835000Y-76807500D02*
X197485000Y-76807500D01*
X198135000Y-73687500D02*
X197485000Y-73687500D01*
X198135000Y-76807500D02*
X197485000Y-76807500D01*
X196562500Y-77087500D02*
X196082500Y-77087500D01*
X196322500Y-76757500D01*
X196562500Y-77087500D01*
G36*
X196562500Y-77087500D02*
G01*
X196082500Y-77087500D01*
X196322500Y-76757500D01*
X196562500Y-77087500D01*
G37*
%TO.C,R9*%
X179287500Y-42635436D02*
X179287500Y-43089564D01*
X180757500Y-42635436D02*
X180757500Y-43089564D01*
%TO.C,Q5*%
X196835000Y-68607500D02*
X197485000Y-68607500D01*
X196835000Y-71727500D02*
X197485000Y-71727500D01*
X198135000Y-68607500D02*
X197485000Y-68607500D01*
X198135000Y-71727500D02*
X197485000Y-71727500D01*
X196562500Y-72007500D02*
X196082500Y-72007500D01*
X196322500Y-71677500D01*
X196562500Y-72007500D01*
G36*
X196562500Y-72007500D02*
G01*
X196082500Y-72007500D01*
X196322500Y-71677500D01*
X196562500Y-72007500D01*
G37*
%TD*%
M02*
