%TF.GenerationSoftware,KiCad,Pcbnew,8.0.5*%
%TF.CreationDate,2024-10-06T21:19:30+02:00*%
%TF.ProjectId,UCB32,55434233-322e-46b6-9963-61645f706362,rev?*%
%TF.SameCoordinates,Original*%
%TF.FileFunction,Copper,L1,Top*%
%TF.FilePolarity,Positive*%
%FSLAX46Y46*%
G04 Gerber Fmt 4.6, Leading zero omitted, Abs format (unit mm)*
G04 Created by KiCad (PCBNEW 8.0.5) date 2024-10-06 21:19:30*
%MOMM*%
%LPD*%
G01*
G04 APERTURE LIST*
G04 Aperture macros list*
%AMRoundRect*
0 Rectangle with rounded corners*
0 $1 Rounding radius*
0 $2 $3 $4 $5 $6 $7 $8 $9 X,Y pos of 4 corners*
0 Add a 4 corners polygon primitive as box body*
4,1,4,$2,$3,$4,$5,$6,$7,$8,$9,$2,$3,0*
0 Add four circle primitives for the rounded corners*
1,1,$1+$1,$2,$3*
1,1,$1+$1,$4,$5*
1,1,$1+$1,$6,$7*
1,1,$1+$1,$8,$9*
0 Add four rect primitives between the rounded corners*
20,1,$1+$1,$2,$3,$4,$5,0*
20,1,$1+$1,$4,$5,$6,$7,0*
20,1,$1+$1,$6,$7,$8,$9,0*
20,1,$1+$1,$8,$9,$2,$3,0*%
%AMFreePoly0*
4,1,9,3.862500,-0.866500,0.737500,-0.866500,0.737500,-0.450000,-0.737500,-0.450000,-0.737500,0.450000,0.737500,0.450000,0.737500,0.866500,3.862500,0.866500,3.862500,-0.866500,3.862500,-0.866500,$1*%
%AMFreePoly1*
4,1,6,1.000000,0.000000,0.500000,-0.750000,-0.500000,-0.750000,-0.500000,0.750000,0.500000,0.750000,1.000000,0.000000,1.000000,0.000000,$1*%
%AMFreePoly2*
4,1,6,0.500000,-0.750000,-0.650000,-0.750000,-0.150000,0.000000,-0.650000,0.750000,0.500000,0.750000,0.500000,-0.750000,0.500000,-0.750000,$1*%
G04 Aperture macros list end*
%TA.AperFunction,SMDPad,CuDef*%
%ADD10RoundRect,0.250000X0.350000X0.450000X-0.350000X0.450000X-0.350000X-0.450000X0.350000X-0.450000X0*%
%TD*%
%TA.AperFunction,ComponentPad*%
%ADD11RoundRect,0.250000X0.600000X0.725000X-0.600000X0.725000X-0.600000X-0.725000X0.600000X-0.725000X0*%
%TD*%
%TA.AperFunction,ComponentPad*%
%ADD12O,1.700000X1.950000*%
%TD*%
%TA.AperFunction,SMDPad,CuDef*%
%ADD13RoundRect,0.250000X0.337500X0.475000X-0.337500X0.475000X-0.337500X-0.475000X0.337500X-0.475000X0*%
%TD*%
%TA.AperFunction,ComponentPad*%
%ADD14R,1.700000X1.700000*%
%TD*%
%TA.AperFunction,ComponentPad*%
%ADD15O,1.700000X1.700000*%
%TD*%
%TA.AperFunction,SMDPad,CuDef*%
%ADD16R,1.500000X1.500000*%
%TD*%
%TA.AperFunction,SMDPad,CuDef*%
%ADD17RoundRect,0.250000X-1.000000X-0.650000X1.000000X-0.650000X1.000000X0.650000X-1.000000X0.650000X0*%
%TD*%
%TA.AperFunction,SMDPad,CuDef*%
%ADD18R,0.900000X1.500000*%
%TD*%
%TA.AperFunction,SMDPad,CuDef*%
%ADD19R,1.500000X0.900000*%
%TD*%
%TA.AperFunction,SMDPad,CuDef*%
%ADD20R,1.050000X1.050000*%
%TD*%
%TA.AperFunction,HeatsinkPad*%
%ADD21C,0.800000*%
%TD*%
%TA.AperFunction,SMDPad,CuDef*%
%ADD22R,4.200000X4.200000*%
%TD*%
%TA.AperFunction,SMDPad,CuDef*%
%ADD23RoundRect,0.225000X0.425000X0.225000X-0.425000X0.225000X-0.425000X-0.225000X0.425000X-0.225000X0*%
%TD*%
%TA.AperFunction,SMDPad,CuDef*%
%ADD24FreePoly0,180.000000*%
%TD*%
%TA.AperFunction,SMDPad,CuDef*%
%ADD25RoundRect,0.150000X-0.587500X-0.150000X0.587500X-0.150000X0.587500X0.150000X-0.587500X0.150000X0*%
%TD*%
%TA.AperFunction,SMDPad,CuDef*%
%ADD26RoundRect,0.250000X-0.350000X-0.450000X0.350000X-0.450000X0.350000X0.450000X-0.350000X0.450000X0*%
%TD*%
%TA.AperFunction,SMDPad,CuDef*%
%ADD27RoundRect,0.250000X-0.337500X-0.475000X0.337500X-0.475000X0.337500X0.475000X-0.337500X0.475000X0*%
%TD*%
%TA.AperFunction,SMDPad,CuDef*%
%ADD28RoundRect,0.250000X0.450000X-0.350000X0.450000X0.350000X-0.450000X0.350000X-0.450000X-0.350000X0*%
%TD*%
%TA.AperFunction,SMDPad,CuDef*%
%ADD29RoundRect,0.250000X-0.450000X0.350000X-0.450000X-0.350000X0.450000X-0.350000X0.450000X0.350000X0*%
%TD*%
%TA.AperFunction,SMDPad,CuDef*%
%ADD30RoundRect,0.250000X-0.400000X-0.600000X0.400000X-0.600000X0.400000X0.600000X-0.400000X0.600000X0*%
%TD*%
%TA.AperFunction,SMDPad,CuDef*%
%ADD31FreePoly1,90.000000*%
%TD*%
%TA.AperFunction,SMDPad,CuDef*%
%ADD32FreePoly2,90.000000*%
%TD*%
%TA.AperFunction,SMDPad,CuDef*%
%ADD33RoundRect,0.150000X0.587500X0.150000X-0.587500X0.150000X-0.587500X-0.150000X0.587500X-0.150000X0*%
%TD*%
%TA.AperFunction,ComponentPad*%
%ADD34R,2.000000X2.000000*%
%TD*%
%TA.AperFunction,ComponentPad*%
%ADD35C,2.000000*%
%TD*%
%TA.AperFunction,SMDPad,CuDef*%
%ADD36RoundRect,0.250000X0.475000X-0.337500X0.475000X0.337500X-0.475000X0.337500X-0.475000X-0.337500X0*%
%TD*%
%TA.AperFunction,SMDPad,CuDef*%
%ADD37RoundRect,0.250000X0.450000X-0.325000X0.450000X0.325000X-0.450000X0.325000X-0.450000X-0.325000X0*%
%TD*%
%TA.AperFunction,ViaPad*%
%ADD38C,1.200000*%
%TD*%
%TA.AperFunction,Conductor*%
%ADD39C,0.500000*%
%TD*%
%TA.AperFunction,Conductor*%
%ADD40C,0.300000*%
%TD*%
G04 APERTURE END LIST*
D10*
%TO.P,R3,1*%
%TO.N,+5V*%
X205787500Y-65087500D03*
%TO.P,R3,2*%
%TO.N,/S2*%
X203787500Y-65087500D03*
%TD*%
%TO.P,R4,1*%
%TO.N,+5V*%
X205787500Y-67627500D03*
%TO.P,R4,2*%
%TO.N,/D0*%
X203787500Y-67627500D03*
%TD*%
D11*
%TO.P,X4,1,Pin_1*%
%TO.N,+5V*%
X196215000Y-43815000D03*
D12*
%TO.P,X4,2,Pin_2*%
%TO.N,GNDD*%
X193715000Y-43815000D03*
%TO.P,X4,3,Pin_3*%
%TO.N,unconnected-(X4-Pin_3-Pad3)*%
X191215000Y-43815000D03*
%TO.P,X4,4,Pin_4*%
%TO.N,+BATT*%
X188715000Y-43815000D03*
%TD*%
D10*
%TO.P,R6,1*%
%TO.N,+5V*%
X205787500Y-72707500D03*
%TO.P,R6,2*%
%TO.N,/D2*%
X203787500Y-72707500D03*
%TD*%
D13*
%TO.P,C2,1*%
%TO.N,Net-(D1-K)*%
X191537500Y-55245000D03*
%TO.P,C2,2*%
%TO.N,GNDD*%
X189462500Y-55245000D03*
%TD*%
D14*
%TO.P,X7,1,Pin_1*%
%TO.N,unconnected-(X7-Pin_1-Pad1)*%
X154622500Y-42545000D03*
D15*
%TO.P,X7,2,Pin_2*%
%TO.N,/TX*%
X157162500Y-42545000D03*
%TO.P,X7,3,Pin_3*%
%TO.N,/RX*%
X159702500Y-42545000D03*
%TO.P,X7,4,Pin_4*%
%TO.N,+3V3*%
X162242500Y-42545000D03*
%TO.P,X7,5,Pin_5*%
%TO.N,unconnected-(X7-Pin_5-Pad5)*%
X164782500Y-42545000D03*
%TO.P,X7,6,Pin_6*%
%TO.N,GNDD*%
X167322500Y-42545000D03*
%TD*%
D16*
%TO.P,SW1,1,1*%
%TO.N,Net-(R16-Pad2)*%
X176847500Y-49620000D03*
%TO.P,SW1,2,2*%
%TO.N,GNDD*%
X176847500Y-41820000D03*
%TD*%
D17*
%TO.P,D1,1,K*%
%TO.N,Net-(D1-K)*%
X193262500Y-52387500D03*
%TO.P,D1,2,A*%
%TO.N,+5V*%
X197262500Y-52387500D03*
%TD*%
D10*
%TO.P,R20,1*%
%TO.N,+3V3*%
X181657500Y-72072500D03*
%TO.P,R20,2*%
%TO.N,/Dallas*%
X179657500Y-72072500D03*
%TD*%
D18*
%TO.P,U2,1,GND*%
%TO.N,GNDD*%
X153377500Y-67570000D03*
%TO.P,U2,2,VDD*%
%TO.N,+3V3*%
X154647500Y-67570000D03*
%TO.P,U2,3,EN*%
%TO.N,/RST*%
X155917500Y-67570000D03*
%TO.P,U2,4,SENSOR_VP*%
%TO.N,unconnected-(U2-SENSOR_VP-Pad4)*%
X157187500Y-67570000D03*
%TO.P,U2,5,SENSOR_VN*%
%TO.N,unconnected-(U2-SENSOR_VN-Pad5)*%
X158457500Y-67570000D03*
%TO.P,U2,6,IO34*%
%TO.N,/UBATSense*%
X159727500Y-67570000D03*
%TO.P,U2,7,IO35*%
%TO.N,/Usen*%
X160997500Y-67570000D03*
%TO.P,U2,8,IO32*%
%TO.N,/DP*%
X162267500Y-67570000D03*
%TO.P,U2,9,IO33*%
%TO.N,/COL*%
X163537500Y-67570000D03*
%TO.P,U2,10,IO25*%
%TO.N,/D1L*%
X164807500Y-67570000D03*
%TO.P,U2,11,IO26*%
%TO.N,/D2L*%
X166077500Y-67570000D03*
%TO.P,U2,12,IO27*%
%TO.N,/D3L*%
X167347500Y-67570000D03*
%TO.P,U2,13,IO14*%
%TO.N,/KEYL*%
X168617500Y-67570000D03*
%TO.P,U2,14,IO12*%
%TO.N,unconnected-(U2-IO12-Pad14)*%
X169887500Y-67570000D03*
D19*
%TO.P,U2,15,GND*%
%TO.N,GNDD*%
X171137500Y-64530000D03*
%TO.P,U2,16,IO13*%
%TO.N,/Dallas*%
X171137500Y-63260000D03*
%TO.P,U2,17,SHD/SD2*%
%TO.N,unconnected-(U2-SHD{slash}SD2-Pad17)*%
X171137500Y-61990000D03*
%TO.P,U2,18,SWP/SD3*%
%TO.N,unconnected-(U2-SWP{slash}SD3-Pad18)*%
X171137500Y-60720000D03*
%TO.P,U2,19,SCS/CMD*%
%TO.N,unconnected-(U2-SCS{slash}CMD-Pad19)*%
X171137500Y-59450000D03*
%TO.P,U2,20,SCK/CLK*%
%TO.N,unconnected-(U2-SCK{slash}CLK-Pad20)*%
X171137500Y-58180000D03*
%TO.P,U2,21,SDO/SD0*%
%TO.N,unconnected-(U2-SDO{slash}SD0-Pad21)*%
X171137500Y-56910000D03*
%TO.P,U2,22,SDI/SD1*%
%TO.N,unconnected-(U2-SDI{slash}SD1-Pad22)*%
X171137500Y-55640000D03*
%TO.P,U2,23,IO15*%
%TO.N,/snooze*%
X171137500Y-54370000D03*
%TO.P,U2,24,IO2*%
%TO.N,unconnected-(U2-IO2-Pad24)*%
X171137500Y-53100000D03*
D18*
%TO.P,U2,25,IO0*%
%TO.N,/BootSel*%
X169887500Y-50070000D03*
%TO.P,U2,26,IO4*%
%TO.N,/LED_Diag*%
X168617500Y-50070000D03*
%TO.P,U2,27,IO16*%
%TO.N,/S0L*%
X167347500Y-50070000D03*
%TO.P,U2,28,IO17*%
%TO.N,/S1L*%
X166077500Y-50070000D03*
%TO.P,U2,29,IO5*%
%TO.N,unconnected-(U2-IO5-Pad29)*%
X164807500Y-50070000D03*
%TO.P,U2,30,IO18*%
%TO.N,/S2L*%
X163537500Y-50070000D03*
%TO.P,U2,31,IO19*%
%TO.N,/alarm*%
X162267500Y-50070000D03*
%TO.P,U2,32,NC*%
%TO.N,unconnected-(U2-NC-Pad32)*%
X160997500Y-50070000D03*
%TO.P,U2,33,IO21*%
%TO.N,/SDA*%
X159727500Y-50070000D03*
%TO.P,U2,34,RXD0/IO3*%
%TO.N,/RX*%
X158457500Y-50070000D03*
%TO.P,U2,35,TXD0/IO1*%
%TO.N,/TX*%
X157187500Y-50070000D03*
%TO.P,U2,36,IO22*%
%TO.N,/SCL*%
X155917500Y-50070000D03*
%TO.P,U2,37,IO23*%
%TO.N,/D0L*%
X154647500Y-50070000D03*
%TO.P,U2,38,GND*%
%TO.N,GNDD*%
X153377500Y-50070000D03*
D20*
%TO.P,U2,39,GND*%
X159192500Y-61025000D03*
D21*
X159955000Y-61025000D03*
D20*
X160717500Y-61025000D03*
D21*
X161480000Y-61025000D03*
D20*
X162242500Y-61025000D03*
D21*
X159192500Y-60262500D03*
X160717500Y-60262500D03*
X162242500Y-60262500D03*
D20*
X159192500Y-59500000D03*
D21*
X159955000Y-59500000D03*
D20*
X160717500Y-59500000D03*
D22*
X160717500Y-59500000D03*
D21*
X161480000Y-59500000D03*
D20*
X162242500Y-59500000D03*
D21*
X159192500Y-58737500D03*
X160717500Y-58737500D03*
X162242500Y-58737500D03*
D20*
X159192500Y-57975000D03*
D21*
X159955000Y-57975000D03*
D20*
X160717500Y-57975000D03*
D21*
X161480000Y-57975000D03*
D20*
X162242500Y-57975000D03*
%TD*%
D10*
%TO.P,R1,1*%
%TO.N,+5V*%
X205787500Y-60007500D03*
%TO.P,R1,2*%
%TO.N,/S0*%
X203787500Y-60007500D03*
%TD*%
D23*
%TO.P,U1,1,GND*%
%TO.N,GNDD*%
X190227500Y-52935000D03*
D24*
%TO.P,U1,2,VI*%
%TO.N,Net-(D1-K)*%
X190140000Y-51435000D03*
D23*
%TO.P,U1,3,VO*%
%TO.N,+3V3*%
X190227500Y-49935000D03*
%TD*%
D10*
%TO.P,R13,1*%
%TO.N,+5V*%
X198167500Y-49530000D03*
%TO.P,R13,2*%
%TO.N,GNDD*%
X196167500Y-49530000D03*
%TD*%
D25*
%TO.P,Q6,1,G*%
%TO.N,+3V3*%
X196532500Y-71760000D03*
%TO.P,Q6,2,S*%
%TO.N,/D2L*%
X196532500Y-73660000D03*
%TO.P,Q6,3,D*%
%TO.N,/D2*%
X198407500Y-72710000D03*
%TD*%
D26*
%TO.P,R21,1*%
%TO.N,/LED_Diag*%
X173942500Y-51752500D03*
%TO.P,R21,2*%
%TO.N,Net-(D2-A)*%
X175942500Y-51752500D03*
%TD*%
D10*
%TO.P,R2,1*%
%TO.N,+5V*%
X205787500Y-62547500D03*
%TO.P,R2,2*%
%TO.N,/S1*%
X203787500Y-62547500D03*
%TD*%
%TO.P,R7,1*%
%TO.N,+5V*%
X205787500Y-75247500D03*
%TO.P,R7,2*%
%TO.N,/D3*%
X203787500Y-75247500D03*
%TD*%
%TO.P,R5,1*%
%TO.N,+5V*%
X205787500Y-70167500D03*
%TO.P,R5,2*%
%TO.N,/D1*%
X203787500Y-70167500D03*
%TD*%
D16*
%TO.P,SW2,1,1*%
%TO.N,Net-(R17-Pad2)*%
X176847500Y-68987500D03*
%TO.P,SW2,2,2*%
%TO.N,GNDD*%
X176847500Y-61187500D03*
%TD*%
D27*
%TO.P,C3,1*%
%TO.N,+3V3*%
X192320000Y-49530000D03*
%TO.P,C3,2*%
%TO.N,GNDD*%
X194395000Y-49530000D03*
%TD*%
%TO.P,C1,1*%
%TO.N,Net-(D1-K)*%
X193590000Y-55245000D03*
%TO.P,C1,2*%
%TO.N,GNDD*%
X195665000Y-55245000D03*
%TD*%
D28*
%TO.P,R16,1*%
%TO.N,/BootSel*%
X173672500Y-43862500D03*
%TO.P,R16,2*%
%TO.N,Net-(R16-Pad2)*%
X173672500Y-41862500D03*
%TD*%
D29*
%TO.P,R14,1*%
%TO.N,+3V3*%
X171450000Y-41862500D03*
%TO.P,R14,2*%
%TO.N,/BootSel*%
X171450000Y-43862500D03*
%TD*%
D26*
%TO.P,R15,1*%
%TO.N,+3V3*%
X171402500Y-72072500D03*
%TO.P,R15,2*%
%TO.N,/RST*%
X173402500Y-72072500D03*
%TD*%
D14*
%TO.P,X5,1,Pin_1*%
%TO.N,GNDD*%
X183832500Y-75247500D03*
D15*
%TO.P,X5,2,Pin_2*%
%TO.N,+3V3*%
X186372500Y-75247500D03*
%TO.P,X5,3,Pin_3*%
%TO.N,/SDA*%
X188912500Y-75247500D03*
%TO.P,X5,4,Pin_4*%
%TO.N,/SCL*%
X191452500Y-75247500D03*
%TD*%
D29*
%TO.P,R18,1*%
%TO.N,Net-(JP1-B)*%
X188912500Y-70437500D03*
%TO.P,R18,2*%
%TO.N,/SDA*%
X188912500Y-72437500D03*
%TD*%
%TO.P,R19,1*%
%TO.N,Net-(JP1-B)*%
X191452500Y-70437500D03*
%TO.P,R19,2*%
%TO.N,/SCL*%
X191452500Y-72437500D03*
%TD*%
D14*
%TO.P,X1,1,Pin_1*%
%TO.N,/snooze*%
X167322500Y-75247500D03*
D15*
%TO.P,X1,2,Pin_2*%
%TO.N,GNDD*%
X169862500Y-75247500D03*
%TD*%
D30*
%TO.P,D3,1,K*%
%TO.N,Net-(D1-K)*%
X182717500Y-55245000D03*
%TO.P,D3,2,A*%
%TO.N,Net-(D3-A)*%
X186217500Y-55245000D03*
%TD*%
D31*
%TO.P,JP1,1,A*%
%TO.N,+3V3*%
X186372500Y-71845000D03*
D32*
%TO.P,JP1,2,B*%
%TO.N,Net-(JP1-B)*%
X186372500Y-70395000D03*
%TD*%
D10*
%TO.P,R12,1*%
%TO.N,+3V3*%
X169275000Y-72072500D03*
%TO.P,R12,2*%
%TO.N,/snooze*%
X167275000Y-72072500D03*
%TD*%
D33*
%TO.P,Q9,1,G*%
%TO.N,+5V*%
X184452500Y-45717500D03*
%TO.P,Q9,2,S*%
%TO.N,+BATT*%
X184452500Y-43817500D03*
%TO.P,Q9,3,D*%
%TO.N,Net-(D1-K)*%
X182577500Y-44767500D03*
%TD*%
D25*
%TO.P,Q4,1,G*%
%TO.N,+3V3*%
X196547500Y-66677500D03*
%TO.P,Q4,2,S*%
%TO.N,/D0L*%
X196547500Y-68577500D03*
%TO.P,Q4,3,D*%
%TO.N,/D0*%
X198422500Y-67627500D03*
%TD*%
D28*
%TO.P,R17,1*%
%TO.N,/RST*%
X173355000Y-69897500D03*
%TO.P,R17,2*%
%TO.N,Net-(R17-Pad2)*%
X173355000Y-67897500D03*
%TD*%
D34*
%TO.P,LS1,1,1*%
%TO.N,Net-(D1-K)*%
X191452500Y-62865000D03*
D35*
%TO.P,LS1,2,2*%
%TO.N,Net-(D3-A)*%
X186452500Y-62865000D03*
%TD*%
D14*
%TO.P,X6,1,Pin_1*%
%TO.N,+3V3*%
X179387500Y-75247500D03*
D15*
%TO.P,X6,2,Pin_2*%
%TO.N,/Dallas*%
X176847500Y-75247500D03*
%TO.P,X6,3,Pin_3*%
%TO.N,GNDD*%
X174307500Y-75247500D03*
%TD*%
D33*
%TO.P,Q8,1,G*%
%TO.N,/alarm*%
X181912500Y-59052500D03*
%TO.P,Q8,2,S*%
%TO.N,GNDD*%
X181912500Y-57152500D03*
%TO.P,Q8,3,D*%
%TO.N,Net-(D3-A)*%
X180037500Y-58102500D03*
%TD*%
D36*
%TO.P,C4,1*%
%TO.N,+3V3*%
X197802500Y-57235000D03*
%TO.P,C4,2*%
%TO.N,GNDD*%
X197802500Y-55160000D03*
%TD*%
D25*
%TO.P,Q2,1,G*%
%TO.N,+3V3*%
X196547500Y-61597500D03*
%TO.P,Q2,2,S*%
%TO.N,/S1L*%
X196547500Y-63497500D03*
%TO.P,Q2,3,D*%
%TO.N,/S1*%
X198422500Y-62547500D03*
%TD*%
D37*
%TO.P,D2,1,K*%
%TO.N,GNDD*%
X176847500Y-57222500D03*
%TO.P,D2,2,A*%
%TO.N,Net-(D2-A)*%
X176847500Y-55172500D03*
%TD*%
D14*
%TO.P,X3,1,Pin_1*%
%TO.N,/KEY*%
X201295000Y-42227500D03*
D15*
%TO.P,X3,2,Pin_2*%
%TO.N,/ALM*%
X201295000Y-44767500D03*
%TO.P,X3,3,Pin_3*%
%TO.N,/DP*%
X201295000Y-47307500D03*
%TO.P,X3,4,Pin_4*%
%TO.N,/COL*%
X201295000Y-49847500D03*
%TO.P,X3,5,Pin_5*%
%TO.N,+5V*%
X201295000Y-52387500D03*
%TO.P,X3,6,Pin_6*%
%TO.N,GNDD*%
X201295000Y-54927500D03*
%TO.P,X3,7,Pin_7*%
%TO.N,/P12V*%
X201295000Y-57467500D03*
%TD*%
D14*
%TO.P,X2,1,Pin_1*%
%TO.N,/S0*%
X201295001Y-60008277D03*
D15*
%TO.P,X2,2,Pin_2*%
%TO.N,/S1*%
X201295001Y-62548277D03*
%TO.P,X2,3,Pin_3*%
%TO.N,/S2*%
X201295001Y-65088277D03*
%TO.P,X2,4,Pin_4*%
%TO.N,/D0*%
X201295001Y-67628277D03*
%TO.P,X2,5,Pin_5*%
%TO.N,/D1*%
X201295001Y-70168277D03*
%TO.P,X2,6,Pin_6*%
%TO.N,/D2*%
X201295001Y-72708277D03*
%TO.P,X2,7,Pin_7*%
%TO.N,/D3*%
X201295001Y-75248277D03*
%TD*%
D38*
%TO.N,GNDD*%
X184150000Y-57150000D03*
X195665000Y-57065000D03*
X153352500Y-73342500D03*
X173672500Y-57467500D03*
X189547500Y-57150000D03*
X176847500Y-40322500D03*
X183832500Y-73342500D03*
X153352500Y-58737500D03*
X173672500Y-65087500D03*
X155257500Y-47942500D03*
X180975000Y-65087500D03*
X164147500Y-47942500D03*
%TO.N,+3V3*%
X198120000Y-46990000D03*
X190182500Y-48260000D03*
X194627500Y-60960000D03*
X194630000Y-66037500D03*
X194627500Y-76200000D03*
X194627500Y-71120000D03*
%TO.N,+5V*%
X197802500Y-52387500D03*
X196215000Y-46990000D03*
X184467500Y-46990000D03*
%TO.N,/S0L*%
X167322500Y-56832500D03*
%TO.N,/S1L*%
X194627500Y-62865000D03*
X167322500Y-58737500D03*
%TO.N,/S2L*%
X167322500Y-65087500D03*
%TO.N,/D0L*%
X154622500Y-60325000D03*
X194627500Y-67945000D03*
%TO.N,/D1L*%
X164147500Y-69532500D03*
%TO.N,/D2L*%
X166052500Y-69532500D03*
X194627500Y-73025000D03*
%TO.N,/D3L*%
X167957500Y-69532500D03*
%TO.N,/alarm*%
X165417500Y-62230000D03*
X182880000Y-60960000D03*
%TO.N,/KEYL*%
X174942500Y-53657500D03*
X174942500Y-46672500D03*
X168910000Y-53022500D03*
%TO.N,/RST*%
X174942500Y-72072500D03*
X156540000Y-70155000D03*
%TO.N,/SDA*%
X154622500Y-64452500D03*
%TO.N,/SCL*%
X154622500Y-62230000D03*
%TO.N,/UBATSense*%
X173355000Y-46672500D03*
X158432500Y-54610000D03*
X173355000Y-49847500D03*
%TO.N,/DP*%
X160972500Y-54610000D03*
%TO.N,/COL*%
X163830000Y-54610000D03*
%TD*%
D39*
%TO.N,GNDD*%
X195665000Y-55245000D02*
X197717500Y-55245000D01*
X189462500Y-57065000D02*
X189547500Y-57150000D01*
X195262500Y-49530000D02*
X194395000Y-49530000D01*
X153377500Y-67570000D02*
X153377500Y-59690000D01*
X189462500Y-55245000D02*
X189462500Y-53700000D01*
X196167500Y-49530000D02*
X195262500Y-49530000D01*
X195262500Y-54842500D02*
X195665000Y-55245000D01*
X195665000Y-57065000D02*
X195665000Y-55245000D01*
X197717500Y-55245000D02*
X197802500Y-55160000D01*
X195262500Y-49530000D02*
X195262500Y-54842500D01*
X153377500Y-59690000D02*
X153377500Y-58762500D01*
X184147500Y-57152500D02*
X184150000Y-57150000D01*
X195982500Y-54927500D02*
X195665000Y-55245000D01*
X194395000Y-49530000D02*
X194395000Y-47392500D01*
X181912500Y-57152500D02*
X176917500Y-57152500D01*
X194395000Y-47392500D02*
X193715000Y-46712500D01*
X189462500Y-55245000D02*
X189462500Y-57065000D01*
X153377500Y-67570000D02*
X153352500Y-73342500D01*
X193715000Y-46712500D02*
X193715000Y-43815000D01*
X153352500Y-58737500D02*
X153377500Y-58712500D01*
X183832500Y-69373750D02*
X189547500Y-63658750D01*
X153377500Y-58762500D02*
X153352500Y-58737500D01*
X153352500Y-73342500D02*
X153377500Y-73317500D01*
X176917500Y-57152500D02*
X176847500Y-57222500D01*
X189547500Y-63658750D02*
X189547500Y-57150000D01*
X189462500Y-53700000D02*
X190227500Y-52935000D01*
X181912500Y-57152500D02*
X184147500Y-57152500D01*
X184150000Y-57150000D02*
X183832500Y-57150000D01*
X176847500Y-57222500D02*
X176847500Y-61187500D01*
X153377500Y-58712500D02*
X153377500Y-50070000D01*
X183832500Y-57150000D02*
X183830000Y-57152500D01*
X183832500Y-73342500D02*
X183832500Y-69373750D01*
X176847500Y-40322500D02*
X176847500Y-41820000D01*
X183832500Y-73342500D02*
X183832500Y-75247500D01*
%TO.N,Net-(D1-K)*%
X184785000Y-51435000D02*
X186055000Y-51435000D01*
X191452500Y-55330000D02*
X191537500Y-55245000D01*
X182562500Y-51435000D02*
X182562500Y-51435000D01*
X192310000Y-51435000D02*
X193262500Y-52387500D01*
X182562500Y-46990000D02*
X182562500Y-51435000D01*
X193675000Y-52292500D02*
X193580000Y-52387500D01*
X182562500Y-55090000D02*
X182717500Y-55245000D01*
X187960000Y-51435000D02*
X190140000Y-51435000D01*
X191537500Y-55245000D02*
X193590000Y-55245000D01*
X193580000Y-52387500D02*
X193262500Y-52387500D01*
X193590000Y-55245000D02*
X193590000Y-52715000D01*
X193590000Y-52715000D02*
X193262500Y-52387500D01*
X191452500Y-62865000D02*
X191452500Y-55330000D01*
X182562500Y-51435000D02*
X184467500Y-51435000D01*
X186055000Y-51435000D02*
X187960000Y-51435000D01*
X190140000Y-51435000D02*
X192310000Y-51435000D01*
X182562500Y-46990000D02*
X182577500Y-46975000D01*
X182562500Y-51435000D02*
X182562500Y-55090000D01*
X184467500Y-51435000D02*
X184785000Y-51435000D01*
X182577500Y-44767500D02*
X182562500Y-46990000D01*
%TO.N,+3V3*%
X198120000Y-46990000D02*
X199707500Y-48577500D01*
X190227500Y-49935000D02*
X191915000Y-49935000D01*
X190182500Y-48260000D02*
X190227500Y-48305000D01*
X181657500Y-77152500D02*
X181657500Y-72072500D01*
X193357500Y-62230000D02*
X193357500Y-66040000D01*
D40*
X195270000Y-66677500D02*
X194630000Y-66037500D01*
D39*
X171450000Y-41862500D02*
X169862500Y-40275000D01*
D40*
X196547500Y-66677500D02*
X195270000Y-66677500D01*
D39*
X197802500Y-59690000D02*
X196532500Y-60960000D01*
X194627500Y-60960000D02*
X193357500Y-62230000D01*
X196532500Y-60960000D02*
X194627500Y-60960000D01*
X171402500Y-73295000D02*
X171402500Y-72072500D01*
D40*
X194630000Y-66037500D02*
X194627500Y-66040000D01*
X196547500Y-60975000D02*
X196532500Y-60960000D01*
D39*
X154647500Y-67570000D02*
X154647500Y-71462500D01*
X197802500Y-57235000D02*
X197802500Y-59690000D01*
X171402500Y-72072500D02*
X169275000Y-72072500D01*
X194627500Y-66040000D02*
X193357500Y-66040000D01*
X193357500Y-66040000D02*
X193357500Y-71120000D01*
X190227500Y-49935000D02*
X190182500Y-48260000D01*
X199707500Y-55330000D02*
X197802500Y-57235000D01*
X199707500Y-48577500D02*
X199707500Y-55330000D01*
X186372500Y-71845000D02*
X186372500Y-75247500D01*
X186372500Y-77152500D02*
X192405000Y-77152500D01*
X172085000Y-77152500D02*
X172085000Y-73977500D01*
X160337500Y-77152500D02*
X179387500Y-77152500D01*
D40*
X196547500Y-61597500D02*
X196547500Y-60975000D01*
D39*
X186372500Y-77152500D02*
X179387500Y-77152500D01*
X169862500Y-40275000D02*
X164512500Y-40275000D01*
X193357500Y-71120000D02*
X193357500Y-76200000D01*
X194627500Y-71120000D02*
X193357500Y-71120000D01*
X186372500Y-75247500D02*
X186372500Y-77152500D01*
X164512500Y-40275000D02*
X162242500Y-42545000D01*
D40*
X195267500Y-71760000D02*
X194627500Y-71120000D01*
D39*
X172085000Y-73977500D02*
X171402500Y-73295000D01*
X191915000Y-49935000D02*
X192320000Y-49530000D01*
X179387500Y-77152500D02*
X179387500Y-75247500D01*
X193357500Y-76200000D02*
X194627500Y-76200000D01*
X192405000Y-77152500D02*
X193357500Y-76200000D01*
X154647500Y-71462500D02*
X160337500Y-77152500D01*
D40*
X196532500Y-71760000D02*
X195267500Y-71760000D01*
D39*
%TO.N,+5V*%
X196215000Y-46990000D02*
X198167500Y-48942500D01*
D40*
X184467500Y-46990000D02*
X184452500Y-46975000D01*
D39*
X198167500Y-51482500D02*
X197262500Y-52387500D01*
D40*
X203358750Y-52387500D02*
X201295000Y-52387500D01*
D39*
X198167500Y-48942500D02*
X198167500Y-49530000D01*
X198167500Y-49530000D02*
X198167500Y-51482500D01*
D40*
X205787500Y-75247500D02*
X205787500Y-60007500D01*
D39*
X196215000Y-46990000D02*
X196215000Y-43815000D01*
D40*
X205787500Y-60007500D02*
X205787500Y-54816250D01*
D39*
X197802500Y-52387500D02*
X197262500Y-52387500D01*
D40*
X184452500Y-45717500D02*
X184467500Y-46990000D01*
X205787500Y-54816250D02*
X203358750Y-52387500D01*
%TO.N,Net-(D2-A)*%
X176847500Y-55172500D02*
X176847500Y-52657500D01*
X176847500Y-52657500D02*
X175942500Y-51752500D01*
D39*
%TO.N,Net-(D3-A)*%
X186475000Y-62842500D02*
X186452500Y-62865000D01*
X186475000Y-59055000D02*
X186475000Y-62842500D01*
X180037500Y-58102500D02*
X183197500Y-58102500D01*
X183832500Y-58737500D02*
X186475000Y-58737500D01*
X186475000Y-55245000D02*
X186475000Y-59055000D01*
X183197500Y-58102500D02*
X183832500Y-58737500D01*
D40*
%TO.N,Net-(JP1-B)*%
X188912500Y-70437500D02*
X186415000Y-70437500D01*
X186415000Y-70437500D02*
X186372500Y-70395000D01*
X191452500Y-70437500D02*
X188912500Y-70437500D01*
%TO.N,/S0*%
X201295001Y-60008277D02*
X203786723Y-60008277D01*
X203786723Y-60008277D02*
X203787500Y-60007500D01*
%TO.N,/S0L*%
X167322500Y-56832500D02*
X167347500Y-56807500D01*
X167347500Y-56807500D02*
X167347500Y-50070000D01*
%TO.N,/S1L*%
X195260000Y-63497500D02*
X196547500Y-63497500D01*
X194627500Y-62865000D02*
X195260000Y-63497500D01*
X166077500Y-57492500D02*
X166077500Y-50070000D01*
X167322500Y-58737500D02*
X166077500Y-57492500D01*
%TO.N,/S1*%
X201294224Y-62547500D02*
X201295001Y-62548277D01*
X203786723Y-62548277D02*
X203787500Y-62547500D01*
X201295001Y-62548277D02*
X203786723Y-62548277D01*
X198422500Y-62547500D02*
X201294224Y-62547500D01*
%TO.N,/S2L*%
X167322500Y-60960000D02*
X165417500Y-59055000D01*
X165417500Y-59055000D02*
X165417500Y-53022500D01*
X163537500Y-51142500D02*
X163537500Y-50070000D01*
X167322500Y-65087500D02*
X167322500Y-60960000D01*
X165417500Y-53022500D02*
X163537500Y-51142500D01*
%TO.N,/S2*%
X203786723Y-65088277D02*
X203787500Y-65087500D01*
X201295001Y-65088277D02*
X203786723Y-65088277D01*
%TO.N,/D0L*%
X154647500Y-50070000D02*
X154647500Y-60300000D01*
X196547500Y-68577500D02*
X195260000Y-68577500D01*
X195260000Y-68577500D02*
X194627500Y-67945000D01*
X154647500Y-60300000D02*
X154622500Y-60325000D01*
%TO.N,/D0*%
X198422500Y-67627500D02*
X201294224Y-67627500D01*
X201295001Y-67628277D02*
X203786723Y-67628277D01*
X203786723Y-67628277D02*
X203787500Y-67627500D01*
X201294224Y-67627500D02*
X201295001Y-67628277D01*
%TO.N,/D1*%
X203786723Y-70168277D02*
X203787500Y-70167500D01*
X201295001Y-70168277D02*
X203786723Y-70168277D01*
%TO.N,/D1L*%
X164807500Y-67570000D02*
X164807500Y-68872500D01*
X164807500Y-68872500D02*
X164147500Y-69532500D01*
%TO.N,/D2*%
X201293278Y-72710000D02*
X201295001Y-72708277D01*
X201295778Y-72707500D02*
X201295001Y-72708277D01*
X203787500Y-72707500D02*
X201295778Y-72707500D01*
X198407500Y-72710000D02*
X201293278Y-72710000D01*
%TO.N,/D2L*%
X166077500Y-69507500D02*
X166052500Y-69532500D01*
X166077500Y-67570000D02*
X166077500Y-69507500D01*
X195262500Y-73660000D02*
X194627500Y-73025000D01*
X196532500Y-73660000D02*
X195262500Y-73660000D01*
%TO.N,/D3*%
X201295001Y-75248277D02*
X203786723Y-75248277D01*
X203786723Y-75248277D02*
X203787500Y-75247500D01*
%TO.N,/D3L*%
X167347500Y-67570000D02*
X167347500Y-68922500D01*
X167347500Y-68922500D02*
X167957500Y-69532500D01*
%TO.N,/alarm*%
X164147500Y-60007500D02*
X164147500Y-56515000D01*
X164147500Y-56515000D02*
X162267500Y-54635000D01*
X182880000Y-60960000D02*
X181912500Y-59992500D01*
X165417500Y-62230000D02*
X165417500Y-61277500D01*
X162267500Y-54635000D02*
X162267500Y-50070000D01*
X165417500Y-61277500D02*
X164147500Y-60007500D01*
X181912500Y-59992500D02*
X181912500Y-59052500D01*
D39*
%TO.N,+BATT*%
X188712500Y-43817500D02*
X188715000Y-43815000D01*
X184452500Y-43817500D02*
X188712500Y-43817500D01*
D40*
%TO.N,/KEYL*%
X168910000Y-67277500D02*
X168617500Y-67570000D01*
X168910000Y-53022500D02*
X168910000Y-67277500D01*
X174942500Y-46672500D02*
X174942500Y-53657500D01*
%TO.N,/snooze*%
X169545000Y-54912500D02*
X170087500Y-54370000D01*
X171132500Y-69215000D02*
X171132500Y-66675000D01*
X167322500Y-75247500D02*
X167322500Y-72120000D01*
X171132500Y-66675000D02*
X169545000Y-65087500D01*
X167275000Y-72072500D02*
X168862500Y-70485000D01*
X168862500Y-70485000D02*
X169862500Y-70485000D01*
X169862500Y-70485000D02*
X171132500Y-69215000D01*
X169545000Y-65087500D02*
X169545000Y-54912500D01*
X170087500Y-54370000D02*
X171137500Y-54370000D01*
X167322500Y-72120000D02*
X167275000Y-72072500D01*
%TO.N,/BootSel*%
X169887500Y-45425000D02*
X171450000Y-43862500D01*
X169887500Y-50070000D02*
X169887500Y-45425000D01*
X171450000Y-43862500D02*
X173672500Y-43862500D01*
%TO.N,/RST*%
X173355000Y-69897500D02*
X173355000Y-72025000D01*
X155917500Y-69532500D02*
X155917500Y-67570000D01*
X173402500Y-72072500D02*
X174942500Y-72072500D01*
X173355000Y-72025000D02*
X173402500Y-72072500D01*
X156540000Y-70155000D02*
X155917500Y-69532500D01*
%TO.N,Net-(R16-Pad2)*%
X176847500Y-49620000D02*
X176847500Y-45037500D01*
X176847500Y-45037500D02*
X173672500Y-41862500D01*
%TO.N,Net-(R17-Pad2)*%
X173355000Y-67897500D02*
X175757500Y-67897500D01*
X175757500Y-67897500D02*
X176847500Y-68987500D01*
%TO.N,/SDA*%
X157162500Y-61912500D02*
X154622500Y-64452500D01*
X159727500Y-51410000D02*
X157162500Y-53975000D01*
X157162500Y-53975000D02*
X157162500Y-61912500D01*
X188912500Y-72437500D02*
X188912500Y-75247500D01*
X159727500Y-50070000D02*
X159727500Y-51410000D01*
%TO.N,/SCL*%
X155917500Y-53365000D02*
X156527500Y-53975000D01*
X191452500Y-72437500D02*
X191452500Y-75247500D01*
X156527500Y-53975000D02*
X156527500Y-60325000D01*
X156527500Y-60325000D02*
X154622500Y-62230000D01*
X155917500Y-50070000D02*
X155917500Y-53365000D01*
%TO.N,/Dallas*%
X179705000Y-68897500D02*
X174067500Y-63260000D01*
X179657500Y-72072500D02*
X176847500Y-74882500D01*
X179657500Y-72072500D02*
X179705000Y-72025000D01*
X174067500Y-63260000D02*
X171137500Y-63260000D01*
X176847500Y-74882500D02*
X176847500Y-75247500D01*
X179705000Y-72025000D02*
X179705000Y-68897500D01*
%TO.N,/LED_Diag*%
X168617500Y-51120000D02*
X168617500Y-50070000D01*
X173942500Y-51752500D02*
X173942500Y-51800000D01*
X169250000Y-51752500D02*
X168617500Y-51120000D01*
X173942500Y-51752500D02*
X169250000Y-51752500D01*
%TO.N,/UBATSense*%
X157797500Y-55245000D02*
X157797500Y-61912500D01*
X157797500Y-61912500D02*
X159727500Y-63842500D01*
X159727500Y-63842500D02*
X159727500Y-67570000D01*
X173355000Y-49847500D02*
X173355000Y-46672500D01*
X158432500Y-54610000D02*
X157797500Y-55245000D01*
%TO.N,/RX*%
X158457500Y-43790000D02*
X159702500Y-42545000D01*
X158457500Y-50070000D02*
X158457500Y-43790000D01*
%TO.N,/DP*%
X160972500Y-54610000D02*
X163512500Y-57150000D01*
X163512500Y-57150000D02*
X163512500Y-62230000D01*
X163512500Y-62230000D02*
X162267500Y-63475000D01*
X162267500Y-63475000D02*
X162267500Y-67570000D01*
%TO.N,/TX*%
X157187500Y-50070000D02*
X157187500Y-42570000D01*
X157187500Y-42570000D02*
X157162500Y-42545000D01*
%TO.N,/COL*%
X166687500Y-63080000D02*
X163537500Y-66230000D01*
X163537500Y-66230000D02*
X163537500Y-67570000D01*
X164782500Y-55562500D02*
X164782500Y-59567303D01*
X164782500Y-59567303D02*
X166687500Y-61472303D01*
X166687500Y-61472303D02*
X166687500Y-63080000D01*
X163830000Y-54610000D02*
X164782500Y-55562500D01*
%TD*%
%TA.AperFunction,Conductor*%
%TO.N,GNDD*%
G36*
X163940808Y-39572685D02*
G01*
X163986563Y-39625489D01*
X163996507Y-39694647D01*
X163967482Y-39758203D01*
X163961450Y-39764681D01*
X162554000Y-41172130D01*
X162492677Y-41205615D01*
X162455512Y-41207977D01*
X162242502Y-41189341D01*
X162242499Y-41189341D01*
X162007096Y-41209936D01*
X162007086Y-41209938D01*
X161778844Y-41271094D01*
X161778835Y-41271098D01*
X161564671Y-41370964D01*
X161564669Y-41370965D01*
X161371097Y-41506505D01*
X161204005Y-41673597D01*
X161074075Y-41859158D01*
X161019498Y-41902783D01*
X160950000Y-41909977D01*
X160887645Y-41878454D01*
X160870925Y-41859158D01*
X160740994Y-41673597D01*
X160573902Y-41506506D01*
X160573895Y-41506501D01*
X160380334Y-41370967D01*
X160380330Y-41370965D01*
X160356179Y-41359703D01*
X160166163Y-41271097D01*
X160166159Y-41271096D01*
X160166155Y-41271094D01*
X159937913Y-41209938D01*
X159937903Y-41209936D01*
X159702501Y-41189341D01*
X159702499Y-41189341D01*
X159467096Y-41209936D01*
X159467086Y-41209938D01*
X159238844Y-41271094D01*
X159238835Y-41271098D01*
X159024671Y-41370964D01*
X159024669Y-41370965D01*
X158831097Y-41506505D01*
X158664005Y-41673597D01*
X158534075Y-41859158D01*
X158479498Y-41902783D01*
X158410000Y-41909977D01*
X158347645Y-41878454D01*
X158330925Y-41859158D01*
X158200994Y-41673597D01*
X158033902Y-41506506D01*
X158033895Y-41506501D01*
X157840334Y-41370967D01*
X157840330Y-41370965D01*
X157816179Y-41359703D01*
X157626163Y-41271097D01*
X157626159Y-41271096D01*
X157626155Y-41271094D01*
X157397913Y-41209938D01*
X157397903Y-41209936D01*
X157162501Y-41189341D01*
X157162499Y-41189341D01*
X156927096Y-41209936D01*
X156927086Y-41209938D01*
X156698844Y-41271094D01*
X156698835Y-41271098D01*
X156484671Y-41370964D01*
X156484669Y-41370965D01*
X156291100Y-41506503D01*
X156169173Y-41628430D01*
X156107850Y-41661914D01*
X156038158Y-41656930D01*
X155982225Y-41615058D01*
X155965310Y-41584081D01*
X155916297Y-41452671D01*
X155916293Y-41452664D01*
X155830047Y-41337455D01*
X155830044Y-41337452D01*
X155714835Y-41251206D01*
X155714828Y-41251202D01*
X155579982Y-41200908D01*
X155579983Y-41200908D01*
X155520383Y-41194501D01*
X155520381Y-41194500D01*
X155520373Y-41194500D01*
X155520364Y-41194500D01*
X153724629Y-41194500D01*
X153724623Y-41194501D01*
X153665016Y-41200908D01*
X153530171Y-41251202D01*
X153530164Y-41251206D01*
X153414955Y-41337452D01*
X153414952Y-41337455D01*
X153328706Y-41452664D01*
X153328702Y-41452671D01*
X153278408Y-41587517D01*
X153272001Y-41647116D01*
X153272000Y-41647135D01*
X153272000Y-43442870D01*
X153272001Y-43442876D01*
X153278408Y-43502483D01*
X153328702Y-43637328D01*
X153328706Y-43637335D01*
X153414952Y-43752544D01*
X153414955Y-43752547D01*
X153530164Y-43838793D01*
X153530171Y-43838797D01*
X153665017Y-43889091D01*
X153665016Y-43889091D01*
X153671944Y-43889835D01*
X153724627Y-43895500D01*
X155520372Y-43895499D01*
X155579983Y-43889091D01*
X155714831Y-43838796D01*
X155830046Y-43752546D01*
X155916296Y-43637331D01*
X155965310Y-43505916D01*
X156007181Y-43449984D01*
X156072645Y-43425566D01*
X156140918Y-43440417D01*
X156169173Y-43461569D01*
X156291097Y-43583493D01*
X156291103Y-43583498D01*
X156317250Y-43601806D01*
X156484124Y-43718653D01*
X156527748Y-43773228D01*
X156537000Y-43820226D01*
X156537000Y-48695500D01*
X156517315Y-48762539D01*
X156464511Y-48808294D01*
X156413000Y-48819500D01*
X155419629Y-48819500D01*
X155419623Y-48819501D01*
X155360018Y-48825908D01*
X155325831Y-48838659D01*
X155256139Y-48843642D01*
X155239169Y-48838659D01*
X155221640Y-48832121D01*
X155204983Y-48825909D01*
X155204982Y-48825908D01*
X155145383Y-48819501D01*
X155145381Y-48819500D01*
X155145373Y-48819500D01*
X155145364Y-48819500D01*
X154149629Y-48819500D01*
X154149623Y-48819501D01*
X154090020Y-48825908D01*
X154090017Y-48825908D01*
X154090017Y-48825909D01*
X154055120Y-48838925D01*
X154055117Y-48838926D01*
X153985425Y-48843909D01*
X153968452Y-48838925D01*
X153934879Y-48826403D01*
X153934872Y-48826401D01*
X153875344Y-48820000D01*
X153627500Y-48820000D01*
X153627500Y-51320000D01*
X153873000Y-51320000D01*
X153940039Y-51339685D01*
X153985794Y-51392489D01*
X153997000Y-51444000D01*
X153997000Y-59351309D01*
X153977315Y-59418348D01*
X153956538Y-59442946D01*
X153805737Y-59580418D01*
X153682827Y-59743178D01*
X153591922Y-59925739D01*
X153591917Y-59925752D01*
X153536102Y-60121917D01*
X153517285Y-60324999D01*
X153517285Y-60325000D01*
X153536102Y-60528082D01*
X153591917Y-60724247D01*
X153591922Y-60724260D01*
X153682827Y-60906821D01*
X153805737Y-61069581D01*
X153933293Y-61185863D01*
X153969575Y-61245574D01*
X153967814Y-61315422D01*
X153933293Y-61369137D01*
X153805737Y-61485418D01*
X153682827Y-61648178D01*
X153591922Y-61830739D01*
X153591917Y-61830752D01*
X153536102Y-62026917D01*
X153517285Y-62229999D01*
X153517285Y-62230000D01*
X153536102Y-62433082D01*
X153591917Y-62629247D01*
X153591922Y-62629260D01*
X153682827Y-62811821D01*
X153805737Y-62974581D01*
X153956458Y-63111980D01*
X153956460Y-63111982D01*
X154045113Y-63166873D01*
X154129863Y-63219348D01*
X154129868Y-63219349D01*
X154129870Y-63219351D01*
X154146062Y-63225624D01*
X154201463Y-63268197D01*
X154225053Y-63333964D01*
X154209341Y-63402044D01*
X154159317Y-63450823D01*
X154146062Y-63456876D01*
X154129870Y-63463148D01*
X154129857Y-63463155D01*
X153956460Y-63570517D01*
X153956458Y-63570519D01*
X153805737Y-63707918D01*
X153682827Y-63870678D01*
X153591922Y-64053239D01*
X153591917Y-64053252D01*
X153536102Y-64249417D01*
X153517285Y-64452499D01*
X153517285Y-64452500D01*
X153536102Y-64655582D01*
X153591917Y-64851747D01*
X153591922Y-64851760D01*
X153682827Y-65034321D01*
X153805737Y-65197081D01*
X153956458Y-65334480D01*
X153956460Y-65334482D01*
X153960829Y-65337187D01*
X154129863Y-65441848D01*
X154320044Y-65515524D01*
X154520524Y-65553000D01*
X154520526Y-65553000D01*
X154724474Y-65553000D01*
X154724476Y-65553000D01*
X154924956Y-65515524D01*
X155115137Y-65441848D01*
X155288541Y-65334481D01*
X155439264Y-65197079D01*
X155562173Y-65034321D01*
X155653082Y-64851750D01*
X155708897Y-64655583D01*
X155727715Y-64452500D01*
X155717373Y-64340900D01*
X155730787Y-64272335D01*
X155753160Y-64241784D01*
X157392319Y-62602626D01*
X157453642Y-62569141D01*
X157523334Y-62574125D01*
X157567681Y-62602626D01*
X159040681Y-64075626D01*
X159074166Y-64136949D01*
X159077000Y-64163307D01*
X159077000Y-66195500D01*
X159057315Y-66262539D01*
X159004511Y-66308294D01*
X158953000Y-66319500D01*
X157959629Y-66319500D01*
X157959623Y-66319501D01*
X157900018Y-66325908D01*
X157865831Y-66338659D01*
X157796139Y-66343642D01*
X157779169Y-66338659D01*
X157761640Y-66332121D01*
X157744983Y-66325909D01*
X157744982Y-66325908D01*
X157685383Y-66319501D01*
X157685381Y-66319500D01*
X157685373Y-66319500D01*
X157685364Y-66319500D01*
X156689629Y-66319500D01*
X156689623Y-66319501D01*
X156630018Y-66325908D01*
X156595831Y-66338659D01*
X156526139Y-66343642D01*
X156509169Y-66338659D01*
X156491640Y-66332121D01*
X156474983Y-66325909D01*
X156474982Y-66325908D01*
X156415383Y-66319501D01*
X156415381Y-66319500D01*
X156415373Y-66319500D01*
X156415364Y-66319500D01*
X155419629Y-66319500D01*
X155419623Y-66319501D01*
X155360018Y-66325908D01*
X155325831Y-66338659D01*
X155256139Y-66343642D01*
X155239169Y-66338659D01*
X155221640Y-66332121D01*
X155204983Y-66325909D01*
X155204982Y-66325908D01*
X155145383Y-66319501D01*
X155145381Y-66319500D01*
X155145373Y-66319500D01*
X155145364Y-66319500D01*
X154149629Y-66319500D01*
X154149623Y-66319501D01*
X154090020Y-66325908D01*
X154090017Y-66325908D01*
X154090017Y-66325909D01*
X154055120Y-66338925D01*
X154055117Y-66338926D01*
X153985425Y-66343909D01*
X153968452Y-66338925D01*
X153934879Y-66326403D01*
X153934872Y-66326401D01*
X153875344Y-66320000D01*
X153627500Y-66320000D01*
X153627500Y-68820000D01*
X153773000Y-68820000D01*
X153840039Y-68839685D01*
X153885794Y-68892489D01*
X153897000Y-68944000D01*
X153897000Y-71536418D01*
X153897000Y-71536420D01*
X153896999Y-71536420D01*
X153925840Y-71681407D01*
X153925843Y-71681417D01*
X153982413Y-71817990D01*
X153982414Y-71817991D01*
X153982416Y-71817995D01*
X153995032Y-71836876D01*
X154040674Y-71905186D01*
X154064551Y-71940920D01*
X154064552Y-71940921D01*
X159859080Y-77735448D01*
X159859084Y-77735451D01*
X159981998Y-77817580D01*
X159982011Y-77817587D01*
X160118582Y-77874156D01*
X160118587Y-77874158D01*
X160118591Y-77874158D01*
X160118592Y-77874159D01*
X160263579Y-77903000D01*
X160263582Y-77903000D01*
X192478920Y-77903000D01*
X192576462Y-77883596D01*
X192623913Y-77874158D01*
X192760495Y-77817584D01*
X192809729Y-77784686D01*
X192883416Y-77735452D01*
X193632048Y-76986818D01*
X193693371Y-76953334D01*
X193719729Y-76950500D01*
X193769193Y-76950500D01*
X193836232Y-76970185D01*
X193852731Y-76982863D01*
X193961458Y-77081980D01*
X193961460Y-77081982D01*
X194060641Y-77143392D01*
X194134863Y-77189348D01*
X194325044Y-77263024D01*
X194525524Y-77300500D01*
X194525526Y-77300500D01*
X194729474Y-77300500D01*
X194729476Y-77300500D01*
X194929956Y-77263024D01*
X195120137Y-77189348D01*
X195293541Y-77081981D01*
X195444264Y-76944579D01*
X195567173Y-76781821D01*
X195658082Y-76599250D01*
X195713897Y-76403083D01*
X195732715Y-76200000D01*
X195729292Y-76163064D01*
X195713897Y-75996917D01*
X195710157Y-75983773D01*
X195658082Y-75800750D01*
X195654656Y-75793870D01*
X195581822Y-75647599D01*
X195567173Y-75618179D01*
X195444264Y-75455421D01*
X195444262Y-75455418D01*
X195293541Y-75318019D01*
X195293539Y-75318017D01*
X195120142Y-75210655D01*
X195120135Y-75210651D01*
X195025046Y-75173814D01*
X194929956Y-75136976D01*
X194729476Y-75099500D01*
X194525524Y-75099500D01*
X194325044Y-75136976D01*
X194325042Y-75136976D01*
X194325040Y-75136977D01*
X194276794Y-75155668D01*
X194207170Y-75161530D01*
X194145430Y-75128820D01*
X194111175Y-75067923D01*
X194108000Y-75040041D01*
X194108000Y-74184958D01*
X194127685Y-74117919D01*
X194180489Y-74072164D01*
X194249647Y-74062220D01*
X194276792Y-74069331D01*
X194289985Y-74074442D01*
X194325038Y-74088022D01*
X194325039Y-74088022D01*
X194325044Y-74088024D01*
X194525524Y-74125500D01*
X194525526Y-74125500D01*
X194729472Y-74125500D01*
X194729476Y-74125500D01*
X194731421Y-74125136D01*
X194732368Y-74125232D01*
X194735186Y-74124971D01*
X194735237Y-74125521D01*
X194800933Y-74132161D01*
X194841895Y-74159342D01*
X194847825Y-74165272D01*
X194847832Y-74165278D01*
X194954363Y-74236459D01*
X194954365Y-74236460D01*
X194954374Y-74236466D01*
X194954380Y-74236468D01*
X194954383Y-74236470D01*
X194981671Y-74247773D01*
X194981677Y-74247775D01*
X194981682Y-74247777D01*
X195072756Y-74285501D01*
X195072760Y-74285501D01*
X195072761Y-74285502D01*
X195198428Y-74310500D01*
X195198431Y-74310500D01*
X195479484Y-74310500D01*
X195542605Y-74327768D01*
X195597018Y-74359947D01*
X195684602Y-74411744D01*
X195718950Y-74421723D01*
X195842426Y-74457597D01*
X195842429Y-74457597D01*
X195842431Y-74457598D01*
X195879306Y-74460500D01*
X195879314Y-74460500D01*
X197185686Y-74460500D01*
X197185694Y-74460500D01*
X197222569Y-74457598D01*
X197222571Y-74457597D01*
X197222573Y-74457597D01*
X197264191Y-74445505D01*
X197380398Y-74411744D01*
X197521865Y-74328081D01*
X197638081Y-74211865D01*
X197721744Y-74070398D01*
X197762162Y-73931279D01*
X197767597Y-73912573D01*
X197767598Y-73912567D01*
X197767608Y-73912436D01*
X197770500Y-73875694D01*
X197770500Y-73634500D01*
X197790185Y-73567461D01*
X197842989Y-73521706D01*
X197894500Y-73510500D01*
X199060686Y-73510500D01*
X199060694Y-73510500D01*
X199097569Y-73507598D01*
X199097571Y-73507597D01*
X199097573Y-73507597D01*
X199139191Y-73495505D01*
X199255398Y-73461744D01*
X199393262Y-73380212D01*
X199397395Y-73377768D01*
X199460516Y-73360500D01*
X200038485Y-73360500D01*
X200105524Y-73380185D01*
X200140059Y-73413375D01*
X200256506Y-73579678D01*
X200256507Y-73579679D01*
X200423598Y-73746770D01*
X200423604Y-73746775D01*
X200609159Y-73876702D01*
X200652784Y-73931279D01*
X200659978Y-74000777D01*
X200628455Y-74063132D01*
X200609159Y-74079852D01*
X200423598Y-74209782D01*
X200256506Y-74376874D01*
X200120966Y-74570446D01*
X200120965Y-74570448D01*
X200021099Y-74784612D01*
X200021095Y-74784621D01*
X199959939Y-75012863D01*
X199959937Y-75012873D01*
X199939342Y-75248276D01*
X199939342Y-75248277D01*
X199959937Y-75483680D01*
X199959939Y-75483690D01*
X200021095Y-75711932D01*
X200021097Y-75711936D01*
X200021098Y-75711940D01*
X200039206Y-75750772D01*
X200120966Y-75926107D01*
X200120968Y-75926111D01*
X200184495Y-76016836D01*
X200256506Y-76119678D01*
X200423600Y-76286772D01*
X200448717Y-76304359D01*
X200617166Y-76422309D01*
X200617168Y-76422310D01*
X200617171Y-76422312D01*
X200831338Y-76522180D01*
X201059593Y-76583340D01*
X201241407Y-76599247D01*
X201295000Y-76603936D01*
X201295001Y-76603936D01*
X201295002Y-76603936D01*
X201334235Y-76600503D01*
X201530409Y-76583340D01*
X201758664Y-76522180D01*
X201972831Y-76422312D01*
X202166402Y-76286772D01*
X202333496Y-76119678D01*
X202451148Y-75951654D01*
X202505725Y-75908029D01*
X202552723Y-75898777D01*
X202624025Y-75898777D01*
X202691064Y-75918462D01*
X202736819Y-75971266D01*
X202741729Y-75983768D01*
X202752686Y-76016834D01*
X202844788Y-76166156D01*
X202968844Y-76290212D01*
X203118166Y-76382314D01*
X203284703Y-76437499D01*
X203387491Y-76448000D01*
X204187508Y-76447999D01*
X204187516Y-76447998D01*
X204187519Y-76447998D01*
X204243802Y-76442248D01*
X204290297Y-76437499D01*
X204456834Y-76382314D01*
X204606156Y-76290212D01*
X204699819Y-76196549D01*
X204761142Y-76163064D01*
X204830834Y-76168048D01*
X204875181Y-76196549D01*
X204968844Y-76290212D01*
X205118166Y-76382314D01*
X205284703Y-76437499D01*
X205387491Y-76448000D01*
X206187508Y-76447999D01*
X206187516Y-76447998D01*
X206187519Y-76447998D01*
X206243802Y-76442248D01*
X206290297Y-76437499D01*
X206456834Y-76382314D01*
X206606156Y-76290212D01*
X206730212Y-76166156D01*
X206822314Y-76016834D01*
X206877499Y-75850297D01*
X206888000Y-75747509D01*
X206887999Y-74747492D01*
X206887665Y-74744227D01*
X206877499Y-74644703D01*
X206877498Y-74644700D01*
X206856519Y-74581390D01*
X206822314Y-74478166D01*
X206730212Y-74328844D01*
X206606156Y-74204788D01*
X206496902Y-74137400D01*
X206450179Y-74085453D01*
X206438000Y-74031862D01*
X206438000Y-73923138D01*
X206457685Y-73856099D01*
X206496901Y-73817600D01*
X206606156Y-73750212D01*
X206730212Y-73626156D01*
X206822314Y-73476834D01*
X206877499Y-73310297D01*
X206888000Y-73207509D01*
X206887999Y-72207492D01*
X206887406Y-72201691D01*
X206877499Y-72104703D01*
X206877498Y-72104700D01*
X206866828Y-72072500D01*
X206822314Y-71938166D01*
X206730212Y-71788844D01*
X206606156Y-71664788D01*
X206496902Y-71597400D01*
X206450179Y-71545453D01*
X206438000Y-71491862D01*
X206438000Y-71383138D01*
X206457685Y-71316099D01*
X206496901Y-71277600D01*
X206606156Y-71210212D01*
X206730212Y-71086156D01*
X206822314Y-70936834D01*
X206877499Y-70770297D01*
X206888000Y-70667509D01*
X206887999Y-69667492D01*
X206883029Y-69618843D01*
X206877499Y-69564703D01*
X206877498Y-69564700D01*
X206866828Y-69532500D01*
X206822314Y-69398166D01*
X206730212Y-69248844D01*
X206606156Y-69124788D01*
X206496902Y-69057400D01*
X206450179Y-69005453D01*
X206438000Y-68951862D01*
X206438000Y-68843138D01*
X206457685Y-68776099D01*
X206496901Y-68737600D01*
X206606156Y-68670212D01*
X206730212Y-68546156D01*
X206822314Y-68396834D01*
X206877499Y-68230297D01*
X206888000Y-68127509D01*
X206887999Y-67127492D01*
X206877499Y-67024703D01*
X206822314Y-66858166D01*
X206730212Y-66708844D01*
X206606156Y-66584788D01*
X206496902Y-66517400D01*
X206450179Y-66465453D01*
X206438000Y-66411862D01*
X206438000Y-66303138D01*
X206457685Y-66236099D01*
X206496901Y-66197600D01*
X206606156Y-66130212D01*
X206730212Y-66006156D01*
X206822314Y-65856834D01*
X206877499Y-65690297D01*
X206888000Y-65587509D01*
X206887999Y-64587492D01*
X206877499Y-64484703D01*
X206822314Y-64318166D01*
X206730212Y-64168844D01*
X206606156Y-64044788D01*
X206496902Y-63977400D01*
X206450179Y-63925453D01*
X206438000Y-63871862D01*
X206438000Y-63763138D01*
X206457685Y-63696099D01*
X206496901Y-63657600D01*
X206606156Y-63590212D01*
X206730212Y-63466156D01*
X206822314Y-63316834D01*
X206877499Y-63150297D01*
X206888000Y-63047509D01*
X206887999Y-62047492D01*
X206887731Y-62044872D01*
X206877499Y-61944703D01*
X206877498Y-61944700D01*
X206858626Y-61887748D01*
X206822314Y-61778166D01*
X206730212Y-61628844D01*
X206606156Y-61504788D01*
X206496902Y-61437400D01*
X206450179Y-61385453D01*
X206438000Y-61331862D01*
X206438000Y-61223138D01*
X206457685Y-61156099D01*
X206496901Y-61117600D01*
X206606156Y-61050212D01*
X206730212Y-60926156D01*
X206822314Y-60776834D01*
X206877499Y-60610297D01*
X206888000Y-60507509D01*
X206887999Y-59507492D01*
X206883443Y-59462896D01*
X206877499Y-59404703D01*
X206877498Y-59404700D01*
X206876797Y-59402584D01*
X206822314Y-59238166D01*
X206730212Y-59088844D01*
X206606156Y-58964788D01*
X206496902Y-58897400D01*
X206450179Y-58845453D01*
X206438000Y-58791862D01*
X206438000Y-54752178D01*
X206413002Y-54626511D01*
X206413001Y-54626510D01*
X206413001Y-54626506D01*
X206363965Y-54508123D01*
X206363964Y-54508122D01*
X206363961Y-54508116D01*
X206292777Y-54401582D01*
X206253796Y-54362601D01*
X206202169Y-54310974D01*
X205595997Y-53704802D01*
X203773424Y-51882227D01*
X203773423Y-51882226D01*
X203769689Y-51879731D01*
X203666877Y-51811035D01*
X203548494Y-51761999D01*
X203548488Y-51761997D01*
X203422821Y-51737000D01*
X203422819Y-51737000D01*
X202552721Y-51737000D01*
X202485682Y-51717315D01*
X202451146Y-51684123D01*
X202444946Y-51675269D01*
X202397154Y-51607014D01*
X202333494Y-51516097D01*
X202166402Y-51349006D01*
X202166396Y-51349001D01*
X201980842Y-51219075D01*
X201937217Y-51164498D01*
X201930023Y-51095000D01*
X201961546Y-51032645D01*
X201980842Y-51015925D01*
X202007154Y-50997501D01*
X202166401Y-50885995D01*
X202333495Y-50718901D01*
X202469035Y-50525330D01*
X202568903Y-50311163D01*
X202630063Y-50082908D01*
X202650659Y-49847500D01*
X202630063Y-49612092D01*
X202568903Y-49383837D01*
X202469035Y-49169671D01*
X202422297Y-49102921D01*
X202333494Y-48976097D01*
X202166402Y-48809006D01*
X202166396Y-48809001D01*
X201980842Y-48679075D01*
X201937217Y-48624498D01*
X201930023Y-48555000D01*
X201961546Y-48492645D01*
X201980842Y-48475925D01*
X202051851Y-48426204D01*
X202166401Y-48345995D01*
X202333495Y-48178901D01*
X202469035Y-47985330D01*
X202568903Y-47771163D01*
X202630063Y-47542908D01*
X202650659Y-47307500D01*
X202630063Y-47072092D01*
X202568903Y-46843837D01*
X202469035Y-46629671D01*
X202441783Y-46590750D01*
X202333494Y-46436097D01*
X202166402Y-46269006D01*
X202166396Y-46269001D01*
X201980842Y-46139075D01*
X201937217Y-46084498D01*
X201930023Y-46015000D01*
X201961546Y-45952645D01*
X201980842Y-45935925D01*
X202022237Y-45906940D01*
X202166401Y-45805995D01*
X202333495Y-45638901D01*
X202469035Y-45445330D01*
X202568903Y-45231163D01*
X202630063Y-45002908D01*
X202650659Y-44767500D01*
X202630063Y-44532092D01*
X202568903Y-44303837D01*
X202469035Y-44089671D01*
X202447871Y-44059446D01*
X202333496Y-43896100D01*
X202276189Y-43838793D01*
X202211567Y-43774171D01*
X202178084Y-43712851D01*
X202183068Y-43643159D01*
X202224939Y-43587225D01*
X202255915Y-43570310D01*
X202387331Y-43521296D01*
X202502546Y-43435046D01*
X202588796Y-43319831D01*
X202639091Y-43184983D01*
X202645500Y-43125373D01*
X202645499Y-41329628D01*
X202639091Y-41270017D01*
X202638814Y-41269275D01*
X202588797Y-41135171D01*
X202588793Y-41135164D01*
X202502547Y-41019955D01*
X202502544Y-41019952D01*
X202387335Y-40933706D01*
X202387328Y-40933702D01*
X202252482Y-40883408D01*
X202252483Y-40883408D01*
X202192883Y-40877001D01*
X202192881Y-40877000D01*
X202192873Y-40877000D01*
X202192864Y-40877000D01*
X200397129Y-40877000D01*
X200397123Y-40877001D01*
X200337516Y-40883408D01*
X200202671Y-40933702D01*
X200202664Y-40933706D01*
X200087455Y-41019952D01*
X200087452Y-41019955D01*
X200001206Y-41135164D01*
X200001202Y-41135171D01*
X199950908Y-41270017D01*
X199944501Y-41329616D01*
X199944501Y-41329623D01*
X199944500Y-41329635D01*
X199944500Y-43125370D01*
X199944501Y-43125376D01*
X199950908Y-43184983D01*
X200001202Y-43319828D01*
X200001206Y-43319835D01*
X200087452Y-43435044D01*
X200087455Y-43435047D01*
X200202664Y-43521293D01*
X200202671Y-43521297D01*
X200334081Y-43570310D01*
X200390015Y-43612181D01*
X200414432Y-43677645D01*
X200399580Y-43745918D01*
X200378430Y-43774173D01*
X200256503Y-43896100D01*
X200120965Y-44089669D01*
X200120964Y-44089671D01*
X200021098Y-44303835D01*
X200021094Y-44303844D01*
X199959938Y-44532086D01*
X199959936Y-44532096D01*
X199939341Y-44767499D01*
X199939341Y-44767500D01*
X199959936Y-45002903D01*
X199959938Y-45002913D01*
X200021094Y-45231155D01*
X200021096Y-45231159D01*
X200021097Y-45231163D01*
X200079721Y-45356882D01*
X200120965Y-45445330D01*
X200120967Y-45445334D01*
X200256501Y-45638895D01*
X200256506Y-45638902D01*
X200423597Y-45805993D01*
X200423603Y-45805998D01*
X200609158Y-45935925D01*
X200652783Y-45990502D01*
X200659977Y-46060000D01*
X200628454Y-46122355D01*
X200609158Y-46139075D01*
X200423597Y-46269005D01*
X200256505Y-46436097D01*
X200120965Y-46629669D01*
X200120964Y-46629671D01*
X200021098Y-46843835D01*
X200021094Y-46843844D01*
X199959938Y-47072086D01*
X199959936Y-47072096D01*
X199939341Y-47307499D01*
X199939341Y-47307502D01*
X199951879Y-47450814D01*
X199938112Y-47519314D01*
X199889497Y-47569497D01*
X199821468Y-47585430D01*
X199755625Y-47562055D01*
X199740670Y-47549302D01*
X199261351Y-47069983D01*
X199227866Y-47008660D01*
X199225561Y-46993743D01*
X199225214Y-46990004D01*
X199225215Y-46990000D01*
X199206397Y-46786917D01*
X199150582Y-46590750D01*
X199059673Y-46408179D01*
X198957781Y-46273252D01*
X198936762Y-46245418D01*
X198786041Y-46108019D01*
X198786039Y-46108017D01*
X198612642Y-46000655D01*
X198612635Y-46000651D01*
X198445556Y-45935925D01*
X198422456Y-45926976D01*
X198221976Y-45889500D01*
X198018024Y-45889500D01*
X197817544Y-45926976D01*
X197817541Y-45926976D01*
X197817541Y-45926977D01*
X197627364Y-46000651D01*
X197627357Y-46000655D01*
X197453960Y-46108017D01*
X197453958Y-46108019D01*
X197303237Y-46245419D01*
X197266454Y-46294128D01*
X197210345Y-46335764D01*
X197140633Y-46340455D01*
X197079451Y-46306713D01*
X197068546Y-46294128D01*
X197031764Y-46245421D01*
X197005960Y-46221897D01*
X196969680Y-46162185D01*
X196965500Y-46130261D01*
X196965500Y-45370300D01*
X196985185Y-45303261D01*
X197037989Y-45257506D01*
X197050482Y-45252599D01*
X197134334Y-45224814D01*
X197283656Y-45132712D01*
X197407712Y-45008656D01*
X197499814Y-44859334D01*
X197554999Y-44692797D01*
X197565500Y-44590009D01*
X197565499Y-43039992D01*
X197554999Y-42937203D01*
X197499814Y-42770666D01*
X197407712Y-42621344D01*
X197283656Y-42497288D01*
X197134334Y-42405186D01*
X196967797Y-42350001D01*
X196967795Y-42350000D01*
X196865010Y-42339500D01*
X195564998Y-42339500D01*
X195564981Y-42339501D01*
X195462203Y-42350000D01*
X195462200Y-42350001D01*
X195295668Y-42405185D01*
X195295663Y-42405187D01*
X195146342Y-42497289D01*
X195022289Y-42621342D01*
X194926551Y-42776559D01*
X194874603Y-42823283D01*
X194805640Y-42834506D01*
X194741558Y-42806662D01*
X194733331Y-42799143D01*
X194594464Y-42660276D01*
X194594459Y-42660272D01*
X194422557Y-42535379D01*
X194233215Y-42438903D01*
X194031124Y-42373241D01*
X193965000Y-42362768D01*
X193965000Y-43410854D01*
X193898343Y-43372370D01*
X193777535Y-43340000D01*
X193652465Y-43340000D01*
X193531657Y-43372370D01*
X193465000Y-43410854D01*
X193465000Y-42362768D01*
X193464999Y-42362768D01*
X193398875Y-42373241D01*
X193202317Y-42437106D01*
X193132476Y-42439101D01*
X193072644Y-42403020D01*
X193041816Y-42340319D01*
X193040000Y-42319175D01*
X193040000Y-39677000D01*
X193059685Y-39609961D01*
X193112489Y-39564206D01*
X193164000Y-39553000D01*
X207675500Y-39553000D01*
X207742539Y-39572685D01*
X207788294Y-39625489D01*
X207799500Y-39677000D01*
X207799500Y-78115500D01*
X207779815Y-78182539D01*
X207727011Y-78228294D01*
X207675500Y-78239500D01*
X152389500Y-78239500D01*
X152322461Y-78219815D01*
X152276706Y-78167011D01*
X152265500Y-78115500D01*
X152265500Y-68642571D01*
X152285185Y-68575532D01*
X152337989Y-68529777D01*
X152407147Y-68519833D01*
X152470703Y-68548858D01*
X152488766Y-68568260D01*
X152570309Y-68677187D01*
X152570312Y-68677190D01*
X152685406Y-68763350D01*
X152685413Y-68763354D01*
X152820120Y-68813596D01*
X152820127Y-68813598D01*
X152879655Y-68819999D01*
X152879672Y-68820000D01*
X153127500Y-68820000D01*
X153127500Y-66320000D01*
X152879655Y-66320000D01*
X152820127Y-66326401D01*
X152820120Y-66326403D01*
X152685413Y-66376645D01*
X152685406Y-66376649D01*
X152570312Y-66462809D01*
X152488766Y-66571740D01*
X152432832Y-66613610D01*
X152363140Y-66618594D01*
X152301818Y-66585108D01*
X152268333Y-66523785D01*
X152265500Y-66497428D01*
X152265500Y-51142571D01*
X152285185Y-51075532D01*
X152337989Y-51029777D01*
X152407147Y-51019833D01*
X152470703Y-51048858D01*
X152488766Y-51068260D01*
X152570309Y-51177187D01*
X152570312Y-51177190D01*
X152685406Y-51263350D01*
X152685413Y-51263354D01*
X152820120Y-51313596D01*
X152820127Y-51313598D01*
X152879655Y-51319999D01*
X152879672Y-51320000D01*
X153127500Y-51320000D01*
X153127500Y-48820000D01*
X152879655Y-48820000D01*
X152820127Y-48826401D01*
X152820120Y-48826403D01*
X152685413Y-48876645D01*
X152685406Y-48876649D01*
X152570312Y-48962809D01*
X152488766Y-49071740D01*
X152432832Y-49113610D01*
X152363140Y-49118594D01*
X152301818Y-49085108D01*
X152268333Y-49023785D01*
X152265500Y-48997428D01*
X152265500Y-39677000D01*
X152285185Y-39609961D01*
X152337989Y-39564206D01*
X152389500Y-39553000D01*
X163873769Y-39553000D01*
X163940808Y-39572685D01*
G37*
%TD.AperFunction*%
%TA.AperFunction,Conductor*%
G36*
X170418203Y-72935923D02*
G01*
X170444289Y-72966028D01*
X170459788Y-72991156D01*
X170583844Y-73115212D01*
X170593091Y-73120916D01*
X170639818Y-73172860D01*
X170652000Y-73226457D01*
X170652000Y-73368918D01*
X170652000Y-73368920D01*
X170651999Y-73368920D01*
X170680840Y-73513907D01*
X170680843Y-73513917D01*
X170737412Y-73650488D01*
X170737416Y-73650495D01*
X170750665Y-73670323D01*
X170750667Y-73670328D01*
X170819546Y-73773414D01*
X170819552Y-73773421D01*
X171298181Y-74252049D01*
X171331666Y-74313372D01*
X171334500Y-74339730D01*
X171334500Y-74650514D01*
X171314815Y-74717553D01*
X171262011Y-74763308D01*
X171192853Y-74773252D01*
X171129297Y-74744227D01*
X171098118Y-74702919D01*
X171036100Y-74569922D01*
X171036099Y-74569920D01*
X170900613Y-74376426D01*
X170900608Y-74376420D01*
X170733582Y-74209394D01*
X170540078Y-74073899D01*
X170325992Y-73974070D01*
X170325986Y-73974067D01*
X170112500Y-73916864D01*
X170112500Y-74814488D01*
X170055493Y-74781575D01*
X169928326Y-74747500D01*
X169796674Y-74747500D01*
X169669507Y-74781575D01*
X169612500Y-74814488D01*
X169612500Y-73916864D01*
X169612499Y-73916864D01*
X169399013Y-73974067D01*
X169399007Y-73974070D01*
X169184922Y-74073899D01*
X169184920Y-74073900D01*
X168991426Y-74209386D01*
X168869365Y-74331447D01*
X168808042Y-74364931D01*
X168738350Y-74359947D01*
X168682417Y-74318075D01*
X168665502Y-74287098D01*
X168665454Y-74286970D01*
X168636521Y-74209394D01*
X168616297Y-74155171D01*
X168616293Y-74155164D01*
X168530047Y-74039955D01*
X168530044Y-74039952D01*
X168414835Y-73953706D01*
X168414828Y-73953702D01*
X168279982Y-73903408D01*
X168279983Y-73903408D01*
X168220383Y-73897001D01*
X168220381Y-73897000D01*
X168220373Y-73897000D01*
X168220365Y-73897000D01*
X168097000Y-73897000D01*
X168029961Y-73877315D01*
X167984206Y-73824511D01*
X167973000Y-73773000D01*
X167973000Y-73258839D01*
X167992685Y-73191800D01*
X168031903Y-73153300D01*
X168093656Y-73115212D01*
X168187319Y-73021549D01*
X168248642Y-72988064D01*
X168318334Y-72993048D01*
X168362681Y-73021549D01*
X168456344Y-73115212D01*
X168605666Y-73207314D01*
X168772203Y-73262499D01*
X168874991Y-73273000D01*
X169675008Y-73272999D01*
X169675016Y-73272998D01*
X169675019Y-73272998D01*
X169731302Y-73267248D01*
X169777797Y-73262499D01*
X169944334Y-73207314D01*
X170093656Y-73115212D01*
X170217712Y-72991156D01*
X170233211Y-72966028D01*
X170285159Y-72919303D01*
X170354121Y-72908080D01*
X170418203Y-72935923D01*
G37*
%TD.AperFunction*%
%TA.AperFunction,Conductor*%
G36*
X178303202Y-68416094D02*
G01*
X178309680Y-68422126D01*
X179018181Y-69130627D01*
X179051666Y-69191950D01*
X179054500Y-69218308D01*
X179054500Y-70827757D01*
X179034815Y-70894796D01*
X178992823Y-70931480D01*
X178994313Y-70933895D01*
X178988167Y-70937685D01*
X178988166Y-70937686D01*
X178932534Y-70972000D01*
X178838842Y-71029789D01*
X178714789Y-71153842D01*
X178622687Y-71303163D01*
X178622685Y-71303168D01*
X178601202Y-71367999D01*
X178567501Y-71469703D01*
X178567501Y-71469704D01*
X178567500Y-71469704D01*
X178557000Y-71572483D01*
X178557000Y-72201691D01*
X178537315Y-72268730D01*
X178520681Y-72289372D01*
X176953409Y-73856643D01*
X176892086Y-73890128D01*
X176854922Y-73892490D01*
X176847503Y-73891841D01*
X176847498Y-73891841D01*
X176612096Y-73912436D01*
X176612086Y-73912438D01*
X176383844Y-73973594D01*
X176383835Y-73973598D01*
X176169671Y-74073464D01*
X176169669Y-74073465D01*
X175976097Y-74209005D01*
X175809008Y-74376094D01*
X175678769Y-74562095D01*
X175624192Y-74605719D01*
X175554693Y-74612912D01*
X175492339Y-74581390D01*
X175475619Y-74562094D01*
X175345613Y-74376426D01*
X175345608Y-74376420D01*
X175178582Y-74209394D01*
X174985078Y-74073899D01*
X174770992Y-73974070D01*
X174770986Y-73974067D01*
X174557500Y-73916864D01*
X174557500Y-74814488D01*
X174500493Y-74781575D01*
X174373326Y-74747500D01*
X174241674Y-74747500D01*
X174114507Y-74781575D01*
X174057500Y-74814488D01*
X174057500Y-73916864D01*
X174057499Y-73916864D01*
X173844013Y-73974067D01*
X173844007Y-73974070D01*
X173629922Y-74073899D01*
X173629920Y-74073900D01*
X173436426Y-74209386D01*
X173436420Y-74209391D01*
X173269391Y-74376420D01*
X173269386Y-74376426D01*
X173133900Y-74569920D01*
X173133899Y-74569922D01*
X173071882Y-74702919D01*
X173025710Y-74755358D01*
X172958516Y-74774510D01*
X172891635Y-74754294D01*
X172846300Y-74701129D01*
X172835500Y-74650514D01*
X172835500Y-73903579D01*
X172823313Y-73842315D01*
X172823313Y-73842314D01*
X172806659Y-73758588D01*
X172761885Y-73650495D01*
X172761882Y-73650488D01*
X172750085Y-73622007D01*
X172727236Y-73587811D01*
X172693954Y-73538000D01*
X172667952Y-73499084D01*
X172551717Y-73382849D01*
X172518232Y-73321526D01*
X172523216Y-73251834D01*
X172565088Y-73195901D01*
X172630552Y-73171484D01*
X172698825Y-73186336D01*
X172704475Y-73189617D01*
X172733166Y-73207314D01*
X172899703Y-73262499D01*
X173002491Y-73273000D01*
X173802508Y-73272999D01*
X173802516Y-73272998D01*
X173802519Y-73272998D01*
X173858802Y-73267248D01*
X173905297Y-73262499D01*
X174071834Y-73207314D01*
X174221156Y-73115212D01*
X174272119Y-73064249D01*
X174333442Y-73030763D01*
X174403134Y-73035747D01*
X174425080Y-73046503D01*
X174449859Y-73061846D01*
X174449863Y-73061848D01*
X174640044Y-73135524D01*
X174840524Y-73173000D01*
X174840526Y-73173000D01*
X175044474Y-73173000D01*
X175044476Y-73173000D01*
X175244956Y-73135524D01*
X175435137Y-73061848D01*
X175608541Y-72954481D01*
X175759264Y-72817079D01*
X175882173Y-72654321D01*
X175973082Y-72471750D01*
X176028897Y-72275583D01*
X176047715Y-72072500D01*
X176028897Y-71869417D01*
X175973082Y-71673250D01*
X175971355Y-71669782D01*
X175904948Y-71536418D01*
X175882173Y-71490679D01*
X175789530Y-71368000D01*
X175759262Y-71327918D01*
X175608541Y-71190519D01*
X175608539Y-71190517D01*
X175435142Y-71083155D01*
X175435135Y-71083151D01*
X175315955Y-71036981D01*
X175244956Y-71009476D01*
X175044476Y-70972000D01*
X174840524Y-70972000D01*
X174640044Y-71009476D01*
X174640041Y-71009476D01*
X174640041Y-71009477D01*
X174449864Y-71083151D01*
X174449859Y-71083154D01*
X174425073Y-71098500D01*
X174357712Y-71117052D01*
X174291013Y-71096242D01*
X174272119Y-71080751D01*
X174234822Y-71043454D01*
X174201337Y-70982131D01*
X174206321Y-70912439D01*
X174248193Y-70856506D01*
X174257395Y-70850241D01*
X174273656Y-70840212D01*
X174397712Y-70716156D01*
X174489814Y-70566834D01*
X174544999Y-70400297D01*
X174555500Y-70297509D01*
X174555499Y-69497492D01*
X174554779Y-69490448D01*
X174544999Y-69394703D01*
X174544998Y-69394700D01*
X174539464Y-69377999D01*
X174489814Y-69228166D01*
X174397712Y-69078844D01*
X174304049Y-68985181D01*
X174270564Y-68923858D01*
X174275548Y-68854166D01*
X174304049Y-68809819D01*
X174350518Y-68763350D01*
X174397712Y-68716156D01*
X174465099Y-68606902D01*
X174517047Y-68560179D01*
X174570638Y-68548000D01*
X175436692Y-68548000D01*
X175503731Y-68567685D01*
X175524373Y-68584319D01*
X175560681Y-68620627D01*
X175594166Y-68681950D01*
X175597000Y-68708308D01*
X175597000Y-69785370D01*
X175597001Y-69785376D01*
X175603408Y-69844983D01*
X175653702Y-69979828D01*
X175653706Y-69979835D01*
X175739952Y-70095044D01*
X175739955Y-70095047D01*
X175855164Y-70181293D01*
X175855171Y-70181297D01*
X175990017Y-70231591D01*
X175990016Y-70231591D01*
X175996944Y-70232335D01*
X176049627Y-70238000D01*
X177645372Y-70237999D01*
X177704983Y-70231591D01*
X177839831Y-70181296D01*
X177955046Y-70095046D01*
X178041296Y-69979831D01*
X178091591Y-69844983D01*
X178098000Y-69785373D01*
X178097999Y-68509806D01*
X178117684Y-68442768D01*
X178170487Y-68397013D01*
X178239646Y-68387069D01*
X178303202Y-68416094D01*
G37*
%TD.AperFunction*%
%TA.AperFunction,Conductor*%
G36*
X172845806Y-52422685D02*
G01*
X172891561Y-52475489D01*
X172896472Y-52487994D01*
X172907684Y-52521828D01*
X172907687Y-52521836D01*
X172919047Y-52540253D01*
X172999788Y-52671156D01*
X173123844Y-52795212D01*
X173273166Y-52887314D01*
X173439703Y-52942499D01*
X173542491Y-52953000D01*
X173863648Y-52952999D01*
X173930686Y-52972683D01*
X173976441Y-53025487D01*
X173986385Y-53094646D01*
X173974647Y-53132270D01*
X173911924Y-53258234D01*
X173911917Y-53258252D01*
X173856102Y-53454417D01*
X173837285Y-53657499D01*
X173837285Y-53657500D01*
X173856102Y-53860582D01*
X173911917Y-54056747D01*
X173911922Y-54056760D01*
X174002827Y-54239321D01*
X174125737Y-54402081D01*
X174276458Y-54539480D01*
X174276460Y-54539482D01*
X174375641Y-54600892D01*
X174449863Y-54646848D01*
X174557912Y-54688706D01*
X174638670Y-54719992D01*
X174640044Y-54720524D01*
X174840524Y-54758000D01*
X174840530Y-54758000D01*
X174841284Y-54758141D01*
X174903566Y-54789809D01*
X174938839Y-54850121D01*
X174942500Y-54880030D01*
X174942500Y-55562500D01*
X175538867Y-55562500D01*
X175605906Y-55582185D01*
X175651661Y-55634989D01*
X175656573Y-55647496D01*
X175657500Y-55650296D01*
X175657501Y-55650297D01*
X175712686Y-55816834D01*
X175804788Y-55966156D01*
X175928844Y-56090212D01*
X175931205Y-56091668D01*
X175932153Y-56092253D01*
X175933945Y-56094246D01*
X175934511Y-56094693D01*
X175934434Y-56094789D01*
X175978879Y-56144199D01*
X175990103Y-56213161D01*
X175962261Y-56277244D01*
X175932165Y-56303326D01*
X175929160Y-56305179D01*
X175929155Y-56305183D01*
X175805184Y-56429154D01*
X175713143Y-56578375D01*
X175713141Y-56578380D01*
X175657994Y-56744802D01*
X175657993Y-56744809D01*
X175647500Y-56847513D01*
X175647500Y-56972500D01*
X178047499Y-56972500D01*
X178047499Y-56847528D01*
X178047498Y-56847513D01*
X178037005Y-56744802D01*
X177981858Y-56578380D01*
X177981856Y-56578375D01*
X177889815Y-56429154D01*
X177765844Y-56305183D01*
X177765841Y-56305181D01*
X177762839Y-56303329D01*
X177761213Y-56301521D01*
X177760177Y-56300702D01*
X177760317Y-56300524D01*
X177716117Y-56251380D01*
X177704897Y-56182417D01*
X177732743Y-56118336D01*
X177762844Y-56092254D01*
X177766156Y-56090212D01*
X177890212Y-55966156D01*
X177982314Y-55816834D01*
X178037499Y-55650297D01*
X178037499Y-55650296D01*
X178038427Y-55647496D01*
X178078200Y-55590051D01*
X178142716Y-55563228D01*
X178156133Y-55562500D01*
X181443001Y-55562500D01*
X181510040Y-55582185D01*
X181555795Y-55634989D01*
X181567001Y-55686500D01*
X181567001Y-55895018D01*
X181577500Y-55997796D01*
X181577501Y-55997799D01*
X181632685Y-56164331D01*
X181635740Y-56170882D01*
X181634337Y-56171535D01*
X181650552Y-56230800D01*
X181629627Y-56297463D01*
X181575983Y-56342230D01*
X181526573Y-56352500D01*
X181259350Y-56352500D01*
X181222510Y-56355399D01*
X181222504Y-56355400D01*
X181064806Y-56401216D01*
X181064803Y-56401217D01*
X180923447Y-56484814D01*
X180923438Y-56484821D01*
X180807321Y-56600938D01*
X180807314Y-56600947D01*
X180723718Y-56742301D01*
X180677899Y-56900013D01*
X180677704Y-56902498D01*
X180677705Y-56902500D01*
X183147295Y-56902500D01*
X183147295Y-56902498D01*
X183147100Y-56900011D01*
X183147098Y-56900000D01*
X183103268Y-56749137D01*
X183103467Y-56679267D01*
X183141409Y-56620597D01*
X183205048Y-56591754D01*
X183209715Y-56591187D01*
X183270297Y-56584999D01*
X183436834Y-56529814D01*
X183586156Y-56437712D01*
X183710212Y-56313656D01*
X183802314Y-56164334D01*
X183857499Y-55997797D01*
X183868000Y-55895009D01*
X183868000Y-55686500D01*
X183887685Y-55619461D01*
X183940489Y-55573706D01*
X183992000Y-55562500D01*
X184943001Y-55562500D01*
X185010040Y-55582185D01*
X185055795Y-55634989D01*
X185067001Y-55686500D01*
X185067001Y-55895018D01*
X185077500Y-55997796D01*
X185077501Y-55997799D01*
X185132685Y-56164331D01*
X185132687Y-56164336D01*
X185147494Y-56188342D01*
X185224788Y-56313656D01*
X185348844Y-56437712D01*
X185498166Y-56529814D01*
X185615248Y-56568611D01*
X185639504Y-56576649D01*
X185696949Y-56616422D01*
X185723772Y-56680938D01*
X185724500Y-56694355D01*
X185724500Y-57863000D01*
X185704815Y-57930039D01*
X185652011Y-57975794D01*
X185600500Y-57987000D01*
X184194729Y-57987000D01*
X184127690Y-57967315D01*
X184107048Y-57950681D01*
X183675921Y-57519552D01*
X183675914Y-57519546D01*
X183598019Y-57467499D01*
X183598018Y-57467499D01*
X183553001Y-57437419D01*
X183552988Y-57437412D01*
X183416417Y-57380843D01*
X183416407Y-57380840D01*
X183271420Y-57352000D01*
X183271418Y-57352000D01*
X180907328Y-57352000D01*
X180872733Y-57347076D01*
X180727573Y-57304902D01*
X180727567Y-57304901D01*
X180690701Y-57302000D01*
X180690694Y-57302000D01*
X179384306Y-57302000D01*
X179384298Y-57302000D01*
X179347432Y-57304901D01*
X179347426Y-57304902D01*
X179189606Y-57350754D01*
X179189603Y-57350755D01*
X179048137Y-57434417D01*
X179048129Y-57434423D01*
X178931923Y-57550629D01*
X178931917Y-57550637D01*
X178848255Y-57692103D01*
X178848254Y-57692106D01*
X178802402Y-57849926D01*
X178802401Y-57849932D01*
X178799500Y-57886798D01*
X178799500Y-58318201D01*
X178802401Y-58355067D01*
X178802402Y-58355073D01*
X178848254Y-58512893D01*
X178848255Y-58512896D01*
X178931917Y-58654362D01*
X178931923Y-58654370D01*
X179048129Y-58770576D01*
X179048133Y-58770579D01*
X179048135Y-58770581D01*
X179189602Y-58854244D01*
X179225468Y-58864664D01*
X179347426Y-58900097D01*
X179347429Y-58900097D01*
X179347431Y-58900098D01*
X179384306Y-58903000D01*
X180550500Y-58903000D01*
X180617539Y-58922685D01*
X180663294Y-58975489D01*
X180674500Y-59027000D01*
X180674500Y-59268201D01*
X180677401Y-59305067D01*
X180677402Y-59305073D01*
X180723254Y-59462893D01*
X180723255Y-59462896D01*
X180723256Y-59462898D01*
X180734600Y-59482079D01*
X180806917Y-59604362D01*
X180806923Y-59604370D01*
X180923129Y-59720576D01*
X180923133Y-59720579D01*
X180923135Y-59720581D01*
X181064602Y-59804244D01*
X181172596Y-59835619D01*
X181231480Y-59873225D01*
X181260687Y-59936697D01*
X181262000Y-59954695D01*
X181262000Y-60056569D01*
X181281966Y-60156941D01*
X181285522Y-60174819D01*
X181286999Y-60182244D01*
X181303519Y-60222128D01*
X181336035Y-60300627D01*
X181379750Y-60366052D01*
X181407226Y-60407173D01*
X181407227Y-60407174D01*
X181749335Y-60749281D01*
X181782820Y-60810604D01*
X181785125Y-60848402D01*
X181774785Y-60959998D01*
X181774785Y-60960000D01*
X181793602Y-61163082D01*
X181849417Y-61359247D01*
X181849422Y-61359260D01*
X181940327Y-61541821D01*
X182063237Y-61704581D01*
X182213958Y-61841980D01*
X182213960Y-61841982D01*
X182274929Y-61879732D01*
X182387363Y-61949348D01*
X182577544Y-62023024D01*
X182778024Y-62060500D01*
X182778026Y-62060500D01*
X182981974Y-62060500D01*
X182981976Y-62060500D01*
X183182456Y-62023024D01*
X183372637Y-61949348D01*
X183546041Y-61841981D01*
X183696764Y-61704579D01*
X183819673Y-61541821D01*
X183910582Y-61359250D01*
X183966397Y-61163083D01*
X183985215Y-60960000D01*
X183981792Y-60923064D01*
X183966397Y-60756917D01*
X183931362Y-60633783D01*
X183910582Y-60560750D01*
X183902904Y-60545331D01*
X183866272Y-60471764D01*
X183819673Y-60378179D01*
X183696764Y-60215421D01*
X183696762Y-60215418D01*
X183546041Y-60078019D01*
X183546039Y-60078017D01*
X183372642Y-59970655D01*
X183372635Y-59970651D01*
X183256702Y-59925739D01*
X183182456Y-59896976D01*
X183028679Y-59868230D01*
X182966400Y-59836563D01*
X182931127Y-59776250D01*
X182934061Y-59706442D01*
X182963783Y-59658662D01*
X183018081Y-59604365D01*
X183101744Y-59462898D01*
X183132123Y-59358334D01*
X183169729Y-59299449D01*
X183233201Y-59270242D01*
X183302388Y-59279988D01*
X183338880Y-59305248D01*
X183354080Y-59320448D01*
X183354088Y-59320454D01*
X183477003Y-59402583D01*
X183477006Y-59402585D01*
X183533579Y-59426018D01*
X183533580Y-59426018D01*
X183613588Y-59459159D01*
X183728816Y-59482079D01*
X183748660Y-59486026D01*
X183758581Y-59488000D01*
X183758582Y-59488000D01*
X183758583Y-59488000D01*
X183906418Y-59488000D01*
X185600500Y-59488000D01*
X185667539Y-59507685D01*
X185713294Y-59560489D01*
X185724500Y-59612000D01*
X185724500Y-61478950D01*
X185704815Y-61545989D01*
X185659520Y-61588004D01*
X185628993Y-61604524D01*
X185432757Y-61757261D01*
X185264333Y-61940217D01*
X185128326Y-62148393D01*
X185028436Y-62376118D01*
X184967392Y-62617175D01*
X184967390Y-62617187D01*
X184946857Y-62864994D01*
X184946857Y-62865005D01*
X184967390Y-63112812D01*
X184967392Y-63112821D01*
X185028436Y-63353881D01*
X185128326Y-63581606D01*
X185264333Y-63789782D01*
X185277495Y-63804080D01*
X185432756Y-63972738D01*
X185628991Y-64125474D01*
X185847690Y-64243828D01*
X186082886Y-64324571D01*
X186328165Y-64365500D01*
X186576835Y-64365500D01*
X186822114Y-64324571D01*
X187057310Y-64243828D01*
X187276009Y-64125474D01*
X187472244Y-63972738D01*
X187640664Y-63789785D01*
X187776673Y-63581607D01*
X187876563Y-63353881D01*
X187937608Y-63112821D01*
X187937678Y-63111980D01*
X187958143Y-62865005D01*
X187958143Y-62864994D01*
X187937609Y-62617187D01*
X187937607Y-62617175D01*
X187876563Y-62376118D01*
X187776673Y-62148393D01*
X187640666Y-61940217D01*
X187592365Y-61887748D01*
X187472244Y-61757262D01*
X187325510Y-61643054D01*
X187273337Y-61602446D01*
X187232525Y-61545736D01*
X187225500Y-61504593D01*
X187225500Y-56324036D01*
X187243961Y-56258939D01*
X187302314Y-56164334D01*
X187357499Y-55997797D01*
X187368000Y-55895009D01*
X187368000Y-55686500D01*
X187387685Y-55619461D01*
X187440489Y-55573706D01*
X187492000Y-55562500D01*
X188251001Y-55562500D01*
X188318040Y-55582185D01*
X188363795Y-55634989D01*
X188375001Y-55686500D01*
X188375001Y-55769986D01*
X188385494Y-55872697D01*
X188440641Y-56039119D01*
X188440643Y-56039124D01*
X188532684Y-56188345D01*
X188656654Y-56312315D01*
X188805875Y-56404356D01*
X188805880Y-56404358D01*
X188972302Y-56459505D01*
X188972309Y-56459506D01*
X189075019Y-56469999D01*
X189212499Y-56469999D01*
X189212500Y-56469998D01*
X189212500Y-55562500D01*
X189712500Y-55562500D01*
X189712500Y-56469999D01*
X189849972Y-56469999D01*
X189849986Y-56469998D01*
X189952697Y-56459505D01*
X190119119Y-56404358D01*
X190119124Y-56404356D01*
X190268345Y-56312315D01*
X190392318Y-56188342D01*
X190394165Y-56185348D01*
X190395969Y-56183724D01*
X190396798Y-56182677D01*
X190396976Y-56182818D01*
X190446110Y-56138621D01*
X190515073Y-56127396D01*
X190579156Y-56155236D01*
X190605242Y-56185339D01*
X190607288Y-56188656D01*
X190607289Y-56188657D01*
X190665681Y-56247049D01*
X190699166Y-56308372D01*
X190702000Y-56334730D01*
X190702000Y-61240500D01*
X190682315Y-61307539D01*
X190629511Y-61353294D01*
X190578001Y-61364500D01*
X190404630Y-61364500D01*
X190404623Y-61364501D01*
X190345016Y-61370908D01*
X190210171Y-61421202D01*
X190210164Y-61421206D01*
X190094955Y-61507452D01*
X190094952Y-61507455D01*
X190008706Y-61622664D01*
X190008702Y-61622671D01*
X189958408Y-61757517D01*
X189952001Y-61817116D01*
X189952000Y-61817135D01*
X189952000Y-63912870D01*
X189952001Y-63912876D01*
X189958408Y-63972483D01*
X190008702Y-64107328D01*
X190008706Y-64107335D01*
X190094952Y-64222544D01*
X190094955Y-64222547D01*
X190210164Y-64308793D01*
X190210171Y-64308797D01*
X190345017Y-64359091D01*
X190345016Y-64359091D01*
X190351944Y-64359835D01*
X190404627Y-64365500D01*
X192483000Y-64365499D01*
X192550039Y-64385184D01*
X192595794Y-64437987D01*
X192607000Y-64489499D01*
X192607000Y-69431270D01*
X192587315Y-69498309D01*
X192534511Y-69544064D01*
X192465353Y-69554008D01*
X192401797Y-69524983D01*
X192395319Y-69518951D01*
X192371157Y-69494789D01*
X192371156Y-69494788D01*
X192233653Y-69409976D01*
X192221836Y-69402687D01*
X192221831Y-69402685D01*
X192220362Y-69402198D01*
X192055297Y-69347501D01*
X192055295Y-69347500D01*
X191952510Y-69337000D01*
X190952498Y-69337000D01*
X190952480Y-69337001D01*
X190849703Y-69347500D01*
X190849700Y-69347501D01*
X190683168Y-69402685D01*
X190683163Y-69402687D01*
X190533842Y-69494789D01*
X190409789Y-69618842D01*
X190408021Y-69621709D01*
X190347977Y-69719057D01*
X190342401Y-69728097D01*
X190290453Y-69774821D01*
X190236862Y-69787000D01*
X190128138Y-69787000D01*
X190061099Y-69767315D01*
X190022599Y-69728097D01*
X189955212Y-69618844D01*
X189831156Y-69494788D01*
X189693653Y-69409976D01*
X189681836Y-69402687D01*
X189681831Y-69402685D01*
X189680362Y-69402198D01*
X189515297Y-69347501D01*
X189515295Y-69347500D01*
X189412510Y-69337000D01*
X188412498Y-69337000D01*
X188412480Y-69337001D01*
X188309703Y-69347500D01*
X188309700Y-69347501D01*
X188143168Y-69402685D01*
X188143163Y-69402687D01*
X187993842Y-69494789D01*
X187869788Y-69618843D01*
X187869785Y-69618847D01*
X187807975Y-69719057D01*
X187756027Y-69765782D01*
X187687065Y-69777003D01*
X187622983Y-69749160D01*
X187584127Y-69691091D01*
X187583460Y-69688894D01*
X187582319Y-69685008D01*
X187510450Y-69573178D01*
X187504532Y-69563969D01*
X187504528Y-69563965D01*
X187395799Y-69469750D01*
X187395797Y-69469748D01*
X187395794Y-69469746D01*
X187385183Y-69464900D01*
X187264919Y-69409976D01*
X187264914Y-69409975D01*
X187122500Y-69389500D01*
X185622500Y-69389500D01*
X185622497Y-69389500D01*
X185550559Y-69394644D01*
X185412505Y-69435182D01*
X185291469Y-69512967D01*
X185291465Y-69512971D01*
X185197250Y-69621700D01*
X185197244Y-69621709D01*
X185137476Y-69752580D01*
X185137475Y-69752585D01*
X185117000Y-69894999D01*
X185117000Y-71045021D01*
X185123423Y-71125330D01*
X185123425Y-71125338D01*
X185132287Y-71153745D01*
X185136651Y-71208319D01*
X185117000Y-71344999D01*
X185117000Y-72345002D01*
X185122144Y-72416940D01*
X185162682Y-72554994D01*
X185240467Y-72676030D01*
X185240471Y-72676034D01*
X185309098Y-72735500D01*
X185349206Y-72770254D01*
X185389674Y-72788735D01*
X185480080Y-72830023D01*
X185480083Y-72830023D01*
X185480084Y-72830024D01*
X185504381Y-72833517D01*
X185515646Y-72835137D01*
X185579202Y-72864162D01*
X185616977Y-72922939D01*
X185622000Y-72957875D01*
X185622000Y-74059798D01*
X185602315Y-74126837D01*
X185569125Y-74161372D01*
X185501099Y-74209005D01*
X185378784Y-74331319D01*
X185317460Y-74364803D01*
X185247769Y-74359818D01*
X185191835Y-74317947D01*
X185174921Y-74286970D01*
X185125854Y-74155413D01*
X185125850Y-74155406D01*
X185039690Y-74040312D01*
X185039687Y-74040309D01*
X184924593Y-73954149D01*
X184924586Y-73954145D01*
X184789879Y-73903903D01*
X184789872Y-73903901D01*
X184730344Y-73897500D01*
X184082500Y-73897500D01*
X184082500Y-74814488D01*
X184025493Y-74781575D01*
X183898326Y-74747500D01*
X183766674Y-74747500D01*
X183639507Y-74781575D01*
X183582500Y-74814488D01*
X183582500Y-73897500D01*
X182934655Y-73897500D01*
X182875127Y-73903901D01*
X182875120Y-73903903D01*
X182740413Y-73954145D01*
X182740406Y-73954149D01*
X182625312Y-74040309D01*
X182619681Y-74045941D01*
X182558358Y-74079426D01*
X182488666Y-74074442D01*
X182432733Y-74032570D01*
X182408316Y-73967106D01*
X182408000Y-73958260D01*
X182408000Y-73226457D01*
X182427685Y-73159418D01*
X182466907Y-73120916D01*
X182476156Y-73115212D01*
X182600212Y-72991156D01*
X182692314Y-72841834D01*
X182747499Y-72675297D01*
X182758000Y-72572509D01*
X182757999Y-71572492D01*
X182757381Y-71566445D01*
X182747499Y-71469703D01*
X182747498Y-71469700D01*
X182732381Y-71424080D01*
X182692314Y-71303166D01*
X182600212Y-71153844D01*
X182476156Y-71029788D01*
X182355500Y-70955367D01*
X182326836Y-70937687D01*
X182326831Y-70937685D01*
X182324254Y-70936831D01*
X182160297Y-70882501D01*
X182160295Y-70882500D01*
X182057510Y-70872000D01*
X181257498Y-70872000D01*
X181257480Y-70872001D01*
X181154703Y-70882500D01*
X181154700Y-70882501D01*
X180988168Y-70937685D01*
X180988163Y-70937687D01*
X180838842Y-71029789D01*
X180745181Y-71123451D01*
X180683858Y-71156936D01*
X180614166Y-71151952D01*
X180569819Y-71123451D01*
X180476155Y-71029787D01*
X180414402Y-70991697D01*
X180367678Y-70939749D01*
X180355500Y-70886159D01*
X180355500Y-68833428D01*
X180330502Y-68707761D01*
X180330501Y-68707760D01*
X180330501Y-68707756D01*
X180281465Y-68589373D01*
X180263396Y-68562331D01*
X180210277Y-68482831D01*
X180210275Y-68482829D01*
X180210273Y-68482826D01*
X174482173Y-62754726D01*
X174401366Y-62700733D01*
X174375627Y-62683535D01*
X174281796Y-62644669D01*
X174257244Y-62634499D01*
X174257238Y-62634497D01*
X174131571Y-62609500D01*
X174131569Y-62609500D01*
X172512000Y-62609500D01*
X172444961Y-62589815D01*
X172399206Y-62537011D01*
X172388000Y-62485500D01*
X172387999Y-61985344D01*
X175597500Y-61985344D01*
X175603901Y-62044872D01*
X175603903Y-62044879D01*
X175654145Y-62179586D01*
X175654149Y-62179593D01*
X175740309Y-62294687D01*
X175740312Y-62294690D01*
X175855406Y-62380850D01*
X175855413Y-62380854D01*
X175990120Y-62431096D01*
X175990127Y-62431098D01*
X176049655Y-62437499D01*
X176049672Y-62437500D01*
X176597500Y-62437500D01*
X177097500Y-62437500D01*
X177645328Y-62437500D01*
X177645344Y-62437499D01*
X177704872Y-62431098D01*
X177704879Y-62431096D01*
X177839586Y-62380854D01*
X177839593Y-62380850D01*
X177954687Y-62294690D01*
X177954690Y-62294687D01*
X178040850Y-62179593D01*
X178040854Y-62179586D01*
X178091096Y-62044879D01*
X178091098Y-62044872D01*
X178097499Y-61985344D01*
X178097500Y-61985327D01*
X178097500Y-61437500D01*
X177097500Y-61437500D01*
X177097500Y-62437500D01*
X176597500Y-62437500D01*
X176597500Y-61437500D01*
X175597500Y-61437500D01*
X175597500Y-61985344D01*
X172387999Y-61985344D01*
X172387999Y-61492129D01*
X172387998Y-61492123D01*
X172387277Y-61485418D01*
X172381591Y-61432517D01*
X172368840Y-61398332D01*
X172363857Y-61328642D01*
X172368838Y-61311672D01*
X172381591Y-61277483D01*
X172388000Y-61217873D01*
X172387999Y-60389655D01*
X175597500Y-60389655D01*
X175597500Y-60937500D01*
X176597500Y-60937500D01*
X177097500Y-60937500D01*
X178097500Y-60937500D01*
X178097500Y-60389672D01*
X178097499Y-60389655D01*
X178091098Y-60330127D01*
X178091096Y-60330120D01*
X178040854Y-60195413D01*
X178040850Y-60195406D01*
X177954690Y-60080312D01*
X177954687Y-60080309D01*
X177839593Y-59994149D01*
X177839586Y-59994145D01*
X177704879Y-59943903D01*
X177704872Y-59943901D01*
X177645344Y-59937500D01*
X177097500Y-59937500D01*
X177097500Y-60937500D01*
X176597500Y-60937500D01*
X176597500Y-59937500D01*
X176049655Y-59937500D01*
X175990127Y-59943901D01*
X175990120Y-59943903D01*
X175855413Y-59994145D01*
X175855406Y-59994149D01*
X175740312Y-60080309D01*
X175740309Y-60080312D01*
X175654149Y-60195406D01*
X175654145Y-60195413D01*
X175603903Y-60330120D01*
X175603901Y-60330127D01*
X175597500Y-60389655D01*
X172387999Y-60389655D01*
X172387999Y-60222128D01*
X172381591Y-60162517D01*
X172368840Y-60128332D01*
X172363857Y-60058642D01*
X172368838Y-60041672D01*
X172381591Y-60007483D01*
X172388000Y-59947873D01*
X172387999Y-58952128D01*
X172381591Y-58892517D01*
X172368840Y-58858332D01*
X172363857Y-58788642D01*
X172368838Y-58771672D01*
X172381591Y-58737483D01*
X172388000Y-58677873D01*
X172387999Y-57682128D01*
X172381591Y-57622517D01*
X172372254Y-57597486D01*
X175647501Y-57597486D01*
X175657994Y-57700197D01*
X175713141Y-57866619D01*
X175713143Y-57866624D01*
X175805184Y-58015845D01*
X175929154Y-58139815D01*
X176078375Y-58231856D01*
X176078380Y-58231858D01*
X176244802Y-58287005D01*
X176244809Y-58287006D01*
X176347519Y-58297499D01*
X176597499Y-58297499D01*
X177097500Y-58297499D01*
X177347472Y-58297499D01*
X177347486Y-58297498D01*
X177450197Y-58287005D01*
X177616619Y-58231858D01*
X177616624Y-58231856D01*
X177765845Y-58139815D01*
X177889815Y-58015845D01*
X177981856Y-57866624D01*
X177981858Y-57866619D01*
X178037005Y-57700197D01*
X178037006Y-57700190D01*
X178047499Y-57597486D01*
X178047500Y-57597473D01*
X178047500Y-57472500D01*
X177097500Y-57472500D01*
X177097500Y-58297499D01*
X176597499Y-58297499D01*
X176597500Y-58297498D01*
X176597500Y-57472500D01*
X175647501Y-57472500D01*
X175647501Y-57597486D01*
X172372254Y-57597486D01*
X172368840Y-57588332D01*
X172363857Y-57518642D01*
X172368838Y-57501672D01*
X172381591Y-57467483D01*
X172388000Y-57407873D01*
X172387999Y-56412128D01*
X172381591Y-56352517D01*
X172368840Y-56318332D01*
X172363857Y-56248642D01*
X172368838Y-56231672D01*
X172381591Y-56197483D01*
X172388000Y-56137873D01*
X172387999Y-55142128D01*
X172381591Y-55082517D01*
X172368840Y-55048332D01*
X172363857Y-54978642D01*
X172368838Y-54961672D01*
X172381591Y-54927483D01*
X172388000Y-54867873D01*
X172387999Y-53872128D01*
X172381591Y-53812517D01*
X172368840Y-53778332D01*
X172363857Y-53708642D01*
X172368838Y-53691672D01*
X172381591Y-53657483D01*
X172388000Y-53597873D01*
X172387999Y-52602128D01*
X172381591Y-52542517D01*
X172381348Y-52540253D01*
X172393755Y-52471494D01*
X172441366Y-52420357D01*
X172504638Y-52403000D01*
X172778767Y-52403000D01*
X172845806Y-52422685D01*
G37*
%TD.AperFunction*%
%TA.AperFunction,Conductor*%
G36*
X173813731Y-63930185D02*
G01*
X173834373Y-63946819D01*
X177412873Y-67525319D01*
X177446358Y-67586642D01*
X177441374Y-67656334D01*
X177399502Y-67712267D01*
X177334038Y-67736684D01*
X177325192Y-67737000D01*
X176568308Y-67737000D01*
X176501269Y-67717315D01*
X176480627Y-67700681D01*
X176172174Y-67392227D01*
X176172173Y-67392226D01*
X176172169Y-67392223D01*
X176065627Y-67321035D01*
X175947244Y-67271999D01*
X175947238Y-67271997D01*
X175821571Y-67247000D01*
X175821569Y-67247000D01*
X174570638Y-67247000D01*
X174503599Y-67227315D01*
X174465099Y-67188097D01*
X174397712Y-67078844D01*
X174273656Y-66954788D01*
X174145524Y-66875756D01*
X174124336Y-66862687D01*
X174124331Y-66862685D01*
X174122862Y-66862198D01*
X173957797Y-66807501D01*
X173957795Y-66807500D01*
X173855010Y-66797000D01*
X172854998Y-66797000D01*
X172854980Y-66797001D01*
X172752203Y-66807500D01*
X172752200Y-66807501D01*
X172585668Y-66862685D01*
X172585663Y-66862687D01*
X172436342Y-66954789D01*
X172312289Y-67078842D01*
X172220187Y-67228163D01*
X172220186Y-67228166D01*
X172165001Y-67394703D01*
X172165001Y-67394704D01*
X172165000Y-67394704D01*
X172154500Y-67497483D01*
X172154500Y-68297501D01*
X172154501Y-68297519D01*
X172165000Y-68400296D01*
X172165001Y-68400299D01*
X172220185Y-68566831D01*
X172220187Y-68566836D01*
X172225551Y-68575532D01*
X172307447Y-68708308D01*
X172312289Y-68716157D01*
X172405951Y-68809819D01*
X172439436Y-68871142D01*
X172434452Y-68940834D01*
X172405951Y-68985181D01*
X172312289Y-69078842D01*
X172220187Y-69228163D01*
X172220185Y-69228168D01*
X172213334Y-69248844D01*
X172165001Y-69394703D01*
X172165001Y-69394704D01*
X172165000Y-69394704D01*
X172154500Y-69497483D01*
X172154500Y-70297501D01*
X172154501Y-70297519D01*
X172165000Y-70400296D01*
X172165001Y-70400299D01*
X172169701Y-70414481D01*
X172220186Y-70566834D01*
X172312288Y-70716156D01*
X172436344Y-70840212D01*
X172511351Y-70886476D01*
X172558075Y-70938424D01*
X172569298Y-71007387D01*
X172541454Y-71071469D01*
X172533936Y-71079695D01*
X172490182Y-71123450D01*
X172428859Y-71156936D01*
X172359168Y-71151952D01*
X172314819Y-71123451D01*
X172221157Y-71029789D01*
X172221156Y-71029788D01*
X172100500Y-70955367D01*
X172071836Y-70937687D01*
X172071831Y-70937685D01*
X172069254Y-70936831D01*
X171905297Y-70882501D01*
X171905295Y-70882500D01*
X171802510Y-70872000D01*
X171002498Y-70872000D01*
X171002480Y-70872001D01*
X170899703Y-70882500D01*
X170899700Y-70882501D01*
X170733168Y-70937685D01*
X170733159Y-70937689D01*
X170583353Y-71030090D01*
X170515961Y-71048530D01*
X170449297Y-71027607D01*
X170404528Y-70973965D01*
X170395867Y-70904634D01*
X170426064Y-70841627D01*
X170430576Y-70836870D01*
X171637773Y-69629672D01*
X171637772Y-69629672D01*
X171637776Y-69629669D01*
X171708965Y-69523127D01*
X171758001Y-69404744D01*
X171766018Y-69364441D01*
X171771476Y-69337001D01*
X171783000Y-69279071D01*
X171783000Y-66610928D01*
X171758002Y-66485261D01*
X171758001Y-66485260D01*
X171758001Y-66485256D01*
X171708965Y-66366873D01*
X171705829Y-66362180D01*
X171637777Y-66260331D01*
X171637775Y-66260329D01*
X171637773Y-66260326D01*
X170923819Y-65546372D01*
X170890334Y-65485049D01*
X170889791Y-65480000D01*
X171387500Y-65480000D01*
X171935328Y-65480000D01*
X171935344Y-65479999D01*
X171994872Y-65473598D01*
X171994879Y-65473596D01*
X172129586Y-65423354D01*
X172129593Y-65423350D01*
X172244687Y-65337190D01*
X172244690Y-65337187D01*
X172330850Y-65222093D01*
X172330854Y-65222086D01*
X172381096Y-65087379D01*
X172381098Y-65087372D01*
X172387499Y-65027844D01*
X172387500Y-65027827D01*
X172387500Y-64780000D01*
X171387500Y-64780000D01*
X171387500Y-65480000D01*
X170889791Y-65480000D01*
X170887500Y-65458691D01*
X170887500Y-64404000D01*
X170907185Y-64336961D01*
X170959989Y-64291206D01*
X171011500Y-64280000D01*
X172387500Y-64280000D01*
X172387500Y-64034500D01*
X172407185Y-63967461D01*
X172459989Y-63921706D01*
X172511500Y-63910500D01*
X173746692Y-63910500D01*
X173813731Y-63930185D01*
G37*
%TD.AperFunction*%
%TA.AperFunction,Conductor*%
G36*
X161560039Y-51340184D02*
G01*
X161605794Y-51392988D01*
X161617000Y-51444499D01*
X161617000Y-53498466D01*
X161597315Y-53565505D01*
X161544511Y-53611260D01*
X161475353Y-53621204D01*
X161448206Y-53614093D01*
X161440893Y-53611260D01*
X161274956Y-53546976D01*
X161074476Y-53509500D01*
X160870524Y-53509500D01*
X160670044Y-53546976D01*
X160670041Y-53546976D01*
X160670041Y-53546977D01*
X160479864Y-53620651D01*
X160479857Y-53620655D01*
X160306460Y-53728017D01*
X160306458Y-53728019D01*
X160155737Y-53865418D01*
X160032827Y-54028178D01*
X159941922Y-54210739D01*
X159941917Y-54210752D01*
X159886102Y-54406917D01*
X159867285Y-54609999D01*
X159867285Y-54610000D01*
X159886102Y-54813082D01*
X159941917Y-55009247D01*
X159941922Y-55009260D01*
X160032827Y-55191821D01*
X160155737Y-55354581D01*
X160306458Y-55491980D01*
X160306460Y-55491982D01*
X160405641Y-55553392D01*
X160479863Y-55599348D01*
X160670044Y-55673024D01*
X160870524Y-55710500D01*
X160870526Y-55710500D01*
X161074475Y-55710500D01*
X161074476Y-55710500D01*
X161076422Y-55710136D01*
X161077370Y-55710231D01*
X161080186Y-55709971D01*
X161080237Y-55710521D01*
X161145937Y-55717162D01*
X161186896Y-55744342D01*
X162130873Y-56688319D01*
X162164358Y-56749642D01*
X162159374Y-56819334D01*
X162117502Y-56875267D01*
X162052038Y-56899684D01*
X162043192Y-56900000D01*
X160967500Y-56900000D01*
X160967500Y-57725000D01*
X161376447Y-57725000D01*
X161376447Y-57724999D01*
X161392319Y-57709128D01*
X161453642Y-57675643D01*
X161523334Y-57680627D01*
X161567681Y-57709128D01*
X161583553Y-57725000D01*
X162368500Y-57725000D01*
X162435539Y-57744685D01*
X162481294Y-57797489D01*
X162492500Y-57849000D01*
X162492500Y-58633947D01*
X162508372Y-58649819D01*
X162541857Y-58711142D01*
X162536873Y-58780834D01*
X162508372Y-58825181D01*
X162492500Y-58841052D01*
X162492500Y-60158947D01*
X162508372Y-60174819D01*
X162541857Y-60236142D01*
X162536873Y-60305834D01*
X162508372Y-60350181D01*
X162492500Y-60366052D01*
X162492500Y-61151000D01*
X162472815Y-61218039D01*
X162420011Y-61263794D01*
X162368500Y-61275000D01*
X161583552Y-61275000D01*
X161567681Y-61290872D01*
X161506358Y-61324357D01*
X161436666Y-61319373D01*
X161392319Y-61290872D01*
X161376447Y-61275000D01*
X160967500Y-61275000D01*
X160967500Y-62100000D01*
X162423192Y-62100000D01*
X162490231Y-62119685D01*
X162535986Y-62172489D01*
X162545930Y-62241647D01*
X162516905Y-62305203D01*
X162510873Y-62311681D01*
X161762227Y-63060325D01*
X161762224Y-63060328D01*
X161727150Y-63112820D01*
X161727151Y-63112821D01*
X161691034Y-63166874D01*
X161641999Y-63285255D01*
X161641997Y-63285261D01*
X161617000Y-63410928D01*
X161617000Y-66195500D01*
X161597315Y-66262539D01*
X161544511Y-66308294D01*
X161493000Y-66319500D01*
X160502000Y-66319500D01*
X160434961Y-66299815D01*
X160389206Y-66247011D01*
X160378000Y-66195500D01*
X160378000Y-63778428D01*
X160353002Y-63652761D01*
X160353001Y-63652760D01*
X160353001Y-63652756D01*
X160303965Y-63534373D01*
X160303964Y-63534372D01*
X160303961Y-63534366D01*
X160232777Y-63427832D01*
X160194421Y-63389476D01*
X160142169Y-63337224D01*
X159669939Y-62864994D01*
X159116627Y-62311681D01*
X159083142Y-62250358D01*
X159088126Y-62180666D01*
X159129998Y-62124733D01*
X159195462Y-62100316D01*
X159204308Y-62100000D01*
X160467500Y-62100000D01*
X160467500Y-61275000D01*
X160058552Y-61275000D01*
X160042681Y-61290872D01*
X159981358Y-61324357D01*
X159911666Y-61319373D01*
X159867319Y-61290872D01*
X159851447Y-61275000D01*
X159066500Y-61275000D01*
X158999461Y-61255315D01*
X158953706Y-61202511D01*
X158942500Y-61151000D01*
X158942500Y-60995163D01*
X159805000Y-60995163D01*
X159805000Y-61054837D01*
X159827836Y-61109968D01*
X159870032Y-61152164D01*
X159925163Y-61175000D01*
X159984837Y-61175000D01*
X160039968Y-61152164D01*
X160082164Y-61109968D01*
X160105000Y-61054837D01*
X160105000Y-60995163D01*
X161330000Y-60995163D01*
X161330000Y-61054837D01*
X161352836Y-61109968D01*
X161395032Y-61152164D01*
X161450163Y-61175000D01*
X161509837Y-61175000D01*
X161564968Y-61152164D01*
X161607164Y-61109968D01*
X161630000Y-61054837D01*
X161630000Y-60995163D01*
X161607164Y-60940032D01*
X161564968Y-60897836D01*
X161509837Y-60875000D01*
X161450163Y-60875000D01*
X161395032Y-60897836D01*
X161352836Y-60940032D01*
X161330000Y-60995163D01*
X160105000Y-60995163D01*
X160082164Y-60940032D01*
X160039968Y-60897836D01*
X159984837Y-60875000D01*
X159925163Y-60875000D01*
X159870032Y-60897836D01*
X159827836Y-60940032D01*
X159805000Y-60995163D01*
X158942500Y-60995163D01*
X158942500Y-60366053D01*
X158926628Y-60350181D01*
X158893143Y-60288858D01*
X158897162Y-60232663D01*
X159042500Y-60232663D01*
X159042500Y-60292337D01*
X159065336Y-60347468D01*
X159107532Y-60389664D01*
X159162663Y-60412500D01*
X159222337Y-60412500D01*
X159277468Y-60389664D01*
X159319664Y-60347468D01*
X159342500Y-60292337D01*
X159342500Y-60262500D01*
X159546053Y-60262500D01*
X159955000Y-60671447D01*
X160363947Y-60262500D01*
X160334110Y-60232663D01*
X160567500Y-60232663D01*
X160567500Y-60292337D01*
X160590336Y-60347468D01*
X160632532Y-60389664D01*
X160687663Y-60412500D01*
X160747337Y-60412500D01*
X160802468Y-60389664D01*
X160844664Y-60347468D01*
X160867500Y-60292337D01*
X160867500Y-60262500D01*
X161071053Y-60262500D01*
X161480000Y-60671447D01*
X161888947Y-60262500D01*
X161859110Y-60232663D01*
X162092500Y-60232663D01*
X162092500Y-60292337D01*
X162115336Y-60347468D01*
X162157532Y-60389664D01*
X162212663Y-60412500D01*
X162272337Y-60412500D01*
X162327468Y-60389664D01*
X162369664Y-60347468D01*
X162392500Y-60292337D01*
X162392500Y-60232663D01*
X162369664Y-60177532D01*
X162327468Y-60135336D01*
X162272337Y-60112500D01*
X162212663Y-60112500D01*
X162157532Y-60135336D01*
X162115336Y-60177532D01*
X162092500Y-60232663D01*
X161859110Y-60232663D01*
X161480000Y-59853553D01*
X161071053Y-60262500D01*
X160867500Y-60262500D01*
X160867500Y-60232663D01*
X160844664Y-60177532D01*
X160802468Y-60135336D01*
X160747337Y-60112500D01*
X160687663Y-60112500D01*
X160632532Y-60135336D01*
X160590336Y-60177532D01*
X160567500Y-60232663D01*
X160334110Y-60232663D01*
X159955000Y-59853553D01*
X159546053Y-60262500D01*
X159342500Y-60262500D01*
X159342500Y-60232663D01*
X159319664Y-60177532D01*
X159277468Y-60135336D01*
X159222337Y-60112500D01*
X159162663Y-60112500D01*
X159107532Y-60135336D01*
X159065336Y-60177532D01*
X159042500Y-60232663D01*
X158897162Y-60232663D01*
X158898127Y-60219166D01*
X158926628Y-60174819D01*
X158942499Y-60158947D01*
X158942500Y-60158946D01*
X158942500Y-59470163D01*
X159805000Y-59470163D01*
X159805000Y-59529837D01*
X159827836Y-59584968D01*
X159870032Y-59627164D01*
X159925163Y-59650000D01*
X159984837Y-59650000D01*
X160039968Y-59627164D01*
X160082164Y-59584968D01*
X160105000Y-59529837D01*
X160105000Y-59470163D01*
X161330000Y-59470163D01*
X161330000Y-59529837D01*
X161352836Y-59584968D01*
X161395032Y-59627164D01*
X161450163Y-59650000D01*
X161509837Y-59650000D01*
X161564968Y-59627164D01*
X161607164Y-59584968D01*
X161630000Y-59529837D01*
X161630000Y-59470163D01*
X161607164Y-59415032D01*
X161564968Y-59372836D01*
X161509837Y-59350000D01*
X161450163Y-59350000D01*
X161395032Y-59372836D01*
X161352836Y-59415032D01*
X161330000Y-59470163D01*
X160105000Y-59470163D01*
X160082164Y-59415032D01*
X160039968Y-59372836D01*
X159984837Y-59350000D01*
X159925163Y-59350000D01*
X159870032Y-59372836D01*
X159827836Y-59415032D01*
X159805000Y-59470163D01*
X158942500Y-59470163D01*
X158942500Y-58841053D01*
X158926628Y-58825181D01*
X158893143Y-58763858D01*
X158897162Y-58707663D01*
X159042500Y-58707663D01*
X159042500Y-58767337D01*
X159065336Y-58822468D01*
X159107532Y-58864664D01*
X159162663Y-58887500D01*
X159222337Y-58887500D01*
X159277468Y-58864664D01*
X159319664Y-58822468D01*
X159342500Y-58767337D01*
X159342500Y-58737500D01*
X159546053Y-58737500D01*
X159955000Y-59146447D01*
X160363947Y-58737500D01*
X160334110Y-58707663D01*
X160567500Y-58707663D01*
X160567500Y-58767337D01*
X160590336Y-58822468D01*
X160632532Y-58864664D01*
X160687663Y-58887500D01*
X160747337Y-58887500D01*
X160802468Y-58864664D01*
X160844664Y-58822468D01*
X160867500Y-58767337D01*
X160867500Y-58737500D01*
X161071053Y-58737500D01*
X161480000Y-59146447D01*
X161888947Y-58737500D01*
X161859110Y-58707663D01*
X162092500Y-58707663D01*
X162092500Y-58767337D01*
X162115336Y-58822468D01*
X162157532Y-58864664D01*
X162212663Y-58887500D01*
X162272337Y-58887500D01*
X162327468Y-58864664D01*
X162369664Y-58822468D01*
X162392500Y-58767337D01*
X162392500Y-58707663D01*
X162369664Y-58652532D01*
X162327468Y-58610336D01*
X162272337Y-58587500D01*
X162212663Y-58587500D01*
X162157532Y-58610336D01*
X162115336Y-58652532D01*
X162092500Y-58707663D01*
X161859110Y-58707663D01*
X161480000Y-58328553D01*
X161071053Y-58737500D01*
X160867500Y-58737500D01*
X160867500Y-58707663D01*
X160844664Y-58652532D01*
X160802468Y-58610336D01*
X160747337Y-58587500D01*
X160687663Y-58587500D01*
X160632532Y-58610336D01*
X160590336Y-58652532D01*
X160567500Y-58707663D01*
X160334110Y-58707663D01*
X159955000Y-58328553D01*
X159546053Y-58737500D01*
X159342500Y-58737500D01*
X159342500Y-58707663D01*
X159319664Y-58652532D01*
X159277468Y-58610336D01*
X159222337Y-58587500D01*
X159162663Y-58587500D01*
X159107532Y-58610336D01*
X159065336Y-58652532D01*
X159042500Y-58707663D01*
X158897162Y-58707663D01*
X158898127Y-58694166D01*
X158926628Y-58649819D01*
X158942499Y-58633947D01*
X158942500Y-58633946D01*
X158942500Y-57945163D01*
X159805000Y-57945163D01*
X159805000Y-58004837D01*
X159827836Y-58059968D01*
X159870032Y-58102164D01*
X159925163Y-58125000D01*
X159984837Y-58125000D01*
X160039968Y-58102164D01*
X160082164Y-58059968D01*
X160105000Y-58004837D01*
X160105000Y-57945163D01*
X161330000Y-57945163D01*
X161330000Y-58004837D01*
X161352836Y-58059968D01*
X161395032Y-58102164D01*
X161450163Y-58125000D01*
X161509837Y-58125000D01*
X161564968Y-58102164D01*
X161607164Y-58059968D01*
X161630000Y-58004837D01*
X161630000Y-57945163D01*
X161607164Y-57890032D01*
X161564968Y-57847836D01*
X161509837Y-57825000D01*
X161450163Y-57825000D01*
X161395032Y-57847836D01*
X161352836Y-57890032D01*
X161330000Y-57945163D01*
X160105000Y-57945163D01*
X160082164Y-57890032D01*
X160039968Y-57847836D01*
X159984837Y-57825000D01*
X159925163Y-57825000D01*
X159870032Y-57847836D01*
X159827836Y-57890032D01*
X159805000Y-57945163D01*
X158942500Y-57945163D01*
X158942500Y-57849000D01*
X158962185Y-57781961D01*
X159014989Y-57736206D01*
X159066500Y-57725000D01*
X159851447Y-57725000D01*
X159851447Y-57724999D01*
X159867319Y-57709128D01*
X159928642Y-57675643D01*
X159998334Y-57680627D01*
X160042681Y-57709128D01*
X160058553Y-57725000D01*
X160467500Y-57725000D01*
X160467500Y-56900000D01*
X158572000Y-56900000D01*
X158504961Y-56880315D01*
X158459206Y-56827511D01*
X158448000Y-56776000D01*
X158448000Y-55829633D01*
X158467685Y-55762594D01*
X158520489Y-55716839D01*
X158549208Y-55707745D01*
X158734956Y-55673024D01*
X158925137Y-55599348D01*
X159098541Y-55491981D01*
X159249264Y-55354579D01*
X159372173Y-55191821D01*
X159463082Y-55009250D01*
X159518897Y-54813083D01*
X159537715Y-54610000D01*
X159524051Y-54462544D01*
X159518897Y-54406917D01*
X159506288Y-54362601D01*
X159463082Y-54210750D01*
X159372173Y-54028179D01*
X159286027Y-53914103D01*
X159249262Y-53865418D01*
X159098541Y-53728019D01*
X159098539Y-53728017D01*
X158925142Y-53620655D01*
X158925135Y-53620651D01*
X158750602Y-53553037D01*
X158695200Y-53510464D01*
X158671610Y-53444697D01*
X158687321Y-53376617D01*
X158707711Y-53349733D01*
X160232777Y-51824669D01*
X160303965Y-51718127D01*
X160312938Y-51696465D01*
X160316659Y-51687483D01*
X160332766Y-51648595D01*
X160353001Y-51599744D01*
X160367729Y-51525702D01*
X160378000Y-51474071D01*
X160378000Y-51444499D01*
X160397685Y-51377460D01*
X160450489Y-51331705D01*
X160501995Y-51320499D01*
X161493000Y-51320499D01*
X161560039Y-51340184D01*
G37*
%TD.AperFunction*%
%TA.AperFunction,Conductor*%
G36*
X193965000Y-45267230D02*
G01*
X194031126Y-45256757D01*
X194031129Y-45256757D01*
X194233217Y-45191095D01*
X194422557Y-45094620D01*
X194594458Y-44969728D01*
X194733330Y-44830856D01*
X194794653Y-44797371D01*
X194864345Y-44802355D01*
X194920279Y-44844226D01*
X194926551Y-44853440D01*
X194930185Y-44859331D01*
X194930186Y-44859334D01*
X195022288Y-45008656D01*
X195146344Y-45132712D01*
X195295666Y-45224814D01*
X195379505Y-45252595D01*
X195436948Y-45292366D01*
X195463772Y-45356882D01*
X195464500Y-45370300D01*
X195464500Y-46130261D01*
X195444815Y-46197300D01*
X195424040Y-46221897D01*
X195398235Y-46245421D01*
X195275327Y-46408178D01*
X195184422Y-46590739D01*
X195184417Y-46590752D01*
X195128602Y-46786917D01*
X195109785Y-46989999D01*
X195109785Y-46990000D01*
X195128602Y-47193082D01*
X195184417Y-47389247D01*
X195184422Y-47389260D01*
X195275327Y-47571821D01*
X195398237Y-47734581D01*
X195548958Y-47871980D01*
X195548960Y-47871982D01*
X195648141Y-47933392D01*
X195722363Y-47979348D01*
X195912544Y-48053024D01*
X196113024Y-48090500D01*
X196202770Y-48090500D01*
X196269809Y-48110185D01*
X196290451Y-48126819D01*
X196381181Y-48217549D01*
X196414666Y-48278872D01*
X196417500Y-48305230D01*
X196417500Y-50729999D01*
X196567472Y-50729999D01*
X196567486Y-50729998D01*
X196670197Y-50719505D01*
X196836619Y-50664358D01*
X196836624Y-50664356D01*
X196985842Y-50572317D01*
X197079464Y-50478695D01*
X197140787Y-50445210D01*
X197210479Y-50450194D01*
X197254827Y-50478695D01*
X197348844Y-50572712D01*
X197358091Y-50578416D01*
X197404818Y-50630360D01*
X197417000Y-50683957D01*
X197417000Y-50863000D01*
X197397315Y-50930039D01*
X197344511Y-50975794D01*
X197293000Y-50987000D01*
X196212498Y-50987000D01*
X196212481Y-50987001D01*
X196109703Y-50997500D01*
X196109700Y-50997501D01*
X195943168Y-51052685D01*
X195943163Y-51052687D01*
X195793842Y-51144789D01*
X195669789Y-51268842D01*
X195577687Y-51418163D01*
X195577685Y-51418168D01*
X195559161Y-51474071D01*
X195522501Y-51584703D01*
X195522501Y-51584704D01*
X195522500Y-51584704D01*
X195512000Y-51687483D01*
X195512000Y-53087501D01*
X195512001Y-53087518D01*
X195522500Y-53190296D01*
X195522501Y-53190299D01*
X195544149Y-53255627D01*
X195577686Y-53356834D01*
X195669788Y-53506156D01*
X195793844Y-53630212D01*
X195943166Y-53722314D01*
X196109703Y-53777499D01*
X196109704Y-53777499D01*
X196116129Y-53779628D01*
X196115581Y-53781278D01*
X196144539Y-53796964D01*
X196173716Y-53785974D01*
X196195566Y-53786270D01*
X196212491Y-53788000D01*
X198312508Y-53787999D01*
X198415297Y-53777499D01*
X198581834Y-53722314D01*
X198731156Y-53630212D01*
X198745319Y-53616049D01*
X198806642Y-53582564D01*
X198876334Y-53587548D01*
X198932267Y-53629420D01*
X198956684Y-53694884D01*
X198957000Y-53703730D01*
X198957000Y-54141977D01*
X198937315Y-54209016D01*
X198884511Y-54254771D01*
X198815353Y-54264715D01*
X198751797Y-54235690D01*
X198746101Y-54230387D01*
X198745846Y-54230184D01*
X198596624Y-54138143D01*
X198596619Y-54138141D01*
X198430197Y-54082994D01*
X198430190Y-54082993D01*
X198327486Y-54072500D01*
X198052500Y-54072500D01*
X198052500Y-55286000D01*
X198032815Y-55353039D01*
X197980011Y-55398794D01*
X197928500Y-55410000D01*
X196795500Y-55410000D01*
X196779287Y-55426212D01*
X196775815Y-55438039D01*
X196723011Y-55483794D01*
X196671500Y-55495000D01*
X195915000Y-55495000D01*
X195915000Y-56469999D01*
X196052472Y-56469999D01*
X196052486Y-56469998D01*
X196155197Y-56459505D01*
X196321619Y-56404358D01*
X196321624Y-56404356D01*
X196470845Y-56312315D01*
X196594817Y-56188343D01*
X196650920Y-56097386D01*
X196702868Y-56050661D01*
X196771830Y-56039438D01*
X196835913Y-56067282D01*
X196844140Y-56074801D01*
X196859155Y-56089816D01*
X196859159Y-56089819D01*
X196862156Y-56091668D01*
X196863779Y-56093472D01*
X196864823Y-56094298D01*
X196864681Y-56094476D01*
X196908881Y-56143616D01*
X196920102Y-56212579D01*
X196892259Y-56276661D01*
X196862161Y-56302741D01*
X196858849Y-56304783D01*
X196858843Y-56304788D01*
X196734789Y-56428842D01*
X196642687Y-56578163D01*
X196642685Y-56578168D01*
X196635140Y-56600938D01*
X196587501Y-56744703D01*
X196587501Y-56744704D01*
X196587500Y-56744704D01*
X196577000Y-56847483D01*
X196577000Y-57622501D01*
X196577001Y-57622519D01*
X196587500Y-57725296D01*
X196587501Y-57725299D01*
X196634332Y-57866624D01*
X196642686Y-57891834D01*
X196734788Y-58041156D01*
X196858844Y-58165212D01*
X196993097Y-58248019D01*
X197039821Y-58299965D01*
X197052000Y-58353557D01*
X197052000Y-59327770D01*
X197032315Y-59394809D01*
X197015681Y-59415451D01*
X196257951Y-60173181D01*
X196196628Y-60206666D01*
X196170270Y-60209500D01*
X195485807Y-60209500D01*
X195418768Y-60189815D01*
X195402269Y-60177137D01*
X195293541Y-60078019D01*
X195293539Y-60078017D01*
X195120142Y-59970655D01*
X195120135Y-59970651D01*
X195004202Y-59925739D01*
X194929956Y-59896976D01*
X194729476Y-59859500D01*
X194525524Y-59859500D01*
X194325044Y-59896976D01*
X194325041Y-59896976D01*
X194325041Y-59896977D01*
X194134864Y-59970651D01*
X194134857Y-59970655D01*
X193961460Y-60078017D01*
X193961458Y-60078019D01*
X193810737Y-60215418D01*
X193687827Y-60378178D01*
X193596922Y-60560739D01*
X193596917Y-60560752D01*
X193541102Y-60756917D01*
X193521937Y-60963744D01*
X193496151Y-61028681D01*
X193486147Y-61039983D01*
X193000552Y-61525578D01*
X192939229Y-61559063D01*
X192869537Y-61554079D01*
X192813604Y-61512207D01*
X192811789Y-61509782D01*
X192810046Y-61507454D01*
X192810045Y-61507453D01*
X192810044Y-61507452D01*
X192694835Y-61421206D01*
X192694828Y-61421202D01*
X192559982Y-61370908D01*
X192559983Y-61370908D01*
X192500383Y-61364501D01*
X192500381Y-61364500D01*
X192500373Y-61364500D01*
X192500365Y-61364500D01*
X192327000Y-61364500D01*
X192259961Y-61344815D01*
X192214206Y-61292011D01*
X192203000Y-61240500D01*
X192203000Y-56468675D01*
X192222685Y-56401636D01*
X192261905Y-56363136D01*
X192342124Y-56313657D01*
X192343656Y-56312712D01*
X192467712Y-56188656D01*
X192467712Y-56188655D01*
X192472819Y-56183549D01*
X192474093Y-56184823D01*
X192523494Y-56149835D01*
X192593293Y-56146690D01*
X192653712Y-56181779D01*
X192658908Y-56187776D01*
X192659788Y-56188656D01*
X192783844Y-56312712D01*
X192933166Y-56404814D01*
X193099703Y-56459999D01*
X193202491Y-56470500D01*
X193977508Y-56470499D01*
X193977516Y-56470498D01*
X193977519Y-56470498D01*
X194033802Y-56464748D01*
X194080297Y-56459999D01*
X194246834Y-56404814D01*
X194396156Y-56312712D01*
X194520212Y-56188656D01*
X194522252Y-56185347D01*
X194524245Y-56183555D01*
X194524693Y-56182989D01*
X194524789Y-56183065D01*
X194574194Y-56138623D01*
X194643156Y-56127395D01*
X194707240Y-56155234D01*
X194733329Y-56185339D01*
X194735181Y-56188341D01*
X194735183Y-56188344D01*
X194859154Y-56312315D01*
X195008375Y-56404356D01*
X195008380Y-56404358D01*
X195174802Y-56459505D01*
X195174809Y-56459506D01*
X195277519Y-56469999D01*
X195414999Y-56469999D01*
X195415000Y-56469998D01*
X195415000Y-54020000D01*
X195915000Y-54020000D01*
X195915000Y-54995000D01*
X196534500Y-54995000D01*
X196550712Y-54978787D01*
X196554185Y-54966961D01*
X196606989Y-54921206D01*
X196658500Y-54910000D01*
X197552500Y-54910000D01*
X197552500Y-54072500D01*
X197277529Y-54072500D01*
X197277512Y-54072501D01*
X197174802Y-54082994D01*
X197008380Y-54138141D01*
X197008375Y-54138143D01*
X196859157Y-54230182D01*
X196778505Y-54310834D01*
X196717181Y-54344318D01*
X196647490Y-54339334D01*
X196601116Y-54305570D01*
X196599924Y-54306763D01*
X196470845Y-54177684D01*
X196321624Y-54085643D01*
X196321619Y-54085641D01*
X196148770Y-54028365D01*
X196149316Y-54026716D01*
X196120359Y-54011027D01*
X196091195Y-54022017D01*
X196069333Y-54021721D01*
X196052493Y-54020001D01*
X196052474Y-54020000D01*
X195915000Y-54020000D01*
X195415000Y-54020000D01*
X195277527Y-54020000D01*
X195277512Y-54020001D01*
X195174802Y-54030494D01*
X195008380Y-54085641D01*
X195008375Y-54085643D01*
X194859154Y-54177684D01*
X194735183Y-54301655D01*
X194735179Y-54301660D01*
X194733326Y-54304665D01*
X194731518Y-54306290D01*
X194730702Y-54307323D01*
X194730525Y-54307183D01*
X194681374Y-54351385D01*
X194612411Y-54362601D01*
X194548331Y-54334752D01*
X194522253Y-54304653D01*
X194522237Y-54304628D01*
X194520212Y-54301344D01*
X194396156Y-54177288D01*
X194390489Y-54172807D01*
X194391930Y-54170984D01*
X194352675Y-54127335D01*
X194340500Y-54073752D01*
X194340500Y-53891825D01*
X194360185Y-53824786D01*
X194412989Y-53779031D01*
X194425489Y-53774121D01*
X194581834Y-53722314D01*
X194731156Y-53630212D01*
X194855212Y-53506156D01*
X194947314Y-53356834D01*
X195002499Y-53190297D01*
X195013000Y-53087509D01*
X195012999Y-51687492D01*
X195011750Y-51675269D01*
X195002499Y-51584703D01*
X195002498Y-51584700D01*
X194985919Y-51534669D01*
X194947314Y-51418166D01*
X194855212Y-51268844D01*
X194731156Y-51144788D01*
X194629871Y-51082315D01*
X194581836Y-51052687D01*
X194581831Y-51052685D01*
X194512699Y-51029777D01*
X194415297Y-50997501D01*
X194415295Y-50997500D01*
X194312516Y-50987000D01*
X194312509Y-50987000D01*
X194212362Y-50987000D01*
X194145323Y-50967315D01*
X194099568Y-50914511D01*
X194089624Y-50845353D01*
X194118649Y-50781797D01*
X194124680Y-50775320D01*
X194145000Y-50754999D01*
X194645000Y-50754999D01*
X194782472Y-50754999D01*
X194782486Y-50754998D01*
X194885197Y-50744505D01*
X195051619Y-50689358D01*
X195051624Y-50689356D01*
X195200840Y-50597318D01*
X195203551Y-50594608D01*
X195205874Y-50593338D01*
X195206507Y-50592839D01*
X195206592Y-50592947D01*
X195264872Y-50561119D01*
X195334564Y-50566099D01*
X195356335Y-50576745D01*
X195498375Y-50664356D01*
X195498380Y-50664358D01*
X195664802Y-50719505D01*
X195664809Y-50719506D01*
X195767519Y-50729999D01*
X195917499Y-50729999D01*
X195917500Y-50729998D01*
X195917500Y-49780000D01*
X194645000Y-49780000D01*
X194645000Y-50754999D01*
X194145000Y-50754999D01*
X194145000Y-49280000D01*
X194645000Y-49280000D01*
X195917500Y-49280000D01*
X195917500Y-48330000D01*
X195767527Y-48330000D01*
X195767512Y-48330001D01*
X195664802Y-48340494D01*
X195498380Y-48395641D01*
X195498371Y-48395645D01*
X195356334Y-48483254D01*
X195288942Y-48501694D01*
X195222278Y-48480771D01*
X195203557Y-48465396D01*
X195200845Y-48462684D01*
X195051624Y-48370643D01*
X195051619Y-48370641D01*
X194885197Y-48315494D01*
X194885190Y-48315493D01*
X194782486Y-48305000D01*
X194645000Y-48305000D01*
X194645000Y-49280000D01*
X194145000Y-49280000D01*
X194145000Y-48305000D01*
X194007527Y-48305000D01*
X194007512Y-48305001D01*
X193904802Y-48315494D01*
X193738380Y-48370641D01*
X193738375Y-48370643D01*
X193589154Y-48462684D01*
X193465183Y-48586655D01*
X193465179Y-48586660D01*
X193463326Y-48589665D01*
X193461518Y-48591290D01*
X193460702Y-48592323D01*
X193460525Y-48592183D01*
X193411374Y-48636385D01*
X193342411Y-48647601D01*
X193278331Y-48619752D01*
X193252253Y-48589653D01*
X193252237Y-48589628D01*
X193250212Y-48586344D01*
X193126156Y-48462288D01*
X193126155Y-48462287D01*
X193098902Y-48445477D01*
X193052178Y-48393528D01*
X193040000Y-48339939D01*
X193040000Y-45310825D01*
X193059685Y-45243786D01*
X193112489Y-45198031D01*
X193181647Y-45188087D01*
X193202318Y-45192894D01*
X193398871Y-45256757D01*
X193465000Y-45267231D01*
X193465000Y-44219145D01*
X193531657Y-44257630D01*
X193652465Y-44290000D01*
X193777535Y-44290000D01*
X193898343Y-44257630D01*
X193965000Y-44219145D01*
X193965000Y-45267230D01*
G37*
%TD.AperFunction*%
%TA.AperFunction,Conductor*%
G36*
X203104981Y-53057685D02*
G01*
X203125623Y-53074319D01*
X205100681Y-55049376D01*
X205134166Y-55110699D01*
X205137000Y-55137057D01*
X205137000Y-58791862D01*
X205117315Y-58858901D01*
X205078098Y-58897399D01*
X205073724Y-58900098D01*
X204968842Y-58964789D01*
X204875181Y-59058451D01*
X204813858Y-59091936D01*
X204744166Y-59086952D01*
X204699819Y-59058451D01*
X204606157Y-58964789D01*
X204606156Y-58964788D01*
X204505981Y-58903000D01*
X204456836Y-58872687D01*
X204456831Y-58872685D01*
X204432625Y-58864664D01*
X204290297Y-58817501D01*
X204290295Y-58817500D01*
X204187510Y-58807000D01*
X203387498Y-58807000D01*
X203387480Y-58807001D01*
X203284703Y-58817500D01*
X203284700Y-58817501D01*
X203118168Y-58872685D01*
X203118163Y-58872687D01*
X202968845Y-58964787D01*
X202841742Y-59091890D01*
X202780419Y-59125374D01*
X202710727Y-59120390D01*
X202654794Y-59078518D01*
X202637879Y-59047541D01*
X202588798Y-58915948D01*
X202588794Y-58915941D01*
X202502548Y-58800732D01*
X202502545Y-58800729D01*
X202387336Y-58714483D01*
X202387329Y-58714479D01*
X202255351Y-58665255D01*
X202199417Y-58623384D01*
X202175000Y-58557920D01*
X202189851Y-58489647D01*
X202210997Y-58461398D01*
X202333495Y-58338901D01*
X202469035Y-58145330D01*
X202568903Y-57931163D01*
X202630063Y-57702908D01*
X202650659Y-57467500D01*
X202630063Y-57232092D01*
X202568903Y-57003837D01*
X202469035Y-56789671D01*
X202437623Y-56744809D01*
X202333494Y-56596097D01*
X202166402Y-56429006D01*
X202166401Y-56429005D01*
X201986913Y-56303326D01*
X201980405Y-56298769D01*
X201936781Y-56244192D01*
X201929588Y-56174693D01*
X201961110Y-56112339D01*
X201980405Y-56095619D01*
X202166082Y-55965605D01*
X202333105Y-55798582D01*
X202468600Y-55605078D01*
X202568429Y-55390992D01*
X202568432Y-55390986D01*
X202625636Y-55177500D01*
X201728012Y-55177500D01*
X201760925Y-55120493D01*
X201795000Y-54993326D01*
X201795000Y-54861674D01*
X201760925Y-54734507D01*
X201728012Y-54677500D01*
X202625636Y-54677500D01*
X202625635Y-54677499D01*
X202568432Y-54464013D01*
X202568429Y-54464007D01*
X202468600Y-54249922D01*
X202468599Y-54249920D01*
X202333113Y-54056426D01*
X202333108Y-54056420D01*
X202166078Y-53889390D01*
X201980405Y-53759379D01*
X201936780Y-53704802D01*
X201929588Y-53635304D01*
X201961110Y-53572949D01*
X201980406Y-53556230D01*
X201993622Y-53546976D01*
X202166401Y-53425995D01*
X202333495Y-53258901D01*
X202451147Y-53090877D01*
X202505724Y-53047252D01*
X202552722Y-53038000D01*
X203037942Y-53038000D01*
X203104981Y-53057685D01*
G37*
%TD.AperFunction*%
%TA.AperFunction,Conductor*%
G36*
X169567309Y-41045185D02*
G01*
X169587951Y-41061819D01*
X170213181Y-41687049D01*
X170246666Y-41748372D01*
X170249500Y-41774730D01*
X170249500Y-42262501D01*
X170249501Y-42262519D01*
X170260000Y-42365296D01*
X170260001Y-42365299D01*
X170315185Y-42531831D01*
X170315187Y-42531836D01*
X170407289Y-42681157D01*
X170500951Y-42774819D01*
X170534436Y-42836142D01*
X170529452Y-42905834D01*
X170500951Y-42950181D01*
X170407289Y-43043842D01*
X170315187Y-43193163D01*
X170315186Y-43193166D01*
X170260001Y-43359703D01*
X170260001Y-43359704D01*
X170260000Y-43359704D01*
X170249500Y-43462483D01*
X170249500Y-44091691D01*
X170229815Y-44158730D01*
X170213181Y-44179372D01*
X169382224Y-45010329D01*
X169326133Y-45094278D01*
X169326132Y-45094278D01*
X169311036Y-45116870D01*
X169311034Y-45116874D01*
X169261999Y-45235255D01*
X169261997Y-45235261D01*
X169237000Y-45360928D01*
X169237000Y-48695500D01*
X169217315Y-48762539D01*
X169164511Y-48808294D01*
X169113000Y-48819500D01*
X168119629Y-48819500D01*
X168119623Y-48819501D01*
X168060018Y-48825908D01*
X168025831Y-48838659D01*
X167956139Y-48843642D01*
X167939169Y-48838659D01*
X167921640Y-48832121D01*
X167904983Y-48825909D01*
X167904982Y-48825908D01*
X167845383Y-48819501D01*
X167845381Y-48819500D01*
X167845373Y-48819500D01*
X167845364Y-48819500D01*
X166849629Y-48819500D01*
X166849623Y-48819501D01*
X166790018Y-48825908D01*
X166755831Y-48838659D01*
X166686139Y-48843642D01*
X166669169Y-48838659D01*
X166651640Y-48832121D01*
X166634983Y-48825909D01*
X166634982Y-48825908D01*
X166575383Y-48819501D01*
X166575381Y-48819500D01*
X166575373Y-48819500D01*
X166575364Y-48819500D01*
X165579629Y-48819500D01*
X165579623Y-48819501D01*
X165520018Y-48825908D01*
X165485831Y-48838659D01*
X165416139Y-48843642D01*
X165399169Y-48838659D01*
X165381640Y-48832121D01*
X165364983Y-48825909D01*
X165364982Y-48825908D01*
X165305383Y-48819501D01*
X165305381Y-48819500D01*
X165305373Y-48819500D01*
X165305364Y-48819500D01*
X164309629Y-48819500D01*
X164309623Y-48819501D01*
X164250018Y-48825908D01*
X164215831Y-48838659D01*
X164146139Y-48843642D01*
X164129169Y-48838659D01*
X164111640Y-48832121D01*
X164094983Y-48825909D01*
X164094982Y-48825908D01*
X164035383Y-48819501D01*
X164035381Y-48819500D01*
X164035373Y-48819500D01*
X164035364Y-48819500D01*
X163039629Y-48819500D01*
X163039623Y-48819501D01*
X162980018Y-48825908D01*
X162945831Y-48838659D01*
X162876139Y-48843642D01*
X162859169Y-48838659D01*
X162841640Y-48832121D01*
X162824983Y-48825909D01*
X162824982Y-48825908D01*
X162765383Y-48819501D01*
X162765381Y-48819500D01*
X162765373Y-48819500D01*
X162765364Y-48819500D01*
X161769629Y-48819500D01*
X161769623Y-48819501D01*
X161710018Y-48825908D01*
X161675831Y-48838659D01*
X161606139Y-48843642D01*
X161589169Y-48838659D01*
X161571640Y-48832121D01*
X161554983Y-48825909D01*
X161554982Y-48825908D01*
X161495383Y-48819501D01*
X161495381Y-48819500D01*
X161495373Y-48819500D01*
X161495364Y-48819500D01*
X160499629Y-48819500D01*
X160499623Y-48819501D01*
X160440018Y-48825908D01*
X160405831Y-48838659D01*
X160336139Y-48843642D01*
X160319169Y-48838659D01*
X160301640Y-48832121D01*
X160284983Y-48825909D01*
X160284982Y-48825908D01*
X160225383Y-48819501D01*
X160225381Y-48819500D01*
X160225373Y-48819500D01*
X160225365Y-48819500D01*
X159232000Y-48819500D01*
X159164961Y-48799815D01*
X159119206Y-48747011D01*
X159108000Y-48695500D01*
X159108000Y-44110807D01*
X159127685Y-44043768D01*
X159144310Y-44023135D01*
X159274739Y-43892705D01*
X159336058Y-43859223D01*
X159394506Y-43860613D01*
X159467092Y-43880063D01*
X159643534Y-43895500D01*
X159702499Y-43900659D01*
X159702500Y-43900659D01*
X159702501Y-43900659D01*
X159761466Y-43895500D01*
X159937908Y-43880063D01*
X160166163Y-43818903D01*
X160380330Y-43719035D01*
X160573901Y-43583495D01*
X160740995Y-43416401D01*
X160870925Y-43230842D01*
X160925502Y-43187217D01*
X160995000Y-43180023D01*
X161057355Y-43211546D01*
X161074075Y-43230842D01*
X161203781Y-43416082D01*
X161204005Y-43416401D01*
X161371099Y-43583495D01*
X161456308Y-43643159D01*
X161564665Y-43719032D01*
X161564667Y-43719033D01*
X161564670Y-43719035D01*
X161778837Y-43818903D01*
X161778843Y-43818904D01*
X161778844Y-43818905D01*
X161833785Y-43833626D01*
X162007092Y-43880063D01*
X162183534Y-43895500D01*
X162242499Y-43900659D01*
X162242500Y-43900659D01*
X162242501Y-43900659D01*
X162301466Y-43895500D01*
X162477908Y-43880063D01*
X162706163Y-43818903D01*
X162920330Y-43719035D01*
X163113901Y-43583495D01*
X163280995Y-43416401D01*
X163410925Y-43230842D01*
X163465502Y-43187217D01*
X163535000Y-43180023D01*
X163597355Y-43211546D01*
X163614075Y-43230842D01*
X163743781Y-43416082D01*
X163744005Y-43416401D01*
X163911099Y-43583495D01*
X163996308Y-43643159D01*
X164104665Y-43719032D01*
X164104667Y-43719033D01*
X164104670Y-43719035D01*
X164318837Y-43818903D01*
X164318843Y-43818904D01*
X164318844Y-43818905D01*
X164373785Y-43833626D01*
X164547092Y-43880063D01*
X164723534Y-43895500D01*
X164782499Y-43900659D01*
X164782500Y-43900659D01*
X164782501Y-43900659D01*
X164841466Y-43895500D01*
X165017908Y-43880063D01*
X165246163Y-43818903D01*
X165460330Y-43719035D01*
X165653901Y-43583495D01*
X165820995Y-43416401D01*
X165951230Y-43230405D01*
X166005807Y-43186781D01*
X166075305Y-43179587D01*
X166137660Y-43211110D01*
X166154379Y-43230405D01*
X166284390Y-43416078D01*
X166451417Y-43583105D01*
X166644921Y-43718600D01*
X166859007Y-43818429D01*
X166859016Y-43818433D01*
X167072500Y-43875634D01*
X167072500Y-42978012D01*
X167129507Y-43010925D01*
X167256674Y-43045000D01*
X167388326Y-43045000D01*
X167515493Y-43010925D01*
X167572500Y-42978012D01*
X167572500Y-43875633D01*
X167785983Y-43818433D01*
X167785992Y-43818429D01*
X168000078Y-43718600D01*
X168193582Y-43583105D01*
X168360605Y-43416082D01*
X168496100Y-43222578D01*
X168595929Y-43008492D01*
X168595932Y-43008486D01*
X168653136Y-42795000D01*
X167755512Y-42795000D01*
X167788425Y-42737993D01*
X167822500Y-42610826D01*
X167822500Y-42479174D01*
X167788425Y-42352007D01*
X167755512Y-42295000D01*
X168653136Y-42295000D01*
X168653135Y-42294999D01*
X168595932Y-42081513D01*
X168595929Y-42081507D01*
X168496100Y-41867422D01*
X168496099Y-41867420D01*
X168360613Y-41673926D01*
X168360608Y-41673920D01*
X168193582Y-41506894D01*
X168000078Y-41371399D01*
X167785992Y-41271570D01*
X167785983Y-41271566D01*
X167777431Y-41269275D01*
X167717770Y-41232910D01*
X167687241Y-41170063D01*
X167695536Y-41100688D01*
X167740021Y-41046810D01*
X167806573Y-41025535D01*
X167809524Y-41025500D01*
X169500270Y-41025500D01*
X169567309Y-41045185D01*
G37*
%TD.AperFunction*%
%TD*%
%TA.AperFunction,Conductor*%
%TO.N,Net-(D1-K)*%
G36*
X192477539Y-39572685D02*
G01*
X192523294Y-39625489D01*
X192534500Y-39677000D01*
X192534500Y-42319182D01*
X192536353Y-42362426D01*
X192538169Y-42383574D01*
X192543720Y-42426519D01*
X192543720Y-42426521D01*
X192588177Y-42563348D01*
X192588179Y-42563352D01*
X192588181Y-42563356D01*
X192619009Y-42626057D01*
X192619010Y-42626059D01*
X192619013Y-42626064D01*
X192666482Y-42695486D01*
X192688072Y-42761936D01*
X192670310Y-42829510D01*
X192664441Y-42838361D01*
X192565318Y-42974793D01*
X192509989Y-43017459D01*
X192440375Y-43023438D01*
X192378580Y-42990833D01*
X192364682Y-42974793D01*
X192245109Y-42810214D01*
X192245105Y-42810209D01*
X192094786Y-42659890D01*
X191922820Y-42534951D01*
X191733414Y-42438444D01*
X191733413Y-42438443D01*
X191733412Y-42438443D01*
X191531243Y-42372754D01*
X191531241Y-42372753D01*
X191531240Y-42372753D01*
X191369957Y-42347208D01*
X191321287Y-42339500D01*
X191108713Y-42339500D01*
X191060042Y-42347208D01*
X190898760Y-42372753D01*
X190696585Y-42438444D01*
X190507179Y-42534951D01*
X190335213Y-42659890D01*
X190184894Y-42810209D01*
X190184890Y-42810214D01*
X190065318Y-42974793D01*
X190009989Y-43017459D01*
X189940375Y-43023438D01*
X189878580Y-42990833D01*
X189864682Y-42974793D01*
X189745109Y-42810214D01*
X189745105Y-42810209D01*
X189594786Y-42659890D01*
X189422820Y-42534951D01*
X189233414Y-42438444D01*
X189233413Y-42438443D01*
X189233412Y-42438443D01*
X189031243Y-42372754D01*
X189031241Y-42372753D01*
X189031240Y-42372753D01*
X188869957Y-42347208D01*
X188821287Y-42339500D01*
X188608713Y-42339500D01*
X188560042Y-42347208D01*
X188398760Y-42372753D01*
X188196585Y-42438444D01*
X188007179Y-42534951D01*
X187835213Y-42659890D01*
X187684890Y-42810213D01*
X187559951Y-42982179D01*
X187551232Y-42999293D01*
X187503258Y-43050090D01*
X187440746Y-43067000D01*
X185322328Y-43067000D01*
X185287733Y-43062076D01*
X185142573Y-43019902D01*
X185142567Y-43019901D01*
X185105701Y-43017000D01*
X185105694Y-43017000D01*
X183799306Y-43017000D01*
X183799298Y-43017000D01*
X183762432Y-43019901D01*
X183762426Y-43019902D01*
X183604606Y-43065754D01*
X183604603Y-43065755D01*
X183463137Y-43149417D01*
X183463129Y-43149423D01*
X183346923Y-43265629D01*
X183346917Y-43265637D01*
X183263255Y-43407103D01*
X183263254Y-43407106D01*
X183217402Y-43564926D01*
X183217401Y-43564932D01*
X183214500Y-43601798D01*
X183214500Y-43843500D01*
X183194815Y-43910539D01*
X183142011Y-43956294D01*
X183090500Y-43967500D01*
X182827500Y-43967500D01*
X182827500Y-44517500D01*
X183483185Y-44517500D01*
X183546306Y-44534768D01*
X183604602Y-44569244D01*
X183617269Y-44572924D01*
X183762426Y-44615097D01*
X183762429Y-44615097D01*
X183762431Y-44615098D01*
X183799306Y-44618000D01*
X183799314Y-44618000D01*
X185105686Y-44618000D01*
X185105694Y-44618000D01*
X185142569Y-44615098D01*
X185142571Y-44615097D01*
X185142573Y-44615097D01*
X185287733Y-44572924D01*
X185322328Y-44568000D01*
X187443294Y-44568000D01*
X187510333Y-44587685D01*
X187553778Y-44635705D01*
X187559949Y-44647816D01*
X187559953Y-44647822D01*
X187559956Y-44647826D01*
X187684890Y-44819786D01*
X187835213Y-44970109D01*
X188007179Y-45095048D01*
X188007181Y-45095049D01*
X188007184Y-45095051D01*
X188196588Y-45191557D01*
X188398757Y-45257246D01*
X188608713Y-45290500D01*
X188608714Y-45290500D01*
X188821286Y-45290500D01*
X188821287Y-45290500D01*
X189031243Y-45257246D01*
X189233412Y-45191557D01*
X189422816Y-45095051D01*
X189485626Y-45049417D01*
X189594786Y-44970109D01*
X189594788Y-44970106D01*
X189594792Y-44970104D01*
X189745104Y-44819792D01*
X189864683Y-44655204D01*
X189920011Y-44612540D01*
X189989624Y-44606561D01*
X190051420Y-44639166D01*
X190065313Y-44655199D01*
X190163554Y-44790417D01*
X190184896Y-44819792D01*
X190335213Y-44970109D01*
X190507179Y-45095048D01*
X190507181Y-45095049D01*
X190507184Y-45095051D01*
X190696588Y-45191557D01*
X190898757Y-45257246D01*
X191108713Y-45290500D01*
X191108714Y-45290500D01*
X191321286Y-45290500D01*
X191321287Y-45290500D01*
X191531243Y-45257246D01*
X191733412Y-45191557D01*
X191922816Y-45095051D01*
X191985626Y-45049417D01*
X192094786Y-44970109D01*
X192094788Y-44970106D01*
X192094792Y-44970104D01*
X192245104Y-44819792D01*
X192364683Y-44655204D01*
X192420011Y-44612540D01*
X192489624Y-44606561D01*
X192551420Y-44639166D01*
X192565313Y-44655199D01*
X192619205Y-44729375D01*
X192663554Y-44790417D01*
X192687033Y-44856224D01*
X192671207Y-44924278D01*
X192656949Y-44944504D01*
X192634433Y-44970489D01*
X192634430Y-44970493D01*
X192574664Y-45101359D01*
X192555790Y-45165637D01*
X192554977Y-45168405D01*
X192554976Y-45168409D01*
X192535958Y-45300688D01*
X192534500Y-45310826D01*
X192534500Y-48180500D01*
X192514815Y-48247539D01*
X192462011Y-48293294D01*
X192410500Y-48304500D01*
X191932498Y-48304500D01*
X191932480Y-48304501D01*
X191829703Y-48315000D01*
X191829700Y-48315001D01*
X191663168Y-48370185D01*
X191663163Y-48370187D01*
X191513844Y-48462288D01*
X191486800Y-48489332D01*
X191425476Y-48522816D01*
X191355785Y-48517830D01*
X191299852Y-48475958D01*
X191275436Y-48410493D01*
X191275648Y-48390216D01*
X191287715Y-48260000D01*
X191277218Y-48146722D01*
X191268897Y-48056917D01*
X191240547Y-47957279D01*
X191213082Y-47860750D01*
X191122173Y-47678179D01*
X191031249Y-47557776D01*
X190999262Y-47515418D01*
X190848541Y-47378019D01*
X190848539Y-47378017D01*
X190675142Y-47270655D01*
X190675135Y-47270651D01*
X190507155Y-47205576D01*
X190484956Y-47196976D01*
X190284476Y-47159500D01*
X190080524Y-47159500D01*
X189880044Y-47196976D01*
X189880041Y-47196976D01*
X189880041Y-47196977D01*
X189689864Y-47270651D01*
X189689857Y-47270655D01*
X189516460Y-47378017D01*
X189516458Y-47378019D01*
X189365737Y-47515418D01*
X189242827Y-47678178D01*
X189151922Y-47860739D01*
X189151917Y-47860752D01*
X189096102Y-48056917D01*
X189077285Y-48259999D01*
X189077285Y-48260000D01*
X189096102Y-48463082D01*
X189151917Y-48659247D01*
X189151922Y-48659260D01*
X189230015Y-48816091D01*
X189242827Y-48841821D01*
X189350693Y-48984659D01*
X189375385Y-49050019D01*
X189360820Y-49118354D01*
X189339421Y-49147065D01*
X189229532Y-49256955D01*
X189229529Y-49256959D01*
X189140501Y-49401294D01*
X189140496Y-49401305D01*
X189087151Y-49562290D01*
X189077000Y-49661647D01*
X189077000Y-50208337D01*
X189077001Y-50208355D01*
X189087150Y-50307707D01*
X189087151Y-50307710D01*
X189140496Y-50468694D01*
X189140501Y-50468705D01*
X189229529Y-50613040D01*
X189229532Y-50613044D01*
X189349455Y-50732967D01*
X189349459Y-50732970D01*
X189493794Y-50821998D01*
X189493797Y-50821999D01*
X189493803Y-50822003D01*
X189654792Y-50875349D01*
X189754155Y-50885500D01*
X190700844Y-50885499D01*
X190700852Y-50885498D01*
X190700855Y-50885498D01*
X190755260Y-50879940D01*
X190800208Y-50875349D01*
X190961197Y-50822003D01*
X191105544Y-50732968D01*
X191116693Y-50721819D01*
X191178016Y-50688334D01*
X191204374Y-50685500D01*
X191630138Y-50685500D01*
X191669140Y-50691793D01*
X191829703Y-50744999D01*
X191932491Y-50755500D01*
X192073178Y-50755499D01*
X192140216Y-50775183D01*
X192185971Y-50827987D01*
X192195915Y-50897145D01*
X192166891Y-50960701D01*
X192112182Y-50997205D01*
X191943378Y-51053142D01*
X191943375Y-51053143D01*
X191794154Y-51145184D01*
X191670184Y-51269154D01*
X191578143Y-51418375D01*
X191578141Y-51418380D01*
X191522994Y-51584802D01*
X191522993Y-51584809D01*
X191512500Y-51687513D01*
X191512500Y-52137500D01*
X193040000Y-52137500D01*
X193040000Y-52637500D01*
X191482312Y-52637500D01*
X191415273Y-52617815D01*
X191369518Y-52565011D01*
X191364606Y-52552504D01*
X191333704Y-52459248D01*
X191314503Y-52401303D01*
X191314499Y-52401297D01*
X191314498Y-52401294D01*
X191225470Y-52256959D01*
X191225467Y-52256955D01*
X191105544Y-52137032D01*
X191105540Y-52137029D01*
X190961205Y-52048001D01*
X190961199Y-52047998D01*
X190961197Y-52047997D01*
X190961194Y-52047996D01*
X190800209Y-51994651D01*
X190700846Y-51984500D01*
X189754162Y-51984500D01*
X189754144Y-51984501D01*
X189654792Y-51994650D01*
X189654789Y-51994651D01*
X189493805Y-52047996D01*
X189493794Y-52048001D01*
X189349459Y-52137029D01*
X189349455Y-52137032D01*
X189229532Y-52256955D01*
X189229529Y-52256959D01*
X189140501Y-52401294D01*
X189140496Y-52401305D01*
X189087151Y-52562290D01*
X189077000Y-52661647D01*
X189077000Y-52972769D01*
X189057315Y-53039808D01*
X189040685Y-53060445D01*
X188976542Y-53124590D01*
X188879546Y-53221586D01*
X188879544Y-53221589D01*
X188834323Y-53289267D01*
X188834324Y-53289268D01*
X188797413Y-53344508D01*
X188740843Y-53481082D01*
X188740840Y-53481092D01*
X188712000Y-53626079D01*
X188712000Y-54073752D01*
X188692315Y-54140791D01*
X188661002Y-54171531D01*
X188662011Y-54172807D01*
X188656343Y-54177288D01*
X188532289Y-54301342D01*
X188440187Y-54450663D01*
X188440185Y-54450668D01*
X188414506Y-54528163D01*
X188385001Y-54617203D01*
X188385001Y-54617204D01*
X188385000Y-54617204D01*
X188374500Y-54719983D01*
X188374500Y-54933000D01*
X188354815Y-55000039D01*
X188302011Y-55045794D01*
X188250500Y-55057000D01*
X187491999Y-55057000D01*
X187424960Y-55037315D01*
X187379205Y-54984511D01*
X187367999Y-54933000D01*
X187367999Y-54594998D01*
X187367998Y-54594981D01*
X187357499Y-54492203D01*
X187357498Y-54492200D01*
X187348603Y-54465358D01*
X187302314Y-54325666D01*
X187210212Y-54176344D01*
X187086156Y-54052288D01*
X186960119Y-53974548D01*
X186936836Y-53960187D01*
X186936831Y-53960185D01*
X186917749Y-53953862D01*
X186770297Y-53905001D01*
X186770295Y-53905000D01*
X186667510Y-53894500D01*
X185767498Y-53894500D01*
X185767480Y-53894501D01*
X185664703Y-53905000D01*
X185664700Y-53905001D01*
X185498168Y-53960185D01*
X185498163Y-53960187D01*
X185348842Y-54052289D01*
X185224789Y-54176342D01*
X185132687Y-54325663D01*
X185132685Y-54325668D01*
X185113263Y-54384281D01*
X185077501Y-54492203D01*
X185077501Y-54492204D01*
X185077500Y-54492204D01*
X185067000Y-54594983D01*
X185067000Y-54933000D01*
X185047315Y-55000039D01*
X184994511Y-55045794D01*
X184943000Y-55057000D01*
X183991499Y-55057000D01*
X183924460Y-55037315D01*
X183878705Y-54984511D01*
X183867499Y-54933000D01*
X183867499Y-54595028D01*
X183867498Y-54595013D01*
X183857005Y-54492302D01*
X183801858Y-54325880D01*
X183801856Y-54325875D01*
X183709815Y-54176654D01*
X183585845Y-54052684D01*
X183436624Y-53960643D01*
X183436619Y-53960641D01*
X183270197Y-53905494D01*
X183270190Y-53905493D01*
X183167486Y-53895000D01*
X182967500Y-53895000D01*
X182967500Y-55371000D01*
X182947815Y-55438039D01*
X182895011Y-55483794D01*
X182843500Y-55495000D01*
X182591500Y-55495000D01*
X182524461Y-55475315D01*
X182478706Y-55422511D01*
X182467500Y-55371000D01*
X182467500Y-53895000D01*
X182267529Y-53895000D01*
X182267512Y-53895001D01*
X182164802Y-53905494D01*
X181998380Y-53960641D01*
X181998375Y-53960643D01*
X181849154Y-54052684D01*
X181725184Y-54176654D01*
X181633143Y-54325875D01*
X181633141Y-54325880D01*
X181577994Y-54492302D01*
X181577993Y-54492309D01*
X181567500Y-54595013D01*
X181567500Y-54933000D01*
X181547815Y-55000039D01*
X181495011Y-55045794D01*
X181443500Y-55057000D01*
X178171999Y-55057000D01*
X178104960Y-55037315D01*
X178059205Y-54984511D01*
X178047999Y-54933000D01*
X178047999Y-54797498D01*
X178047998Y-54797481D01*
X178037499Y-54694703D01*
X178037498Y-54694700D01*
X178011818Y-54617203D01*
X177982314Y-54528166D01*
X177890212Y-54378844D01*
X177766156Y-54254788D01*
X177641148Y-54177683D01*
X177616836Y-54162687D01*
X177616835Y-54162686D01*
X177616834Y-54162686D01*
X177606927Y-54159403D01*
X177582994Y-54151472D01*
X177525550Y-54111699D01*
X177498728Y-54047183D01*
X177498000Y-54033767D01*
X177498000Y-52593428D01*
X177473002Y-52467761D01*
X177473001Y-52467760D01*
X177473001Y-52467756D01*
X177423965Y-52349373D01*
X177374186Y-52274873D01*
X177362788Y-52257815D01*
X177352774Y-52242827D01*
X177079318Y-51969371D01*
X177045833Y-51908048D01*
X177042999Y-51881690D01*
X177042999Y-51252498D01*
X177042998Y-51252481D01*
X177032499Y-51149703D01*
X177032498Y-51149700D01*
X177018236Y-51106660D01*
X176993993Y-51033502D01*
X176991592Y-50963675D01*
X177027324Y-50903633D01*
X177089844Y-50872440D01*
X177111700Y-50870499D01*
X177645371Y-50870499D01*
X177645372Y-50870499D01*
X177704983Y-50864091D01*
X177839831Y-50813796D01*
X177955046Y-50727546D01*
X178041296Y-50612331D01*
X178091591Y-50477483D01*
X178098000Y-50417873D01*
X178097999Y-48822128D01*
X178091591Y-48762517D01*
X178081576Y-48735666D01*
X178041297Y-48627671D01*
X178041293Y-48627664D01*
X177955047Y-48512455D01*
X177955044Y-48512452D01*
X177839835Y-48426206D01*
X177839828Y-48426202D01*
X177704982Y-48375908D01*
X177704983Y-48375908D01*
X177645383Y-48369501D01*
X177645381Y-48369500D01*
X177645373Y-48369500D01*
X177645365Y-48369500D01*
X177622000Y-48369500D01*
X177554961Y-48349815D01*
X177509206Y-48297011D01*
X177498000Y-48245500D01*
X177498000Y-45017501D01*
X181342704Y-45017501D01*
X181342899Y-45019986D01*
X181388718Y-45177698D01*
X181472314Y-45319052D01*
X181472321Y-45319061D01*
X181588438Y-45435178D01*
X181588447Y-45435185D01*
X181729803Y-45518782D01*
X181729806Y-45518783D01*
X181887504Y-45564599D01*
X181887510Y-45564600D01*
X181924350Y-45567499D01*
X181924366Y-45567500D01*
X182327500Y-45567500D01*
X182327500Y-45017500D01*
X182827500Y-45017500D01*
X182827500Y-45567500D01*
X183090500Y-45567500D01*
X183157539Y-45587185D01*
X183203294Y-45639989D01*
X183214500Y-45691500D01*
X183214500Y-45933201D01*
X183217401Y-45970067D01*
X183217402Y-45970073D01*
X183263254Y-46127893D01*
X183263255Y-46127896D01*
X183263256Y-46127898D01*
X183268992Y-46137597D01*
X183346917Y-46269362D01*
X183346923Y-46269370D01*
X183450746Y-46373193D01*
X183484231Y-46434516D01*
X183479247Y-46504208D01*
X183474066Y-46516144D01*
X183438571Y-46587430D01*
X183436918Y-46590750D01*
X183434639Y-46598761D01*
X183381102Y-46786917D01*
X183362285Y-46989999D01*
X183362285Y-46990000D01*
X183381102Y-47193082D01*
X183436917Y-47389247D01*
X183436922Y-47389260D01*
X183527827Y-47571821D01*
X183650737Y-47734581D01*
X183801458Y-47871980D01*
X183801460Y-47871982D01*
X183857603Y-47906744D01*
X183974863Y-47979348D01*
X184165044Y-48053024D01*
X184365524Y-48090500D01*
X184365526Y-48090500D01*
X184569474Y-48090500D01*
X184569476Y-48090500D01*
X184769956Y-48053024D01*
X184960137Y-47979348D01*
X185133541Y-47871981D01*
X185284264Y-47734579D01*
X185407173Y-47571821D01*
X185498082Y-47389250D01*
X185553897Y-47193083D01*
X185572715Y-46990000D01*
X185553897Y-46786917D01*
X185498082Y-46590750D01*
X185496428Y-46587429D01*
X185463404Y-46521107D01*
X185450960Y-46496116D01*
X185438699Y-46427334D01*
X185465572Y-46362839D01*
X185474270Y-46353175D01*
X185558081Y-46269365D01*
X185641744Y-46127898D01*
X185687598Y-45970069D01*
X185690500Y-45933194D01*
X185690500Y-45501806D01*
X185687598Y-45464931D01*
X185683250Y-45449966D01*
X185642826Y-45310826D01*
X185641744Y-45307102D01*
X185558081Y-45165635D01*
X185558079Y-45165633D01*
X185558076Y-45165629D01*
X185441870Y-45049423D01*
X185441862Y-45049417D01*
X185358694Y-45000232D01*
X185300398Y-44965756D01*
X185300397Y-44965755D01*
X185300396Y-44965755D01*
X185300393Y-44965754D01*
X185142573Y-44919902D01*
X185142567Y-44919901D01*
X185105701Y-44917000D01*
X185105694Y-44917000D01*
X183799306Y-44917000D01*
X183799298Y-44917000D01*
X183762432Y-44919901D01*
X183762426Y-44919902D01*
X183604606Y-44965754D01*
X183604603Y-44965755D01*
X183546306Y-45000232D01*
X183483185Y-45017500D01*
X182827500Y-45017500D01*
X182327500Y-45017500D01*
X181342705Y-45017500D01*
X181342704Y-45017501D01*
X177498000Y-45017501D01*
X177498000Y-44973428D01*
X177473002Y-44847761D01*
X177473001Y-44847760D01*
X177473001Y-44847756D01*
X177426118Y-44734570D01*
X177423966Y-44729375D01*
X177423961Y-44729367D01*
X177386503Y-44673307D01*
X177352777Y-44622831D01*
X177247444Y-44517498D01*
X181342704Y-44517498D01*
X181342705Y-44517500D01*
X182327500Y-44517500D01*
X182327500Y-43967500D01*
X181924350Y-43967500D01*
X181887510Y-43970399D01*
X181887504Y-43970400D01*
X181729806Y-44016216D01*
X181729803Y-44016217D01*
X181588447Y-44099814D01*
X181588438Y-44099821D01*
X181472321Y-44215938D01*
X181472314Y-44215947D01*
X181388718Y-44357301D01*
X181342899Y-44515013D01*
X181342704Y-44517498D01*
X177247444Y-44517498D01*
X176012126Y-43282180D01*
X175978641Y-43220857D01*
X175983625Y-43151165D01*
X176025497Y-43095232D01*
X176090961Y-43070815D01*
X176099779Y-43070499D01*
X177645372Y-43070499D01*
X177704983Y-43064091D01*
X177839831Y-43013796D01*
X177955046Y-42927546D01*
X178041296Y-42812331D01*
X178091591Y-42677483D01*
X178098000Y-42617873D01*
X178097999Y-41022128D01*
X178091591Y-40962517D01*
X178068909Y-40901704D01*
X178041297Y-40827671D01*
X178041293Y-40827664D01*
X177955047Y-40712455D01*
X177948775Y-40706183D01*
X177951465Y-40703492D01*
X177920283Y-40661979D01*
X177915184Y-40592296D01*
X177917119Y-40584547D01*
X177933897Y-40525583D01*
X177952715Y-40322500D01*
X177933897Y-40119417D01*
X177878082Y-39923250D01*
X177868813Y-39904636D01*
X177784618Y-39735548D01*
X177786102Y-39734808D01*
X177769608Y-39674906D01*
X177790422Y-39608208D01*
X177843991Y-39563352D01*
X177893590Y-39553000D01*
X192410500Y-39553000D01*
X192477539Y-39572685D01*
G37*
%TD.AperFunction*%
%TA.AperFunction,Conductor*%
G36*
X191520618Y-53296999D02*
G01*
X191571818Y-53344541D01*
X191577639Y-53355544D01*
X191578139Y-53356617D01*
X191670184Y-53505845D01*
X191794154Y-53629815D01*
X191943375Y-53721856D01*
X191943380Y-53721858D01*
X192109802Y-53777005D01*
X192109809Y-53777006D01*
X192212519Y-53787499D01*
X192916000Y-53787499D01*
X192983039Y-53807183D01*
X193028794Y-53859987D01*
X193040000Y-53911499D01*
X193040000Y-53960770D01*
X193020315Y-54027809D01*
X192967511Y-54073564D01*
X192955005Y-54078476D01*
X192933378Y-54085642D01*
X192933375Y-54085643D01*
X192784154Y-54177684D01*
X192655076Y-54306763D01*
X192653933Y-54305620D01*
X192603986Y-54340982D01*
X192534186Y-54344115D01*
X192473773Y-54309015D01*
X192467910Y-54302249D01*
X192343345Y-54177684D01*
X192194124Y-54085643D01*
X192194119Y-54085641D01*
X192027697Y-54030494D01*
X192027690Y-54030493D01*
X191924986Y-54020000D01*
X191787500Y-54020000D01*
X191787500Y-54995000D01*
X193040000Y-54995000D01*
X193040000Y-55495000D01*
X191411500Y-55495000D01*
X191344461Y-55475315D01*
X191298706Y-55422511D01*
X191287500Y-55371000D01*
X191287500Y-54020000D01*
X191150027Y-54020000D01*
X191150010Y-54020001D01*
X191076874Y-54027473D01*
X191008182Y-54014703D01*
X190957297Y-53966822D01*
X190940377Y-53899033D01*
X190962793Y-53832856D01*
X190999172Y-53798579D01*
X191105544Y-53732968D01*
X191225468Y-53613044D01*
X191314503Y-53468697D01*
X191347555Y-53368951D01*
X191387326Y-53311508D01*
X191451842Y-53284684D01*
X191520618Y-53296999D01*
G37*
%TD.AperFunction*%
%TD*%
M02*
