%TF.GenerationSoftware,KiCad,Pcbnew,8.0.5*%
%TF.CreationDate,2024-10-06T21:19:30+02:00*%
%TF.ProjectId,UCB32,55434233-322e-46b6-9963-61645f706362,rev?*%
%TF.SameCoordinates,Original*%
%TF.FileFunction,Copper,L2,Bot*%
%TF.FilePolarity,Positive*%
%FSLAX46Y46*%
G04 Gerber Fmt 4.6, Leading zero omitted, Abs format (unit mm)*
G04 Created by KiCad (PCBNEW 8.0.5) date 2024-10-06 21:19:30*
%MOMM*%
%LPD*%
G01*
G04 APERTURE LIST*
G04 Aperture macros list*
%AMRoundRect*
0 Rectangle with rounded corners*
0 $1 Rounding radius*
0 $2 $3 $4 $5 $6 $7 $8 $9 X,Y pos of 4 corners*
0 Add a 4 corners polygon primitive as box body*
4,1,4,$2,$3,$4,$5,$6,$7,$8,$9,$2,$3,0*
0 Add four circle primitives for the rounded corners*
1,1,$1+$1,$2,$3*
1,1,$1+$1,$4,$5*
1,1,$1+$1,$6,$7*
1,1,$1+$1,$8,$9*
0 Add four rect primitives between the rounded corners*
20,1,$1+$1,$2,$3,$4,$5,0*
20,1,$1+$1,$4,$5,$6,$7,0*
20,1,$1+$1,$6,$7,$8,$9,0*
20,1,$1+$1,$8,$9,$2,$3,0*%
G04 Aperture macros list end*
%TA.AperFunction,ComponentPad*%
%ADD10RoundRect,0.250000X0.600000X0.725000X-0.600000X0.725000X-0.600000X-0.725000X0.600000X-0.725000X0*%
%TD*%
%TA.AperFunction,ComponentPad*%
%ADD11O,1.700000X1.950000*%
%TD*%
%TA.AperFunction,ComponentPad*%
%ADD12R,1.700000X1.700000*%
%TD*%
%TA.AperFunction,ComponentPad*%
%ADD13O,1.700000X1.700000*%
%TD*%
%TA.AperFunction,HeatsinkPad*%
%ADD14C,0.800000*%
%TD*%
%TA.AperFunction,ComponentPad*%
%ADD15R,2.000000X2.000000*%
%TD*%
%TA.AperFunction,ComponentPad*%
%ADD16C,2.000000*%
%TD*%
%TA.AperFunction,SMDPad,CuDef*%
%ADD17RoundRect,0.150000X-0.587500X-0.150000X0.587500X-0.150000X0.587500X0.150000X-0.587500X0.150000X0*%
%TD*%
%TA.AperFunction,SMDPad,CuDef*%
%ADD18RoundRect,0.250000X0.350000X0.450000X-0.350000X0.450000X-0.350000X-0.450000X0.350000X-0.450000X0*%
%TD*%
%TA.AperFunction,SMDPad,CuDef*%
%ADD19RoundRect,0.250000X0.450000X-0.350000X0.450000X0.350000X-0.450000X0.350000X-0.450000X-0.350000X0*%
%TD*%
%TA.AperFunction,ViaPad*%
%ADD20C,1.200000*%
%TD*%
%TA.AperFunction,Conductor*%
%ADD21C,0.500000*%
%TD*%
%TA.AperFunction,Conductor*%
%ADD22C,0.300000*%
%TD*%
G04 APERTURE END LIST*
D10*
%TO.P,X4,1,Pin_1*%
%TO.N,+5V*%
X196215000Y-43815000D03*
D11*
%TO.P,X4,2,Pin_2*%
%TO.N,GNDD*%
X193715000Y-43815000D03*
%TO.P,X4,3,Pin_3*%
%TO.N,unconnected-(X4-Pin_3-Pad3)*%
X191215000Y-43815000D03*
%TO.P,X4,4,Pin_4*%
%TO.N,+BATT*%
X188715000Y-43815000D03*
%TD*%
D12*
%TO.P,X7,1,Pin_1*%
%TO.N,unconnected-(X7-Pin_1-Pad1)*%
X154622500Y-42545000D03*
D13*
%TO.P,X7,2,Pin_2*%
%TO.N,/TX*%
X157162500Y-42545000D03*
%TO.P,X7,3,Pin_3*%
%TO.N,/RX*%
X159702500Y-42545000D03*
%TO.P,X7,4,Pin_4*%
%TO.N,+3V3*%
X162242500Y-42545000D03*
%TO.P,X7,5,Pin_5*%
%TO.N,unconnected-(X7-Pin_5-Pad5)*%
X164782500Y-42545000D03*
%TO.P,X7,6,Pin_6*%
%TO.N,GNDD*%
X167322500Y-42545000D03*
%TD*%
D14*
%TO.P,U2,39,GND*%
%TO.N,GNDD*%
X159955000Y-61025000D03*
X161480000Y-61025000D03*
X159192500Y-60262500D03*
X160717500Y-60262500D03*
X162242500Y-60262500D03*
X159955000Y-59500000D03*
X161480000Y-59500000D03*
X159192500Y-58737500D03*
X160717500Y-58737500D03*
X162242500Y-58737500D03*
X159955000Y-57975000D03*
X161480000Y-57975000D03*
%TD*%
D12*
%TO.P,X5,1,Pin_1*%
%TO.N,GNDD*%
X183832500Y-75247500D03*
D13*
%TO.P,X5,2,Pin_2*%
%TO.N,+3V3*%
X186372500Y-75247500D03*
%TO.P,X5,3,Pin_3*%
%TO.N,/SDA*%
X188912500Y-75247500D03*
%TO.P,X5,4,Pin_4*%
%TO.N,/SCL*%
X191452500Y-75247500D03*
%TD*%
D12*
%TO.P,X1,1,Pin_1*%
%TO.N,/snooze*%
X167322500Y-75247500D03*
D13*
%TO.P,X1,2,Pin_2*%
%TO.N,GNDD*%
X169862500Y-75247500D03*
%TD*%
D15*
%TO.P,LS1,1,1*%
%TO.N,Net-(D1-K)*%
X191452500Y-62865000D03*
D16*
%TO.P,LS1,2,2*%
%TO.N,Net-(D3-A)*%
X186452500Y-62865000D03*
%TD*%
D12*
%TO.P,X6,1,Pin_1*%
%TO.N,+3V3*%
X179387500Y-75247500D03*
D13*
%TO.P,X6,2,Pin_2*%
%TO.N,/Dallas*%
X176847500Y-75247500D03*
%TO.P,X6,3,Pin_3*%
%TO.N,GNDD*%
X174307500Y-75247500D03*
%TD*%
D17*
%TO.P,Q1,1,G*%
%TO.N,+3V3*%
X196547500Y-60957500D03*
%TO.P,Q1,2,S*%
%TO.N,/S0L*%
X196547500Y-59057500D03*
%TO.P,Q1,3,D*%
%TO.N,/S0*%
X198422500Y-60007500D03*
%TD*%
D18*
%TO.P,R8,1*%
%TO.N,/KEY*%
X181975000Y-46037500D03*
%TO.P,R8,2*%
%TO.N,/KEYL*%
X179975000Y-46037500D03*
%TD*%
D19*
%TO.P,R22,1*%
%TO.N,+BATT*%
X184467500Y-43862500D03*
%TO.P,R22,2*%
%TO.N,/UBATSense*%
X184467500Y-41862500D03*
%TD*%
D17*
%TO.P,Q3,1,G*%
%TO.N,+3V3*%
X196547500Y-66037500D03*
%TO.P,Q3,2,S*%
%TO.N,/S2L*%
X196547500Y-64137500D03*
%TO.P,Q3,3,D*%
%TO.N,/S2*%
X198422500Y-65087500D03*
%TD*%
D19*
%TO.P,R23,1*%
%TO.N,/UBATSense*%
X182245000Y-43862500D03*
%TO.P,R23,2*%
%TO.N,GNDD*%
X182245000Y-41862500D03*
%TD*%
D12*
%TO.P,X3,1,Pin_1*%
%TO.N,/KEY*%
X201295000Y-42227500D03*
D13*
%TO.P,X3,2,Pin_2*%
%TO.N,/ALM*%
X201295000Y-44767500D03*
%TO.P,X3,3,Pin_3*%
%TO.N,/DP*%
X201295000Y-47307500D03*
%TO.P,X3,4,Pin_4*%
%TO.N,/COL*%
X201295000Y-49847500D03*
%TO.P,X3,5,Pin_5*%
%TO.N,+5V*%
X201295000Y-52387500D03*
%TO.P,X3,6,Pin_6*%
%TO.N,GNDD*%
X201295000Y-54927500D03*
%TO.P,X3,7,Pin_7*%
%TO.N,/P12V*%
X201295000Y-57467500D03*
%TD*%
D12*
%TO.P,X2,1,Pin_1*%
%TO.N,/S0*%
X201295001Y-60008277D03*
D13*
%TO.P,X2,2,Pin_2*%
%TO.N,/S1*%
X201295001Y-62548277D03*
%TO.P,X2,3,Pin_3*%
%TO.N,/S2*%
X201295001Y-65088277D03*
%TO.P,X2,4,Pin_4*%
%TO.N,/D0*%
X201295001Y-67628277D03*
%TO.P,X2,5,Pin_5*%
%TO.N,/D1*%
X201295001Y-70168277D03*
%TO.P,X2,6,Pin_6*%
%TO.N,/D2*%
X201295001Y-72708277D03*
%TO.P,X2,7,Pin_7*%
%TO.N,/D3*%
X201295001Y-75248277D03*
%TD*%
D17*
%TO.P,Q7,1,G*%
%TO.N,+3V3*%
X196547500Y-76197500D03*
%TO.P,Q7,2,S*%
%TO.N,/D3L*%
X196547500Y-74297500D03*
%TO.P,Q7,3,D*%
%TO.N,/D3*%
X198422500Y-75247500D03*
%TD*%
D19*
%TO.P,R9,1*%
%TO.N,/KEYL*%
X180022500Y-43862500D03*
%TO.P,R9,2*%
%TO.N,GNDD*%
X180022500Y-41862500D03*
%TD*%
D17*
%TO.P,Q5,1,G*%
%TO.N,+3V3*%
X196547500Y-71117500D03*
%TO.P,Q5,2,S*%
%TO.N,/D1L*%
X196547500Y-69217500D03*
%TO.P,Q5,3,D*%
%TO.N,/D1*%
X198422500Y-70167500D03*
%TD*%
D20*
%TO.N,GNDD*%
X184150000Y-57150000D03*
X195665000Y-57065000D03*
X153352500Y-73342500D03*
X173672500Y-57467500D03*
X189547500Y-57150000D03*
X176847500Y-40322500D03*
X183832500Y-73342500D03*
X153352500Y-58737500D03*
X173672500Y-65087500D03*
X155257500Y-47942500D03*
X180975000Y-65087500D03*
X164147500Y-47942500D03*
%TO.N,+3V3*%
X198120000Y-46990000D03*
X190182500Y-48260000D03*
X194627500Y-60960000D03*
X194630000Y-66037500D03*
X194627500Y-76200000D03*
X194627500Y-71120000D03*
%TO.N,+5V*%
X197802500Y-52387500D03*
X196215000Y-46990000D03*
X184467500Y-46990000D03*
%TO.N,/S0L*%
X167322500Y-56832500D03*
%TO.N,/S1L*%
X194627500Y-62865000D03*
X167322500Y-58737500D03*
%TO.N,/S2L*%
X167322500Y-65087500D03*
%TO.N,/D0L*%
X154622500Y-60325000D03*
X194627500Y-67945000D03*
%TO.N,/D1L*%
X164147500Y-69532500D03*
%TO.N,/D2L*%
X166052500Y-69532500D03*
X194627500Y-73025000D03*
%TO.N,/D3L*%
X167957500Y-69532500D03*
%TO.N,/alarm*%
X165417500Y-62230000D03*
X182880000Y-60960000D03*
%TO.N,/KEYL*%
X174942500Y-53657500D03*
X174942500Y-46672500D03*
X168910000Y-53022500D03*
%TO.N,/RST*%
X174942500Y-72072500D03*
X156540000Y-70155000D03*
%TO.N,/SDA*%
X154622500Y-64452500D03*
%TO.N,/SCL*%
X154622500Y-62230000D03*
%TO.N,/UBATSense*%
X173355000Y-46672500D03*
X158432500Y-54610000D03*
X173355000Y-49847500D03*
%TO.N,/DP*%
X160972500Y-54610000D03*
%TO.N,/COL*%
X163830000Y-54610000D03*
%TD*%
D21*
%TO.N,GNDD*%
X153352500Y-58737500D02*
X159192500Y-58737500D01*
X182880000Y-55880000D02*
X172402500Y-55880000D01*
X169862500Y-73342500D02*
X153352500Y-73342500D01*
X189547500Y-57150000D02*
X184150000Y-57150000D01*
X169545000Y-40322500D02*
X167322500Y-42545000D01*
X172402500Y-55880000D02*
X172085000Y-55562500D01*
X190222500Y-40322500D02*
X193715000Y-43815000D01*
X180022500Y-40322500D02*
X176847500Y-40322500D01*
X182245000Y-40322500D02*
X180022500Y-40322500D01*
X174307500Y-73342500D02*
X174307500Y-75247500D01*
X163322500Y-57975000D02*
X161480000Y-57975000D01*
X195665000Y-57065000D02*
X197802500Y-54927500D01*
X165735000Y-55562500D02*
X163322500Y-57975000D01*
X195580000Y-57150000D02*
X189547500Y-57150000D01*
X182245000Y-40322500D02*
X190222500Y-40322500D01*
X169862500Y-75247500D02*
X169862500Y-73342500D01*
X174307500Y-73342500D02*
X169862500Y-73342500D01*
X182245000Y-41862500D02*
X182245000Y-40322500D01*
X183832500Y-73342500D02*
X174307500Y-73342500D01*
X176847500Y-40322500D02*
X169545000Y-40322500D01*
X197802500Y-54927500D02*
X201295000Y-54927500D01*
X180022500Y-40322500D02*
X180022500Y-41862500D01*
X184150000Y-57150000D02*
X182880000Y-55880000D01*
X172085000Y-55562500D02*
X165735000Y-55562500D01*
X195665000Y-57065000D02*
X195580000Y-57150000D01*
D22*
%TO.N,+3V3*%
X196547500Y-71117500D02*
X194627500Y-71120000D01*
X194627500Y-71120000D02*
X194630000Y-71117500D01*
X196547500Y-76197500D02*
X194627500Y-76200000D01*
D21*
X190182500Y-48260000D02*
X167957500Y-48260000D01*
D22*
X194630000Y-66037500D02*
X196547500Y-66037500D01*
D21*
X167957500Y-48260000D02*
X162242500Y-42545000D01*
D22*
X194627500Y-76200000D02*
X194630000Y-76197500D01*
D21*
X198120000Y-46990000D02*
X196850000Y-48260000D01*
X196850000Y-48260000D02*
X190182500Y-48260000D01*
D22*
X196547500Y-60957500D02*
X194627500Y-60960000D01*
X194627500Y-60960000D02*
X194630000Y-60957500D01*
D21*
%TO.N,+5V*%
X197802500Y-52387500D02*
X201295000Y-52387500D01*
D22*
X184467500Y-46990000D02*
X196215000Y-46990000D01*
%TO.N,/S0*%
X201294224Y-60007500D02*
X201295001Y-60008277D01*
X198422500Y-60007500D02*
X201294224Y-60007500D01*
%TO.N,/S0L*%
X193670000Y-59055000D02*
X169545000Y-59055000D01*
X196547500Y-59057500D02*
X193672500Y-59057500D01*
X169545000Y-59055000D02*
X167322500Y-56832500D01*
X193672500Y-59057500D02*
X193670000Y-59055000D01*
%TO.N,/S1L*%
X167322500Y-58737500D02*
X168275000Y-59690000D01*
X168275000Y-59690000D02*
X191452500Y-59690000D01*
X191452500Y-59690000D02*
X194627500Y-62865000D01*
%TO.N,/S2L*%
X167322500Y-65087500D02*
X168592500Y-66357500D01*
X193672500Y-64137500D02*
X196547500Y-64137500D01*
X168592500Y-66357500D02*
X191452500Y-66357500D01*
X196547500Y-64137500D02*
X196545000Y-64135000D01*
X191452500Y-66357500D02*
X193672500Y-64137500D01*
%TO.N,/S2*%
X198422500Y-65087500D02*
X201294224Y-65087500D01*
X201294224Y-65087500D02*
X201295001Y-65088277D01*
%TO.N,/D0L*%
X194627500Y-67945000D02*
X192405000Y-67945000D01*
X192405000Y-67945000D02*
X191452500Y-66992500D01*
X161290000Y-66992500D02*
X154622500Y-60325000D01*
X191452500Y-66992500D02*
X161290000Y-66992500D01*
%TO.N,/D1*%
X201294224Y-70167500D02*
X201295001Y-70168277D01*
X198422500Y-70167500D02*
X201294224Y-70167500D01*
%TO.N,/D1L*%
X192407500Y-69217500D02*
X196547500Y-69217500D01*
X164147500Y-69532500D02*
X166052500Y-67627500D01*
X190817500Y-67627500D02*
X192407500Y-69217500D01*
X166052500Y-67627500D02*
X190817500Y-67627500D01*
%TO.N,/D2L*%
X167322500Y-68262500D02*
X189865000Y-68262500D01*
X166052500Y-69532500D02*
X167322500Y-68262500D01*
X189865000Y-68262500D02*
X194627500Y-73025000D01*
%TO.N,/D3*%
X201294224Y-75247500D02*
X201295001Y-75248277D01*
X198422500Y-75247500D02*
X201294224Y-75247500D01*
%TO.N,/D3L*%
X188595000Y-69532500D02*
X193360000Y-74297500D01*
X167957500Y-69532500D02*
X188595000Y-69532500D01*
X193360000Y-74297500D02*
X196547500Y-74297500D01*
%TO.N,/alarm*%
X166687500Y-60960000D02*
X182880000Y-60960000D01*
X165417500Y-62230000D02*
X166687500Y-60960000D01*
%TO.N,+BATT*%
X188667500Y-43862500D02*
X188715000Y-43815000D01*
X184467500Y-43862500D02*
X188667500Y-43862500D01*
%TO.N,/KEYL*%
X179975000Y-46037500D02*
X179975000Y-43910000D01*
X174942500Y-46672500D02*
X175577500Y-46037500D01*
X175577500Y-46037500D02*
X179975000Y-46037500D01*
X179975000Y-43910000D02*
X180022500Y-43862500D01*
X168910000Y-53022500D02*
X169545000Y-53657500D01*
X169545000Y-53657500D02*
X174942500Y-53657500D01*
%TO.N,/KEY*%
X197802500Y-45720000D02*
X182292500Y-45720000D01*
X182292500Y-45720000D02*
X181975000Y-46037500D01*
X201295000Y-42227500D02*
X197802500Y-45720000D01*
%TO.N,/RST*%
X158457500Y-72072500D02*
X174942500Y-72072500D01*
X156540000Y-70155000D02*
X158457500Y-72072500D01*
%TO.N,/SDA*%
X184467500Y-70802500D02*
X171132500Y-70802500D01*
X188912500Y-75247500D02*
X184467500Y-70802500D01*
X170497500Y-71437500D02*
X161607500Y-71437500D01*
X161607500Y-71437500D02*
X154622500Y-64452500D01*
X171132500Y-70802500D02*
X170497500Y-71437500D01*
%TO.N,/SCL*%
X186372500Y-70167500D02*
X170815000Y-70167500D01*
X170815000Y-70167500D02*
X170180000Y-70802500D01*
X163195000Y-70802500D02*
X154622500Y-62230000D01*
X170180000Y-70802500D02*
X163195000Y-70802500D01*
X191452500Y-75247500D02*
X186372500Y-70167500D01*
%TO.N,/UBATSense*%
X158432500Y-54610000D02*
X163195000Y-49847500D01*
X183467500Y-42862500D02*
X184467500Y-41862500D01*
X177165000Y-42862500D02*
X182245000Y-42862500D01*
X182245000Y-43862500D02*
X182245000Y-42862500D01*
X158432500Y-54610000D02*
X158432500Y-54610000D01*
X173355000Y-46672500D02*
X177165000Y-42862500D01*
X182245000Y-42862500D02*
X183467500Y-42862500D01*
X163195000Y-49847500D02*
X173355000Y-49847500D01*
%TO.N,/DP*%
X164465000Y-51117500D02*
X160972500Y-54610000D01*
X199707500Y-47307500D02*
X195897500Y-51117500D01*
X201295000Y-47307500D02*
X199707500Y-47307500D01*
X195897500Y-51117500D02*
X164465000Y-51117500D01*
%TO.N,/COL*%
X198120000Y-49847500D02*
X201295000Y-49847500D01*
X163830000Y-54610000D02*
X166687500Y-51752500D01*
X196215000Y-51752500D02*
X198120000Y-49847500D01*
X166687500Y-51752500D02*
X196215000Y-51752500D01*
%TD*%
%TA.AperFunction,Conductor*%
%TO.N,GNDD*%
G36*
X207742539Y-39572685D02*
G01*
X207788294Y-39625489D01*
X207799500Y-39677000D01*
X207799500Y-78115500D01*
X207779815Y-78182539D01*
X207727011Y-78228294D01*
X207675500Y-78239500D01*
X152389500Y-78239500D01*
X152322461Y-78219815D01*
X152276706Y-78167011D01*
X152265500Y-78115500D01*
X152265500Y-74349635D01*
X165972000Y-74349635D01*
X165972000Y-76145370D01*
X165972001Y-76145376D01*
X165978408Y-76204983D01*
X166028702Y-76339828D01*
X166028706Y-76339835D01*
X166114952Y-76455044D01*
X166114955Y-76455047D01*
X166230164Y-76541293D01*
X166230171Y-76541297D01*
X166365017Y-76591591D01*
X166365016Y-76591591D01*
X166371944Y-76592335D01*
X166424627Y-76598000D01*
X168220372Y-76597999D01*
X168279983Y-76591591D01*
X168414831Y-76541296D01*
X168530046Y-76455046D01*
X168616296Y-76339831D01*
X168616388Y-76339586D01*
X168636374Y-76285998D01*
X168665502Y-76207901D01*
X168707372Y-76151968D01*
X168772837Y-76127550D01*
X168841110Y-76142401D01*
X168869365Y-76163553D01*
X168991417Y-76285605D01*
X169184921Y-76421100D01*
X169399007Y-76520929D01*
X169399016Y-76520933D01*
X169612500Y-76578134D01*
X169612500Y-75680512D01*
X169669507Y-75713425D01*
X169796674Y-75747500D01*
X169928326Y-75747500D01*
X170055493Y-75713425D01*
X170112500Y-75680512D01*
X170112500Y-76578133D01*
X170325983Y-76520933D01*
X170325992Y-76520929D01*
X170540078Y-76421100D01*
X170733582Y-76285605D01*
X170900605Y-76118582D01*
X171036100Y-75925078D01*
X171135929Y-75710992D01*
X171135932Y-75710986D01*
X171193136Y-75497500D01*
X170295512Y-75497500D01*
X170328425Y-75440493D01*
X170362500Y-75313326D01*
X170362500Y-75181674D01*
X170328425Y-75054507D01*
X170295512Y-74997500D01*
X171193136Y-74997500D01*
X171193135Y-74997499D01*
X172976864Y-74997499D01*
X172976864Y-74997500D01*
X173874488Y-74997500D01*
X173841575Y-75054507D01*
X173807500Y-75181674D01*
X173807500Y-75313326D01*
X173841575Y-75440493D01*
X173874488Y-75497500D01*
X172976864Y-75497500D01*
X173034067Y-75710986D01*
X173034070Y-75710992D01*
X173133899Y-75925078D01*
X173269394Y-76118582D01*
X173436417Y-76285605D01*
X173629921Y-76421100D01*
X173844007Y-76520929D01*
X173844016Y-76520933D01*
X174057500Y-76578134D01*
X174057500Y-75680512D01*
X174114507Y-75713425D01*
X174241674Y-75747500D01*
X174373326Y-75747500D01*
X174500493Y-75713425D01*
X174557500Y-75680512D01*
X174557500Y-76578133D01*
X174770983Y-76520933D01*
X174770992Y-76520929D01*
X174985078Y-76421100D01*
X175178582Y-76285605D01*
X175345605Y-76118582D01*
X175475619Y-75932905D01*
X175530196Y-75889281D01*
X175599695Y-75882088D01*
X175662049Y-75913610D01*
X175678769Y-75932905D01*
X175809005Y-76118901D01*
X175976099Y-76285995D01*
X176072884Y-76353765D01*
X176169665Y-76421532D01*
X176169667Y-76421533D01*
X176169670Y-76421535D01*
X176383837Y-76521403D01*
X176383843Y-76521404D01*
X176383844Y-76521405D01*
X176386744Y-76522182D01*
X176612092Y-76582563D01*
X176788534Y-76598000D01*
X176847499Y-76603159D01*
X176847500Y-76603159D01*
X176847501Y-76603159D01*
X176906466Y-76598000D01*
X177082908Y-76582563D01*
X177311163Y-76521403D01*
X177525330Y-76421535D01*
X177718901Y-76285995D01*
X177840829Y-76164066D01*
X177902148Y-76130584D01*
X177971840Y-76135568D01*
X178027774Y-76177439D01*
X178044689Y-76208417D01*
X178093702Y-76339828D01*
X178093706Y-76339835D01*
X178179952Y-76455044D01*
X178179955Y-76455047D01*
X178295164Y-76541293D01*
X178295171Y-76541297D01*
X178430017Y-76591591D01*
X178430016Y-76591591D01*
X178436944Y-76592335D01*
X178489627Y-76598000D01*
X180285372Y-76597999D01*
X180344983Y-76591591D01*
X180479831Y-76541296D01*
X180595046Y-76455046D01*
X180681296Y-76339831D01*
X180731591Y-76204983D01*
X180738000Y-76145373D01*
X180737999Y-74349628D01*
X180731591Y-74290017D01*
X180730502Y-74287098D01*
X180681297Y-74155171D01*
X180681293Y-74155164D01*
X180595047Y-74039955D01*
X180595044Y-74039952D01*
X180479835Y-73953706D01*
X180479828Y-73953702D01*
X180344982Y-73903408D01*
X180344983Y-73903408D01*
X180285383Y-73897001D01*
X180285381Y-73897000D01*
X180285373Y-73897000D01*
X180285364Y-73897000D01*
X178489629Y-73897000D01*
X178489623Y-73897001D01*
X178430016Y-73903408D01*
X178295171Y-73953702D01*
X178295164Y-73953706D01*
X178179955Y-74039952D01*
X178179952Y-74039955D01*
X178093706Y-74155164D01*
X178093703Y-74155169D01*
X178044689Y-74286583D01*
X178002817Y-74342516D01*
X177937353Y-74366933D01*
X177869080Y-74352081D01*
X177840826Y-74330930D01*
X177718902Y-74209006D01*
X177718895Y-74209001D01*
X177525334Y-74073467D01*
X177525330Y-74073465D01*
X177464141Y-74044932D01*
X177311163Y-73973597D01*
X177311159Y-73973596D01*
X177311155Y-73973594D01*
X177082913Y-73912438D01*
X177082903Y-73912436D01*
X176847501Y-73891841D01*
X176847499Y-73891841D01*
X176612096Y-73912436D01*
X176612086Y-73912438D01*
X176383844Y-73973594D01*
X176383835Y-73973598D01*
X176169671Y-74073464D01*
X176169669Y-74073465D01*
X175976097Y-74209005D01*
X175809008Y-74376094D01*
X175678769Y-74562095D01*
X175624192Y-74605719D01*
X175554693Y-74612912D01*
X175492339Y-74581390D01*
X175475619Y-74562094D01*
X175345613Y-74376426D01*
X175345608Y-74376420D01*
X175178582Y-74209394D01*
X174985078Y-74073899D01*
X174770992Y-73974070D01*
X174770986Y-73974067D01*
X174557500Y-73916864D01*
X174557500Y-74814488D01*
X174500493Y-74781575D01*
X174373326Y-74747500D01*
X174241674Y-74747500D01*
X174114507Y-74781575D01*
X174057500Y-74814488D01*
X174057500Y-73916864D01*
X174057499Y-73916864D01*
X173844013Y-73974067D01*
X173844007Y-73974070D01*
X173629922Y-74073899D01*
X173629920Y-74073900D01*
X173436426Y-74209386D01*
X173436420Y-74209391D01*
X173269391Y-74376420D01*
X173269386Y-74376426D01*
X173133900Y-74569920D01*
X173133899Y-74569922D01*
X173034070Y-74784007D01*
X173034067Y-74784013D01*
X172976864Y-74997499D01*
X171193135Y-74997499D01*
X171135932Y-74784013D01*
X171135929Y-74784007D01*
X171036100Y-74569922D01*
X171036099Y-74569920D01*
X170900613Y-74376426D01*
X170900608Y-74376420D01*
X170733582Y-74209394D01*
X170540078Y-74073899D01*
X170325992Y-73974070D01*
X170325986Y-73974067D01*
X170112500Y-73916864D01*
X170112500Y-74814488D01*
X170055493Y-74781575D01*
X169928326Y-74747500D01*
X169796674Y-74747500D01*
X169669507Y-74781575D01*
X169612500Y-74814488D01*
X169612500Y-73916864D01*
X169612499Y-73916864D01*
X169399013Y-73974067D01*
X169399007Y-73974070D01*
X169184922Y-74073899D01*
X169184920Y-74073900D01*
X168991426Y-74209386D01*
X168869365Y-74331447D01*
X168808042Y-74364931D01*
X168738350Y-74359947D01*
X168682417Y-74318075D01*
X168665502Y-74287098D01*
X168665454Y-74286970D01*
X168636521Y-74209394D01*
X168616297Y-74155171D01*
X168616293Y-74155164D01*
X168530047Y-74039955D01*
X168530044Y-74039952D01*
X168414835Y-73953706D01*
X168414828Y-73953702D01*
X168279982Y-73903408D01*
X168279983Y-73903408D01*
X168220383Y-73897001D01*
X168220381Y-73897000D01*
X168220373Y-73897000D01*
X168220364Y-73897000D01*
X166424629Y-73897000D01*
X166424623Y-73897001D01*
X166365016Y-73903408D01*
X166230171Y-73953702D01*
X166230164Y-73953706D01*
X166114955Y-74039952D01*
X166114952Y-74039955D01*
X166028706Y-74155164D01*
X166028702Y-74155171D01*
X165978408Y-74290017D01*
X165972001Y-74349616D01*
X165972001Y-74349623D01*
X165972000Y-74349635D01*
X152265500Y-74349635D01*
X152265500Y-58737500D01*
X158287543Y-58737500D01*
X158307319Y-58925654D01*
X158365778Y-59105572D01*
X158365781Y-59105579D01*
X158404245Y-59172200D01*
X158838947Y-58737500D01*
X158809110Y-58707663D01*
X159042500Y-58707663D01*
X159042500Y-58767337D01*
X159065336Y-58822468D01*
X159107532Y-58864664D01*
X159162663Y-58887500D01*
X159222337Y-58887500D01*
X159277468Y-58864664D01*
X159319664Y-58822468D01*
X159342500Y-58767337D01*
X159342500Y-58737500D01*
X159546053Y-58737500D01*
X159955000Y-59146447D01*
X160363947Y-58737500D01*
X160334110Y-58707663D01*
X160567500Y-58707663D01*
X160567500Y-58767337D01*
X160590336Y-58822468D01*
X160632532Y-58864664D01*
X160687663Y-58887500D01*
X160747337Y-58887500D01*
X160802468Y-58864664D01*
X160844664Y-58822468D01*
X160867500Y-58767337D01*
X160867500Y-58737500D01*
X161071053Y-58737500D01*
X161480000Y-59146447D01*
X161888947Y-58737500D01*
X161859110Y-58707663D01*
X162092500Y-58707663D01*
X162092500Y-58767337D01*
X162115336Y-58822468D01*
X162157532Y-58864664D01*
X162212663Y-58887500D01*
X162272337Y-58887500D01*
X162327468Y-58864664D01*
X162369664Y-58822468D01*
X162392500Y-58767337D01*
X162392500Y-58737499D01*
X162596053Y-58737499D01*
X162596053Y-58737500D01*
X163030753Y-59172201D01*
X163069220Y-59105576D01*
X163127680Y-58925654D01*
X163147456Y-58737500D01*
X163127680Y-58549345D01*
X163069221Y-58369427D01*
X163069218Y-58369420D01*
X163030753Y-58302797D01*
X162596053Y-58737499D01*
X162392500Y-58737499D01*
X162392500Y-58707663D01*
X162369664Y-58652532D01*
X162327468Y-58610336D01*
X162272337Y-58587500D01*
X162212663Y-58587500D01*
X162157532Y-58610336D01*
X162115336Y-58652532D01*
X162092500Y-58707663D01*
X161859110Y-58707663D01*
X161480000Y-58328553D01*
X161071053Y-58737500D01*
X160867500Y-58737500D01*
X160867500Y-58707663D01*
X160844664Y-58652532D01*
X160802468Y-58610336D01*
X160747337Y-58587500D01*
X160687663Y-58587500D01*
X160632532Y-58610336D01*
X160590336Y-58652532D01*
X160567500Y-58707663D01*
X160334110Y-58707663D01*
X159955000Y-58328553D01*
X159546053Y-58737500D01*
X159342500Y-58737500D01*
X159342500Y-58707663D01*
X159319664Y-58652532D01*
X159277468Y-58610336D01*
X159222337Y-58587500D01*
X159162663Y-58587500D01*
X159107532Y-58610336D01*
X159065336Y-58652532D01*
X159042500Y-58707663D01*
X158809110Y-58707663D01*
X158404245Y-58302798D01*
X158365779Y-58369423D01*
X158307319Y-58549345D01*
X158287543Y-58737500D01*
X152265500Y-58737500D01*
X152265500Y-57946909D01*
X158755461Y-57946909D01*
X159192499Y-58383947D01*
X159601447Y-57975000D01*
X159571610Y-57945163D01*
X159805000Y-57945163D01*
X159805000Y-58004837D01*
X159827836Y-58059968D01*
X159870032Y-58102164D01*
X159925163Y-58125000D01*
X159984837Y-58125000D01*
X160039968Y-58102164D01*
X160082164Y-58059968D01*
X160105000Y-58004837D01*
X160105000Y-57975000D01*
X160308553Y-57975000D01*
X160717500Y-58383947D01*
X161126447Y-57975000D01*
X161096610Y-57945163D01*
X161330000Y-57945163D01*
X161330000Y-58004837D01*
X161352836Y-58059968D01*
X161395032Y-58102164D01*
X161450163Y-58125000D01*
X161509837Y-58125000D01*
X161564968Y-58102164D01*
X161607164Y-58059968D01*
X161630000Y-58004837D01*
X161630000Y-57974999D01*
X161833553Y-57974999D01*
X161833553Y-57975000D01*
X162242500Y-58383947D01*
X162242501Y-58383947D01*
X162679537Y-57946909D01*
X162522146Y-57876834D01*
X162454969Y-57862555D01*
X162393488Y-57829361D01*
X162362821Y-57779583D01*
X162306721Y-57606927D01*
X162306718Y-57606920D01*
X162268253Y-57540297D01*
X161833553Y-57974999D01*
X161630000Y-57974999D01*
X161630000Y-57945163D01*
X161607164Y-57890032D01*
X161564968Y-57847836D01*
X161509837Y-57825000D01*
X161450163Y-57825000D01*
X161395032Y-57847836D01*
X161352836Y-57890032D01*
X161330000Y-57945163D01*
X161096610Y-57945163D01*
X160717500Y-57566053D01*
X160308553Y-57975000D01*
X160105000Y-57975000D01*
X160105000Y-57945163D01*
X160082164Y-57890032D01*
X160039968Y-57847836D01*
X159984837Y-57825000D01*
X159925163Y-57825000D01*
X159870032Y-57847836D01*
X159827836Y-57890032D01*
X159805000Y-57945163D01*
X159571610Y-57945163D01*
X159166745Y-57540298D01*
X159128280Y-57606922D01*
X159072178Y-57779584D01*
X159032740Y-57837259D01*
X158980030Y-57862555D01*
X158912853Y-57876834D01*
X158755461Y-57946909D01*
X152265500Y-57946909D01*
X152265500Y-57184409D01*
X159517961Y-57184409D01*
X159955000Y-57621447D01*
X159955001Y-57621447D01*
X160392037Y-57184409D01*
X161042961Y-57184409D01*
X161480000Y-57621447D01*
X161480001Y-57621447D01*
X161917037Y-57184409D01*
X161759644Y-57114334D01*
X161574594Y-57075000D01*
X161385406Y-57075000D01*
X161200355Y-57114334D01*
X161042961Y-57184409D01*
X160392037Y-57184409D01*
X160234644Y-57114334D01*
X160049594Y-57075000D01*
X159860406Y-57075000D01*
X159675355Y-57114334D01*
X159517961Y-57184409D01*
X152265500Y-57184409D01*
X152265500Y-41647135D01*
X153272000Y-41647135D01*
X153272000Y-43442870D01*
X153272001Y-43442876D01*
X153278408Y-43502483D01*
X153328702Y-43637328D01*
X153328706Y-43637335D01*
X153414952Y-43752544D01*
X153414955Y-43752547D01*
X153530164Y-43838793D01*
X153530171Y-43838797D01*
X153665017Y-43889091D01*
X153665016Y-43889091D01*
X153671944Y-43889835D01*
X153724627Y-43895500D01*
X155520372Y-43895499D01*
X155579983Y-43889091D01*
X155714831Y-43838796D01*
X155830046Y-43752546D01*
X155916296Y-43637331D01*
X155965310Y-43505916D01*
X156007181Y-43449984D01*
X156072645Y-43425566D01*
X156140918Y-43440417D01*
X156169173Y-43461569D01*
X156291099Y-43583495D01*
X156376308Y-43643159D01*
X156484665Y-43719032D01*
X156484667Y-43719033D01*
X156484670Y-43719035D01*
X156698837Y-43818903D01*
X156927092Y-43880063D01*
X157110380Y-43896099D01*
X157162499Y-43900659D01*
X157162500Y-43900659D01*
X157162501Y-43900659D01*
X157214620Y-43896099D01*
X157397908Y-43880063D01*
X157626163Y-43818903D01*
X157840330Y-43719035D01*
X158033901Y-43583495D01*
X158200995Y-43416401D01*
X158330925Y-43230842D01*
X158385502Y-43187217D01*
X158455000Y-43180023D01*
X158517355Y-43211546D01*
X158534075Y-43230842D01*
X158663781Y-43416082D01*
X158664005Y-43416401D01*
X158831099Y-43583495D01*
X158916308Y-43643159D01*
X159024665Y-43719032D01*
X159024667Y-43719033D01*
X159024670Y-43719035D01*
X159238837Y-43818903D01*
X159467092Y-43880063D01*
X159650380Y-43896099D01*
X159702499Y-43900659D01*
X159702500Y-43900659D01*
X159702501Y-43900659D01*
X159754620Y-43896099D01*
X159937908Y-43880063D01*
X160166163Y-43818903D01*
X160380330Y-43719035D01*
X160573901Y-43583495D01*
X160740995Y-43416401D01*
X160870925Y-43230842D01*
X160925502Y-43187217D01*
X160995000Y-43180023D01*
X161057355Y-43211546D01*
X161074075Y-43230842D01*
X161203781Y-43416082D01*
X161204005Y-43416401D01*
X161371099Y-43583495D01*
X161456308Y-43643159D01*
X161564665Y-43719032D01*
X161564667Y-43719033D01*
X161564670Y-43719035D01*
X161778837Y-43818903D01*
X162007092Y-43880063D01*
X162190380Y-43896099D01*
X162242499Y-43900659D01*
X162242500Y-43900659D01*
X162242501Y-43900659D01*
X162294608Y-43896100D01*
X162455513Y-43882022D01*
X162524012Y-43895788D01*
X162554001Y-43917869D01*
X167479081Y-48842949D01*
X167479085Y-48842952D01*
X167490347Y-48850477D01*
X167602005Y-48925084D01*
X167602006Y-48925084D01*
X167602007Y-48925085D01*
X167658579Y-48948518D01*
X167658580Y-48948518D01*
X167682531Y-48958439D01*
X167736935Y-49002281D01*
X167758999Y-49068575D01*
X167741719Y-49136274D01*
X167690582Y-49183884D01*
X167635078Y-49197000D01*
X163130929Y-49197000D01*
X163005261Y-49221997D01*
X163005255Y-49221999D01*
X162886874Y-49271034D01*
X162780326Y-49342226D01*
X158646895Y-53475657D01*
X158585572Y-53509142D01*
X158540202Y-53509810D01*
X158540182Y-53510029D01*
X158538150Y-53509840D01*
X158536439Y-53509866D01*
X158534486Y-53509501D01*
X158534477Y-53509500D01*
X158534476Y-53509500D01*
X158330524Y-53509500D01*
X158130044Y-53546976D01*
X158130041Y-53546976D01*
X158130041Y-53546977D01*
X157939864Y-53620651D01*
X157939857Y-53620655D01*
X157766460Y-53728017D01*
X157766458Y-53728019D01*
X157615737Y-53865418D01*
X157492827Y-54028178D01*
X157401922Y-54210739D01*
X157401917Y-54210752D01*
X157346102Y-54406917D01*
X157327285Y-54609999D01*
X157327285Y-54610000D01*
X157346102Y-54813082D01*
X157401917Y-55009247D01*
X157401922Y-55009260D01*
X157492827Y-55191821D01*
X157615737Y-55354581D01*
X157766458Y-55491980D01*
X157766460Y-55491982D01*
X157865641Y-55553392D01*
X157939863Y-55599348D01*
X158130044Y-55673024D01*
X158330524Y-55710500D01*
X158330526Y-55710500D01*
X158534474Y-55710500D01*
X158534476Y-55710500D01*
X158734956Y-55673024D01*
X158925137Y-55599348D01*
X159098541Y-55491981D01*
X159249264Y-55354579D01*
X159372173Y-55191821D01*
X159463082Y-55009250D01*
X159518897Y-54813083D01*
X159537715Y-54610000D01*
X159527373Y-54498400D01*
X159540787Y-54429835D01*
X159563160Y-54399284D01*
X159679958Y-54282486D01*
X159741279Y-54249003D01*
X159810971Y-54253987D01*
X159866904Y-54295859D01*
X159891321Y-54361323D01*
X159886905Y-54404096D01*
X159886104Y-54406911D01*
X159886102Y-54406917D01*
X159867285Y-54609999D01*
X159867285Y-54610000D01*
X159886102Y-54813082D01*
X159941917Y-55009247D01*
X159941922Y-55009260D01*
X160032827Y-55191821D01*
X160155737Y-55354581D01*
X160306458Y-55491980D01*
X160306460Y-55491982D01*
X160405641Y-55553392D01*
X160479863Y-55599348D01*
X160670044Y-55673024D01*
X160870524Y-55710500D01*
X160870526Y-55710500D01*
X161074474Y-55710500D01*
X161074476Y-55710500D01*
X161274956Y-55673024D01*
X161465137Y-55599348D01*
X161638541Y-55491981D01*
X161789264Y-55354579D01*
X161912173Y-55191821D01*
X162003082Y-55009250D01*
X162058897Y-54813083D01*
X162077715Y-54610000D01*
X162067373Y-54498400D01*
X162080787Y-54429835D01*
X162103160Y-54399284D01*
X164698127Y-51804319D01*
X164759450Y-51770834D01*
X164785808Y-51768000D01*
X165452692Y-51768000D01*
X165519731Y-51787685D01*
X165565486Y-51840489D01*
X165575430Y-51909647D01*
X165546405Y-51973203D01*
X165540373Y-51979681D01*
X164044395Y-53475657D01*
X163983072Y-53509142D01*
X163937702Y-53509810D01*
X163937682Y-53510029D01*
X163935650Y-53509840D01*
X163933939Y-53509866D01*
X163931986Y-53509501D01*
X163931977Y-53509500D01*
X163931976Y-53509500D01*
X163728024Y-53509500D01*
X163527544Y-53546976D01*
X163527541Y-53546976D01*
X163527541Y-53546977D01*
X163337364Y-53620651D01*
X163337357Y-53620655D01*
X163163960Y-53728017D01*
X163163958Y-53728019D01*
X163013237Y-53865418D01*
X162890327Y-54028178D01*
X162799422Y-54210739D01*
X162799417Y-54210752D01*
X162743602Y-54406917D01*
X162724785Y-54609999D01*
X162724785Y-54610000D01*
X162743602Y-54813082D01*
X162799417Y-55009247D01*
X162799422Y-55009260D01*
X162890327Y-55191821D01*
X163013237Y-55354581D01*
X163163958Y-55491980D01*
X163163960Y-55491982D01*
X163263141Y-55553392D01*
X163337363Y-55599348D01*
X163527544Y-55673024D01*
X163728024Y-55710500D01*
X163728026Y-55710500D01*
X163931974Y-55710500D01*
X163931976Y-55710500D01*
X164132456Y-55673024D01*
X164322637Y-55599348D01*
X164496041Y-55491981D01*
X164646764Y-55354579D01*
X164769673Y-55191821D01*
X164860582Y-55009250D01*
X164916397Y-54813083D01*
X164935215Y-54610000D01*
X164924873Y-54498400D01*
X164938287Y-54429835D01*
X164960660Y-54399284D01*
X166920627Y-52439319D01*
X166981950Y-52405834D01*
X167008308Y-52403000D01*
X167788822Y-52403000D01*
X167855861Y-52422685D01*
X167901616Y-52475489D01*
X167911560Y-52544647D01*
X167899822Y-52582271D01*
X167879424Y-52623234D01*
X167879417Y-52623252D01*
X167823602Y-52819417D01*
X167804785Y-53022499D01*
X167804785Y-53022500D01*
X167823602Y-53225582D01*
X167879417Y-53421747D01*
X167879422Y-53421760D01*
X167970327Y-53604321D01*
X168093237Y-53767081D01*
X168243958Y-53904480D01*
X168243960Y-53904482D01*
X168343141Y-53965892D01*
X168417363Y-54011848D01*
X168607544Y-54085524D01*
X168808024Y-54123000D01*
X168808026Y-54123000D01*
X169011972Y-54123000D01*
X169011976Y-54123000D01*
X169013921Y-54122636D01*
X169014868Y-54122732D01*
X169017686Y-54122471D01*
X169017737Y-54123021D01*
X169083433Y-54129661D01*
X169124395Y-54156842D01*
X169130325Y-54162772D01*
X169130331Y-54162777D01*
X169236874Y-54233966D01*
X169306221Y-54262689D01*
X169355256Y-54283001D01*
X169355259Y-54283001D01*
X169355260Y-54283002D01*
X169480928Y-54308000D01*
X169480931Y-54308000D01*
X173992946Y-54308000D01*
X174059985Y-54327685D01*
X174091900Y-54357273D01*
X174125737Y-54402080D01*
X174276458Y-54539480D01*
X174276460Y-54539482D01*
X174375641Y-54600892D01*
X174449863Y-54646848D01*
X174640044Y-54720524D01*
X174840524Y-54758000D01*
X174840526Y-54758000D01*
X175044474Y-54758000D01*
X175044476Y-54758000D01*
X175244956Y-54720524D01*
X175435137Y-54646848D01*
X175608541Y-54539481D01*
X175753964Y-54406911D01*
X175759262Y-54402081D01*
X175759264Y-54402079D01*
X175882173Y-54239321D01*
X175973082Y-54056750D01*
X176028897Y-53860583D01*
X176047715Y-53657500D01*
X176028897Y-53454417D01*
X175973082Y-53258250D01*
X175956815Y-53225582D01*
X175913205Y-53138000D01*
X175882173Y-53075679D01*
X175759264Y-52912921D01*
X175759262Y-52912918D01*
X175608541Y-52775519D01*
X175608539Y-52775517D01*
X175435142Y-52668155D01*
X175435135Y-52668151D01*
X175409659Y-52658282D01*
X175369247Y-52642626D01*
X175313847Y-52600054D01*
X175290256Y-52534287D01*
X175305967Y-52466207D01*
X175355991Y-52417428D01*
X175414042Y-52403000D01*
X196279071Y-52403000D01*
X196363615Y-52386182D01*
X196404744Y-52378001D01*
X196523127Y-52328965D01*
X196523126Y-52328965D01*
X196528755Y-52326634D01*
X196529687Y-52328885D01*
X196587574Y-52316817D01*
X196652824Y-52341800D01*
X196694210Y-52398094D01*
X196701128Y-52428979D01*
X196716102Y-52590581D01*
X196771917Y-52786747D01*
X196771922Y-52786760D01*
X196862827Y-52969321D01*
X196985737Y-53132081D01*
X197136458Y-53269480D01*
X197136460Y-53269482D01*
X197221855Y-53322356D01*
X197309863Y-53376848D01*
X197500044Y-53450524D01*
X197700524Y-53488000D01*
X197700526Y-53488000D01*
X197904474Y-53488000D01*
X197904476Y-53488000D01*
X198104956Y-53450524D01*
X198295137Y-53376848D01*
X198468541Y-53269481D01*
X198554767Y-53190876D01*
X198577269Y-53170363D01*
X198640073Y-53139746D01*
X198660807Y-53138000D01*
X200107299Y-53138000D01*
X200174338Y-53157685D01*
X200208873Y-53190876D01*
X200256505Y-53258901D01*
X200423597Y-53425993D01*
X200423603Y-53425998D01*
X200609594Y-53556230D01*
X200653219Y-53610807D01*
X200660413Y-53680305D01*
X200628890Y-53742660D01*
X200609595Y-53759380D01*
X200423922Y-53889390D01*
X200423920Y-53889391D01*
X200256891Y-54056420D01*
X200256886Y-54056426D01*
X200121400Y-54249920D01*
X200121399Y-54249922D01*
X200021570Y-54464007D01*
X200021567Y-54464013D01*
X199964364Y-54677499D01*
X199964364Y-54677500D01*
X200861988Y-54677500D01*
X200829075Y-54734507D01*
X200795000Y-54861674D01*
X200795000Y-54993326D01*
X200829075Y-55120493D01*
X200861988Y-55177500D01*
X199964364Y-55177500D01*
X200021567Y-55390986D01*
X200021570Y-55390992D01*
X200121399Y-55605078D01*
X200256894Y-55798582D01*
X200423917Y-55965605D01*
X200609595Y-56095619D01*
X200653219Y-56150196D01*
X200660412Y-56219695D01*
X200628890Y-56282049D01*
X200609595Y-56298769D01*
X200423594Y-56429008D01*
X200256505Y-56596097D01*
X200120965Y-56789669D01*
X200120964Y-56789671D01*
X200021098Y-57003835D01*
X200021094Y-57003844D01*
X199959938Y-57232086D01*
X199959936Y-57232096D01*
X199939341Y-57467499D01*
X199939341Y-57467500D01*
X199959936Y-57702903D01*
X199959938Y-57702913D01*
X200021094Y-57931155D01*
X200021096Y-57931159D01*
X200021097Y-57931163D01*
X200055452Y-58004837D01*
X200120965Y-58145330D01*
X200120967Y-58145334D01*
X200201189Y-58259902D01*
X200256501Y-58338896D01*
X200256506Y-58338902D01*
X200378996Y-58461392D01*
X200412481Y-58522715D01*
X200407497Y-58592407D01*
X200365625Y-58648340D01*
X200334649Y-58665255D01*
X200202670Y-58714480D01*
X200202665Y-58714483D01*
X200087456Y-58800729D01*
X200087453Y-58800732D01*
X200001207Y-58915941D01*
X200001203Y-58915948D01*
X199950909Y-59050794D01*
X199945020Y-59105576D01*
X199944502Y-59110400D01*
X199944501Y-59110412D01*
X199944501Y-59233000D01*
X199924816Y-59300039D01*
X199872012Y-59345794D01*
X199820501Y-59357000D01*
X199475516Y-59357000D01*
X199412395Y-59339732D01*
X199270396Y-59255755D01*
X199270393Y-59255754D01*
X199112573Y-59209902D01*
X199112567Y-59209901D01*
X199075701Y-59207000D01*
X199075694Y-59207000D01*
X197909500Y-59207000D01*
X197842461Y-59187315D01*
X197796706Y-59134511D01*
X197785500Y-59083000D01*
X197785500Y-58841813D01*
X197785499Y-58841798D01*
X197782598Y-58804932D01*
X197782597Y-58804926D01*
X197739845Y-58657777D01*
X197736744Y-58647102D01*
X197653081Y-58505635D01*
X197653079Y-58505633D01*
X197653076Y-58505629D01*
X197536870Y-58389423D01*
X197536862Y-58389417D01*
X197395396Y-58305755D01*
X197395393Y-58305754D01*
X197237573Y-58259902D01*
X197237567Y-58259901D01*
X197200701Y-58257000D01*
X197200694Y-58257000D01*
X195894306Y-58257000D01*
X195894298Y-58257000D01*
X195857432Y-58259901D01*
X195857426Y-58259902D01*
X195699606Y-58305754D01*
X195699603Y-58305755D01*
X195557605Y-58389732D01*
X195494484Y-58407000D01*
X193758851Y-58407000D01*
X193734657Y-58404617D01*
X193734069Y-58404500D01*
X169865808Y-58404500D01*
X169798769Y-58384815D01*
X169778127Y-58368181D01*
X168453163Y-57043217D01*
X168419678Y-56981894D01*
X168417373Y-56944101D01*
X168427715Y-56832500D01*
X168408897Y-56629417D01*
X168353082Y-56433250D01*
X168350968Y-56429005D01*
X168286119Y-56298769D01*
X168262173Y-56250679D01*
X168139264Y-56087921D01*
X168139262Y-56087918D01*
X167988541Y-55950519D01*
X167988539Y-55950517D01*
X167815142Y-55843155D01*
X167815135Y-55843151D01*
X167700088Y-55798582D01*
X167624956Y-55769476D01*
X167424476Y-55732000D01*
X167220524Y-55732000D01*
X167020044Y-55769476D01*
X167020041Y-55769476D01*
X167020041Y-55769477D01*
X166829864Y-55843151D01*
X166829857Y-55843155D01*
X166656460Y-55950517D01*
X166656458Y-55950519D01*
X166505737Y-56087918D01*
X166382827Y-56250678D01*
X166291922Y-56433239D01*
X166291917Y-56433252D01*
X166236102Y-56629417D01*
X166217285Y-56832499D01*
X166217285Y-56832500D01*
X166236102Y-57035582D01*
X166291917Y-57231747D01*
X166291922Y-57231760D01*
X166382827Y-57414321D01*
X166505737Y-57577081D01*
X166633293Y-57693363D01*
X166669575Y-57753074D01*
X166667814Y-57822922D01*
X166633293Y-57876637D01*
X166505737Y-57992918D01*
X166382827Y-58155678D01*
X166291922Y-58338239D01*
X166291917Y-58338252D01*
X166236102Y-58534417D01*
X166217285Y-58737499D01*
X166217285Y-58737500D01*
X166236102Y-58940582D01*
X166291917Y-59136747D01*
X166291922Y-59136760D01*
X166382827Y-59319321D01*
X166505737Y-59482081D01*
X166656458Y-59619480D01*
X166656460Y-59619482D01*
X166668867Y-59627164D01*
X166829863Y-59726848D01*
X167020044Y-59800524D01*
X167220524Y-59838000D01*
X167220526Y-59838000D01*
X167424475Y-59838000D01*
X167424476Y-59838000D01*
X167426422Y-59837636D01*
X167427370Y-59837731D01*
X167430186Y-59837471D01*
X167430237Y-59838021D01*
X167495937Y-59844662D01*
X167536896Y-59871842D01*
X167762872Y-60097819D01*
X167796357Y-60159142D01*
X167791373Y-60228834D01*
X167749501Y-60284767D01*
X167684037Y-60309184D01*
X167675191Y-60309500D01*
X166623429Y-60309500D01*
X166497761Y-60334497D01*
X166497755Y-60334499D01*
X166379375Y-60383533D01*
X166379366Y-60383538D01*
X166272831Y-60454723D01*
X166272827Y-60454726D01*
X165631896Y-61095657D01*
X165570573Y-61129142D01*
X165525202Y-61129811D01*
X165525182Y-61130029D01*
X165523160Y-61129841D01*
X165521443Y-61129867D01*
X165519483Y-61129500D01*
X165519476Y-61129500D01*
X165315524Y-61129500D01*
X165115044Y-61166976D01*
X165115041Y-61166976D01*
X165115041Y-61166977D01*
X164924864Y-61240651D01*
X164924857Y-61240655D01*
X164751460Y-61348017D01*
X164751458Y-61348019D01*
X164600737Y-61485418D01*
X164477827Y-61648178D01*
X164386922Y-61830739D01*
X164386917Y-61830752D01*
X164331102Y-62026917D01*
X164312285Y-62229999D01*
X164312285Y-62230000D01*
X164331102Y-62433082D01*
X164386917Y-62629247D01*
X164386922Y-62629260D01*
X164477827Y-62811821D01*
X164600737Y-62974581D01*
X164751458Y-63111980D01*
X164751460Y-63111982D01*
X164752820Y-63112824D01*
X164924863Y-63219348D01*
X165115044Y-63293024D01*
X165315524Y-63330500D01*
X165315526Y-63330500D01*
X165519474Y-63330500D01*
X165519476Y-63330500D01*
X165719956Y-63293024D01*
X165910137Y-63219348D01*
X166083541Y-63111981D01*
X166234264Y-62974579D01*
X166317019Y-62864994D01*
X184946857Y-62864994D01*
X184946857Y-62865005D01*
X184967390Y-63112812D01*
X184967392Y-63112824D01*
X185028436Y-63353881D01*
X185128326Y-63581606D01*
X185264333Y-63789782D01*
X185264336Y-63789785D01*
X185432756Y-63972738D01*
X185628991Y-64125474D01*
X185628993Y-64125475D01*
X185797881Y-64216873D01*
X185847690Y-64243828D01*
X186082886Y-64324571D01*
X186328165Y-64365500D01*
X186576835Y-64365500D01*
X186822114Y-64324571D01*
X187057310Y-64243828D01*
X187276009Y-64125474D01*
X187472244Y-63972738D01*
X187640664Y-63789785D01*
X187776673Y-63581607D01*
X187876563Y-63353881D01*
X187937608Y-63112821D01*
X187945967Y-63011941D01*
X187958143Y-62865005D01*
X187958143Y-62864994D01*
X187937609Y-62617187D01*
X187937607Y-62617175D01*
X187876563Y-62376118D01*
X187776673Y-62148393D01*
X187640666Y-61940217D01*
X187539884Y-61830739D01*
X187472244Y-61757262D01*
X187276009Y-61604526D01*
X187276007Y-61604525D01*
X187276006Y-61604524D01*
X187057311Y-61486172D01*
X187057302Y-61486169D01*
X186822116Y-61405429D01*
X186576835Y-61364500D01*
X186328165Y-61364500D01*
X186082883Y-61405429D01*
X185847697Y-61486169D01*
X185847688Y-61486172D01*
X185628993Y-61604524D01*
X185432757Y-61757261D01*
X185264333Y-61940217D01*
X185128326Y-62148393D01*
X185028436Y-62376118D01*
X184967392Y-62617175D01*
X184967390Y-62617187D01*
X184946857Y-62864994D01*
X166317019Y-62864994D01*
X166357173Y-62811821D01*
X166448082Y-62629250D01*
X166503897Y-62433083D01*
X166522715Y-62230000D01*
X166512373Y-62118400D01*
X166525787Y-62049835D01*
X166548160Y-62019284D01*
X166920626Y-61646819D01*
X166981949Y-61613334D01*
X167008307Y-61610500D01*
X181930446Y-61610500D01*
X181997485Y-61630185D01*
X182029400Y-61659773D01*
X182063237Y-61704580D01*
X182213958Y-61841980D01*
X182213960Y-61841982D01*
X182284508Y-61885663D01*
X182387363Y-61949348D01*
X182577544Y-62023024D01*
X182778024Y-62060500D01*
X182778026Y-62060500D01*
X182981974Y-62060500D01*
X182981976Y-62060500D01*
X183182456Y-62023024D01*
X183372637Y-61949348D01*
X183546041Y-61841981D01*
X183696764Y-61704579D01*
X183819673Y-61541821D01*
X183910582Y-61359250D01*
X183966397Y-61163083D01*
X183985215Y-60960000D01*
X183982620Y-60932000D01*
X183966397Y-60756917D01*
X183943853Y-60677685D01*
X183910582Y-60560750D01*
X183910577Y-60560739D01*
X183910575Y-60560734D01*
X183890178Y-60519771D01*
X183877917Y-60450986D01*
X183904790Y-60386491D01*
X183962266Y-60346764D01*
X184001178Y-60340500D01*
X191131692Y-60340500D01*
X191198731Y-60360185D01*
X191219373Y-60376819D01*
X191995373Y-61152819D01*
X192028858Y-61214142D01*
X192023874Y-61283834D01*
X191982002Y-61339767D01*
X191916538Y-61364184D01*
X191907692Y-61364500D01*
X190404629Y-61364500D01*
X190404623Y-61364501D01*
X190345016Y-61370908D01*
X190210171Y-61421202D01*
X190210164Y-61421206D01*
X190094955Y-61507452D01*
X190094952Y-61507455D01*
X190008706Y-61622664D01*
X190008702Y-61622671D01*
X189958408Y-61757517D01*
X189952001Y-61817116D01*
X189952000Y-61817135D01*
X189952000Y-63912870D01*
X189952001Y-63912876D01*
X189958408Y-63972483D01*
X190008702Y-64107328D01*
X190008706Y-64107335D01*
X190094952Y-64222544D01*
X190094955Y-64222547D01*
X190210164Y-64308793D01*
X190210171Y-64308797D01*
X190345017Y-64359091D01*
X190345016Y-64359091D01*
X190351944Y-64359835D01*
X190404627Y-64365500D01*
X192225192Y-64365499D01*
X192292231Y-64385184D01*
X192337986Y-64437987D01*
X192347930Y-64507146D01*
X192318905Y-64570702D01*
X192312873Y-64577180D01*
X191219373Y-65670681D01*
X191158050Y-65704166D01*
X191131692Y-65707000D01*
X168913307Y-65707000D01*
X168846268Y-65687315D01*
X168825626Y-65670681D01*
X168641692Y-65486747D01*
X168453161Y-65298215D01*
X168419678Y-65236895D01*
X168417373Y-65199101D01*
X168427715Y-65087500D01*
X168408897Y-64884417D01*
X168353082Y-64688250D01*
X168336815Y-64655582D01*
X168262903Y-64507146D01*
X168262173Y-64505679D01*
X168190258Y-64410448D01*
X168139262Y-64342918D01*
X167988541Y-64205519D01*
X167988539Y-64205517D01*
X167815142Y-64098155D01*
X167815135Y-64098151D01*
X167690268Y-64049778D01*
X167624956Y-64024476D01*
X167424476Y-63987000D01*
X167220524Y-63987000D01*
X167020044Y-64024476D01*
X167020041Y-64024476D01*
X167020041Y-64024477D01*
X166829864Y-64098151D01*
X166829857Y-64098155D01*
X166656460Y-64205517D01*
X166656458Y-64205519D01*
X166505737Y-64342918D01*
X166382827Y-64505678D01*
X166291922Y-64688239D01*
X166291917Y-64688252D01*
X166236102Y-64884417D01*
X166217285Y-65087499D01*
X166217285Y-65087500D01*
X166236102Y-65290582D01*
X166291917Y-65486747D01*
X166291922Y-65486760D01*
X166382827Y-65669321D01*
X166505737Y-65832081D01*
X166656458Y-65969480D01*
X166656460Y-65969482D01*
X166755641Y-66030892D01*
X166829863Y-66076848D01*
X166895752Y-66102373D01*
X166951153Y-66144946D01*
X166974744Y-66210713D01*
X166959033Y-66278793D01*
X166909009Y-66327572D01*
X166850958Y-66342000D01*
X161610808Y-66342000D01*
X161543769Y-66322315D01*
X161523127Y-66305681D01*
X157033035Y-61815589D01*
X159517961Y-61815589D01*
X159675355Y-61885665D01*
X159860406Y-61925000D01*
X160049594Y-61925000D01*
X160234646Y-61885665D01*
X160234651Y-61885663D01*
X160392036Y-61815590D01*
X160392037Y-61815589D01*
X161042961Y-61815589D01*
X161200355Y-61885665D01*
X161385406Y-61925000D01*
X161574594Y-61925000D01*
X161759646Y-61885665D01*
X161759651Y-61885663D01*
X161917036Y-61815590D01*
X161917037Y-61815589D01*
X161480001Y-61378553D01*
X161480000Y-61378553D01*
X161042961Y-61815589D01*
X160392037Y-61815589D01*
X159955001Y-61378553D01*
X159955000Y-61378553D01*
X159517961Y-61815589D01*
X157033035Y-61815589D01*
X156270535Y-61053089D01*
X158755461Y-61053089D01*
X158912851Y-61123164D01*
X158980027Y-61137442D01*
X159041509Y-61170635D01*
X159072178Y-61220414D01*
X159128279Y-61393075D01*
X159128281Y-61393079D01*
X159166745Y-61459700D01*
X159601447Y-61025000D01*
X159601447Y-61024999D01*
X159571611Y-60995163D01*
X159805000Y-60995163D01*
X159805000Y-61054837D01*
X159827836Y-61109968D01*
X159870032Y-61152164D01*
X159925163Y-61175000D01*
X159984837Y-61175000D01*
X160039968Y-61152164D01*
X160082164Y-61109968D01*
X160105000Y-61054837D01*
X160105000Y-61025000D01*
X160308553Y-61025000D01*
X160717500Y-61433947D01*
X161126447Y-61025000D01*
X161096610Y-60995163D01*
X161330000Y-60995163D01*
X161330000Y-61054837D01*
X161352836Y-61109968D01*
X161395032Y-61152164D01*
X161450163Y-61175000D01*
X161509837Y-61175000D01*
X161564968Y-61152164D01*
X161607164Y-61109968D01*
X161630000Y-61054837D01*
X161630000Y-61025000D01*
X161833553Y-61025000D01*
X162268253Y-61459701D01*
X162306720Y-61393076D01*
X162362821Y-61220415D01*
X162402258Y-61162740D01*
X162454972Y-61137442D01*
X162522153Y-61123162D01*
X162679536Y-61053090D01*
X162679537Y-61053089D01*
X162242500Y-60616053D01*
X161833553Y-61025000D01*
X161630000Y-61025000D01*
X161630000Y-60995163D01*
X161607164Y-60940032D01*
X161564968Y-60897836D01*
X161509837Y-60875000D01*
X161450163Y-60875000D01*
X161395032Y-60897836D01*
X161352836Y-60940032D01*
X161330000Y-60995163D01*
X161096610Y-60995163D01*
X160717500Y-60616053D01*
X160308553Y-61025000D01*
X160105000Y-61025000D01*
X160105000Y-60995163D01*
X160082164Y-60940032D01*
X160039968Y-60897836D01*
X159984837Y-60875000D01*
X159925163Y-60875000D01*
X159870032Y-60897836D01*
X159827836Y-60940032D01*
X159805000Y-60995163D01*
X159571611Y-60995163D01*
X159192501Y-60616053D01*
X159192500Y-60616053D01*
X158755461Y-61053089D01*
X156270535Y-61053089D01*
X155753163Y-60535717D01*
X155719678Y-60474394D01*
X155717373Y-60436601D01*
X155727715Y-60325000D01*
X155721924Y-60262500D01*
X158287543Y-60262500D01*
X158307319Y-60450654D01*
X158365778Y-60630572D01*
X158365781Y-60630579D01*
X158404245Y-60697200D01*
X158838947Y-60262500D01*
X158809110Y-60232663D01*
X159042500Y-60232663D01*
X159042500Y-60292337D01*
X159065336Y-60347468D01*
X159107532Y-60389664D01*
X159162663Y-60412500D01*
X159222337Y-60412500D01*
X159277468Y-60389664D01*
X159319664Y-60347468D01*
X159342500Y-60292337D01*
X159342500Y-60262500D01*
X159546053Y-60262500D01*
X159955000Y-60671447D01*
X160363947Y-60262500D01*
X160334110Y-60232663D01*
X160567500Y-60232663D01*
X160567500Y-60292337D01*
X160590336Y-60347468D01*
X160632532Y-60389664D01*
X160687663Y-60412500D01*
X160747337Y-60412500D01*
X160802468Y-60389664D01*
X160844664Y-60347468D01*
X160867500Y-60292337D01*
X160867500Y-60262500D01*
X161071053Y-60262500D01*
X161480000Y-60671447D01*
X161888947Y-60262500D01*
X161859110Y-60232663D01*
X162092500Y-60232663D01*
X162092500Y-60292337D01*
X162115336Y-60347468D01*
X162157532Y-60389664D01*
X162212663Y-60412500D01*
X162272337Y-60412500D01*
X162327468Y-60389664D01*
X162369664Y-60347468D01*
X162392500Y-60292337D01*
X162392500Y-60262499D01*
X162596053Y-60262499D01*
X162596053Y-60262500D01*
X163030753Y-60697201D01*
X163069220Y-60630576D01*
X163127680Y-60450654D01*
X163147456Y-60262500D01*
X163127680Y-60074345D01*
X163069221Y-59894427D01*
X163069218Y-59894420D01*
X163030753Y-59827797D01*
X162596053Y-60262499D01*
X162392500Y-60262499D01*
X162392500Y-60232663D01*
X162369664Y-60177532D01*
X162327468Y-60135336D01*
X162272337Y-60112500D01*
X162212663Y-60112500D01*
X162157532Y-60135336D01*
X162115336Y-60177532D01*
X162092500Y-60232663D01*
X161859110Y-60232663D01*
X161480000Y-59853553D01*
X161071053Y-60262500D01*
X160867500Y-60262500D01*
X160867500Y-60232663D01*
X160844664Y-60177532D01*
X160802468Y-60135336D01*
X160747337Y-60112500D01*
X160687663Y-60112500D01*
X160632532Y-60135336D01*
X160590336Y-60177532D01*
X160567500Y-60232663D01*
X160334110Y-60232663D01*
X159955000Y-59853553D01*
X159546053Y-60262500D01*
X159342500Y-60262500D01*
X159342500Y-60232663D01*
X159319664Y-60177532D01*
X159277468Y-60135336D01*
X159222337Y-60112500D01*
X159162663Y-60112500D01*
X159107532Y-60135336D01*
X159065336Y-60177532D01*
X159042500Y-60232663D01*
X158809110Y-60232663D01*
X158404245Y-59827798D01*
X158365779Y-59894423D01*
X158307319Y-60074345D01*
X158287543Y-60262500D01*
X155721924Y-60262500D01*
X155708897Y-60121917D01*
X155653082Y-59925750D01*
X155648815Y-59917181D01*
X155580751Y-59780489D01*
X155562173Y-59743179D01*
X155474563Y-59627164D01*
X155439262Y-59580418D01*
X155351047Y-59500000D01*
X158783553Y-59500000D01*
X159192500Y-59908947D01*
X159601447Y-59500000D01*
X159571610Y-59470163D01*
X159805000Y-59470163D01*
X159805000Y-59529837D01*
X159827836Y-59584968D01*
X159870032Y-59627164D01*
X159925163Y-59650000D01*
X159984837Y-59650000D01*
X160039968Y-59627164D01*
X160082164Y-59584968D01*
X160105000Y-59529837D01*
X160105000Y-59500000D01*
X160308553Y-59500000D01*
X160717500Y-59908947D01*
X161126447Y-59500000D01*
X161096610Y-59470163D01*
X161330000Y-59470163D01*
X161330000Y-59529837D01*
X161352836Y-59584968D01*
X161395032Y-59627164D01*
X161450163Y-59650000D01*
X161509837Y-59650000D01*
X161564968Y-59627164D01*
X161607164Y-59584968D01*
X161630000Y-59529837D01*
X161630000Y-59500000D01*
X161833553Y-59500000D01*
X162242500Y-59908947D01*
X162651447Y-59500000D01*
X162242500Y-59091053D01*
X161833553Y-59500000D01*
X161630000Y-59500000D01*
X161630000Y-59470163D01*
X161607164Y-59415032D01*
X161564968Y-59372836D01*
X161509837Y-59350000D01*
X161450163Y-59350000D01*
X161395032Y-59372836D01*
X161352836Y-59415032D01*
X161330000Y-59470163D01*
X161096610Y-59470163D01*
X160717500Y-59091053D01*
X160308553Y-59500000D01*
X160105000Y-59500000D01*
X160105000Y-59470163D01*
X160082164Y-59415032D01*
X160039968Y-59372836D01*
X159984837Y-59350000D01*
X159925163Y-59350000D01*
X159870032Y-59372836D01*
X159827836Y-59415032D01*
X159805000Y-59470163D01*
X159571610Y-59470163D01*
X159192500Y-59091053D01*
X158783553Y-59500000D01*
X155351047Y-59500000D01*
X155288541Y-59443019D01*
X155288539Y-59443017D01*
X155115142Y-59335655D01*
X155115135Y-59335651D01*
X155020046Y-59298814D01*
X154924956Y-59261976D01*
X154724476Y-59224500D01*
X154520524Y-59224500D01*
X154320044Y-59261976D01*
X154320041Y-59261976D01*
X154320041Y-59261977D01*
X154129864Y-59335651D01*
X154129857Y-59335655D01*
X153956460Y-59443017D01*
X153956458Y-59443019D01*
X153805737Y-59580418D01*
X153682827Y-59743178D01*
X153591922Y-59925739D01*
X153591917Y-59925752D01*
X153536102Y-60121917D01*
X153517285Y-60324999D01*
X153517285Y-60325000D01*
X153536102Y-60528082D01*
X153591917Y-60724247D01*
X153591922Y-60724260D01*
X153682827Y-60906821D01*
X153805737Y-61069581D01*
X153933293Y-61185863D01*
X153969575Y-61245574D01*
X153967814Y-61315422D01*
X153933293Y-61369137D01*
X153805737Y-61485418D01*
X153682827Y-61648178D01*
X153591922Y-61830739D01*
X153591917Y-61830752D01*
X153536102Y-62026917D01*
X153517285Y-62229999D01*
X153517285Y-62230000D01*
X153536102Y-62433082D01*
X153591917Y-62629247D01*
X153591922Y-62629260D01*
X153682827Y-62811821D01*
X153805737Y-62974581D01*
X153956458Y-63111980D01*
X153956460Y-63111982D01*
X153957820Y-63112824D01*
X154129863Y-63219348D01*
X154129868Y-63219349D01*
X154129870Y-63219351D01*
X154146062Y-63225624D01*
X154201463Y-63268197D01*
X154225053Y-63333964D01*
X154209341Y-63402044D01*
X154159317Y-63450823D01*
X154146062Y-63456876D01*
X154129870Y-63463148D01*
X154129857Y-63463155D01*
X153956460Y-63570517D01*
X153956458Y-63570519D01*
X153805737Y-63707918D01*
X153682827Y-63870678D01*
X153591922Y-64053239D01*
X153591917Y-64053252D01*
X153536102Y-64249417D01*
X153517285Y-64452499D01*
X153517285Y-64452500D01*
X153536102Y-64655582D01*
X153591917Y-64851747D01*
X153591922Y-64851760D01*
X153682827Y-65034321D01*
X153805737Y-65197081D01*
X153956458Y-65334480D01*
X153956460Y-65334482D01*
X154012886Y-65369419D01*
X154129863Y-65441848D01*
X154320044Y-65515524D01*
X154520524Y-65553000D01*
X154520526Y-65553000D01*
X154724475Y-65553000D01*
X154724476Y-65553000D01*
X154726422Y-65552636D01*
X154727370Y-65552731D01*
X154730186Y-65552471D01*
X154730237Y-65553021D01*
X154795937Y-65559662D01*
X154836896Y-65586842D01*
X160460373Y-71210319D01*
X160493858Y-71271642D01*
X160488874Y-71341334D01*
X160447002Y-71397267D01*
X160381538Y-71421684D01*
X160372692Y-71422000D01*
X158778308Y-71422000D01*
X158711269Y-71402315D01*
X158690627Y-71385681D01*
X157670663Y-70365717D01*
X157637178Y-70304394D01*
X157634873Y-70266601D01*
X157645215Y-70155000D01*
X157626397Y-69951917D01*
X157570582Y-69755750D01*
X157545119Y-69704614D01*
X157526272Y-69666764D01*
X157479673Y-69573179D01*
X157360792Y-69415755D01*
X157356762Y-69410418D01*
X157206041Y-69273019D01*
X157206039Y-69273017D01*
X157032642Y-69165655D01*
X157032635Y-69165651D01*
X156926878Y-69124681D01*
X156842456Y-69091976D01*
X156641976Y-69054500D01*
X156438024Y-69054500D01*
X156237544Y-69091976D01*
X156237541Y-69091976D01*
X156237541Y-69091977D01*
X156047364Y-69165651D01*
X156047357Y-69165655D01*
X155873960Y-69273017D01*
X155873958Y-69273019D01*
X155723237Y-69410418D01*
X155600327Y-69573178D01*
X155509422Y-69755739D01*
X155509417Y-69755752D01*
X155453602Y-69951917D01*
X155434785Y-70154999D01*
X155434785Y-70155000D01*
X155453602Y-70358082D01*
X155509417Y-70554247D01*
X155509422Y-70554260D01*
X155600327Y-70736821D01*
X155723237Y-70899581D01*
X155873958Y-71036980D01*
X155873960Y-71036982D01*
X155878316Y-71039679D01*
X156047363Y-71144348D01*
X156237544Y-71218024D01*
X156438024Y-71255500D01*
X156438026Y-71255500D01*
X156641975Y-71255500D01*
X156641976Y-71255500D01*
X156643922Y-71255136D01*
X156644870Y-71255231D01*
X156647686Y-71254971D01*
X156647737Y-71255521D01*
X156713437Y-71262162D01*
X156754396Y-71289342D01*
X158042825Y-72577772D01*
X158042831Y-72577777D01*
X158149374Y-72648966D01*
X158218721Y-72677689D01*
X158267756Y-72698001D01*
X158267759Y-72698001D01*
X158267760Y-72698002D01*
X158393428Y-72723000D01*
X158393431Y-72723000D01*
X158393432Y-72723000D01*
X158521569Y-72723000D01*
X173992946Y-72723000D01*
X174059985Y-72742685D01*
X174091900Y-72772273D01*
X174125737Y-72817080D01*
X174276458Y-72954480D01*
X174276460Y-72954482D01*
X174375641Y-73015892D01*
X174449863Y-73061848D01*
X174640044Y-73135524D01*
X174840524Y-73173000D01*
X174840526Y-73173000D01*
X175044474Y-73173000D01*
X175044476Y-73173000D01*
X175244956Y-73135524D01*
X175435137Y-73061848D01*
X175608541Y-72954481D01*
X175759264Y-72817079D01*
X175882173Y-72654321D01*
X175973082Y-72471750D01*
X176028897Y-72275583D01*
X176047715Y-72072500D01*
X176028897Y-71869417D01*
X175973082Y-71673250D01*
X175973078Y-71673242D01*
X175973075Y-71673234D01*
X175952678Y-71632271D01*
X175940417Y-71563486D01*
X175967290Y-71498991D01*
X176024766Y-71459264D01*
X176063678Y-71453000D01*
X184146692Y-71453000D01*
X184213731Y-71472685D01*
X184234373Y-71489319D01*
X186427591Y-73682537D01*
X186461076Y-73743860D01*
X186456092Y-73813552D01*
X186414220Y-73869485D01*
X186350718Y-73893746D01*
X186137096Y-73912436D01*
X186137086Y-73912438D01*
X185908844Y-73973594D01*
X185908835Y-73973598D01*
X185694671Y-74073464D01*
X185694669Y-74073465D01*
X185501100Y-74209003D01*
X185378784Y-74331319D01*
X185317461Y-74364803D01*
X185247769Y-74359819D01*
X185191836Y-74317947D01*
X185174921Y-74286970D01*
X185125854Y-74155413D01*
X185125850Y-74155406D01*
X185039690Y-74040312D01*
X185039687Y-74040309D01*
X184924593Y-73954149D01*
X184924586Y-73954145D01*
X184789879Y-73903903D01*
X184789872Y-73903901D01*
X184730344Y-73897500D01*
X184082500Y-73897500D01*
X184082500Y-74814488D01*
X184025493Y-74781575D01*
X183898326Y-74747500D01*
X183766674Y-74747500D01*
X183639507Y-74781575D01*
X183582500Y-74814488D01*
X183582500Y-73897500D01*
X182934655Y-73897500D01*
X182875127Y-73903901D01*
X182875120Y-73903903D01*
X182740413Y-73954145D01*
X182740406Y-73954149D01*
X182625312Y-74040309D01*
X182625309Y-74040312D01*
X182539149Y-74155406D01*
X182539145Y-74155413D01*
X182488903Y-74290120D01*
X182488901Y-74290127D01*
X182482500Y-74349655D01*
X182482500Y-74997500D01*
X183399488Y-74997500D01*
X183366575Y-75054507D01*
X183332500Y-75181674D01*
X183332500Y-75313326D01*
X183366575Y-75440493D01*
X183399488Y-75497500D01*
X182482500Y-75497500D01*
X182482500Y-76145344D01*
X182488901Y-76204872D01*
X182488903Y-76204879D01*
X182539145Y-76339586D01*
X182539149Y-76339593D01*
X182625309Y-76454687D01*
X182625312Y-76454690D01*
X182740406Y-76540850D01*
X182740413Y-76540854D01*
X182875120Y-76591096D01*
X182875127Y-76591098D01*
X182934655Y-76597499D01*
X182934672Y-76597500D01*
X183582500Y-76597500D01*
X183582500Y-75680512D01*
X183639507Y-75713425D01*
X183766674Y-75747500D01*
X183898326Y-75747500D01*
X184025493Y-75713425D01*
X184082500Y-75680512D01*
X184082500Y-76597500D01*
X184730328Y-76597500D01*
X184730344Y-76597499D01*
X184789872Y-76591098D01*
X184789879Y-76591096D01*
X184924586Y-76540854D01*
X184924593Y-76540850D01*
X185039687Y-76454690D01*
X185039690Y-76454687D01*
X185125850Y-76339593D01*
X185125854Y-76339586D01*
X185174922Y-76208029D01*
X185216793Y-76152095D01*
X185282257Y-76127678D01*
X185350530Y-76142530D01*
X185378785Y-76163681D01*
X185501099Y-76285995D01*
X185597884Y-76353765D01*
X185694665Y-76421532D01*
X185694667Y-76421533D01*
X185694670Y-76421535D01*
X185908837Y-76521403D01*
X185908843Y-76521404D01*
X185908844Y-76521405D01*
X185911744Y-76522182D01*
X186137092Y-76582563D01*
X186313534Y-76598000D01*
X186372499Y-76603159D01*
X186372500Y-76603159D01*
X186372501Y-76603159D01*
X186431466Y-76598000D01*
X186607908Y-76582563D01*
X186836163Y-76521403D01*
X187050330Y-76421535D01*
X187243901Y-76285995D01*
X187410995Y-76118901D01*
X187540925Y-75933342D01*
X187595502Y-75889717D01*
X187665000Y-75882523D01*
X187727355Y-75914046D01*
X187744075Y-75933342D01*
X187874000Y-76118895D01*
X187874005Y-76118901D01*
X188041099Y-76285995D01*
X188137884Y-76353765D01*
X188234665Y-76421532D01*
X188234667Y-76421533D01*
X188234670Y-76421535D01*
X188448837Y-76521403D01*
X188448843Y-76521404D01*
X188448844Y-76521405D01*
X188451744Y-76522182D01*
X188677092Y-76582563D01*
X188853534Y-76598000D01*
X188912499Y-76603159D01*
X188912500Y-76603159D01*
X188912501Y-76603159D01*
X188971466Y-76598000D01*
X189147908Y-76582563D01*
X189376163Y-76521403D01*
X189590330Y-76421535D01*
X189783901Y-76285995D01*
X189950995Y-76118901D01*
X190080925Y-75933342D01*
X190135502Y-75889717D01*
X190205000Y-75882523D01*
X190267355Y-75914046D01*
X190284075Y-75933342D01*
X190414000Y-76118895D01*
X190414005Y-76118901D01*
X190581099Y-76285995D01*
X190677884Y-76353765D01*
X190774665Y-76421532D01*
X190774667Y-76421533D01*
X190774670Y-76421535D01*
X190988837Y-76521403D01*
X190988843Y-76521404D01*
X190988844Y-76521405D01*
X190991744Y-76522182D01*
X191217092Y-76582563D01*
X191393534Y-76598000D01*
X191452499Y-76603159D01*
X191452500Y-76603159D01*
X191452501Y-76603159D01*
X191511466Y-76598000D01*
X191687908Y-76582563D01*
X191916163Y-76521403D01*
X192130330Y-76421535D01*
X192323901Y-76285995D01*
X192490995Y-76118901D01*
X192626535Y-75925330D01*
X192726403Y-75711163D01*
X192787563Y-75482908D01*
X192808159Y-75247500D01*
X192787563Y-75012092D01*
X192770109Y-74946952D01*
X192771772Y-74877106D01*
X192810934Y-74819244D01*
X192875162Y-74791739D01*
X192944064Y-74803325D01*
X192958771Y-74811757D01*
X193051874Y-74873966D01*
X193121221Y-74902689D01*
X193170256Y-74923001D01*
X193170259Y-74923001D01*
X193170260Y-74923002D01*
X193295928Y-74948000D01*
X193295931Y-74948000D01*
X194149504Y-74948000D01*
X194216543Y-74967685D01*
X194262298Y-75020489D01*
X194272242Y-75089647D01*
X194243217Y-75153203D01*
X194194298Y-75187626D01*
X194134873Y-75210647D01*
X194134857Y-75210655D01*
X193961460Y-75318017D01*
X193961458Y-75318019D01*
X193810737Y-75455418D01*
X193687827Y-75618178D01*
X193596922Y-75800739D01*
X193596917Y-75800752D01*
X193541102Y-75996917D01*
X193522285Y-76199999D01*
X193522285Y-76200000D01*
X193541102Y-76403082D01*
X193596917Y-76599247D01*
X193596922Y-76599260D01*
X193687827Y-76781821D01*
X193810737Y-76944581D01*
X193961458Y-77081980D01*
X193961460Y-77081982D01*
X194060641Y-77143392D01*
X194134863Y-77189348D01*
X194325044Y-77263024D01*
X194525524Y-77300500D01*
X194525526Y-77300500D01*
X194729474Y-77300500D01*
X194729476Y-77300500D01*
X194929956Y-77263024D01*
X195120137Y-77189348D01*
X195293541Y-77081981D01*
X195444264Y-76944579D01*
X195453912Y-76931802D01*
X195510016Y-76890166D01*
X195579728Y-76885471D01*
X195615987Y-76899794D01*
X195699602Y-76949244D01*
X195741224Y-76961336D01*
X195857426Y-76995097D01*
X195857429Y-76995097D01*
X195857431Y-76995098D01*
X195894306Y-76998000D01*
X195894314Y-76998000D01*
X197200686Y-76998000D01*
X197200694Y-76998000D01*
X197237569Y-76995098D01*
X197237571Y-76995097D01*
X197237573Y-76995097D01*
X197279191Y-76983005D01*
X197395398Y-76949244D01*
X197536865Y-76865581D01*
X197653081Y-76749365D01*
X197736744Y-76607898D01*
X197781153Y-76455044D01*
X197782597Y-76450073D01*
X197782598Y-76450067D01*
X197784782Y-76422312D01*
X197785500Y-76413194D01*
X197785500Y-76172000D01*
X197805185Y-76104961D01*
X197857989Y-76059206D01*
X197909500Y-76048000D01*
X199075686Y-76048000D01*
X199075694Y-76048000D01*
X199112569Y-76045098D01*
X199112571Y-76045097D01*
X199112573Y-76045097D01*
X199154191Y-76033005D01*
X199270398Y-75999244D01*
X199394060Y-75926111D01*
X199412395Y-75915268D01*
X199475516Y-75898000D01*
X200036735Y-75898000D01*
X200103774Y-75917685D01*
X200138310Y-75950877D01*
X200256501Y-76119672D01*
X200256506Y-76119678D01*
X200423600Y-76286772D01*
X200499026Y-76339586D01*
X200617166Y-76422309D01*
X200617168Y-76422310D01*
X200617171Y-76422312D01*
X200831338Y-76522180D01*
X201059593Y-76583340D01*
X201227154Y-76598000D01*
X201295000Y-76603936D01*
X201295001Y-76603936D01*
X201295002Y-76603936D01*
X201334235Y-76600503D01*
X201530409Y-76583340D01*
X201758664Y-76522180D01*
X201972831Y-76422312D01*
X202166402Y-76286772D01*
X202333496Y-76119678D01*
X202469036Y-75926107D01*
X202568904Y-75711940D01*
X202630064Y-75483685D01*
X202650660Y-75248277D01*
X202630064Y-75012869D01*
X202568904Y-74784614D01*
X202469036Y-74570448D01*
X202468667Y-74569920D01*
X202333495Y-74376874D01*
X202166403Y-74209783D01*
X202166397Y-74209778D01*
X201980843Y-74079852D01*
X201937218Y-74025275D01*
X201930024Y-73955777D01*
X201961547Y-73893422D01*
X201980843Y-73876702D01*
X202117676Y-73780890D01*
X202166402Y-73746772D01*
X202333496Y-73579678D01*
X202469036Y-73386107D01*
X202568904Y-73171940D01*
X202630064Y-72943685D01*
X202650660Y-72708277D01*
X202630064Y-72472869D01*
X202568904Y-72244614D01*
X202469036Y-72030448D01*
X202449104Y-72001981D01*
X202333495Y-71836874D01*
X202166403Y-71669783D01*
X202166397Y-71669778D01*
X201980843Y-71539852D01*
X201937218Y-71485275D01*
X201930024Y-71415777D01*
X201961547Y-71353422D01*
X201980843Y-71336702D01*
X202097331Y-71255136D01*
X202166402Y-71206772D01*
X202333496Y-71039678D01*
X202469036Y-70846107D01*
X202568904Y-70631940D01*
X202630064Y-70403685D01*
X202650660Y-70168277D01*
X202630064Y-69932869D01*
X202568904Y-69704614D01*
X202469036Y-69490448D01*
X202450604Y-69464123D01*
X202333495Y-69296874D01*
X202166403Y-69129783D01*
X202166397Y-69129778D01*
X201980843Y-68999852D01*
X201937218Y-68945275D01*
X201930024Y-68875777D01*
X201961547Y-68813422D01*
X201980843Y-68796702D01*
X202003027Y-68781168D01*
X202166402Y-68666772D01*
X202333496Y-68499678D01*
X202469036Y-68306107D01*
X202568904Y-68091940D01*
X202630064Y-67863685D01*
X202650660Y-67628277D01*
X202630064Y-67392869D01*
X202568904Y-67164614D01*
X202469036Y-66950448D01*
X202390300Y-66838000D01*
X202333495Y-66756874D01*
X202166403Y-66589783D01*
X202166397Y-66589778D01*
X201980843Y-66459852D01*
X201937218Y-66405275D01*
X201930024Y-66335777D01*
X201961547Y-66273422D01*
X201980843Y-66256702D01*
X202096634Y-66175624D01*
X202166402Y-66126772D01*
X202333496Y-65959678D01*
X202469036Y-65766107D01*
X202568904Y-65551940D01*
X202630064Y-65323685D01*
X202650660Y-65088277D01*
X202630064Y-64852869D01*
X202568904Y-64624614D01*
X202469036Y-64410448D01*
X202450604Y-64384123D01*
X202333495Y-64216874D01*
X202166403Y-64049783D01*
X202166397Y-64049778D01*
X201980843Y-63919852D01*
X201937218Y-63865275D01*
X201930024Y-63795777D01*
X201961547Y-63733422D01*
X201980843Y-63716702D01*
X202101487Y-63632226D01*
X202166402Y-63586772D01*
X202333496Y-63419678D01*
X202469036Y-63226107D01*
X202568904Y-63011940D01*
X202630064Y-62783685D01*
X202650660Y-62548277D01*
X202630064Y-62312869D01*
X202568904Y-62084614D01*
X202469036Y-61870448D01*
X202449103Y-61841981D01*
X202333497Y-61676877D01*
X202279284Y-61622664D01*
X202211568Y-61554948D01*
X202178085Y-61493628D01*
X202183069Y-61423936D01*
X202224940Y-61368002D01*
X202255916Y-61351087D01*
X202387332Y-61302073D01*
X202502547Y-61215823D01*
X202588797Y-61100608D01*
X202639092Y-60965760D01*
X202645501Y-60906150D01*
X202645500Y-59110405D01*
X202639092Y-59050794D01*
X202588797Y-58915946D01*
X202588796Y-58915945D01*
X202588794Y-58915941D01*
X202502548Y-58800732D01*
X202502545Y-58800729D01*
X202387336Y-58714483D01*
X202387329Y-58714479D01*
X202255351Y-58665255D01*
X202199417Y-58623384D01*
X202175000Y-58557920D01*
X202189851Y-58489647D01*
X202210997Y-58461398D01*
X202333495Y-58338901D01*
X202469035Y-58145330D01*
X202568903Y-57931163D01*
X202630063Y-57702908D01*
X202650659Y-57467500D01*
X202630063Y-57232092D01*
X202568903Y-57003837D01*
X202469035Y-56789671D01*
X202356825Y-56629417D01*
X202333494Y-56596097D01*
X202166402Y-56429006D01*
X202166401Y-56429005D01*
X201980405Y-56298769D01*
X201936781Y-56244192D01*
X201929588Y-56174693D01*
X201961110Y-56112339D01*
X201980405Y-56095619D01*
X202166082Y-55965605D01*
X202333105Y-55798582D01*
X202468600Y-55605078D01*
X202568429Y-55390992D01*
X202568432Y-55390986D01*
X202625636Y-55177500D01*
X201728012Y-55177500D01*
X201760925Y-55120493D01*
X201795000Y-54993326D01*
X201795000Y-54861674D01*
X201760925Y-54734507D01*
X201728012Y-54677500D01*
X202625636Y-54677500D01*
X202625635Y-54677499D01*
X202568432Y-54464013D01*
X202568429Y-54464007D01*
X202468600Y-54249922D01*
X202468599Y-54249920D01*
X202333113Y-54056426D01*
X202333108Y-54056420D01*
X202166078Y-53889390D01*
X201980405Y-53759379D01*
X201936780Y-53704802D01*
X201929588Y-53635304D01*
X201961110Y-53572949D01*
X201980406Y-53556230D01*
X202046388Y-53510029D01*
X202166401Y-53425995D01*
X202333495Y-53258901D01*
X202469035Y-53065330D01*
X202568903Y-52851163D01*
X202630063Y-52622908D01*
X202650659Y-52387500D01*
X202630063Y-52152092D01*
X202568903Y-51923837D01*
X202469035Y-51709671D01*
X202418151Y-51637000D01*
X202333494Y-51516097D01*
X202166402Y-51349006D01*
X202166396Y-51349001D01*
X201980842Y-51219075D01*
X201937217Y-51164498D01*
X201930023Y-51095000D01*
X201961546Y-51032645D01*
X201980842Y-51015925D01*
X202003026Y-51000391D01*
X202166401Y-50885995D01*
X202333495Y-50718901D01*
X202469035Y-50525330D01*
X202568903Y-50311163D01*
X202630063Y-50082908D01*
X202650659Y-49847500D01*
X202630063Y-49612092D01*
X202568903Y-49383837D01*
X202469035Y-49169671D01*
X202451147Y-49144123D01*
X202333494Y-48976097D01*
X202166402Y-48809006D01*
X202166396Y-48809001D01*
X201980842Y-48679075D01*
X201937217Y-48624498D01*
X201930023Y-48555000D01*
X201961546Y-48492645D01*
X201980842Y-48475925D01*
X202003026Y-48460391D01*
X202166401Y-48345995D01*
X202333495Y-48178901D01*
X202469035Y-47985330D01*
X202568903Y-47771163D01*
X202630063Y-47542908D01*
X202650659Y-47307500D01*
X202630063Y-47072092D01*
X202583626Y-46898785D01*
X202568905Y-46843844D01*
X202568904Y-46843843D01*
X202568903Y-46843837D01*
X202469035Y-46629671D01*
X202451147Y-46604123D01*
X202333494Y-46436097D01*
X202166402Y-46269006D01*
X202166396Y-46269001D01*
X201980842Y-46139075D01*
X201937217Y-46084498D01*
X201930023Y-46015000D01*
X201961546Y-45952645D01*
X201980842Y-45935925D01*
X202003026Y-45920391D01*
X202166401Y-45805995D01*
X202333495Y-45638901D01*
X202469035Y-45445330D01*
X202568903Y-45231163D01*
X202630063Y-45002908D01*
X202650659Y-44767500D01*
X202630063Y-44532092D01*
X202568903Y-44303837D01*
X202469035Y-44089671D01*
X202451760Y-44065000D01*
X202333496Y-43896100D01*
X202276189Y-43838793D01*
X202211567Y-43774171D01*
X202178084Y-43712851D01*
X202183068Y-43643159D01*
X202224939Y-43587225D01*
X202255915Y-43570310D01*
X202387331Y-43521296D01*
X202502546Y-43435046D01*
X202588796Y-43319831D01*
X202639091Y-43184983D01*
X202645500Y-43125373D01*
X202645499Y-41329628D01*
X202639091Y-41270017D01*
X202632074Y-41251204D01*
X202588797Y-41135171D01*
X202588793Y-41135164D01*
X202502547Y-41019955D01*
X202502544Y-41019952D01*
X202387335Y-40933706D01*
X202387328Y-40933702D01*
X202252482Y-40883408D01*
X202252483Y-40883408D01*
X202192883Y-40877001D01*
X202192881Y-40877000D01*
X202192873Y-40877000D01*
X202192864Y-40877000D01*
X200397129Y-40877000D01*
X200397123Y-40877001D01*
X200337516Y-40883408D01*
X200202671Y-40933702D01*
X200202664Y-40933706D01*
X200087455Y-41019952D01*
X200087452Y-41019955D01*
X200001206Y-41135164D01*
X200001202Y-41135171D01*
X199950908Y-41270017D01*
X199944501Y-41329616D01*
X199944501Y-41329623D01*
X199944500Y-41329635D01*
X199944500Y-42606691D01*
X199924815Y-42673730D01*
X199908181Y-42694372D01*
X197749142Y-44853411D01*
X197687819Y-44886896D01*
X197618127Y-44881912D01*
X197562194Y-44840040D01*
X197537777Y-44774576D01*
X197543755Y-44726727D01*
X197554999Y-44692797D01*
X197565500Y-44590009D01*
X197565499Y-43039992D01*
X197563851Y-43023863D01*
X197554999Y-42937203D01*
X197554998Y-42937200D01*
X197530245Y-42862500D01*
X197499814Y-42770666D01*
X197407712Y-42621344D01*
X197283656Y-42497288D01*
X197134334Y-42405186D01*
X196967797Y-42350001D01*
X196967795Y-42350000D01*
X196865010Y-42339500D01*
X195564998Y-42339500D01*
X195564981Y-42339501D01*
X195462203Y-42350000D01*
X195462200Y-42350001D01*
X195295668Y-42405185D01*
X195295663Y-42405187D01*
X195146342Y-42497289D01*
X195022289Y-42621342D01*
X194926551Y-42776559D01*
X194874603Y-42823283D01*
X194805640Y-42834506D01*
X194741558Y-42806662D01*
X194733331Y-42799143D01*
X194594464Y-42660276D01*
X194594459Y-42660272D01*
X194422557Y-42535379D01*
X194233215Y-42438903D01*
X194031124Y-42373241D01*
X193965000Y-42362768D01*
X193965000Y-43410854D01*
X193898343Y-43372370D01*
X193777535Y-43340000D01*
X193652465Y-43340000D01*
X193531657Y-43372370D01*
X193465000Y-43410854D01*
X193465000Y-42362768D01*
X193464999Y-42362768D01*
X193398875Y-42373241D01*
X193196784Y-42438903D01*
X193007442Y-42535379D01*
X192835540Y-42660272D01*
X192835535Y-42660276D01*
X192685276Y-42810535D01*
X192685272Y-42810540D01*
X192565627Y-42975218D01*
X192510297Y-43017884D01*
X192440684Y-43023863D01*
X192378889Y-42991257D01*
X192364991Y-42975218D01*
X192245109Y-42810214D01*
X192245105Y-42810209D01*
X192094786Y-42659890D01*
X191922820Y-42534951D01*
X191733414Y-42438444D01*
X191733413Y-42438443D01*
X191733412Y-42438443D01*
X191531243Y-42372754D01*
X191531241Y-42372753D01*
X191531240Y-42372753D01*
X191369957Y-42347208D01*
X191321287Y-42339500D01*
X191108713Y-42339500D01*
X191060042Y-42347208D01*
X190898760Y-42372753D01*
X190696585Y-42438444D01*
X190507179Y-42534951D01*
X190335213Y-42659890D01*
X190184894Y-42810209D01*
X190184890Y-42810214D01*
X190065318Y-42974793D01*
X190009989Y-43017459D01*
X189940375Y-43023438D01*
X189878580Y-42990833D01*
X189864682Y-42974793D01*
X189745109Y-42810214D01*
X189745105Y-42810209D01*
X189594786Y-42659890D01*
X189422820Y-42534951D01*
X189233414Y-42438444D01*
X189233413Y-42438443D01*
X189233412Y-42438443D01*
X189031243Y-42372754D01*
X189031241Y-42372753D01*
X189031240Y-42372753D01*
X188869957Y-42347208D01*
X188821287Y-42339500D01*
X188608713Y-42339500D01*
X188560042Y-42347208D01*
X188398760Y-42372753D01*
X188196585Y-42438444D01*
X188007179Y-42534951D01*
X187835213Y-42659890D01*
X187684890Y-42810213D01*
X187559951Y-42982180D01*
X187477349Y-43144295D01*
X187429374Y-43195091D01*
X187366864Y-43212000D01*
X185683138Y-43212000D01*
X185616099Y-43192315D01*
X185577599Y-43153097D01*
X185560499Y-43125373D01*
X185510212Y-43043844D01*
X185416549Y-42950181D01*
X185383064Y-42888858D01*
X185388048Y-42819166D01*
X185416549Y-42774819D01*
X185453375Y-42737993D01*
X185510212Y-42681156D01*
X185602314Y-42531834D01*
X185657499Y-42365297D01*
X185668000Y-42262509D01*
X185667999Y-41462492D01*
X185657499Y-41359703D01*
X185602314Y-41193166D01*
X185510212Y-41043844D01*
X185386156Y-40919788D01*
X185236834Y-40827686D01*
X185070297Y-40772501D01*
X185070295Y-40772500D01*
X184967510Y-40762000D01*
X183967498Y-40762000D01*
X183967480Y-40762001D01*
X183864703Y-40772500D01*
X183864700Y-40772501D01*
X183698168Y-40827685D01*
X183698163Y-40827687D01*
X183548845Y-40919787D01*
X183443577Y-41025055D01*
X183382254Y-41058539D01*
X183312562Y-41053555D01*
X183268215Y-41025054D01*
X183163345Y-40920184D01*
X183014124Y-40828143D01*
X183014119Y-40828141D01*
X182847697Y-40772994D01*
X182847690Y-40772993D01*
X182744986Y-40762500D01*
X182495000Y-40762500D01*
X182495000Y-41988500D01*
X182475315Y-42055539D01*
X182422511Y-42101294D01*
X182371000Y-42112500D01*
X178822501Y-42112500D01*
X178812316Y-42122684D01*
X178802816Y-42155039D01*
X178750012Y-42200794D01*
X178698501Y-42212000D01*
X177100929Y-42212000D01*
X176975261Y-42236997D01*
X176975255Y-42236999D01*
X176856873Y-42286034D01*
X176856866Y-42286038D01*
X176814198Y-42314546D01*
X176814199Y-42314547D01*
X176750331Y-42357222D01*
X176750327Y-42357225D01*
X173569395Y-45538157D01*
X173508072Y-45571642D01*
X173462702Y-45572310D01*
X173462682Y-45572529D01*
X173460650Y-45572340D01*
X173458939Y-45572366D01*
X173456986Y-45572001D01*
X173456977Y-45572000D01*
X173456976Y-45572000D01*
X173253024Y-45572000D01*
X173052544Y-45609476D01*
X173052541Y-45609476D01*
X173052541Y-45609477D01*
X172862364Y-45683151D01*
X172862357Y-45683155D01*
X172688960Y-45790517D01*
X172688958Y-45790519D01*
X172538237Y-45927918D01*
X172415327Y-46090678D01*
X172324422Y-46273239D01*
X172324417Y-46273252D01*
X172268602Y-46469417D01*
X172249785Y-46672499D01*
X172249785Y-46672500D01*
X172268602Y-46875582D01*
X172324417Y-47071747D01*
X172324422Y-47071760D01*
X172415328Y-47254324D01*
X172457957Y-47310774D01*
X172482649Y-47376135D01*
X172468084Y-47444470D01*
X172418886Y-47494082D01*
X172359003Y-47509500D01*
X168319729Y-47509500D01*
X168252690Y-47489815D01*
X168232048Y-47473181D01*
X164857452Y-44098584D01*
X164823967Y-44037261D01*
X164828951Y-43967569D01*
X164870823Y-43911636D01*
X164934323Y-43887375D01*
X165017908Y-43880063D01*
X165246163Y-43818903D01*
X165460330Y-43719035D01*
X165653901Y-43583495D01*
X165820995Y-43416401D01*
X165951230Y-43230405D01*
X166005807Y-43186781D01*
X166075305Y-43179587D01*
X166137660Y-43211110D01*
X166154379Y-43230405D01*
X166284390Y-43416078D01*
X166451417Y-43583105D01*
X166644921Y-43718600D01*
X166859007Y-43818429D01*
X166859016Y-43818433D01*
X167072500Y-43875634D01*
X167072500Y-42978012D01*
X167129507Y-43010925D01*
X167256674Y-43045000D01*
X167388326Y-43045000D01*
X167515493Y-43010925D01*
X167572500Y-42978012D01*
X167572500Y-43875633D01*
X167785983Y-43818433D01*
X167785992Y-43818429D01*
X168000078Y-43718600D01*
X168193582Y-43583105D01*
X168360605Y-43416082D01*
X168496100Y-43222578D01*
X168595929Y-43008492D01*
X168595932Y-43008486D01*
X168653136Y-42795000D01*
X167755512Y-42795000D01*
X167788425Y-42737993D01*
X167822500Y-42610826D01*
X167822500Y-42479174D01*
X167788425Y-42352007D01*
X167755512Y-42295000D01*
X168653136Y-42295000D01*
X168653135Y-42294999D01*
X168595932Y-42081513D01*
X168595929Y-42081507D01*
X168496100Y-41867422D01*
X168496099Y-41867420D01*
X168360613Y-41673926D01*
X168360608Y-41673920D01*
X168193582Y-41506894D01*
X168130200Y-41462513D01*
X178822500Y-41462513D01*
X178822500Y-41612500D01*
X179772500Y-41612500D01*
X180272500Y-41612500D01*
X181995000Y-41612500D01*
X181995000Y-40762500D01*
X181745029Y-40762500D01*
X181745012Y-40762501D01*
X181642302Y-40772994D01*
X181475880Y-40828141D01*
X181475875Y-40828143D01*
X181326654Y-40920184D01*
X181221431Y-41025408D01*
X181160108Y-41058893D01*
X181090416Y-41053909D01*
X181046069Y-41025408D01*
X180940845Y-40920184D01*
X180791624Y-40828143D01*
X180791619Y-40828141D01*
X180625197Y-40772994D01*
X180625190Y-40772993D01*
X180522486Y-40762500D01*
X180272500Y-40762500D01*
X180272500Y-41612500D01*
X179772500Y-41612500D01*
X179772500Y-40762500D01*
X179522529Y-40762500D01*
X179522512Y-40762501D01*
X179419802Y-40772994D01*
X179253380Y-40828141D01*
X179253375Y-40828143D01*
X179104154Y-40920184D01*
X178980184Y-41044154D01*
X178888143Y-41193375D01*
X178888141Y-41193380D01*
X178832994Y-41359802D01*
X178832993Y-41359809D01*
X178822500Y-41462513D01*
X168130200Y-41462513D01*
X168000078Y-41371399D01*
X167785992Y-41271570D01*
X167785986Y-41271567D01*
X167572500Y-41214364D01*
X167572500Y-42111988D01*
X167515493Y-42079075D01*
X167388326Y-42045000D01*
X167256674Y-42045000D01*
X167129507Y-42079075D01*
X167072500Y-42111988D01*
X167072500Y-41214364D01*
X167072499Y-41214364D01*
X166859013Y-41271567D01*
X166859007Y-41271570D01*
X166644922Y-41371399D01*
X166644920Y-41371400D01*
X166451426Y-41506886D01*
X166451420Y-41506891D01*
X166284391Y-41673920D01*
X166284390Y-41673922D01*
X166154380Y-41859595D01*
X166099803Y-41903219D01*
X166030304Y-41910412D01*
X165967950Y-41878890D01*
X165951230Y-41859594D01*
X165820994Y-41673597D01*
X165653902Y-41506506D01*
X165653895Y-41506501D01*
X165460334Y-41370967D01*
X165460330Y-41370965D01*
X165436172Y-41359700D01*
X165246163Y-41271097D01*
X165246159Y-41271096D01*
X165246155Y-41271094D01*
X165017913Y-41209938D01*
X165017903Y-41209936D01*
X164782501Y-41189341D01*
X164782499Y-41189341D01*
X164547096Y-41209936D01*
X164547086Y-41209938D01*
X164318844Y-41271094D01*
X164318835Y-41271098D01*
X164104671Y-41370964D01*
X164104669Y-41370965D01*
X163911097Y-41506505D01*
X163744005Y-41673597D01*
X163614075Y-41859158D01*
X163559498Y-41902783D01*
X163490000Y-41909977D01*
X163427645Y-41878454D01*
X163410925Y-41859158D01*
X163280994Y-41673597D01*
X163113902Y-41506506D01*
X163113895Y-41506501D01*
X162920334Y-41370967D01*
X162920330Y-41370965D01*
X162896172Y-41359700D01*
X162706163Y-41271097D01*
X162706159Y-41271096D01*
X162706155Y-41271094D01*
X162477913Y-41209938D01*
X162477903Y-41209936D01*
X162242501Y-41189341D01*
X162242499Y-41189341D01*
X162007096Y-41209936D01*
X162007086Y-41209938D01*
X161778844Y-41271094D01*
X161778835Y-41271098D01*
X161564671Y-41370964D01*
X161564669Y-41370965D01*
X161371097Y-41506505D01*
X161204005Y-41673597D01*
X161074075Y-41859158D01*
X161019498Y-41902783D01*
X160950000Y-41909977D01*
X160887645Y-41878454D01*
X160870925Y-41859158D01*
X160740994Y-41673597D01*
X160573902Y-41506506D01*
X160573895Y-41506501D01*
X160380334Y-41370967D01*
X160380330Y-41370965D01*
X160356172Y-41359700D01*
X160166163Y-41271097D01*
X160166159Y-41271096D01*
X160166155Y-41271094D01*
X159937913Y-41209938D01*
X159937903Y-41209936D01*
X159702501Y-41189341D01*
X159702499Y-41189341D01*
X159467096Y-41209936D01*
X159467086Y-41209938D01*
X159238844Y-41271094D01*
X159238835Y-41271098D01*
X159024671Y-41370964D01*
X159024669Y-41370965D01*
X158831097Y-41506505D01*
X158664005Y-41673597D01*
X158534075Y-41859158D01*
X158479498Y-41902783D01*
X158410000Y-41909977D01*
X158347645Y-41878454D01*
X158330925Y-41859158D01*
X158200994Y-41673597D01*
X158033902Y-41506506D01*
X158033895Y-41506501D01*
X157840334Y-41370967D01*
X157840330Y-41370965D01*
X157816172Y-41359700D01*
X157626163Y-41271097D01*
X157626159Y-41271096D01*
X157626155Y-41271094D01*
X157397913Y-41209938D01*
X157397903Y-41209936D01*
X157162501Y-41189341D01*
X157162499Y-41189341D01*
X156927096Y-41209936D01*
X156927086Y-41209938D01*
X156698844Y-41271094D01*
X156698835Y-41271098D01*
X156484671Y-41370964D01*
X156484669Y-41370965D01*
X156291100Y-41506503D01*
X156169173Y-41628430D01*
X156107850Y-41661914D01*
X156038158Y-41656930D01*
X155982225Y-41615058D01*
X155965310Y-41584081D01*
X155916297Y-41452671D01*
X155916293Y-41452664D01*
X155830047Y-41337455D01*
X155830044Y-41337452D01*
X155714835Y-41251206D01*
X155714828Y-41251202D01*
X155579982Y-41200908D01*
X155579983Y-41200908D01*
X155520383Y-41194501D01*
X155520381Y-41194500D01*
X155520373Y-41194500D01*
X155520364Y-41194500D01*
X153724629Y-41194500D01*
X153724623Y-41194501D01*
X153665016Y-41200908D01*
X153530171Y-41251202D01*
X153530164Y-41251206D01*
X153414955Y-41337452D01*
X153414952Y-41337455D01*
X153328706Y-41452664D01*
X153328702Y-41452671D01*
X153278408Y-41587517D01*
X153272001Y-41647116D01*
X153272000Y-41647135D01*
X152265500Y-41647135D01*
X152265500Y-39677000D01*
X152285185Y-39609961D01*
X152337989Y-39564206D01*
X152389500Y-39553000D01*
X207675500Y-39553000D01*
X207742539Y-39572685D01*
G37*
%TD.AperFunction*%
%TD*%
M02*
