%TF.GenerationSoftware,KiCad,Pcbnew,8.0.5*%
%TF.CreationDate,2024-10-06T21:19:30+02:00*%
%TF.ProjectId,UCB32,55434233-322e-46b6-9963-61645f706362,rev?*%
%TF.SameCoordinates,Original*%
%TF.FileFunction,Soldermask,Top*%
%TF.FilePolarity,Negative*%
%FSLAX46Y46*%
G04 Gerber Fmt 4.6, Leading zero omitted, Abs format (unit mm)*
G04 Created by KiCad (PCBNEW 8.0.5) date 2024-10-06 21:19:30*
%MOMM*%
%LPD*%
G01*
G04 APERTURE LIST*
G04 Aperture macros list*
%AMRoundRect*
0 Rectangle with rounded corners*
0 $1 Rounding radius*
0 $2 $3 $4 $5 $6 $7 $8 $9 X,Y pos of 4 corners*
0 Add a 4 corners polygon primitive as box body*
4,1,4,$2,$3,$4,$5,$6,$7,$8,$9,$2,$3,0*
0 Add four circle primitives for the rounded corners*
1,1,$1+$1,$2,$3*
1,1,$1+$1,$4,$5*
1,1,$1+$1,$6,$7*
1,1,$1+$1,$8,$9*
0 Add four rect primitives between the rounded corners*
20,1,$1+$1,$2,$3,$4,$5,0*
20,1,$1+$1,$4,$5,$6,$7,0*
20,1,$1+$1,$6,$7,$8,$9,0*
20,1,$1+$1,$8,$9,$2,$3,0*%
%AMFreePoly0*
4,1,9,3.862500,-0.866500,0.737500,-0.866500,0.737500,-0.450000,-0.737500,-0.450000,-0.737500,0.450000,0.737500,0.450000,0.737500,0.866500,3.862500,0.866500,3.862500,-0.866500,3.862500,-0.866500,$1*%
%AMFreePoly1*
4,1,6,1.000000,0.000000,0.500000,-0.750000,-0.500000,-0.750000,-0.500000,0.750000,0.500000,0.750000,1.000000,0.000000,1.000000,0.000000,$1*%
%AMFreePoly2*
4,1,6,0.500000,-0.750000,-0.650000,-0.750000,-0.150000,0.000000,-0.650000,0.750000,0.500000,0.750000,0.500000,-0.750000,0.500000,-0.750000,$1*%
G04 Aperture macros list end*
%ADD10RoundRect,0.250000X0.350000X0.450000X-0.350000X0.450000X-0.350000X-0.450000X0.350000X-0.450000X0*%
%ADD11RoundRect,0.250000X0.600000X0.725000X-0.600000X0.725000X-0.600000X-0.725000X0.600000X-0.725000X0*%
%ADD12O,1.700000X1.950000*%
%ADD13RoundRect,0.250000X0.337500X0.475000X-0.337500X0.475000X-0.337500X-0.475000X0.337500X-0.475000X0*%
%ADD14R,1.700000X1.700000*%
%ADD15O,1.700000X1.700000*%
%ADD16R,1.500000X1.500000*%
%ADD17RoundRect,0.250000X-1.000000X-0.650000X1.000000X-0.650000X1.000000X0.650000X-1.000000X0.650000X0*%
%ADD18R,0.900000X1.500000*%
%ADD19R,1.500000X0.900000*%
%ADD20C,0.800000*%
%ADD21R,4.200000X4.200000*%
%ADD22RoundRect,0.225000X0.425000X0.225000X-0.425000X0.225000X-0.425000X-0.225000X0.425000X-0.225000X0*%
%ADD23FreePoly0,180.000000*%
%ADD24RoundRect,0.150000X-0.587500X-0.150000X0.587500X-0.150000X0.587500X0.150000X-0.587500X0.150000X0*%
%ADD25RoundRect,0.250000X-0.350000X-0.450000X0.350000X-0.450000X0.350000X0.450000X-0.350000X0.450000X0*%
%ADD26RoundRect,0.250000X-0.337500X-0.475000X0.337500X-0.475000X0.337500X0.475000X-0.337500X0.475000X0*%
%ADD27RoundRect,0.250000X0.450000X-0.350000X0.450000X0.350000X-0.450000X0.350000X-0.450000X-0.350000X0*%
%ADD28RoundRect,0.250000X-0.450000X0.350000X-0.450000X-0.350000X0.450000X-0.350000X0.450000X0.350000X0*%
%ADD29RoundRect,0.250000X-0.400000X-0.600000X0.400000X-0.600000X0.400000X0.600000X-0.400000X0.600000X0*%
%ADD30FreePoly1,90.000000*%
%ADD31FreePoly2,90.000000*%
%ADD32RoundRect,0.150000X0.587500X0.150000X-0.587500X0.150000X-0.587500X-0.150000X0.587500X-0.150000X0*%
%ADD33R,2.000000X2.000000*%
%ADD34C,2.000000*%
%ADD35RoundRect,0.250000X0.475000X-0.337500X0.475000X0.337500X-0.475000X0.337500X-0.475000X-0.337500X0*%
%ADD36RoundRect,0.250000X0.450000X-0.325000X0.450000X0.325000X-0.450000X0.325000X-0.450000X-0.325000X0*%
G04 APERTURE END LIST*
D10*
%TO.C,R3*%
X205787500Y-65087500D03*
X203787500Y-65087500D03*
%TD*%
%TO.C,R4*%
X205787500Y-67627500D03*
X203787500Y-67627500D03*
%TD*%
D11*
%TO.C,X4*%
X196215000Y-43815000D03*
D12*
X193715000Y-43815000D03*
X191215000Y-43815000D03*
X188715000Y-43815000D03*
%TD*%
D10*
%TO.C,R6*%
X205787500Y-72707500D03*
X203787500Y-72707500D03*
%TD*%
D13*
%TO.C,C2*%
X191537500Y-55245000D03*
X189462500Y-55245000D03*
%TD*%
D14*
%TO.C,X7*%
X154622500Y-42545000D03*
D15*
X157162500Y-42545000D03*
X159702500Y-42545000D03*
X162242500Y-42545000D03*
X164782500Y-42545000D03*
X167322500Y-42545000D03*
%TD*%
D16*
%TO.C,SW1*%
X176847500Y-49620000D03*
X176847500Y-41820000D03*
%TD*%
D17*
%TO.C,D1*%
X193262500Y-52387500D03*
X197262500Y-52387500D03*
%TD*%
D10*
%TO.C,R20*%
X181657500Y-72072500D03*
X179657500Y-72072500D03*
%TD*%
D18*
%TO.C,U2*%
X153377500Y-67570000D03*
X154647500Y-67570000D03*
X155917500Y-67570000D03*
X157187500Y-67570000D03*
X158457500Y-67570000D03*
X159727500Y-67570000D03*
X160997500Y-67570000D03*
X162267500Y-67570000D03*
X163537500Y-67570000D03*
X164807500Y-67570000D03*
X166077500Y-67570000D03*
X167347500Y-67570000D03*
X168617500Y-67570000D03*
X169887500Y-67570000D03*
D19*
X171137500Y-64530000D03*
X171137500Y-63260000D03*
X171137500Y-61990000D03*
X171137500Y-60720000D03*
X171137500Y-59450000D03*
X171137500Y-58180000D03*
X171137500Y-56910000D03*
X171137500Y-55640000D03*
X171137500Y-54370000D03*
X171137500Y-53100000D03*
D18*
X169887500Y-50070000D03*
X168617500Y-50070000D03*
X167347500Y-50070000D03*
X166077500Y-50070000D03*
X164807500Y-50070000D03*
X163537500Y-50070000D03*
X162267500Y-50070000D03*
X160997500Y-50070000D03*
X159727500Y-50070000D03*
X158457500Y-50070000D03*
X157187500Y-50070000D03*
X155917500Y-50070000D03*
X154647500Y-50070000D03*
X153377500Y-50070000D03*
D20*
X159955000Y-61025000D03*
X161480000Y-61025000D03*
X159192500Y-60262500D03*
X160717500Y-60262500D03*
X162242500Y-60262500D03*
X159955000Y-59500000D03*
D21*
X160717500Y-59500000D03*
D20*
X161480000Y-59500000D03*
X159192500Y-58737500D03*
X160717500Y-58737500D03*
X162242500Y-58737500D03*
X159955000Y-57975000D03*
X161480000Y-57975000D03*
%TD*%
D10*
%TO.C,R1*%
X205787500Y-60007500D03*
X203787500Y-60007500D03*
%TD*%
D22*
%TO.C,U1*%
X190227500Y-52935000D03*
D23*
X190140000Y-51435000D03*
D22*
X190227500Y-49935000D03*
%TD*%
D10*
%TO.C,R13*%
X198167500Y-49530000D03*
X196167500Y-49530000D03*
%TD*%
D24*
%TO.C,Q6*%
X196532500Y-71760000D03*
X196532500Y-73660000D03*
X198407500Y-72710000D03*
%TD*%
D25*
%TO.C,R21*%
X173942500Y-51752500D03*
X175942500Y-51752500D03*
%TD*%
D10*
%TO.C,R2*%
X205787500Y-62547500D03*
X203787500Y-62547500D03*
%TD*%
%TO.C,R7*%
X205787500Y-75247500D03*
X203787500Y-75247500D03*
%TD*%
%TO.C,R5*%
X205787500Y-70167500D03*
X203787500Y-70167500D03*
%TD*%
D16*
%TO.C,SW2*%
X176847500Y-68987500D03*
X176847500Y-61187500D03*
%TD*%
D26*
%TO.C,C3*%
X192320000Y-49530000D03*
X194395000Y-49530000D03*
%TD*%
%TO.C,C1*%
X193590000Y-55245000D03*
X195665000Y-55245000D03*
%TD*%
D27*
%TO.C,R16*%
X173672500Y-43862500D03*
X173672500Y-41862500D03*
%TD*%
D28*
%TO.C,R14*%
X171450000Y-41862500D03*
X171450000Y-43862500D03*
%TD*%
D25*
%TO.C,R15*%
X171402500Y-72072500D03*
X173402500Y-72072500D03*
%TD*%
D14*
%TO.C,X5*%
X183832500Y-75247500D03*
D15*
X186372500Y-75247500D03*
X188912500Y-75247500D03*
X191452500Y-75247500D03*
%TD*%
D28*
%TO.C,R18*%
X188912500Y-70437500D03*
X188912500Y-72437500D03*
%TD*%
%TO.C,R19*%
X191452500Y-70437500D03*
X191452500Y-72437500D03*
%TD*%
D14*
%TO.C,X1*%
X167322500Y-75247500D03*
D15*
X169862500Y-75247500D03*
%TD*%
D29*
%TO.C,D3*%
X182717500Y-55245000D03*
X186217500Y-55245000D03*
%TD*%
D30*
%TO.C,JP1*%
X186372500Y-71845000D03*
D31*
X186372500Y-70395000D03*
%TD*%
D10*
%TO.C,R12*%
X169275000Y-72072500D03*
X167275000Y-72072500D03*
%TD*%
D32*
%TO.C,Q9*%
X184452500Y-45717500D03*
X184452500Y-43817500D03*
X182577500Y-44767500D03*
%TD*%
D24*
%TO.C,Q4*%
X196547500Y-66677500D03*
X196547500Y-68577500D03*
X198422500Y-67627500D03*
%TD*%
D27*
%TO.C,R17*%
X173355000Y-69897500D03*
X173355000Y-67897500D03*
%TD*%
D33*
%TO.C,LS1*%
X191452500Y-62865000D03*
D34*
X186452500Y-62865000D03*
%TD*%
D14*
%TO.C,X6*%
X179387500Y-75247500D03*
D15*
X176847500Y-75247500D03*
X174307500Y-75247500D03*
%TD*%
D32*
%TO.C,Q8*%
X181912500Y-59052500D03*
X181912500Y-57152500D03*
X180037500Y-58102500D03*
%TD*%
D35*
%TO.C,C4*%
X197802500Y-57235000D03*
X197802500Y-55160000D03*
%TD*%
D24*
%TO.C,Q2*%
X196547500Y-61597500D03*
X196547500Y-63497500D03*
X198422500Y-62547500D03*
%TD*%
D36*
%TO.C,D2*%
X176847500Y-57222500D03*
X176847500Y-55172500D03*
%TD*%
D14*
%TO.C,X3*%
X201295000Y-42227500D03*
D15*
X201295000Y-44767500D03*
X201295000Y-47307500D03*
X201295000Y-49847500D03*
X201295000Y-52387500D03*
X201295000Y-54927500D03*
X201295000Y-57467500D03*
%TD*%
D14*
%TO.C,X2*%
X201295001Y-60008277D03*
D15*
X201295001Y-62548277D03*
X201295001Y-65088277D03*
X201295001Y-67628277D03*
X201295001Y-70168277D03*
X201295001Y-72708277D03*
X201295001Y-75248277D03*
%TD*%
M02*
