M48
; DRILL file {KiCad 8.0.5} date 2024-10-06T21:19:39+0200
; FORMAT={-:-/ absolute / inch / decimal}
; #@! TF.CreationDate,2024-10-06T21:19:39+02:00
; #@! TF.GenerationSoftware,Kicad,Pcbnew,8.0.5
; #@! TF.FileFunction,Plated,1,2,PTH
FMAT,2
INCH
; #@! TA.AperFunction,Plated,PTH,ComponentDrill
T1C0.0118
; #@! TA.AperFunction,Plated,PTH,ViaDrill
T2C0.0197
; #@! TA.AperFunction,Plated,PTH,ComponentDrill
T3C0.0374
; #@! TA.AperFunction,Plated,PTH,ComponentDrill
T4C0.0394
%
G90
G05
T1
X6.2674Y-2.3125
X6.2674Y-2.3725
X6.2974Y-2.2825
X6.2974Y-2.3425
X6.2974Y-2.4026
X6.3275Y-2.3125
X6.3275Y-2.3725
X6.3575Y-2.2825
X6.3575Y-2.3425
X6.3575Y-2.4026
X6.3875Y-2.3125
X6.3875Y-2.3725
T2
X6.0375Y-2.3125
X6.0375Y-2.8875
X6.0875Y-2.375
X6.0875Y-2.45
X6.0875Y-2.5375
X6.1125Y-1.8875
X6.163Y-2.762
X6.2375Y-2.15
X6.3375Y-2.15
X6.45Y-2.15
X6.4625Y-1.8875
X6.4625Y-2.7375
X6.5125Y-2.45
X6.5375Y-2.7375
X6.5875Y-2.2375
X6.5875Y-2.3125
X6.5875Y-2.5625
X6.6125Y-2.7375
X6.65Y-2.0875
X6.825Y-1.8375
X6.825Y-1.9625
X6.8375Y-2.2625
X6.8375Y-2.5625
X6.8875Y-1.8375
X6.8875Y-2.1125
X6.8875Y-2.8375
X6.9625Y-1.5875
X7.125Y-2.5625
X7.2Y-2.4
X7.2375Y-2.8875
X7.25Y-2.25
X7.2625Y-1.85
X7.4625Y-2.25
X7.4875Y-1.9
X7.6625Y-2.4
X7.6625Y-2.475
X7.6625Y-2.675
X7.6625Y-2.8
X7.6625Y-2.875
X7.6625Y-3.0
X7.6626Y-2.5999
X7.7033Y-2.2467
X7.725Y-1.85
X7.7875Y-2.0625
X7.8Y-1.85
T3
X7.4297Y-1.725
X7.5281Y-1.725
X7.6266Y-1.725
X7.725Y-1.725
T4
X6.0875Y-1.675
X6.1875Y-1.675
X6.2875Y-1.675
X6.3875Y-1.675
X6.4875Y-1.675
X6.5875Y-1.675
X6.5875Y-2.9625
X6.6875Y-2.9625
X6.8625Y-2.9625
X6.9625Y-2.9625
X7.0625Y-2.9625
X7.2375Y-2.9625
X7.3375Y-2.9625
X7.3406Y-2.475
X7.4375Y-2.9625
X7.5375Y-2.475
X7.5375Y-2.9625
X7.925Y-1.6625
X7.925Y-1.7625
X7.925Y-1.8625
X7.925Y-1.9625
X7.925Y-2.0625
X7.925Y-2.1625
X7.925Y-2.2625
X7.925Y-2.3625
X7.925Y-2.4625
X7.925Y-2.5625
X7.925Y-2.6625
X7.925Y-2.7625
X7.925Y-2.8625
X7.925Y-2.9625
M30
